<svg version="1.1" xmlns="http://www.w3.org/2000/svg" xmlns:xlink="http://www.w3.org/1999/xlink" x="0" y="0" viewBox="0 0 138.3 138.3" enable-background="new 0 0 138.3 138.3" xml:space="preserve"><filter id="a"><feGaussianBlur stdDeviation="4"/></filter><path fill="#E25E60" d="M69.1 136c36.9 0 66.9-29.9 66.9-66.9 0-36.9-29.9-66.9-66.9-66.9-36.9.1-66.8 30-66.8 66.9 0 37 29.9 66.9 66.8 66.9"/><path d="M76.2 104.3L35.7 64l3.2-3.2 37.3 37.1 37.2-37.1 3.2 3.2" opacity=".17" filter="url(#a)"/><path fill="#FFF" d="M69.1 138.3C31 138.3 0 107.3 0 69.1 0 31 31 0 69.1 0s69.1 31 69.1 69.1c.1 38.2-30.9 69.2-69.1 69.2zm0-133.8c-35.6 0-64.6 29-64.6 64.6 0 35.6 29 64.6 64.6 64.6s64.6-29 64.6-64.6c0-35.6-28.9-64.6-64.6-64.6z"/><defs><filter id="b" filterUnits="userSpaceOnUse" x="33.2" y="57.2" width="88" height="51"><feColorMatrix type="matrix" values="1 0 0 0 0 0 1 0 0 0 0 0 1 0 0 0 0 0 1 0"/></filter></defs><mask maskUnits="userSpaceOnUse" x="33.2" y="57.2" width="88" height="51" id="e"><g filter="url(#b)"><defs><path id="c" d="M22.7 17.7h110v94h-110z"/></defs><clipPath id="d"><use xlink:href="#c" overflow="visible"/></clipPath><g clip-path="url(#d)"><image overflow="visible" width="220" height="188" xlink:href="DC6B6B2C3FE537B1.jpg" transform="matrix(.5 0 0 .5 22.661 17.655)"/></g></g></mask><defs mask="url(#e)"><path id="f" d="M33.2 57.2h88v51h-88z"/></defs><path fill="#FFF" d="M70.1 97.3L29.6 57.1l3.2-3.2 37.3 37 37.3-37 3.2 3.2"/></svg>