<svg version="1.1" xmlns="http://www.w3.org/2000/svg" x="0" y="0" viewBox="0 398.6 1024 247" enable-background="new 0 398.6 1024 247" xml:space="preserve"><filter id="a"><feGaussianBlur stdDeviation="7"/></filter><path filter="url(#a)" d="M999.9 630.3H24.1V413.8H1000v216.5zm-958.8-17h941.8V430.8H41.1v182.5z"/><path fill="#FFF" d="M999.8 630.3H24.1V413.8H1000v216.6h-.2zm-958.9-17h941.8V430.8H40.9v182.5z"/><g opacity=".3" filter="url(#a)"><path d="M106.5 526.7c0 4.9-1.8 8.7-5.3 11.6s-8.4 4.2-14.7 4.2c-5.8 0-10.9-1.1-15.3-3.3v-10.7c3.7 1.6 6.7 2.8 9.3 3.4 2.5.7 4.8 1 6.9 1 2.5 0 4.5-.5 5.8-1.4 1.3-1 2-2.4 2-4.3 0-1.1-.3-2-.9-2.8-.6-.8-1.5-1.6-2.6-2.4-1.1-.8-3.5-2-7-3.7-3.3-1.6-5.8-3.1-7.4-4.5-1.7-1.4-3-3.1-4-5s-1.5-4.1-1.5-6.7c0-4.8 1.6-8.6 4.9-11.3 3.2-2.7 7.7-4.1 13.5-4.1 2.8 0 5.5.3 8.1 1s5.2 1.6 8 2.8l-3.7 8.9c-2.9-1.2-5.3-2-7.2-2.5-1.9-.5-3.7-.7-5.6-.7-2.2 0-3.8.5-5 1.5-1.2 1-1.7 2.3-1.7 4 0 1 .2 1.9.7 2.6.5.8 1.2 1.5 2.2 2.2 1 .7 3.5 2 7.3 3.8 5.1 2.4 8.5 4.8 10.4 7.3 1.9 2.6 2.8 5.6 2.8 9.1zM115 489.6c0-3.7 2-5.5 6.1-5.5s6.1 1.8 6.1 5.5c0 1.8-.5 3.1-1.5 4.1-1 1-2.6 1.5-4.6 1.5-4.1 0-6.1-1.9-6.1-5.6zm11.7 52.2h-11.3v-41.4h11.3v41.4zM174.6 500.3v5.7l-6.5 1.7c1.2 1.9 1.8 3.9 1.8 6.2 0 4.4-1.6 7.9-4.6 10.4-3.1 2.5-7.4 3.7-12.9 3.7l-2-.1-1.7-.2c-1.2.9-1.7 1.9-1.7 3 0 1.6 2.1 2.4 6.2 2.4h7c4.5 0 8 1 10.4 2.9 2.4 2 3.6 4.8 3.6 8.6 0 4.8-2 8.6-6.1 11.3-4 2.7-9.8 4-17.4 4-5.8 0-10.2-1-13.2-3-3.1-2-4.6-4.8-4.6-8.5 0-2.5.8-4.6 2.3-6.3 1.6-1.7 3.8-2.9 6.9-3.6-1.2-.5-2.2-1.3-3-2.4-.9-1.1-1.3-2.3-1.3-3.6 0-1.6.5-2.9 1.4-3.9.9-1 2.2-2.1 4-3.1-2.2-.9-3.9-2.4-5.2-4.5-1.3-2.1-1.9-4.5-1.9-7.3 0-4.5 1.5-8 4.4-10.5 2.9-2.5 7.1-3.7 12.6-3.7 1.2 0 2.5.1 4.1.3 1.6.2 2.6.4 3.1.5h14.3zm-31.9 47.3c0 1.6.7 2.8 2.2 3.7 1.5.9 3.6 1.3 6.3 1.3 4.1 0 7.2-.6 9.5-1.7s3.4-2.6 3.4-4.6c0-1.6-.7-2.6-2-3.2s-3.5-.9-6.3-.9H150c-2.1 0-3.8.5-5.2 1.5-1.4 1-2.1 2.3-2.1 3.9zm4.1-33.7c0 2.2.5 4 1.5 5.3 1 1.3 2.6 2 4.7 2s3.7-.7 4.7-2 1.5-3.1 1.5-5.3c0-5-2.1-7.5-6.1-7.5-4.2 0-6.3 2.5-6.3 7.5zM219.7 541.8h-11.3v-24.2c0-3-.5-5.2-1.6-6.7s-2.8-2.2-5.1-2.2c-3.2 0-5.4 1.1-6.9 3.2-1.4 2.1-2.1 5.6-2.1 10.5v19.5h-11.3v-41.4h8.6l1.5 5.3h.6c1.3-2 3-3.5 5.2-4.5s4.7-1.5 7.5-1.5c4.8 0 8.5 1.3 11 3.9 2.5 2.6 3.7 6.4 3.7 11.3v26.8zM280.4 541.8l-1.5-5.3h-.6c-1.2 1.9-2.9 3.4-5.1 4.5-2.2 1-4.8 1.6-7.6 1.6-4.9 0-8.5-1.3-11-3.9-2.5-2.6-3.7-6.4-3.7-11.2v-27h11.3v24.2c0 3 .5 5.2 1.6 6.7s2.8 2.2 5.1 2.2c3.2 0 5.4-1.1 6.9-3.2 1.4-2.1 2.1-5.6 2.1-10.5v-19.5H289v41.4h-8.6zM323.6 542.5c-4.9 0-8.7-1.8-11.4-5.3h-.6c.4 3.5.6 5.5.6 6V560h-11.3v-59.6h9.2l1.6 5.4h.5c2.6-4.1 6.6-6.1 11.7-6.1 4.9 0 8.7 1.9 11.5 5.7 2.8 3.8 4.1 9 4.1 15.7 0 4.4-.6 8.3-1.9 11.5-1.3 3.3-3.1 5.7-5.5 7.4-2.4 1.7-5.2 2.5-8.5 2.5zm-3.3-33.9c-2.8 0-4.8.9-6.1 2.6-1.3 1.7-2 4.6-2 8.5v1.2c0 4.4.7 7.6 2 9.6 1.3 1.9 3.4 2.9 6.3 2.9 5.1 0 7.6-4.2 7.6-12.5 0-4.1-.6-7.1-1.9-9.2-1.3-2.1-3.2-3.1-5.9-3.1zM394.9 541.8l-2.2-5.6h-.3c-1.9 2.4-3.9 4.1-5.9 5-2 .9-4.6 1.4-7.9 1.4-4 0-7.1-1.1-9.4-3.4s-3.4-5.5-3.4-9.7c0-4.4 1.5-7.6 4.6-9.7 3.1-2.1 7.7-3.2 13.9-3.5l7.2-.2v-1.8c0-4.2-2.1-6.3-6.4-6.3-3.3 0-7.2 1-11.7 3l-3.7-7.6c4.8-2.5 10.1-3.7 15.9-3.7 5.6 0 9.8 1.2 12.8 3.6 3 2.4 4.4 6.1 4.4 11v27.6h-7.9zm-3.3-19.2l-4.4.1c-3.3.1-5.7.7-7.3 1.8-1.6 1.1-2.4 2.7-2.4 5 0 3.2 1.8 4.8 5.5 4.8 2.6 0 4.7-.8 6.3-2.3s2.4-3.5 2.4-6v-3.4zM443.4 529.5c0 4.2-1.5 7.5-4.4 9.7-3 2.2-7.4 3.3-13.2 3.3-3 0-5.6-.2-7.7-.6-2.1-.4-4.1-1-6-1.8v-9.3c2.1 1 4.5 1.8 7.1 2.5 2.6.7 4.9 1 6.9 1 4.1 0 6.1-1.2 6.1-3.6 0-.9-.3-1.6-.8-2.2-.5-.6-1.5-1.2-2.8-1.9-1.3-.7-3.1-1.5-5.3-2.5-3.2-1.3-5.5-2.6-7-3.7s-2.6-2.4-3.3-3.9c-.7-1.5-1-3.3-1-5.4 0-3.7 1.4-6.5 4.3-8.5s6.9-3 12.1-3c5 0 9.8 1.1 14.6 3.3l-3.4 8.2c-2.1-.9-4-1.6-5.8-2.2-1.8-.6-3.6-.9-5.5-.9-3.3 0-5 .9-5 2.7 0 1 .5 1.9 1.6 2.6 1.1.7 3.4 1.8 7.1 3.3 3.2 1.3 5.6 2.5 7.1 3.7 1.5 1.1 2.6 2.4 3.3 3.9.6 1.5 1 3.2 1 5.3zM498.2 541.8l-2.2-5.6h-.3c-1.9 2.4-3.9 4.1-5.9 5-2 .9-4.6 1.4-7.9 1.4-4 0-7.1-1.1-9.4-3.4s-3.4-5.5-3.4-9.7c0-4.4 1.5-7.6 4.6-9.7 3.1-2.1 7.7-3.2 13.9-3.5l7.2-.2v-1.8c0-4.2-2.2-6.3-6.4-6.3-3.3 0-7.2 1-11.7 3l-3.7-7.6c4.8-2.5 10.1-3.7 15.9-3.7 5.6 0 9.8 1.2 12.8 3.6 3 2.4 4.4 6.1 4.4 11v27.6h-7.9zm-3.4-19.2l-4.4.1c-3.3.1-5.7.7-7.3 1.8-1.6 1.1-2.4 2.7-2.4 5 0 3.2 1.8 4.8 5.5 4.8 2.6 0 4.7-.8 6.3-2.3s2.4-3.5 2.4-6v-3.4zM555.9 541.8h-11.3v-24.2c0-3-.5-5.2-1.6-6.7s-2.8-2.2-5.1-2.2c-3.2 0-5.4 1.1-6.9 3.2-1.4 2.1-2.1 5.6-2.1 10.5v19.5h-11.3v-41.4h8.6l1.5 5.3h.6c1.3-2 3-3.5 5.2-4.5s4.7-1.5 7.5-1.5c4.8 0 8.5 1.3 11 3.9 2.5 2.6 3.7 6.4 3.7 11.3v26.8zM586.8 489.6c0-3.7 2-5.5 6.1-5.5s6.2 1.8 6.2 5.5c0 1.8-.5 3.1-1.5 4.1-1 1-2.6 1.5-4.6 1.5-4.2 0-6.2-1.9-6.2-5.6zm11.8 52.2h-11.3v-41.4h11.3v41.4zM648.7 541.8h-11.3v-24.2c0-3-.5-5.2-1.6-6.7s-2.8-2.2-5.1-2.2c-3.2 0-5.4 1.1-6.9 3.2-1.4 2.1-2.1 5.6-2.1 10.5v19.5h-11.3v-41.4h8.6l1.5 5.3h.6c1.3-2 3-3.5 5.2-4.5s4.7-1.5 7.5-1.5c4.8 0 8.5 1.3 11 3.9 2.5 2.6 3.7 6.4 3.7 11.3v26.8zM673.4 542.5c-4.9 0-8.7-1.9-11.5-5.7-2.8-3.8-4.2-9-4.2-15.7 0-6.8 1.4-12.1 4.2-15.9 2.8-3.8 6.7-5.7 11.7-5.7 5.2 0 9.2 2 11.9 6.1h.4c-.6-3.1-.9-5.8-.9-8.3V484h11.3v57.6h-8.7l-2.2-5.4h-.5c-2.3 4.3-6.2 6.3-11.5 6.3zm4-9c2.9 0 5-.8 6.4-2.5 1.3-1.7 2.1-4.5 2.2-8.6v-1.2c0-4.4-.7-7.6-2.1-9.6-1.4-1.9-3.6-2.9-6.7-2.9-2.5 0-4.5 1.1-5.9 3.2-1.4 2.1-2.1 5.2-2.1 9.3s.7 7.1 2.1 9.2c1.5 2.1 3.5 3.1 6.1 3.1zM707.8 489.6c0-3.7 2-5.5 6.1-5.5s6.2 1.8 6.2 5.5c0 1.8-.5 3.1-1.5 4.1-1 1-2.6 1.5-4.6 1.5-4.1 0-6.2-1.9-6.2-5.6zm11.8 52.2h-11.3v-41.4h11.3v41.4zM741.3 541.8l-15.8-41.4h11.8l8 23.6c.9 3 1.4 5.8 1.7 8.5h.2c.1-2.4.7-5.2 1.7-8.5l8-23.6h11.8l-15.8 41.4h-11.6zM774.1 489.6c0-3.7 2-5.5 6.1-5.5s6.2 1.8 6.2 5.5c0 1.8-.5 3.1-1.5 4.1-1 1-2.6 1.5-4.6 1.5-4.1 0-6.2-1.9-6.2-5.6zm11.8 52.2h-11.3v-41.4h11.3v41.4zM810.9 542.5c-4.9 0-8.7-1.9-11.5-5.7-2.8-3.8-4.2-9-4.2-15.7 0-6.8 1.4-12.1 4.2-15.9 2.8-3.8 6.7-5.7 11.7-5.7 5.2 0 9.2 2 11.9 6.1h.4c-.6-3.1-.9-5.8-.9-8.3V484H834v57.6h-8.7l-2.2-5.4h-.5c-2.5 4.3-6.4 6.3-11.7 6.3zm4-9c2.9 0 5-.8 6.4-2.5 1.3-1.7 2.1-4.5 2.2-8.6v-1.2c0-4.4-.7-7.6-2.1-9.6-1.4-1.9-3.6-2.9-6.7-2.9-2.5 0-4.5 1.1-5.9 3.2-1.4 2.1-2.1 5.2-2.1 9.3s.7 7.1 2.1 9.2c1.4 2.1 3.4 3.1 6.1 3.1zM875.1 541.8l-1.5-5.3h-.6c-1.2 1.9-2.9 3.4-5.1 4.5-2.2 1-4.8 1.6-7.6 1.6-4.9 0-8.5-1.3-11-3.9-2.5-2.6-3.7-6.4-3.7-11.2v-27h11.3v24.2c0 3 .5 5.2 1.6 6.7s2.8 2.2 5.1 2.2c3.2 0 5.4-1.1 6.9-3.2 1.4-2.1 2.1-5.6 2.1-10.5v-19.5h11.3v41.4h-8.8zM922 541.8l-2.2-5.6h-.3c-1.9 2.4-3.9 4.1-5.9 5-2 .9-4.6 1.4-7.9 1.4-4 0-7.1-1.1-9.4-3.4-2.3-2.3-3.4-5.5-3.4-9.7 0-4.4 1.5-7.6 4.6-9.7 3.1-2.1 7.7-3.2 13.9-3.5l7.2-.2v-1.8c0-4.2-2.1-6.3-6.4-6.3-3.3 0-7.2 1-11.7 3l-3.7-7.6c4.8-2.5 10.1-3.7 15.9-3.7 5.6 0 9.8 1.2 12.8 3.6 3 2.4 4.4 6.1 4.4 11v27.6H922zm-3.4-19.2l-4.4.1c-3.3.1-5.7.7-7.3 1.8-1.6 1.1-2.4 2.7-2.4 5 0 3.2 1.8 4.8 5.5 4.8 2.6 0 4.7-.8 6.3-2.3 1.6-1.5 2.4-3.5 2.4-6v-3.4zM952.8 541.8h-11.3v-57.6h11.3v57.6z"/></g><g fill="#FFF"><path d="M106.5 526.7c0 4.9-1.8 8.7-5.3 11.6s-8.4 4.2-14.7 4.2c-5.8 0-10.9-1.1-15.3-3.3v-10.7c3.7 1.6 6.7 2.8 9.3 3.4 2.5.7 4.8 1 6.9 1 2.5 0 4.5-.5 5.8-1.4 1.3-1 2-2.4 2-4.3 0-1.1-.3-2-.9-2.8-.6-.8-1.5-1.6-2.6-2.4-1.1-.8-3.5-2-7-3.7-3.3-1.6-5.8-3.1-7.4-4.5-1.7-1.4-3-3.1-4-5s-1.5-4.1-1.5-6.7c0-4.8 1.6-8.6 4.9-11.3 3.2-2.7 7.7-4.1 13.5-4.1 2.8 0 5.5.3 8.1 1s5.2 1.6 8 2.8l-3.7 8.9c-2.9-1.2-5.3-2-7.2-2.5-1.9-.5-3.7-.7-5.6-.7-2.2 0-3.8.5-5 1.5-1.2 1-1.7 2.3-1.7 4 0 1 .2 1.9.7 2.6.5.8 1.2 1.5 2.2 2.2 1 .7 3.5 2 7.3 3.8 5.1 2.4 8.5 4.8 10.4 7.3 1.9 2.6 2.8 5.6 2.8 9.1zM115 489.6c0-3.7 2-5.5 6.1-5.5s6.1 1.8 6.1 5.5c0 1.8-.5 3.1-1.5 4.1-1 1-2.6 1.5-4.6 1.5-4.1 0-6.1-1.9-6.1-5.6zm11.7 52.2h-11.3v-41.4h11.3v41.4zM174.6 500.3v5.7l-6.5 1.7c1.2 1.9 1.8 3.9 1.8 6.2 0 4.4-1.6 7.9-4.6 10.4-3.1 2.5-7.4 3.7-12.9 3.7l-2-.1-1.7-.2c-1.2.9-1.7 1.9-1.7 3 0 1.6 2.1 2.4 6.2 2.4h7c4.5 0 8 1 10.4 2.9 2.4 2 3.6 4.8 3.6 8.6 0 4.8-2 8.6-6.1 11.3-4 2.7-9.8 4-17.4 4-5.8 0-10.2-1-13.2-3-3.1-2-4.6-4.8-4.6-8.5 0-2.5.8-4.6 2.3-6.3 1.6-1.7 3.8-2.9 6.9-3.6-1.2-.5-2.2-1.3-3-2.4-.9-1.1-1.3-2.3-1.3-3.6 0-1.6.5-2.9 1.4-3.9.9-1 2.2-2.1 4-3.1-2.2-.9-3.9-2.4-5.2-4.5-1.3-2.1-1.9-4.5-1.9-7.3 0-4.5 1.5-8 4.4-10.5 2.9-2.5 7.1-3.7 12.6-3.7 1.2 0 2.5.1 4.1.3 1.6.2 2.6.4 3.1.5h14.3zm-31.9 47.3c0 1.6.7 2.8 2.2 3.7 1.5.9 3.6 1.3 6.3 1.3 4.1 0 7.2-.6 9.5-1.7s3.4-2.6 3.4-4.6c0-1.6-.7-2.6-2-3.2s-3.5-.9-6.3-.9H150c-2.1 0-3.8.5-5.2 1.5-1.4 1-2.1 2.3-2.1 3.9zm4.1-33.7c0 2.2.5 4 1.5 5.3 1 1.3 2.6 2 4.7 2s3.7-.7 4.7-2 1.5-3.1 1.5-5.3c0-5-2.1-7.5-6.1-7.5-4.2 0-6.3 2.5-6.3 7.5zM219.7 541.8h-11.3v-24.2c0-3-.5-5.2-1.6-6.7s-2.8-2.2-5.1-2.2c-3.2 0-5.4 1.1-6.9 3.2-1.4 2.1-2.1 5.6-2.1 10.5v19.5h-11.3v-41.4h8.6l1.5 5.3h.6c1.3-2 3-3.5 5.2-4.5s4.7-1.5 7.5-1.5c4.8 0 8.5 1.3 11 3.9 2.5 2.6 3.7 6.4 3.7 11.3v26.8zM280.4 541.8l-1.5-5.3h-.6c-1.2 1.9-2.9 3.4-5.1 4.5-2.2 1-4.8 1.6-7.6 1.6-4.9 0-8.5-1.3-11-3.9-2.5-2.6-3.7-6.4-3.7-11.2v-27h11.3v24.2c0 3 .5 5.2 1.6 6.7s2.8 2.2 5.1 2.2c3.2 0 5.4-1.1 6.9-3.2 1.4-2.1 2.1-5.6 2.1-10.5v-19.5H289v41.4h-8.6zM323.6 542.5c-4.9 0-8.7-1.8-11.4-5.3h-.6c.4 3.5.6 5.5.6 6V560h-11.3v-59.6h9.2l1.6 5.4h.5c2.6-4.1 6.6-6.1 11.7-6.1 4.9 0 8.7 1.9 11.5 5.7 2.8 3.8 4.1 9 4.1 15.7 0 4.4-.6 8.3-1.9 11.5-1.3 3.3-3.1 5.7-5.5 7.4-2.4 1.7-5.2 2.5-8.5 2.5zm-3.3-33.9c-2.8 0-4.8.9-6.1 2.6-1.3 1.7-2 4.6-2 8.5v1.2c0 4.4.7 7.6 2 9.6 1.3 1.9 3.4 2.9 6.3 2.9 5.1 0 7.6-4.2 7.6-12.5 0-4.1-.6-7.1-1.9-9.2-1.3-2.1-3.2-3.1-5.9-3.1zM394.9 541.8l-2.2-5.6h-.3c-1.9 2.4-3.9 4.1-5.9 5-2 .9-4.6 1.4-7.9 1.4-4 0-7.1-1.1-9.4-3.4s-3.4-5.5-3.4-9.7c0-4.4 1.5-7.6 4.6-9.7 3.1-2.1 7.7-3.2 13.9-3.5l7.2-.2v-1.8c0-4.2-2.1-6.3-6.4-6.3-3.3 0-7.2 1-11.7 3l-3.7-7.6c4.8-2.5 10.1-3.7 15.9-3.7 5.6 0 9.8 1.2 12.8 3.6 3 2.4 4.4 6.1 4.4 11v27.6h-7.9zm-3.3-19.2l-4.4.1c-3.3.1-5.7.7-7.3 1.8-1.6 1.1-2.4 2.7-2.4 5 0 3.2 1.8 4.8 5.5 4.8 2.6 0 4.7-.8 6.3-2.3s2.4-3.5 2.4-6v-3.4zM443.4 529.5c0 4.2-1.5 7.5-4.4 9.7-3 2.2-7.4 3.3-13.2 3.3-3 0-5.6-.2-7.7-.6-2.1-.4-4.1-1-6-1.8v-9.3c2.1 1 4.5 1.8 7.1 2.5 2.6.7 4.9 1 6.9 1 4.1 0 6.1-1.2 6.1-3.6 0-.9-.3-1.6-.8-2.2-.5-.6-1.5-1.2-2.8-1.9-1.3-.7-3.1-1.5-5.3-2.5-3.2-1.3-5.5-2.6-7-3.7s-2.6-2.4-3.3-3.9c-.7-1.5-1-3.3-1-5.4 0-3.7 1.4-6.5 4.3-8.5s6.9-3 12.1-3c5 0 9.8 1.1 14.6 3.3l-3.4 8.2c-2.1-.9-4-1.6-5.8-2.2-1.8-.6-3.6-.9-5.5-.9-3.3 0-5 .9-5 2.7 0 1 .5 1.9 1.6 2.6 1.1.7 3.4 1.8 7.1 3.3 3.2 1.3 5.6 2.5 7.1 3.7 1.5 1.1 2.6 2.4 3.3 3.9.6 1.5 1 3.2 1 5.3zM498.2 541.8l-2.2-5.6h-.3c-1.9 2.4-3.9 4.1-5.9 5-2 .9-4.6 1.4-7.9 1.4-4 0-7.1-1.1-9.4-3.4s-3.4-5.5-3.4-9.7c0-4.4 1.5-7.6 4.6-9.7 3.1-2.1 7.7-3.2 13.9-3.5l7.2-.2v-1.8c0-4.2-2.2-6.3-6.4-6.3-3.3 0-7.2 1-11.7 3l-3.7-7.6c4.8-2.5 10.1-3.7 15.9-3.7 5.6 0 9.8 1.2 12.8 3.6 3 2.4 4.4 6.1 4.4 11v27.6h-7.9zm-3.4-19.2l-4.4.1c-3.3.1-5.7.7-7.3 1.8-1.6 1.1-2.4 2.7-2.4 5 0 3.2 1.8 4.8 5.5 4.8 2.6 0 4.7-.8 6.3-2.3s2.4-3.5 2.4-6v-3.4zM555.9 541.8h-11.3v-24.2c0-3-.5-5.2-1.6-6.7s-2.8-2.2-5.1-2.2c-3.2 0-5.4 1.1-6.9 3.2-1.4 2.1-2.1 5.6-2.1 10.5v19.5h-11.3v-41.4h8.6l1.5 5.3h.6c1.3-2 3-3.5 5.2-4.5s4.7-1.5 7.5-1.5c4.8 0 8.5 1.3 11 3.9 2.5 2.6 3.7 6.4 3.7 11.3v26.8zM586.8 489.6c0-3.7 2-5.5 6.1-5.5s6.2 1.8 6.2 5.5c0 1.8-.5 3.1-1.5 4.1-1 1-2.6 1.5-4.6 1.5-4.2 0-6.2-1.9-6.2-5.6zm11.8 52.2h-11.3v-41.4h11.3v41.4zM648.7 541.8h-11.3v-24.2c0-3-.5-5.2-1.6-6.7s-2.8-2.2-5.1-2.2c-3.2 0-5.4 1.1-6.9 3.2-1.4 2.1-2.1 5.6-2.1 10.5v19.5h-11.3v-41.4h8.6l1.5 5.3h.6c1.3-2 3-3.5 5.2-4.5s4.7-1.5 7.5-1.5c4.8 0 8.5 1.3 11 3.9 2.5 2.6 3.7 6.4 3.7 11.3v26.8zM673.4 542.5c-4.9 0-8.7-1.9-11.5-5.7-2.8-3.8-4.2-9-4.2-15.7 0-6.8 1.4-12.1 4.2-15.9 2.8-3.8 6.7-5.7 11.7-5.7 5.2 0 9.2 2 11.9 6.1h.4c-.6-3.1-.9-5.8-.9-8.3V484h11.3v57.6h-8.7l-2.2-5.4h-.5c-2.3 4.3-6.2 6.3-11.5 6.3zm4-9c2.9 0 5-.8 6.4-2.5 1.3-1.7 2.1-4.5 2.2-8.6v-1.2c0-4.4-.7-7.6-2.1-9.6-1.4-1.9-3.6-2.9-6.7-2.9-2.5 0-4.5 1.1-5.9 3.2-1.4 2.1-2.1 5.2-2.1 9.3s.7 7.1 2.1 9.2c1.5 2.1 3.5 3.1 6.1 3.1zM707.8 489.6c0-3.7 2-5.5 6.1-5.5s6.2 1.8 6.2 5.5c0 1.8-.5 3.1-1.5 4.1-1 1-2.6 1.5-4.6 1.5-4.1 0-6.2-1.9-6.2-5.6zm11.8 52.2h-11.3v-41.4h11.3v41.4zM741.3 541.8l-15.8-41.4h11.8l8 23.6c.9 3 1.4 5.8 1.7 8.5h.2c.1-2.4.7-5.2 1.7-8.5l8-23.6h11.8l-15.8 41.4h-11.6zM774.1 489.6c0-3.7 2-5.5 6.1-5.5s6.2 1.8 6.2 5.5c0 1.8-.5 3.1-1.5 4.1-1 1-2.6 1.5-4.6 1.5-4.1 0-6.2-1.9-6.2-5.6zm11.8 52.2h-11.3v-41.4h11.3v41.4zM810.9 542.5c-4.9 0-8.7-1.9-11.5-5.7-2.8-3.8-4.2-9-4.2-15.7 0-6.8 1.4-12.1 4.2-15.9 2.8-3.8 6.7-5.7 11.7-5.7 5.2 0 9.2 2 11.9 6.1h.4c-.6-3.1-.9-5.8-.9-8.3V484H834v57.6h-8.7l-2.2-5.4h-.5c-2.5 4.3-6.4 6.3-11.7 6.3zm4-9c2.9 0 5-.8 6.4-2.5 1.3-1.7 2.1-4.5 2.2-8.6v-1.2c0-4.4-.7-7.6-2.1-9.6-1.4-1.9-3.6-2.9-6.7-2.9-2.5 0-4.5 1.1-5.9 3.2-1.4 2.1-2.1 5.2-2.1 9.3s.7 7.1 2.1 9.2c1.4 2.1 3.4 3.1 6.1 3.1zM875.1 541.8l-1.5-5.3h-.6c-1.2 1.9-2.9 3.4-5.1 4.5-2.2 1-4.8 1.6-7.6 1.6-4.9 0-8.5-1.3-11-3.9-2.5-2.6-3.7-6.4-3.7-11.2v-27h11.3v24.2c0 3 .5 5.2 1.6 6.7s2.8 2.2 5.1 2.2c3.2 0 5.4-1.1 6.9-3.2 1.4-2.1 2.1-5.6 2.1-10.5v-19.5h11.3v41.4h-8.8zM922 541.8l-2.2-5.6h-.3c-1.9 2.4-3.9 4.1-5.9 5-2 .9-4.6 1.4-7.9 1.4-4 0-7.1-1.1-9.4-3.4-2.3-2.3-3.4-5.5-3.4-9.7 0-4.4 1.5-7.6 4.6-9.7 3.1-2.1 7.7-3.2 13.9-3.5l7.2-.2v-1.8c0-4.2-2.1-6.3-6.4-6.3-3.3 0-7.2 1-11.7 3l-3.7-7.6c4.8-2.5 10.1-3.7 15.9-3.7 5.6 0 9.8 1.2 12.8 3.6 3 2.4 4.4 6.1 4.4 11v27.6H922zm-3.4-19.2l-4.4.1c-3.3.1-5.7.7-7.3 1.8-1.6 1.1-2.4 2.7-2.4 5 0 3.2 1.8 4.8 5.5 4.8 2.6 0 4.7-.8 6.3-2.3 1.6-1.5 2.4-3.5 2.4-6v-3.4zM952.8 541.8h-11.3v-57.6h11.3v57.6z"/></g></svg>