<svg version="1.1" xmlns="http://www.w3.org/2000/svg" x="0" y="0" viewBox="0 0 285.7 300" xml:space="preserve"><path fill="#FFF" d="M238.9 206.4c-14.2 0-26.8 6.3-35.4 16.2L92 162.6c1.1-4 1.8-8.3 1.8-12.7s-.6-8.6-1.8-12.7l111.5-60c8.6 9.9 21.3 16.2 35.4 16.2 25.8 0 46.9-21 46.9-46.7 0-25.8-21-46.8-46.9-46.8C213 0 192 21 192 46.8c0 4.4.7 8.6 1.8 12.7L82.2 119.4c-8.6-9.9-21.3-16.1-35.4-16.1C21 103.3 0 124.1 0 150s21 46.7 46.8 46.7c14.1 0 26.8-6.2 35.4-16.1l111.5 59.9c-1.1 4-1.8 8.3-1.8 12.7 0 25.8 21 46.9 46.9 46.9 25.8 0 46.9-21 46.9-46.9 0-25.8-21-46.8-46.8-46.8z"/></svg>