<svg version="1.1" xmlns="http://www.w3.org/2000/svg" x="0" y="0" viewBox="0 388.5 1024 247" enable-background="new 0 388.5 1024 247" xml:space="preserve"><filter id="a"><feGaussianBlur stdDeviation="7"/></filter><g opacity=".3" filter="url(#a)"><path d="M180.2 518.2c0 4.8-1.8 8.7-5.3 11.5-3.5 2.9-8.3 4.2-14.6 4.2-5.7 0-10.9-1.1-15.2-3.2v-10.6c3.6 1.7 6.6 2.7 9.2 3.5 2.6.6 4.8 1.1 6.9 1.1 2.6 0 4.4-.5 5.7-1.5 1.4-.9 2-2.4 2-4.2 0-1.1-.3-2-.9-2.9-.6-.8-1.5-1.7-2.6-2.4-1.2-.8-3.5-2-6.9-3.6-3.3-1.5-5.7-3-7.4-4.4-1.7-1.4-3-3-3.9-5-.9-2-1.5-4.1-1.5-6.6 0-4.8 1.7-8.4 4.8-11.2 3.2-2.7 7.7-4.1 13.4-4.1 2.9 0 5.4.3 8 1.1 2.6.6 5.1 1.7 8 2.9l-3.6 8.9c-2.9-1.2-5.3-2-7.1-2.4-1.8-.5-3.8-.8-5.6-.8-2.1 0-3.8.5-5 1.5s-1.7 2.3-1.7 3.9c0 1.1.3 1.8.8 2.6s1.2 1.5 2.3 2.1c1.1.6 3.5 2 7.2 3.8 5 2.4 8.4 4.8 10.4 7.2 1.6 2.1 2.6 5 2.6 8.6zM188.5 481.4c0-3.6 2-5.4 6-5.4 4.1 0 6 1.8 6 5.4 0 1.8-.5 3.2-1.5 4.1s-2.6 1.5-4.5 1.5c-3.9-.2-6-2-6-5.6zm11.8 51.7H189v-41.2h11.2v41.2h.1zM247.8 491.9v5.7l-6.5 1.7c1.2 1.8 1.8 3.9 1.8 6.2 0 4.4-1.5 7.8-4.7 10.3-3 2.4-7.4 3.6-12.8 3.6l-2-.2-1.7-.2c-1.2.9-1.7 1.8-1.7 3 0 1.7 2.1 2.4 6.2 2.4h6.9c4.5 0 8 .9 10.3 2.9 2.4 2 3.6 4.8 3.6 8.6 0 4.8-2 8.6-6 11.2-4.1 2.7-9.8 3.9-17.2 3.9-5.7 0-10.1-1.1-13.1-3-3-2-4.5-4.8-4.5-8.4 0-2.4.8-4.5 2.3-6.2 1.5-1.7 3.8-2.9 6.8-3.6-1.2-.5-2.1-1.4-3-2.4-.9-1.1-1.4-2.3-1.4-3.6 0-1.5.5-2.9 1.4-3.9.9-1.1 2.3-2.1 3.9-3-2.1-.9-3.9-2.4-5.1-4.5-1.2-2.1-2-4.5-2-7.2 0-4.5 1.5-8 4.4-10.4 2.9-2.4 7.1-3.6 12.5-3.6 1.2 0 2.6.2 4.1.3s2.6.3 3 .5h14.5v-.1zm-31.7 46.9c0 1.5.8 2.7 2.3 3.6s3.6 1.4 6.2 1.4c4.1 0 7.2-.6 9.5-1.7s3.5-2.6 3.5-4.5c0-1.5-.6-2.6-2-3.2-1.4-.6-3.5-.9-6.2-.9h-5.9c-2.1 0-3.8.5-5.1 1.5s-2.3 2.3-2.3 3.8zm4.1-33.4c0 2.3.5 3.9 1.5 5.3s2.6 2 4.7 2 3.6-.6 4.7-2c.9-1.4 1.5-3 1.5-5.3 0-5-2-7.4-6-7.4-4.5 0-6.4 2.4-6.4 7.4zM292.4 533.1h-11.2V509c0-3-.5-5.1-1.5-6.6-1.1-1.5-2.7-2.3-5-2.3-3.2 0-5.4 1.1-6.8 3.2-1.4 2.1-2.1 5.6-2.1 10.4V533h-11.2v-41h8.6l1.5 5.3h.6c1.2-2 3-3.5 5.1-4.5 2.3-1.1 4.7-1.5 7.5-1.5 4.8 0 8.4 1.4 10.9 3.9 2.4 2.6 3.8 6.3 3.8 11.2v26.8h-.2zM352.7 533.1l-1.5-5.3h-.6c-1.2 2-2.9 3.3-5.1 4.4-2.3 1.1-4.7 1.5-7.5 1.5-4.8 0-8.4-1.4-10.9-3.9s-3.6-6.3-3.6-11.2v-26.7h11.2v24c0 3 .5 5.1 1.5 6.6s2.7 2.3 5 2.3c3.2 0 5.4-1.1 6.8-3.2 1.4-2.1 2.1-5.6 2.1-10.4v-19.3h11.2v41.2h-8.6zM395.6 533.9c-4.8 0-8.6-1.8-11.3-5.3h-.6c.5 3.5.6 5.4.6 5.9v16.6h-11.2V492h9l1.5 5.3h.5c2.6-4.1 6.5-6 11.6-6 4.8 0 8.6 1.8 11.5 5.6 2.9 3.8 4.1 8.9 4.1 15.7 0 4.4-.6 8.1-2 11.5-1.4 3.2-3.2 5.7-5.4 7.4-2.3 1.5-5 2.4-8.3 2.4zm-3.3-33.8c-2.7 0-4.8.9-6 2.6-1.2 1.7-2 4.5-2 8.4v1.2c0 4.4.6 7.5 2 9.5s3.3 2.9 6.2 2.9c5 0 7.5-4.1 7.5-12.4 0-4.1-.6-7.1-1.8-9s-3.2-3.2-5.9-3.2zM466.3 533.1l-2.1-5.6h-.3c-2 2.4-3.8 4.1-5.9 5-2 .9-4.7 1.4-7.8 1.4-3.9 0-7.1-1.1-9.4-3.3-2.3-2.3-3.5-5.4-3.5-9.7 0-4.4 1.5-7.5 4.5-9.7 3-2.1 7.7-3.2 13.9-3.5l7.1-.2v-1.8c0-4.2-2.1-6.2-6.3-6.2-3.3 0-7.1 1.1-11.6 3l-3.8-7.5c4.7-2.4 10-3.8 15.7-3.8 5.6 0 9.8 1.2 12.7 3.6 2.9 2.4 4.4 6 4.4 11v27.4h-7.5v-.1zM463 514l-4.4.2c-3.3.2-5.7.8-7.2 1.8-1.7 1.1-2.4 2.7-2.4 5 0 3.2 1.8 4.7 5.4 4.7 2.6 0 4.7-.8 6.2-2.3s2.3-3.5 2.3-5.9V514h.1zM514.4 520.9c0 4.2-1.5 7.4-4.4 9.7s-7.2 3.3-13.1 3.3c-3 0-5.6-.2-7.7-.6s-4.1-1.1-5.9-1.8v-9.2c2.1 1.1 4.4 1.8 7.1 2.4 2.7.6 5 1.1 6.9 1.1 4.1 0 6-1.2 6-3.5 0-.9-.3-1.7-.8-2.1-.6-.6-1.5-1.2-2.9-1.8-1.4-.6-3-1.5-5.3-2.4-3.2-1.4-5.4-2.6-6.9-3.6-1.5-1.1-2.6-2.4-3.2-3.9-.6-1.5-1.1-3.3-1.1-5.4 0-3.6 1.4-6.5 4.2-8.4 2.9-2 6.8-3 12.1-3 5 0 9.8 1.1 14.5 3.2l-3.3 8.1c-2.1-.9-3.9-1.7-5.7-2.1-1.8-.6-3.6-.9-5.4-.9-3.3 0-5 .9-5 2.7 0 1.1.6 1.8 1.7 2.6s3.5 1.8 6.9 3.3c3.2 1.4 5.6 2.6 7.1 3.6 1.5 1.1 2.6 2.4 3.3 3.9.9 1.3.9 2.7.9 4.8zM568.9 533.1l-2.1-5.6h-.3c-2 2.4-3.8 4.1-5.9 5-2 .9-4.7 1.4-7.8 1.4-3.9 0-7.1-1.1-9.4-3.3-2.3-2.3-3.5-5.4-3.5-9.7 0-4.4 1.5-7.5 4.5-9.7 3-2.1 7.7-3.2 13.9-3.5l7.1-.2v-1.8c0-4.2-2.1-6.2-6.3-6.2-3.3 0-7.1 1.1-11.6 3l-3.8-7.5c4.7-2.4 10-3.8 15.7-3.8 5.6 0 9.8 1.2 12.7 3.6 2.9 2.4 4.4 6 4.4 11v27.4H569v-.1zm-3.4-19.1l-4.4.2c-3.3.2-5.7.8-7.2 1.8-1.7 1.1-2.4 2.7-2.4 5 0 3.2 1.8 4.7 5.4 4.7 2.6 0 4.7-.8 6.2-2.3s2.3-3.5 2.3-5.9V514h.1zM640.3 518.2c0 4.8-1.8 8.7-5.3 11.5-3.5 2.9-8.3 4.2-14.6 4.2-5.7 0-10.9-1.1-15.2-3.2v-10.6c3.6 1.7 6.6 2.7 9.2 3.5 2.6.6 4.8 1.1 6.9 1.1 2.6 0 4.4-.5 5.7-1.5 1.4-.9 2-2.4 2-4.2 0-1.1-.3-2-.9-2.9-.6-.8-1.5-1.7-2.6-2.4-1.2-.8-3.5-2-6.9-3.6-3.3-1.5-5.7-3-7.4-4.4-1.7-1.4-3-3-3.9-5-.9-2-1.5-4.1-1.5-6.6 0-4.8 1.7-8.4 4.8-11.2 3.2-2.7 7.7-4.1 13.4-4.1 2.9 0 5.4.3 8 1.1 2.6.6 5.1 1.7 8 2.9l-3.6 8.9c-2.9-1.2-5.3-2-7.1-2.4-1.8-.5-3.8-.8-5.6-.8-2.1 0-3.8.5-5 1.5-1.2 1.1-1.7 2.3-1.7 3.9 0 1.1.3 1.8.8 2.6s1.2 1.5 2.3 2.1c1.1.6 3.5 2 7.2 3.8 5 2.4 8.4 4.8 10.4 7.2 1.7 2.1 2.6 5 2.6 8.6zM666.6 524.8c2 0 4.4-.5 7.1-1.4v8.3c-2.9 1.2-6.2 1.8-10.3 1.8-4.5 0-7.7-1.2-9.8-3.5s-3-5.7-3-10.3v-19.5h-5.4v-4.8l6.2-3.8 3.2-8.7h7.2v8.7h11.5v8.4h-11.5v20c0 1.7.5 2.7 1.4 3.5.7 1 1.9 1.3 3.4 1.3zM708.1 533.1l-2.1-5.6h-.3c-2 2.4-3.8 4.1-5.9 5-2 .9-4.7 1.4-7.8 1.4-3.9 0-7.1-1.1-9.4-3.3-2.3-2.3-3.5-5.4-3.5-9.7 0-4.4 1.5-7.5 4.5-9.7 3-2.1 7.7-3.2 13.9-3.5l7.1-.2v-1.8c0-4.2-2.1-6.2-6.3-6.2-3.3 0-7.1 1.1-11.6 3l-3.8-7.5c4.7-2.4 10-3.8 15.7-3.8 5.6 0 9.8 1.2 12.7 3.6 2.9 2.4 4.4 6 4.4 11v27.4h-7.5v-.1zm-3.4-19.1l-4.4.2c-3.3.2-5.7.8-7.2 1.8-1.7 1.1-2.4 2.7-2.4 5 0 3.2 1.8 4.7 5.4 4.7 2.6 0 4.7-.8 6.2-2.3s2.3-3.5 2.3-5.9V514h.1zM750.3 491.2c1.5 0 2.7.2 3.8.3l-.9 10.6c-.9-.3-2-.3-3.3-.3-3.6 0-6.3.9-8.3 2.7s-3 4.4-3 7.7v21h-11.2V492h8.4l1.7 6.9h.6c1.2-2.3 3-4.2 5.1-5.6 2.3-1.4 4.5-2.1 7.1-2.1zM778.9 524.8c2 0 4.4-.5 7.1-1.4v8.3c-2.9 1.2-6.2 1.8-10.3 1.8-4.5 0-7.7-1.2-9.8-3.5s-3-5.7-3-10.3v-19.5h-5.4v-4.8l6.2-3.8 3.2-8.7h7.2v8.7h11.5v8.4h-11.5v20c0 1.7.5 2.7 1.4 3.5.7 1 1.9 1.3 3.4 1.3zM823.4 533.1l-1.5-5.3h-.6c-1.2 2-2.9 3.3-5.1 4.4s-4.7 1.5-7.5 1.5c-4.8 0-8.4-1.4-10.9-3.9s-3.6-6.3-3.6-11.2v-26.7h11.2v24c0 3 .5 5.1 1.5 6.6 1.1 1.5 2.7 2.3 5 2.3 3.2 0 5.4-1.1 6.8-3.2 1.4-2.1 2.1-5.6 2.1-10.4v-19.3H832v41.2h-8.6zM866.3 533.9c-4.8 0-8.6-1.8-11.3-5.3h-.6c.5 3.5.6 5.4.6 5.9v16.6h-11.2V492h9l1.5 5.3h.5c2.6-4.1 6.5-6 11.6-6 4.8 0 8.6 1.8 11.5 5.6 2.9 3.8 4.1 8.9 4.1 15.7 0 4.4-.6 8.1-2 11.5-1.4 3.2-3.2 5.7-5.4 7.4-2.3 1.5-5 2.4-8.3 2.4zm-3.2-33.8c-2.7 0-4.8.9-6 2.6-1.2 1.7-2 4.5-2 8.4v1.2c0 4.4.6 7.5 2 9.5s3.3 2.9 6.2 2.9c5 0 7.5-4.1 7.5-12.4 0-4.1-.6-7.1-1.8-9-1.2-2-3.4-3.2-5.9-3.2z"/></g><g fill="#FFF"><path d="M177.2 515.2c0 4.8-1.8 8.7-5.3 11.5-3.5 2.9-8.3 4.2-14.6 4.2-5.7 0-10.9-1.1-15.2-3.2v-10.6c3.6 1.7 6.6 2.7 9.2 3.5 2.6.6 4.8 1.1 6.9 1.1 2.6 0 4.4-.5 5.7-1.5 1.4-.9 2-2.4 2-4.2 0-1.1-.3-2-.9-2.9-.6-.8-1.5-1.7-2.6-2.4-1.2-.8-3.5-2-6.9-3.6-3.3-1.5-5.7-3-7.4-4.4-1.7-1.4-3-3-3.9-5-.9-2-1.5-4.1-1.5-6.6 0-4.8 1.7-8.4 4.8-11.2 3.2-2.7 7.7-4.1 13.4-4.1 2.9 0 5.4.3 8 1.1 2.6.6 5.1 1.7 8 2.9l-3.6 8.9c-2.9-1.2-5.3-2-7.1-2.4-1.8-.5-3.8-.8-5.6-.8-2.1 0-3.8.5-5 1.5s-1.7 2.3-1.7 3.9c0 1.1.3 1.8.8 2.6s1.2 1.5 2.3 2.1 3.5 2 7.2 3.8c5 2.4 8.4 4.8 10.4 7.2 1.5 2.1 2.6 4.9 2.6 8.6zM185.5 478.4c0-3.6 2-5.4 6-5.4 4.1 0 6 1.8 6 5.4 0 1.8-.5 3.2-1.5 4.1-1.1.9-2.6 1.5-4.5 1.5-3.9-.2-6-2-6-5.6zm11.8 51.7H186v-41.2h11.2v41.2h.1zM244.8 488.9v5.7l-6.5 1.7c1.2 1.8 1.8 3.9 1.8 6.2 0 4.4-1.5 7.8-4.7 10.3-3 2.4-7.4 3.6-12.8 3.6l-2-.2-1.7-.2c-1.2.9-1.7 1.8-1.7 3 0 1.7 2.1 2.4 6.2 2.4h6.9c4.5 0 8 .9 10.3 2.9 2.4 2 3.6 4.8 3.6 8.6 0 4.8-2 8.6-6 11.2-4.1 2.7-9.8 3.9-17.2 3.9-5.7 0-10.1-1.1-13.1-3-3-2-4.5-4.8-4.5-8.4 0-2.4.8-4.5 2.3-6.2 1.5-1.7 3.8-2.9 6.8-3.6-1.2-.5-2.1-1.4-3-2.4-.9-1.1-1.4-2.3-1.4-3.6 0-1.5.5-2.9 1.4-3.9.9-1.1 2.3-2.1 3.9-3-2.1-.9-3.9-2.4-5.1-4.5-1.2-2.1-2-4.5-2-7.2 0-4.5 1.5-8 4.4-10.4s7.1-3.6 12.5-3.6c1.2 0 2.6.2 4.1.3 1.5.2 2.6.3 3 .5h14.5v-.1zm-31.7 46.9c0 1.5.8 2.7 2.3 3.6 1.5.9 3.6 1.4 6.2 1.4 4.1 0 7.2-.6 9.5-1.7s3.5-2.6 3.5-4.5c0-1.5-.6-2.6-2-3.2-1.4-.6-3.5-.9-6.2-.9h-5.9c-2.1 0-3.8.5-5.1 1.5s-2.3 2.3-2.3 3.8zm4.1-33.5c0 2.3.5 3.9 1.5 5.3 1.1 1.4 2.6 2 4.7 2s3.6-.6 4.7-2c.9-1.4 1.5-3 1.5-5.3 0-5-2-7.4-6-7.4-4.5.1-6.4 2.5-6.4 7.4zM289.4 530.1h-11.2V506c0-3-.5-5.1-1.5-6.6-1.1-1.5-2.7-2.3-5-2.3-3.2 0-5.4 1.1-6.8 3.2-1.4 2.1-2.1 5.6-2.1 10.4V530h-11.2v-41h8.6l1.5 5.3h.6c1.2-2 3-3.5 5.1-4.5 2.3-1.1 4.7-1.5 7.5-1.5 4.8 0 8.4 1.4 10.9 3.9 2.4 2.6 3.8 6.3 3.8 11.2v26.8h-.2zM349.7 530.1l-1.5-5.3h-.6c-1.2 2-2.9 3.3-5.1 4.4s-4.7 1.5-7.5 1.5c-4.8 0-8.4-1.4-10.9-3.9-2.4-2.6-3.6-6.3-3.6-11.2v-26.7h11.2v24c0 3 .5 5.1 1.5 6.6 1.1 1.5 2.7 2.3 5 2.3 3.2 0 5.4-1.1 6.8-3.2 1.4-2.1 2.1-5.6 2.1-10.4v-19.3h11.2v41.2h-8.6zM392.6 530.9c-4.8 0-8.6-1.8-11.3-5.3h-.6c.5 3.5.6 5.4.6 5.9V548h-11.2v-59.1h9l1.5 5.3h.5c2.6-4.1 6.5-6 11.6-6 4.8 0 8.6 1.8 11.5 5.6 2.9 3.8 4.1 8.9 4.1 15.7 0 4.4-.6 8.1-2 11.5-1.4 3.2-3.2 5.7-5.4 7.4-2.3 1.5-5 2.5-8.3 2.5zm-3.4-33.8c-2.7 0-4.8.9-6 2.6-1.2 1.7-2 4.5-2 8.4v1.2c0 4.4.6 7.5 2 9.5s3.3 2.9 6.2 2.9c5 0 7.5-4.1 7.5-12.4 0-4.1-.6-7.1-1.8-9-1.2-2-3.1-3.2-5.9-3.2zM463.3 530.1l-2.1-5.6h-.3c-2 2.4-3.8 4.1-5.9 5-2 .9-4.7 1.4-7.8 1.4-3.9 0-7.1-1.1-9.4-3.3-2.3-2.3-3.5-5.4-3.5-9.7 0-4.4 1.5-7.5 4.5-9.7 3-2.1 7.7-3.2 13.9-3.5l7.1-.2v-1.8c0-4.2-2.1-6.2-6.3-6.2-3.3 0-7.1 1.1-11.6 3l-3.8-7.5c4.7-2.4 10-3.8 15.7-3.8 5.6 0 9.8 1.2 12.7 3.6s4.4 6 4.4 11v27.4h-7.5v-.1zm-3.3-19.2l-4.4.2c-3.3.2-5.7.8-7.2 1.8-1.7 1.1-2.4 2.7-2.4 5 0 3.2 1.8 4.7 5.4 4.7 2.6 0 4.7-.8 6.2-2.3 1.5-1.5 2.3-3.5 2.3-5.9v-3.5h.1zM511.4 517.9c0 4.2-1.5 7.4-4.4 9.7-2.9 2.3-7.2 3.3-13.1 3.3-3 0-5.6-.2-7.7-.6-2.1-.5-4.1-1.1-5.9-1.8v-9.2c2.1 1.1 4.4 1.8 7.1 2.4 2.7.6 5 1.1 6.9 1.1 4.1 0 6-1.2 6-3.5 0-.9-.3-1.7-.8-2.1-.6-.6-1.5-1.2-2.9-1.8-1.4-.6-3-1.5-5.3-2.4-3.2-1.4-5.4-2.6-6.9-3.6-1.5-1.1-2.6-2.4-3.2-3.9-.6-1.5-1.1-3.3-1.1-5.4 0-3.6 1.4-6.5 4.2-8.4s6.8-3 12.1-3c5 0 9.8 1.1 14.5 3.2l-3.3 8.1c-2.1-.9-3.9-1.7-5.7-2.1-1.8-.6-3.6-.9-5.4-.9-3.3 0-5 .9-5 2.7 0 1.1.6 1.8 1.7 2.6s3.5 1.8 6.9 3.3c3.2 1.4 5.6 2.6 7.1 3.6 1.5 1.1 2.6 2.4 3.3 3.9.9 1.3.9 2.7.9 4.8zM565.8 530.1l-2.1-5.6h-.3c-2 2.4-3.8 4.1-5.9 5-2 .9-4.7 1.4-7.8 1.4-3.9 0-7.1-1.1-9.4-3.3s-3.5-5.4-3.5-9.7c0-4.4 1.5-7.5 4.5-9.7 3-2.1 7.7-3.2 13.9-3.5l7.1-.2v-1.8c0-4.2-2.1-6.2-6.3-6.2-3.3 0-7.1 1.1-11.6 3l-3.8-7.5c4.7-2.4 10-3.8 15.7-3.8 5.6 0 9.8 1.2 12.7 3.6 2.9 2.4 4.4 6 4.4 11v27.4h-7.5v-.1zm-3.3-19.2l-4.4.2c-3.3.2-5.7.8-7.2 1.8-1.7 1.1-2.4 2.7-2.4 5 0 3.2 1.8 4.7 5.4 4.7 2.6 0 4.7-.8 6.2-2.3 1.5-1.5 2.3-3.5 2.3-5.9v-3.5h.1zM637.3 515.2c0 4.8-1.8 8.7-5.3 11.5-3.5 2.9-8.3 4.2-14.6 4.2-5.7 0-10.9-1.1-15.2-3.2v-10.6c3.6 1.7 6.6 2.7 9.2 3.5 2.6.6 4.8 1.1 6.9 1.1 2.6 0 4.4-.5 5.7-1.5 1.4-.9 2-2.4 2-4.2 0-1.1-.3-2-.9-2.9-.6-.8-1.5-1.7-2.6-2.4-1.2-.8-3.5-2-6.9-3.6-3.3-1.5-5.7-3-7.4-4.4-1.7-1.4-3-3-3.9-5-.9-2-1.5-4.1-1.5-6.6 0-4.8 1.7-8.4 4.8-11.2 3.2-2.7 7.7-4.1 13.4-4.1 2.9 0 5.4.3 8 1.1 2.6.6 5.1 1.7 8 2.9l-3.6 8.9c-2.9-1.2-5.3-2-7.1-2.4s-3.8-.8-5.6-.8c-2.1 0-3.8.5-5 1.5s-1.7 2.3-1.7 3.9c0 1.1.3 1.8.8 2.6s1.2 1.5 2.3 2.1c1.1.6 3.5 2 7.2 3.8 5 2.4 8.4 4.8 10.4 7.2 1.7 2.1 2.6 4.9 2.6 8.6zM663.6 521.8c2 0 4.4-.5 7.1-1.4v8.3c-2.9 1.2-6.2 1.8-10.3 1.8-4.5 0-7.7-1.2-9.8-3.5s-3-5.7-3-10.3v-19.5h-5.4v-4.8l6.2-3.8 3.2-8.7h7.2v8.7h11.5v8.4h-11.5v20c0 1.7.5 2.7 1.4 3.5.6 1 1.9 1.3 3.4 1.3zM705 530.1l-2.1-5.6h-.3c-2 2.4-3.8 4.1-5.9 5-2 .9-4.7 1.4-7.8 1.4-3.9 0-7.1-1.1-9.4-3.3-2.3-2.3-3.5-5.4-3.5-9.7 0-4.4 1.5-7.5 4.5-9.7 3-2.1 7.7-3.2 13.9-3.5l7.1-.2v-1.8c0-4.2-2.1-6.2-6.3-6.2-3.3 0-7.1 1.1-11.6 3l-3.8-7.5c4.7-2.4 10-3.8 15.7-3.8 5.6 0 9.8 1.2 12.7 3.6s4.4 6 4.4 11v27.4H705v-.1zm-3.3-19.2l-4.4.2c-3.3.2-5.7.8-7.2 1.8-1.7 1.1-2.4 2.7-2.4 5 0 3.2 1.8 4.7 5.4 4.7 2.6 0 4.7-.8 6.2-2.3 1.5-1.5 2.3-3.5 2.3-5.9v-3.5h.1zM747.3 488.2c1.5 0 2.7.2 3.8.3l-.9 10.6c-.9-.3-2-.3-3.3-.3-3.6 0-6.3.9-8.3 2.7s-3 4.4-3 7.7v21h-11.2V489h8.4l1.7 6.9h.6c1.2-2.3 3-4.2 5.1-5.6 2.2-1.4 4.5-2.1 7.1-2.1zM775.9 521.8c2 0 4.4-.5 7.1-1.4v8.3c-2.9 1.2-6.2 1.8-10.3 1.8-4.5 0-7.7-1.2-9.8-3.5-2.1-2.3-3-5.7-3-10.3v-19.5h-5.4v-4.8l6.2-3.8 3.2-8.7h7.2v8.7h11.5v8.4h-11.5v20c0 1.7.5 2.7 1.4 3.5.7 1 1.9 1.3 3.4 1.3zM820.4 530.1l-1.5-5.3h-.6c-1.2 2-2.9 3.3-5.1 4.4s-4.7 1.5-7.5 1.5c-4.8 0-8.4-1.4-10.9-3.9-2.4-2.6-3.6-6.3-3.6-11.2v-26.7h11.2v24c0 3 .5 5.1 1.5 6.6 1.1 1.5 2.7 2.3 5 2.3 3.2 0 5.4-1.1 6.8-3.2 1.4-2.1 2.1-5.6 2.1-10.4v-19.3H829v41.2h-8.6zM863.2 530.9c-4.8 0-8.6-1.8-11.3-5.3h-.6c.5 3.5.6 5.4.6 5.9V548h-11.2v-59.1h9l1.5 5.3h.5c2.6-4.1 6.5-6 11.6-6 4.8 0 8.6 1.8 11.5 5.6 2.9 3.8 4.1 8.9 4.1 15.7 0 4.4-.6 8.1-2 11.5-1.4 3.2-3.2 5.7-5.4 7.4s-4.9 2.5-8.3 2.5zm-3.1-33.8c-2.7 0-4.8.9-6 2.6-1.2 1.7-2 4.5-2 8.4v1.2c0 4.4.6 7.5 2 9.5s3.3 2.9 6.2 2.9c5 0 7.5-4.1 7.5-12.4 0-4.1-.6-7.1-1.8-9-1.3-2-3.4-3.2-5.9-3.2z"/></g><path filter="url(#a)" d="M999.9 620.3H24.1V403.7H1000v216.6zM41.1 603.2h941.8V420.8H41.1v182.4z"/><path fill="#FFF" d="M999.8 620.3H24.1V403.7H1000v216.6h-.2zM40.9 603.2h941.8V420.8H40.9v182.4z"/></svg>