<?xml version="1.0" encoding="utf-8"?>
<!-- Generator: Adobe Illustrator 18.1.0, SVG Export Plug-In . SVG Version: 6.00 Build 0)  -->
<!DOCTYPE svg PUBLIC "-//W3C//DTD SVG 1.1//EN" "http://www.w3.org/Graphics/SVG/1.1/DTD/svg11.dtd">
<svg version="1.1" id="Layer_1" xmlns="http://www.w3.org/2000/svg" xmlns:xlink="http://www.w3.org/1999/xlink" x="0px" y="0px"
	 viewBox="0 0 138.3 138.3" enable-background="new 0 0 138.3 138.3" xml:space="preserve">
<filter  id="AI_GaussianBlur_4">
	<feGaussianBlur  stdDeviation="4"></feGaussianBlur>
</filter>
<path fill="#E25E60" d="M69.1,136c36.9,0,66.9-29.9,66.9-66.9c0-36.9-29.9-66.9-66.9-66.9C32.2,2.3,2.3,32.2,2.3,69.1
	C2.3,106.1,32.2,136,69.1,136"/>
<g opacity="0.17" filter="url(#AI_GaussianBlur_4)">
	<polygon points="76.2,104.3 35.7,64 38.9,60.8 76.2,97.9 113.4,60.8 116.6,64 	"/>
</g>
<path fill="#FFFFFF" d="M69.1,138.3C31,138.3,0,107.3,0,69.1C0,31,31,0,69.1,0s69.1,31,69.1,69.1
	C138.3,107.3,107.3,138.3,69.1,138.3z M69.1,4.5c-35.6,0-64.6,29-64.6,64.6c0,35.6,29,64.6,64.6,64.6s64.6-29,64.6-64.6
	C133.7,33.5,104.8,4.5,69.1,4.5z"/>
<defs>
	<filter id="Adobe_OpacityMaskFilter" filterUnits="userSpaceOnUse" x="33.2" y="57.2" width="88" height="51">
		<feColorMatrix  type="matrix" values="1 0 0 0 0  0 1 0 0 0  0 0 1 0 0  0 0 0 1 0"/>
	</filter>
</defs>
<mask maskUnits="userSpaceOnUse" x="33.2" y="57.2" width="88" height="51" id="SVGID_1_">
	<g filter="url(#Adobe_OpacityMaskFilter)">
		<g>
			<defs>
				<rect id="SVGID_2_" x="22.7" y="17.7" width="110" height="94"/>
			</defs>
			<clipPath id="SVGID_3_">
				<use xlink:href="#SVGID_2_"  overflow="visible"/>
			</clipPath>
			<g clip-path="url(#SVGID_3_)">
				
					<image overflow="visible" width="220" height="188" xlink:href="DC6B6B2C3FE537B1.jpg"  transform="matrix(0.5 0 0 0.5 22.6606 17.6548)">
				</image>
			</g>
		</g>
	</g>
</mask>
<g mask="url(#SVGID_1_)">
	<g>
		<defs>
			<rect id="SVGID_4_" x="33.2" y="57.2" width="88" height="51"/>
		</defs>
		<clipPath id="SVGID_5_">
			<use xlink:href="#SVGID_4_"  overflow="visible"/>
		</clipPath>
	</g>
</g>
<polygon fill="#FFFFFF" points="70.1,97.3 29.6,57.1 32.8,53.9 70.1,90.9 107.4,53.9 110.6,57.1 "/>
</svg>
