<?xml version="1.0" encoding="utf-8"?>
<!-- Generator: Adobe Illustrator 18.1.0, SVG Export Plug-In . SVG Version: 6.00 Build 0)  -->
<!DOCTYPE svg PUBLIC "-//W3C//DTD SVG 1.1//EN" "http://www.w3.org/Graphics/SVG/1.1/DTD/svg11.dtd">
<svg version="1.1" id="Layer_1" xmlns="http://www.w3.org/2000/svg" xmlns:xlink="http://www.w3.org/1999/xlink" x="0px" y="0px"
	 viewBox="0 0 402.3 342.9" enable-background="new 0 0 402.3 342.9" xml:space="preserve">
<defs>
	<filter id="Adobe_OpacityMaskFilter" filterUnits="userSpaceOnUse" x="87.8" y="6.3" width="230" height="230">
		<feColorMatrix  type="matrix" values="1 0 0 0 0  0 1 0 0 0  0 0 1 0 0  0 0 0 1 0"/>
	</filter>
</defs>
<mask maskUnits="userSpaceOnUse" x="87.8" y="6.3" width="230" height="230" id="SVGID_1_">
	<g filter="url(#Adobe_OpacityMaskFilter)">
		<g>
			<defs>
				<rect id="SVGID_2_" x="77.8" y="3.8" width="250" height="235.5"/>
			</defs>
			<clipPath id="SVGID_3_">
				<use xlink:href="#SVGID_2_"  overflow="visible"/>
			</clipPath>
			<g clip-path="url(#SVGID_3_)">
				
					<image overflow="visible" width="500" height="471" xlink:href="2A52506377B5FE1E.jpg"  transform="matrix(0.5 0 0 0.5 77.8369 3.8066)">
				</image>
			</g>
		</g>
	</g>
</mask>
<g mask="url(#SVGID_1_)">
	<g>
		<defs>
			<rect id="SVGID_4_" x="87.8" y="6.3" width="230" height="230"/>
		</defs>
		<clipPath id="SVGID_5_">
			<use xlink:href="#SVGID_4_"  overflow="visible"/>
		</clipPath>
		<rect x="87.8" y="6.3" opacity="0.17" clip-path="url(#SVGID_5_)" width="230" height="230"/>
	</g>
</g>
<path fill="#FFFFFF" d="M195.7,221c59,0,106.9-47.8,106.9-106.9c0-59-47.8-106.9-106.9-106.9c-59,0-106.9,47.8-106.9,106.9
	C88.8,173.2,136.7,221,195.7,221"/>
<circle fill="none" stroke="#131D3C" stroke-width="8" cx="195.7" cy="114.1" r="106.9"/>
<defs>
	<filter id="Adobe_OpacityMaskFilter_1_" filterUnits="userSpaceOnUse" x="3" y="113.4" width="229.5" height="229.5">
		<feColorMatrix  type="matrix" values="1 0 0 0 0  0 1 0 0 0  0 0 1 0 0  0 0 0 1 0"/>
	</filter>
</defs>
<mask maskUnits="userSpaceOnUse" x="3" y="113.4" width="229.5" height="229.5" id="SVGID_6_">
	<g filter="url(#Adobe_OpacityMaskFilter_1_)">
		<g>
			<defs>
				<rect id="SVGID_7_" x="-7" y="110.9" width="250" height="235"/>
			</defs>
			<clipPath id="SVGID_8_">
				<use xlink:href="#SVGID_7_"  overflow="visible"/>
			</clipPath>
			<g clip-path="url(#SVGID_8_)">
				
					<image overflow="visible" width="500" height="470" xlink:href="2A52506377B5FE22.jpg"  transform="matrix(0.5 0 0 0.5 -6.9693 110.9258)">
				</image>
			</g>
		</g>
	</g>
</mask>
<g mask="url(#SVGID_6_)">
	<g>
		<defs>
			<rect id="SVGID_9_" x="3" y="113.4" width="229.5" height="229.5"/>
		</defs>
		<clipPath id="SVGID_10_">
			<use xlink:href="#SVGID_9_"  overflow="visible"/>
		</clipPath>
		<rect x="3" y="113.4" opacity="0.17" clip-path="url(#SVGID_10_)" width="229.5" height="229.5"/>
	</g>
</g>
<path fill="#FFFFFF" d="M110.8,327.9c59,0,106.8-47.8,106.8-106.8c0-59-47.8-106.8-106.8-106.8C51.8,114.4,4,162.2,4,221.1
	C4,280.1,51.8,327.9,110.8,327.9"/>
<circle fill="none" stroke="#131D3C" stroke-width="8" cx="110.8" cy="221.1" r="106.8"/>
<path fill="#131D3C" d="M81.4,292.5C81.4,292.5,81.4,292.5,81.4,292.5c-2.7,0-4.9-0.9-6.4-2.6c-2.4-2.7-2.2-5.4-1.5-7.6
	c-0.7,0.1-1.4,0.2-2.2,0.2c-2.4,0-4.3-0.9-5.7-2.6c-2-2.5-1.9-4.9-1.4-6.9c-0.7,0.1-1.4,0.2-2.1,0.2c-2.2,0-4-0.9-5.4-2.7
	c-2-2.6-2-4.9-1.4-6.8c-0.6,0.1-1.2,0.2-1.9,0.2c-2.1,0-4-0.9-5.5-2.6c-3.7-4.3-1.5-11.4,2.6-15.4c2.1-2,4.8-3.1,7.5-3.1
	c2.6,0,5.1,1,6.8,2.8c1.7,1.7,2.5,4.1,2.5,6.6c2.5,0.1,4.8,1,6.4,2.7c1.7,1.7,2.5,4.1,2.5,6.6c2.5,0.1,4.8,1,6.4,2.7
	c1.8,1.9,2.7,4.5,2.5,7.2c2.7,0,5.1,1,6.8,2.8c3.7,3.9,3.4,10.4-0.8,14.4C88.8,290.9,84.9,292.5,81.4,292.5z M80,276.7l-1.2,3.1
	c-0.2,0.5-0.4,1.1-0.7,1.6c-1.1,2.5-1.7,3.9-0.1,5.7c0.9,1,2.4,1.3,3.4,1.3h0c2.4,0,5.3-1.1,7-2.8c2.6-2.5,2.9-6.4,0.7-8.7
	c-1.2-1.3-2.8-1.5-3.8-1.5c-0.7,0-1.4,0.1-2.1,0.3L80,276.7z M70.2,267.3l-0.9,3.2c-0.2,0.7-0.4,1.3-0.7,1.9
	c-0.8,2.2-1.2,3.3,0.1,4.8c0.6,0.8,1.4,1.1,2.6,1.1c1.4,0,3-0.5,4.3-1l3.9-1.2l1.2-3.2c0.9-2.3,0.5-4.6-1-6.1
	c-1.2-1.2-2.7-1.5-3.8-1.5c-0.5,0-1.1,0.1-1.6,0.2l-3.3,0.8l0.9-3.2c0.6-2.2,0.2-4.2-1.1-5.5c-1.2-1.2-2.7-1.5-3.8-1.5
	c-0.5,0-1.1,0.1-1.6,0.2l-3.3,0.8l0.9-3.2c0.6-2.2,0.2-4.2-1.1-5.5c-1-1-2.4-1.6-4-1.6c-1.7,0-3.4,0.7-4.8,2
	c-2.8,2.7-4.5,7.5-2.4,9.9c1,1.1,1.8,1.3,2.5,1.3c0.9,0,2-0.3,3-0.6c0.6-0.2,1.1-0.4,1.7-0.5l3.3-0.8l-0.9,3.2
	c-0.2,0.7-0.5,1.4-0.7,2c-0.8,2-1.2,3.1,0.1,4.8c0.6,0.8,1.3,1.2,2.3,1.2c1,0,2.1-0.3,3.1-0.7c0.6-0.2,1.1-0.3,1.7-0.5L70.2,267.3z
	 M106.3,290.3c-2.1,0-4.2-0.8-5.7-2.4c-0.8-0.8-1.9-2-2.6-2.9h-1.5l0.4-2.3c0.6-3.9-0.5-7.7-3.1-10.4c-1.4-1.4-3.1-2.5-5-3l-1.1-0.3
	l-0.3-1.1c-0.5-2.1-1.5-3.9-3-5.5c-1.3-1.4-3-2.4-4.8-2.9l-1.1-0.3l-0.3-1.1c-0.5-1.9-1.4-3.6-2.8-5c-1.3-1.4-2.9-2.4-4.8-2.9
	l-1.1-0.3l-0.3-1.1c-0.5-1.9-1.4-3.6-2.8-5c-2.1-2.2-5.3-3.5-8.6-3.5c-3.5,0-6.8,1.3-9.3,3.7c-1.5,1.5-2.6,3.3-3.3,5.3l-0.7,2
	l-2-0.8c-3.4-1.4-7.2-2.5-7.2-2.5l-1.4-0.4v-52.2l16.3,5.7c1.8,0.7,3.5,1.1,5.2,1.1c3.1,0,5.1-1.2,5.1-1.2
	c0.7-0.5,18.1-11.9,27-11.9c9.2,0,13.6,5.4,13.8,5.7l1.5,1.9l-2.1,1.1c-0.1,0.1-12.5,6.7-17.8,10.4c-3.6,2.2-5.6,6-5.6,10.1
	c0,6.5,5.3,11.8,11.7,11.8c0.9,0,3.4-0.5,7.1-2.5c2.8-1.3,8-3.8,12.1-5.6c1.3-0.6,2.7-0.9,4.1-0.9c4.3,0,7.2,2.9,7.3,3l6.7,6.8
	c2.2,2.2,2.2,2.2,10,10.1l9.6,9.7c3.1,3.2,3.1,8.3,0,11.4c-1.5,1.5-3.5,2.4-5.7,2.4c-0.9,0-1.8-0.2-2.7-0.5c0.9,2.8,0.3,6-1.9,8.2
	c-1.5,1.5-3.5,2.3-5.6,2.3c-1.4,0-2.7-0.3-3.8-1c0.4,2.5-0.4,5-2.2,6.9c-1.5,1.5-3.5,2.4-5.7,2.4c-1.5,0-3-0.4-4.3-1.2
	c0.2,2.3-0.6,4.6-2.3,6.3C110.4,289.5,108.4,290.3,106.3,290.3z M100.9,282.4c0.6,0.7,1.7,1.9,2.5,2.7c0.7,0.8,1.8,1.2,2.8,1.2
	c1.1,0,2.1-0.4,2.8-1.2c1.6-1.6,1.6-4.2,0-5.8c-0.1-0.1-2.2-2.4-4.2-4.7c-3.5-4-5.2-6.1-3.5-7.7l0.6-0.6l0.9,0c1,0,2,0,12.8,11.3
	l0.1,0.1c0.7,0.7,1.7,1.2,2.8,1.2c1.1,0,2.1-0.4,2.8-1.2c1.6-1.6,1.6-4.2,0-5.8c-0.1-0.1-0.5-0.5-0.7-0.7
	c-10.3-9.3-10.4-10.7-10.4-11.6c0-0.6,0.2-1.2,0.6-1.6c0.4-0.4,0.9-0.6,1.5-0.6c1,0,2.2,0,14.8,11.8l0.4,0.3c1.5,1.4,4,1.4,5.5-0.1
	c1.5-1.5,1.5-3.8,0.2-5.5l-0.1-0.1c-0.1-0.1-0.4-0.4-0.8-0.8c-9.4-10.2-9.9-11.6-8.3-13.2c0.4-0.4,1-0.6,1.6-0.6
	c0.9,0,2.2,0,12,10.1c0.7,0.7,1.7,1.2,2.8,1.2c1.1,0,2.1-0.4,2.8-1.2c1.5-1.5,1.6-4,0.1-5.6l-0.3-0.2l-9.5-9.6
	c-7.8-7.9-7.8-7.9-10-10.1l-6.7-6.8c0,0-1.9-1.8-4.5-1.8c-0.8,0-1.7,0.2-2.5,0.6c-4.1,1.8-9.2,4.2-11.9,5.5
	c-3.4,1.8-6.7,2.9-8.9,2.9c-8.7-0.1-15.7-7.2-15.7-15.8c0-5.5,2.8-10.5,7.4-13.4c4-2.8,11.7-7.1,15.6-9.3c-1.7-1.2-4.6-2.5-8.8-2.5
	c-6.4,0-20,8.1-24.8,11.2c-0.3,0.2-3,1.9-7.2,1.9c-2.2,0-4.5-0.5-6.7-1.4l-10.9-3.8v43.6c1.1,0.3,2.6,0.9,4.3,1.5
	c0.9-1.9,2.1-3.5,3.5-5c3.2-3.1,7.6-4.8,12.1-4.8c4.4,0,8.6,1.7,11.5,4.7c1.6,1.7,2.7,3.6,3.5,5.7c2,0.8,3.9,2,5.4,3.6
	c1.6,1.6,2.7,3.6,3.5,5.7c2,0.8,3.9,2,5.4,3.6c1.7,1.8,3,3.9,3.7,6.2c2.1,0.8,4,2.1,5.6,3.7C99.9,273,101.4,277.6,100.9,282.4z
	 M157.5,249.4c-3.3,0-6-1.1-8.2-3.1c-6.3-6.1-28.9-28.8-29.2-29c0,0-1.4-1.3-3.8-1.3c-1.3,0-2.7,0.4-4.1,1.1
	c-6.5,3.5-14.6,7.7-18,9.4c-1.6,0.9-3.4,1.4-5.2,1.4c-2.7,0-5.3-1.1-7.2-3.2c-1.8-1.8-2.8-4.3-2.8-6.5c0-3.8,2.1-6.9,6.1-9.2
	c8.3-5.1,25.6-14.9,32.5-18.6c2.4-1.3,4.2-1.8,6.1-1.8c2.9,0,5.9,1.4,9.6,4.6c7.3,6.2,13.9,11.9,13.9,12l0,0c0,0,1,0.8,2.6,0.8
	c0.4,0,0.8,0,1.2-0.1l2.9-0.6l0.6,0.3c7.6,3.5,18.8,6.4,18.9,6.5l1.5,0.4v34.2l-1.6,0.3c-0.4,0.1-9,1.8-10.8,2
	c-0.2,0-0.5,0.1-0.8,0.1C160.8,249.1,159.2,249.4,157.5,249.4z M116.4,211.9c4,0,6.4,2.2,6.6,2.5c0.2,0.2,22.8,22.9,29.1,29
	c1.4,1.3,3.1,2,5.4,2c1.4,0,2.7-0.2,3.6-0.4c0.4-0.1,0.8-0.2,1.1-0.2c1.2-0.2,6-1.1,9-1.7v-27.8c-3.3-0.9-11.2-3.3-17.4-6l-1.6,0.4
	c-0.7,0.1-1.4,0.2-2,0.2c-3.1,0-5-1.5-5.2-1.7c-0.1-0.1-6.6-5.8-13.9-12c-3-2.5-5.1-3.7-7-3.7c-1.2,0-2.4,0.4-4.2,1.3
	c-6.9,3.7-24.1,13.5-32.4,18.5c-3.7,2.1-4.2,4.3-4.2,5.7c0,1.2,0.7,2.6,1.7,3.7c0.7,0.7,2.2,1.9,4.4,1.9c1.1,0,2.2-0.3,3.3-0.9
	c3.4-1.7,11.4-5.9,17.9-9.3C112.4,212.4,114.4,211.9,116.4,211.9z"/>
<defs>
	<filter id="Adobe_OpacityMaskFilter_2_" filterUnits="userSpaceOnUse" x="172.3" y="113.3" width="230" height="230">
		<feColorMatrix  type="matrix" values="1 0 0 0 0  0 1 0 0 0  0 0 1 0 0  0 0 0 1 0"/>
	</filter>
</defs>
<mask maskUnits="userSpaceOnUse" x="172.3" y="113.3" width="230" height="230" id="SVGID_11_">
	<g filter="url(#Adobe_OpacityMaskFilter_2_)">
		<g>
			<defs>
				<rect id="SVGID_12_" x="162.3" y="110.8" width="250" height="235.5"/>
			</defs>
			<clipPath id="SVGID_13_">
				<use xlink:href="#SVGID_12_"  overflow="visible"/>
			</clipPath>
			<g clip-path="url(#SVGID_13_)">
				
					<image overflow="visible" width="500" height="471" xlink:href="2A52506377B5FE25.jpg"  transform="matrix(0.5 0 0 0.5 162.3271 110.8137)">
				</image>
			</g>
		</g>
	</g>
</mask>
<g mask="url(#SVGID_11_)">
	<g>
		<defs>
			<rect id="SVGID_14_" x="172.3" y="113.3" width="230" height="230"/>
		</defs>
		<clipPath id="SVGID_15_">
			<use xlink:href="#SVGID_14_"  overflow="visible"/>
		</clipPath>
		<rect x="172.3" y="113.3" opacity="0.17" clip-path="url(#SVGID_15_)" width="230" height="230"/>
	</g>
</g>
<path fill="#FFFFFF" d="M280.2,328c59,0,106.9-47.8,106.9-106.9c0-59-47.8-106.9-106.9-106.9c-59,0-106.9,47.8-106.9,106.9
	C173.3,280.2,221.1,328,280.2,328"/>
<circle fill="none" stroke="#131D3C" stroke-width="8" cx="280.2" cy="221.1" r="106.9"/>
<line fill="none" stroke="#131D3C" stroke-width="4" x1="160" y1="74.5" x2="138.3" y2="73"/>
<line fill="none" stroke="#131D3C" stroke-width="4" x1="173.8" y1="56" x2="157.5" y2="39.6"/>
<line fill="none" stroke="#131D3C" stroke-width="4" x1="253.9" y1="74.5" x2="232.1" y2="73"/>
<line fill="none" stroke="#131D3C" stroke-width="4" x1="235.7" y1="39.7" x2="219.3" y2="56"/>
<g>
	<g>
		<defs>
			<rect id="SVGID_16_" x="164.6" y="155.1" width="74.3" height="79"/>
		</defs>
		<clipPath id="SVGID_17_">
			<use xlink:href="#SVGID_16_"  overflow="visible"/>
		</clipPath>
		<defs>
			<filter id="Adobe_OpacityMaskFilter_3_" filterUnits="userSpaceOnUse" x="176.6" y="159.6" width="52.5" height="72.5">
				<feColorMatrix  type="matrix" values="1 0 0 0 0  0 1 0 0 0  0 0 1 0 0  0 0 0 1 0"/>
			</filter>
		</defs>
		<mask maskUnits="userSpaceOnUse" x="176.6" y="159.6" width="52.5" height="72.5" id="SVGID_18_">
			<g filter="url(#Adobe_OpacityMaskFilter_3_)">
				<g>
					<defs>
						<rect id="SVGID_19_" x="166.6" y="156.6" width="72" height="78.5"/>
					</defs>
					<clipPath id="SVGID_20_" clip-path="url(#SVGID_17_)">
						<use xlink:href="#SVGID_19_"  overflow="visible"/>
					</clipPath>
					<g clip-path="url(#SVGID_20_)">
						
							<image overflow="visible" width="144" height="157" xlink:href="2A52506377B5FE26.jpg"  transform="matrix(0.5 0 0 0.5 166.6267 156.6138)">
						</image>
					</g>
				</g>
			</g>
		</mask>
		<g clip-path="url(#SVGID_17_)" mask="url(#SVGID_18_)">
			<g>
				<defs>
					<rect id="SVGID_21_" x="176.6" y="159.6" width="52.5" height="72.5"/>
				</defs>
				<clipPath id="SVGID_22_">
					<use xlink:href="#SVGID_21_"  overflow="visible"/>
				</clipPath>
				<rect x="176.6" y="159.6" opacity="0.17" clip-path="url(#SVGID_22_)" width="52.5" height="72.5"/>
			</g>
		</g>
		<path clip-path="url(#SVGID_17_)" fill="#E25E60" d="M173.6,218.7c7.2,1.5,14.7,2.3,22.3,2.3c7.5,0,14.8-0.8,21.8-2.2
			c-0.5-23.6-8.7-45.3-22.1-62.7C182.3,173.5,174.2,195.2,173.6,218.7"/>
	</g>
</g>
<path fill="#131D3C" d="M110.8,332.3C49.7,332.3,0,282.6,0,221.5c0-61.1,49.7-110.8,110.8-110.8c61.1,0,110.8,49.7,110.8,110.8
	C221.5,282.6,171.8,332.3,110.8,332.3z M110.8,118.8C54.1,118.8,8,164.8,8,221.5c0,56.7,46.1,102.8,102.8,102.8
	c56.7,0,102.8-46.1,102.8-102.8C213.5,164.8,167.4,118.8,110.8,118.8z"/>
<defs>
	<filter id="Adobe_OpacityMaskFilter_4_" filterUnits="userSpaceOnUse" x="88.2" y="3" width="229.5" height="229.5">
		<feColorMatrix  type="matrix" values="1 0 0 0 0  0 1 0 0 0  0 0 1 0 0  0 0 0 1 0"/>
	</filter>
</defs>
<mask maskUnits="userSpaceOnUse" x="88.2" y="3" width="229.5" height="229.5" id="SVGID_23_">
	<g filter="url(#Adobe_OpacityMaskFilter_4_)">
		<g>
			<defs>
				<rect id="SVGID_24_" x="78.2" y="0.5" width="250" height="235"/>
			</defs>
			<clipPath id="SVGID_25_">
				<use xlink:href="#SVGID_24_"  overflow="visible"/>
			</clipPath>
			<g clip-path="url(#SVGID_25_)">
				
					<image overflow="visible" width="500" height="470" xlink:href="2A52506377B5FE24.jpg"  transform="matrix(0.5 0 0 0.5 78.1554 0.5308)">
				</image>
			</g>
		</g>
	</g>
</mask>
<g mask="url(#SVGID_23_)">
	<g>
		<defs>
			<rect id="SVGID_26_" x="88.2" y="3" width="229.5" height="229.5"/>
		</defs>
		<clipPath id="SVGID_27_">
			<use xlink:href="#SVGID_26_"  overflow="visible"/>
		</clipPath>
		<rect x="88.2" y="3" opacity="0.17" clip-path="url(#SVGID_27_)" width="229.5" height="229.5"/>
	</g>
</g>
<path fill="#131D3C" d="M195.9,221.5c-61.1,0-110.8-49.7-110.8-110.8S134.8,0,195.9,0c61.1,0,110.8,49.7,110.8,110.8
	S256.9,221.5,195.9,221.5z M195.9,8C139.2,8,93.1,54.1,93.1,110.8c0,56.7,46.1,102.8,102.8,102.8s102.8-46.1,102.8-102.8
	C298.6,54.1,252.5,8,195.9,8z"/>
<polygon fill="#131D3C" points="282.5,278.8 277.8,278.8 226.4,204 231.1,204 "/>
<polygon fill="#131D3C" points="282.5,278.8 277.8,278.8 259.1,204 263.8,204 "/>
<polygon fill="#131D3C" points="249.8,171.2 245.1,171.2 226.4,204 231.1,204 "/>
<polygon fill="#131D3C" points="282.5,171.2 277.8,171.2 259.1,204 263.8,204 "/>
<polygon fill="#131D3C" points="263.8,204 259.1,204 245.1,171.2 249.8,171.2 "/>
<polygon fill="#131D3C" points="277.8,278.8 282.5,278.8 334,204 329.3,204 "/>
<polygon fill="#131D3C" points="277.8,278.8 282.5,278.8 301.2,204 296.5,204 "/>
<polygon fill="#131D3C" points="310.6,171.2 315.2,171.2 334,204 329.3,204 "/>
<polygon fill="#131D3C" points="277.8,171.2 282.5,171.2 301.2,204 296.5,204 "/>
<polygon fill="#131D3C" points="296.5,204 301.2,204 315.2,171.2 310.6,171.2 "/>
<rect x="249.8" y="171.2" fill="#131D3C" width="60.8" height="4.7"/>
<rect x="231.1" y="199.3" fill="#131D3C" width="98.2" height="4.7"/>
<defs>
	<filter id="Adobe_OpacityMaskFilter_5_" filterUnits="userSpaceOnUse" x="219.6" y="123.9" width="90" height="95.5">
		<feColorMatrix  type="matrix" values="1 0 0 0 0  0 1 0 0 0  0 0 1 0 0  0 0 0 1 0"/>
	</filter>
</defs>
<mask maskUnits="userSpaceOnUse" x="219.6" y="123.9" width="90" height="95.5" id="SVGID_28_">
	<g filter="url(#Adobe_OpacityMaskFilter_5_)">
		<g>
			<defs>
				<rect id="SVGID_29_" x="209.6" y="120.9" width="110" height="102"/>
			</defs>
			<clipPath id="SVGID_30_">
				<use xlink:href="#SVGID_29_"  overflow="visible"/>
			</clipPath>
			<g clip-path="url(#SVGID_30_)">
				
					<image overflow="visible" width="220" height="204" xlink:href="2A52506377B5FE23.jpg"  transform="matrix(0.5 0 0 0.5 209.6019 120.8853)">
				</image>
			</g>
		</g>
	</g>
</mask>
<g mask="url(#SVGID_28_)">
	<g>
		<defs>
			<rect id="SVGID_31_" x="219.6" y="123.9" width="90" height="95.5"/>
		</defs>
		<clipPath id="SVGID_32_">
			<use xlink:href="#SVGID_31_"  overflow="visible"/>
		</clipPath>
		<rect x="219.6" y="123.9" opacity="0.17" clip-path="url(#SVGID_32_)" width="90" height="95.5"/>
	</g>
</g>
<path fill="#FFFFFF" d="M228.7,208.4c48-16,69-63.8,69.5-88c-35,21-59.8,12-59.8,12L216.6,160l7.1,8.5l5,18l-2.3,10
	C226.4,196.5,221.5,202.4,228.7,208.4"/>
<path fill="#131D3C" d="M197.2,84.9c-1.5,0-2.8-1.3-2.8-2.8c0-1.5,1.3-2.8,2.8-2.8c1.5,0,2.8,1.3,2.8,2.8
	C200,83.6,198.8,84.9,197.2,84.9 M212.3,102.2c0,0-0.1,0-0.1,0.1c-3.1,2.2-6.6,6.9-6.6,13.4v2.8h-7v-31c2.4-0.6,4.2-2.8,4.2-5.4
	c0-3.1-2.5-5.6-5.6-5.6c-3.1,0-5.6,2.5-5.6,5.6c0,2.6,1.8,4.8,4.2,5.4v31h-7v-2.8c0-6-3.4-10.9-6.3-13.1c0,0,0-0.1-0.1-0.1
	c-0.1-0.1-0.2-0.1-0.3-0.2c-0.1,0-0.1-0.1-0.2-0.1c-6.3-4.8-10-12.1-10-20c0-13.9,11.3-25.2,25.1-25.2c13.9,0,25.2,11.3,25.2,25.2
	C222.4,90,218.7,97.4,212.3,102.2 M205.6,124h-16.8v-2.8h16.8V124z M205.6,129.6h-2.8h-11.2h-2.8v-2.8h16.8V129.6z M225.2,82.1
	c0-15.4-12.5-27.9-28-27.9c-15.4,0-27.9,12.5-27.9,27.9c0,9.1,4.4,17.1,11.1,22.2l0,0c0.1,0.1,0.3,0.2,0.4,0.3c0,0,0,0,0,0
	c2.2,1.7,5.3,5.7,5.3,11v8.4v2.8v2.8v2.8h2.8h2.8h11.2h2.8h2.8v-16.8c0-5.6,3.2-9.6,5.6-11.2v0C220.8,99.3,225.2,91.2,225.2,82.1"/>
<path fill="none" stroke="#131D3C" d="M197.2,84.9c-1.5,0-2.8-1.3-2.8-2.8c0-1.5,1.3-2.8,2.8-2.8c1.5,0,2.8,1.3,2.8,2.8
	C200,83.6,198.8,84.9,197.2,84.9z M212.3,102.2c0,0-0.1,0-0.1,0.1c-3.1,2.2-6.6,6.9-6.6,13.4v2.8h-7v-31c2.4-0.6,4.2-2.8,4.2-5.4
	c0-3.1-2.5-5.6-5.6-5.6c-3.1,0-5.6,2.5-5.6,5.6c0,2.6,1.8,4.8,4.2,5.4v31h-7v-2.8c0-6-3.4-10.9-6.3-13.1c0,0,0-0.1-0.1-0.1
	c-0.1-0.1-0.2-0.1-0.3-0.2c-0.1,0-0.1-0.1-0.2-0.1c-6.3-4.8-10-12.1-10-20c0-13.9,11.3-25.2,25.1-25.2c13.9,0,25.2,11.3,25.2,25.2
	C222.4,90,218.7,97.4,212.3,102.2z M205.6,124h-16.8v-2.8h16.8V124z M205.6,129.6h-2.8h-11.2h-2.8v-2.8h16.8V129.6z M225.2,82.1
	c0-15.4-12.5-27.9-28-27.9c-15.4,0-27.9,12.5-27.9,27.9c0,9.1,4.4,17.1,11.1,22.2l0,0c0.1,0.1,0.3,0.2,0.4,0.3c0,0,0,0,0,0
	c2.2,1.7,5.3,5.7,5.3,11v8.4v2.8v2.8v2.8h2.8h2.8h11.2h2.8h2.8v-16.8c0-5.6,3.2-9.6,5.6-11.2v0C220.8,99.3,225.2,91.2,225.2,82.1z"
	/>
<rect x="194.4" y="132.4" fill="#131D3C" width="5.6" height="2.8"/>
<rect x="194.4" y="132.4" fill="none" stroke="#131D3C" width="5.6" height="2.8"/>
<defs>
	<filter id="Adobe_OpacityMaskFilter_6_" filterUnits="userSpaceOnUse" x="3" y="113.8" width="229.5" height="229.5">
		<feColorMatrix  type="matrix" values="1 0 0 0 0  0 1 0 0 0  0 0 1 0 0  0 0 0 1 0"/>
	</filter>
</defs>
<mask maskUnits="userSpaceOnUse" x="3" y="113.8" width="229.5" height="229.5" id="SVGID_33_">
	<g filter="url(#Adobe_OpacityMaskFilter_6_)">
		<g>
			<defs>
				<rect id="SVGID_34_" x="-7" y="111.3" width="250" height="235"/>
			</defs>
			<clipPath id="SVGID_35_">
				<use xlink:href="#SVGID_34_"  overflow="visible"/>
			</clipPath>
			<g clip-path="url(#SVGID_35_)">
				
					<image overflow="visible" width="500" height="470" xlink:href="2A52506377B5FE2D.jpg"  transform="matrix(0.5 0 0 0.5 -6.9693 111.2842)">
				</image>
			</g>
		</g>
	</g>
</mask>
<g mask="url(#SVGID_33_)">
	<g>
		<defs>
			<rect id="SVGID_36_" x="3" y="113.8" width="229.5" height="229.5"/>
		</defs>
		<clipPath id="SVGID_37_">
			<use xlink:href="#SVGID_36_"  overflow="visible"/>
		</clipPath>
		<rect x="3" y="113.8" opacity="0.17" clip-path="url(#SVGID_37_)" width="229.5" height="229.5"/>
	</g>
</g>
</svg>
