<?xml version="1.0" encoding="utf-8"?>
<!-- Generator: Adobe Illustrator 18.1.0, SVG Export Plug-In . SVG Version: 6.00 Build 0)  -->
<!DOCTYPE svg PUBLIC "-//W3C//DTD SVG 1.1//EN" "http://www.w3.org/Graphics/SVG/1.1/DTD/svg11.dtd">
<svg version="1.1" id="Layer_1" xmlns="http://www.w3.org/2000/svg" xmlns:xlink="http://www.w3.org/1999/xlink" x="0px" y="0px"
	 viewBox="0 0 265.7 265.7" enable-background="new 0 0 265.7 265.7" xml:space="preserve">
<path fill="#FFFFFF" d="M132.8,260.7c70.6,0,127.8-57.2,127.8-127.8C260.7,62.2,203.4,5,132.8,5C62.2,5,5,62.2,5,132.8
	C5,203.4,62.2,260.7,132.8,260.7"/>
<path fill="#131D3C" d="M132.8,265.7C59.6,265.7,0,206.1,0,132.8C0,59.6,59.6,0,132.8,0c73.2,0,132.8,59.6,132.8,132.8
	C265.7,206.1,206.1,265.7,132.8,265.7z M132.8,10C65.1,10,10,65.1,10,132.8c0,67.7,55.1,122.8,122.8,122.8
	c67.7,0,122.8-55.1,122.8-122.8C255.7,65.1,200.6,10,132.8,10z"/>
<path fill="#131D3C" d="M189.5,167.7c-7.3,0-13.3-6-13.3-13.3c0-7.3,6-13.3,13.3-13.3c7.3,0,13.3,6,13.3,13.3
	C202.8,161.7,196.8,167.7,189.5,167.7 M147.5,116.2v-12.8c0-0.6,0.3-1.2,0.8-1.6c0.5-0.4,1.1-0.6,1.7-0.5c15.6,1.8,27.6,7,32.1,13.8
	c0.5,0.7,0.5,1.5,0.1,2.3c-0.4,0.7-1.1,1.2-2,1.2h-30.5C148.5,118.4,147.5,117.4,147.5,116.2 M143.1,116.2c0,1.2-1,2.2-2.2,2.2
	h-34.4c-0.8,0-1.5-0.4-1.9-1c-0.4-0.7-0.4-1.5-0.1-2.1c1.6-3.3,4.6-9.1,6-10.3c4.7-3,14.1-4.4,28.2-4.4c0.8,0,1.5,0,2.3,0
	c1.2,0,2.2,1,2.2,2.2V116.2z M64.6,167.7c-7.3,0-13.3-6-13.3-13.3c0-7.3,6-13.3,13.3-13.3c7.3,0,13.3,6,13.3,13.3
	C77.9,161.7,71.9,167.7,64.6,167.7 M233.5,150h-5.9c-1.4-7.3-4-17.3-8.1-22.7c-19.1-24.9-43.2-38.2-73.4-38.2
	c-19.6,0-32.4,1.9-39,5.9c-0.9,0.5-3.5,2.1-10.7,16.4c-10.4,0.2-38,2.1-51.2,17c-6.6,7.5-9.3,15.5-10.3,21.5h-2.8
	c-2.4,0-4.4,2-4.4,4.4c0,2.4,2,4.4,4.4,4.4h2.2c0,0.2,0,0.4,0,0.5c0.3,2.3,2.1,4,4.4,4h5.6c3.4,7.8,11.2,13.3,20.3,13.3
	c9.1,0,16.8-5.5,20.3-13.3h84.4c3.4,7.8,11.2,13.3,20.2,13.3c9.1,0,16.8-5.5,20.3-13.3h15c2.4,0,4.4-2,4.4-4.4h4.3
	c2.4,0,4.4-2,4.4-4.4C238,152,236,150,233.5,150"/>
</svg>
