<?xml version="1.0" encoding="utf-8"?>
<!-- Generator: Adobe Illustrator 18.1.0, SVG Export Plug-In . SVG Version: 6.00 Build 0)  -->
<!DOCTYPE svg PUBLIC "-//W3C//DTD SVG 1.1//EN" "http://www.w3.org/Graphics/SVG/1.1/DTD/svg11.dtd">
<svg version="1.1" id="Layer_1" xmlns="http://www.w3.org/2000/svg" xmlns:xlink="http://www.w3.org/1999/xlink" x="0px" y="0px"
	 viewBox="0 0 265.7 265.7" enable-background="new 0 0 265.7 265.7" xml:space="preserve">
<path fill="#FFFFFF" d="M132.8,260.7c70.6,0,127.8-57.2,127.8-127.8C260.7,62.2,203.4,5,132.8,5C62.2,5,5,62.2,5,132.8
	C5,203.4,62.2,260.7,132.8,260.7"/>
<path fill="#131D3C" d="M132.8,265.7C59.6,265.7,0,206.1,0,132.8C0,59.6,59.6,0,132.8,0c73.2,0,132.8,59.6,132.8,132.8
	C265.7,206.1,206.1,265.7,132.8,265.7z M132.8,10C65.1,10,10,65.1,10,132.8c0,67.7,55.1,122.8,122.8,122.8
	c67.7,0,122.8-55.1,122.8-122.8C255.7,65.1,200.6,10,132.8,10z"/>
<path fill="#131D3C" d="M145.6,145.5L145.6,145.5c-3.3,3.3-7.7,5.3-12.7,5.3c-5,0-9.5-2-12.7-5.3c-3.2-3.3-5.3-7.8-5.3-12.7
	c0-5,2-9.5,5.3-12.7c3.3-3.2,7.8-5.3,12.7-5.3c5,0,9.5,2,12.7,5.3c3.3,3.3,5.3,7.8,5.3,12.7C150.9,137.8,148.8,142.3,145.6,145.5
	 M132.8,107.6L132.8,107.6c-6.9,0-13.2,2.8-17.8,7.4c-4.5,4.6-7.4,10.8-7.4,17.8c0,6.9,2.9,13.2,7.4,17.8c4.6,4.5,10.8,7.4,17.8,7.4
	c7,0,13.2-2.8,17.8-7.4c4.6-4.6,7.4-10.8,7.4-17.8c0-6.9-2.8-13.2-7.4-17.8C146.1,110.5,139.8,107.6,132.8,107.6 M194.4,138.2
	L194.4,138.2h-12.7c-3,0-5.5,2.2-5.9,5c-0.5,2.2-1.3,4.4-2.1,6.5c-0.9,2.3-2.1,4.4-3.3,6.4c-1.5,2.4-1.1,5.5,0.8,7.4l9,9l-7.5,7.5
	l-9-9c-2.1-2.1-5.4-2.3-7.7-0.6c-1.9,1.2-4,2.2-6.1,3.1c-2.2,0.9-4.6,1.7-6.9,2.2c-2.8,0.6-4.6,3.1-4.6,5.8v12.7h-10.7v-12.7
	c0-3-2.2-5.4-5-5.9c-2.3-0.5-4.5-1.3-6.6-2.1l-0.3-0.1c-2.1-0.9-4.2-2-6.2-3.2c-2.4-1.5-5.4-1.1-7.3,0.9l0,0l-9,9l-7.6-7.5l9-9
	c2-2,2.3-5,0.8-7.3v0c-1.3-2.1-2.4-4.2-3.3-6.5l-0.1-0.3c-0.9-2.1-1.6-4.3-2.1-6.6c-0.6-2.8-3.1-4.6-5.8-4.6v0H71.3v-10.7H84
	c3,0,5.4-2.2,5.9-5c0.5-2.2,1.3-4.4,2.1-6.6l0.1-0.3c0.9-2.2,2-4.3,3.2-6.2c1.5-2.4,1.1-5.4-0.8-7.3l0,0l-9-9l7.6-7.5l9,9
	c2,2,5.1,2.3,7.4,0.8c2-1.3,4.2-2.4,6.4-3.3c2.2-0.9,4.5-1.7,6.9-2.2c2.8-0.6,4.7-3.1,4.6-5.8h0V71.3h10.7V84c0,3,2.2,5.4,5,5.9
	c2.2,0.5,4.4,1.2,6.5,2.1c2.3,0.9,4.5,2.1,6.5,3.3c2.5,1.6,5.7,1,7.6-1.1l8.8-8.8l7.5,7.6l-9,9c-2.1,2.1-2.3,5.3-0.6,7.7
	c1.2,2,2.3,4.1,3.2,6.2l0.2,0.3c0.9,2.1,1.5,4.3,2.1,6.6c0.6,2.8,3,4.6,5.8,4.6v0h12.8L194.4,138.2z M200.3,115.6h-14.2
	c-0.4-1.3-0.9-2.6-1.3-3.9l-0.1-0.3c-0.6-1.4-1.2-2.7-1.9-4.1l9.9-9.9l0.1-0.1c2.3-2.3,2.3-6.1,0-8.4l-16-16v0
	c-2.3-2.3-6.1-2.3-8.4,0l-10,10c-1.3-0.7-2.7-1.3-4.1-1.9c-1.3-0.6-2.7-1.1-4.2-1.5V65.3c0-3.3-2.7-6-6-6h-22.6c-3.3,0-6,2.7-6,6
	v14.1c-1.4,0.5-2.8,1-4.2,1.6c-1.4,0.6-2.7,1.2-4.1,1.9l-9.7-9.7l-0.3-0.3c-2.3-2.3-6.1-2.3-8.5,0L73,88.8l-0.1,0.1
	c-2.3,2.3-2.3,6.1,0,8.5l10,10c-0.6,1.2-1.2,2.5-1.7,3.7l-0.1,0.3c-0.6,1.4-1.1,2.8-1.6,4.2H65.3c-3.3,0-6,2.7-6,6v22.6
	c0,3.3,2.7,6,6,6h14.2c0.4,1.3,0.9,2.6,1.4,3.9l0.1,0.3c0.6,1.4,1.2,2.7,1.9,4.1l-9.7,9.7l-0.3,0.3c-2.3,2.3-2.3,6.1,0,8.4
	l15.9,15.9l0.1,0.1c2.3,2.3,6.1,2.3,8.4,0l10-10c1.2,0.6,2.5,1.2,3.7,1.7l0.3,0.1c1.4,0.6,2.8,1.1,4.2,1.6v14.2c0,3.3,2.7,6,6,6
	h22.6c3.3,0,6-2.7,6-6v-14.2c1.4-0.5,2.8-1,4.2-1.5c1.4-0.6,2.7-1.2,4-1.9l9.9,9.9l0.1,0.1c2.3,2.3,6.1,2.3,8.4,0l15.9-15.9l0.1-0.1
	c2.3-2.3,2.3-6.1,0-8.4l-10-10c0.7-1.3,1.3-2.7,1.9-4.1c0.6-1.4,1.1-2.8,1.5-4.2h14.2v0c3.3,0,6-2.7,6-5.9v-22.1v-0.5
	C206.3,118.2,203.6,115.6,200.3,115.6"/>
</svg>
