<?xml version="1.0" encoding="utf-8"?>
<!-- Generator: Adobe Illustrator 18.1.0, SVG Export Plug-In . SVG Version: 6.00 Build 0)  -->
<!DOCTYPE svg PUBLIC "-//W3C//DTD SVG 1.1//EN" "http://www.w3.org/Graphics/SVG/1.1/DTD/svg11.dtd">
<svg version="1.1" id="Layer_1" xmlns="http://www.w3.org/2000/svg" xmlns:xlink="http://www.w3.org/1999/xlink" x="0px" y="0px"
	 viewBox="0 0 500 393.2" enable-background="new 0 0 500 393.2" xml:space="preserve">
    <style>
        .multiply {
            mix-blend-mode: multiply;
        }
    </style>
<path fill="#d31f1a" d="M303.4,0C412,0,500,88,500,196.6c0,108.6-88,196.6-196.6,196.6c-108.6,0-196.6-88-196.6-196.6
	C106.8,88,194.8,0,303.4,0"/>
<path fill="#d31f1a" d="M196.6,393.2C88,393.2,0,305.2,0,196.6C0,88,88,0,196.6,0c108.6,0,196.6,88,196.6,196.6
	C393.2,305.2,305.2,393.2,196.6,393.2"/>
<linearGradient id="SVGID_1_" gradientUnits="userSpaceOnUse" x1="249.0049" y1="29.9505" x2="285.5192" y2="368.41">
	<stop  offset="0" style="stop-color:#9C1006"/>
	<stop  offset="3.446352e-02" style="stop-color:#A0180F;stop-opacity:0.9645"/>
	<stop  offset="1" style="stop-color:#A0180F;stop-opacity:0"/>
</linearGradient>
<path class="multiply" fill="url(#SVGID_1_)" d="M106.8,195.2v2.8c0.7,87.9,72.2,158.8,160.2,158.8c88.5,0,160.2-71.7,160.2-160.2
	c0-88.5-71.7-160.2-160.2-160.2C178.9,36.4,107.5,107.4,106.8,195.2"/>
<linearGradient id="SVGID_2_" gradientUnits="userSpaceOnUse" x1="249.9998" y1="362.3088" x2="216.2943" y2="33.68">
	<stop  offset="0" style="stop-color:#9C1006"/>
	<stop  offset="1" style="stop-color:#A0180F;stop-opacity:0"/>
</linearGradient>
<path class="multiply" fill="url(#SVGID_2_)" d="M72.8,195.2v2.8C73.5,285.9,145,356.8,233,356.8c88.5,0,160.2-71.7,160.2-160.2
	c0-88.5-71.7-160.2-160.2-160.2C145,36.4,73.5,107.4,72.8,195.2"/>
<g class="multiply">
	<defs>
		<path id="SVGID_3_" d="M106.8,195.5v2.3c0.6,65.3,53.7,118,119.1,118c65.8,0,119.1-53.3,119.1-119.1
			c0-65.8-53.3-119.1-119.1-119.1C160.5,77.5,107.4,130.2,106.8,195.5"/>
	</defs>
	<clipPath id="SVGID_4_">
		<use xlink:href="#SVGID_3_"  overflow="visible"/>
	</clipPath>
	
		<linearGradient id="SVGID_5_" gradientUnits="userSpaceOnUse" x1="-622.6933" y1="678.5798" x2="-616.0672" y2="678.5798" gradientTransform="matrix(0 -35.9551 35.9551 0 -24172.502 -22073.2793)">
		<stop  offset="0" style="stop-color:#9C1006"/>
		<stop  offset="0.6759" style="stop-color:#9D1208;stop-opacity:0.3241"/>
		<stop  offset="1" style="stop-color:#A0180F;stop-opacity:0"/>
	</linearGradient>
	<rect x="106.8" y="77.5" clip-path="url(#SVGID_4_)" fill="url(#SVGID_5_)" width="238.2" height="238.2"/>
</g>
<g class="multiply">
	<defs>
		<path id="SVGID_6_" d="M155,195.5v2.3c0.6,65.3,53.7,118,119.1,118c65.8,0,119.1-53.3,119.1-119.1c0-65.8-53.3-119.1-119.1-119.1
			C208.7,77.5,155.6,130.2,155,195.5"/>
	</defs>
	<clipPath id="SVGID_7_">
		<use xlink:href="#SVGID_6_"  overflow="visible"/>
	</clipPath>
	
		<linearGradient id="SVGID_8_" gradientUnits="userSpaceOnUse" x1="-606.9841" y1="647.2382" x2="-600.3578" y2="647.2382" gradientTransform="matrix(0 35.957 -35.957 0 23546.8418 21902.8047)">
		<stop  offset="0" style="stop-color:#9C1006"/>
		<stop  offset="0.6759" style="stop-color:#9D1208;stop-opacity:0.3241"/>
		<stop  offset="1" style="stop-color:#A0180F;stop-opacity:0"/>
	</linearGradient>
	<rect x="155" y="77.5" clip-path="url(#SVGID_7_)" fill="url(#SVGID_8_)" width="238.2" height="238.3"/>
</g>
<path fill="#FFFFFF" d="M353.6,217.7c-1.9-4.4-6.8-6.5-11.3-5l4.7-36c2.2-16.6-9.9-29.5-25.8-29.5c-18,0-27.8,14.3-30.1,27.3
	c-1.3,7.4-2.2,8.7-4.8,11.4l-18.8,19l10.3-79.3c0.6-5-2.9-9.6-7.9-10.3c-5-0.6-9.6,2.9-10.3,7.9l-3.4,26c0,0-4.4-2.1-10.4-2.1
	c-14.8,0-29.1,11.4-31.2,27.3c-0.9,6.7-2.3,9.1-4.8,12c-2.2,2.6-22.4,25.7-22.4,25.7c-3,3.2-11.6,13.3-24.5,13.3c-6.7,0-7.6-7-7.6-7
	l19.2-13.4c8-5.6,24.7-17.2,24.7-33.2c0-14.4-11.2-24.6-25.7-24.6c-17.6,0-29.3,13-31.4,27.3l-5.1,35c0,0.1,0,0.3,0,0.4v0l-5.9,4.2
	c-4,3.1-4.7,8.8-1.7,12.8c1.8,2.3,4.5,3.6,7.3,3.6c0.8,0,1.6-0.1,2.4-0.4c3.8,8.5,11.6,13.7,23.1,13.7c21,0,32.9-13.6,37.7-19.1
	l9.7-11.1c-2.5,19.8,10.5,30.3,24.8,30.3c16.7,0,22.5-5.4,38.1-19.8l13.1-12.5l-7.3,56.3c-0.7,5,2.9,9.6,7.9,10.3
	c5,0.6,9.6-2.9,10.3-7.9l3.7-28.4c0,0,4.4,2.1,10.5,2.1c4.2,0,8.5-0.9,12.4-2.7l25.9-11.4C353.5,227.8,355.6,222.4,353.6,217.7
	 M159.1,176.9c0.9-7.1,7.5-12.1,14.5-12.1c7,0,7.6,4.8,7.6,6.7c0,7.4-11.8,15.6-24.7,24.7C156.5,196.2,158.1,184.6,159.1,176.9
	 M252.9,176.1l-4.9,37.9c-1,8-6.7,11.3-11.5,11.3c-6.9,0-9.4-3.8-8.4-11.3l4.9-37.9c1.1-8,6.7-11.3,11.5-11.3
	C251.4,164.8,253.9,168.5,252.9,176.1 M328.6,176.1l-4.9,37.9c-1,8-6.7,11.3-11.5,11.3c-6.9,0-9.4-3.8-8.4-11.3l4.9-37.9
	c1-8,6.7-11.3,11.5-11.3C327.1,164.8,329.6,168.5,328.6,176.1"/>
</svg>
