<?xml version="1.0" encoding="utf-8"?>
<!-- Generator: Adobe Illustrator 18.1.0, SVG Export Plug-In . SVG Version: 6.00 Build 0)  -->
<!DOCTYPE svg PUBLIC "-//W3C//DTD SVG 1.1//EN" "http://www.w3.org/Graphics/SVG/1.1/DTD/svg11.dtd">
<svg version="1.1" id="Layer_1" xmlns="http://www.w3.org/2000/svg" xmlns:xlink="http://www.w3.org/1999/xlink" x="0px" y="0px"
	 viewBox="0 0 500 500" enable-background="new 0 0 500 500" xml:space="preserve">
<path fill="#FFFFFF" d="M249,491.2c133.4,0,241.5-108.1,241.5-241.5C490.6,116.3,382.4,8.2,249,8.2S7.5,116.3,7.5,249.7
	C7.5,383.1,115.6,491.2,249,491.2"/>
<path fill="#131D3C" d="M258.6,278.1c5-5.2,9.1-13,12.1-22.6c5.6,1.7,10.9,3.9,16,6.6C279.2,269.8,269.5,275.5,258.6,278.1
	 M203.1,262.1c5.1-2.7,10.4-4.9,15.9-6.6c2.9,9.5,7.1,17.4,12.1,22.5C220.3,275.4,210.7,269.8,203.1,262.1 M231.1,164
	c-4.9,5.1-9.1,12.9-12.1,22.5c-5.5-1.7-10.9-3.9-15.9-6.6C210.7,172.2,220.3,166.6,231.1,164 M286.8,179.9c-5.1,2.7-10.4,4.9-16,6.6
	c-3-9.6-7.2-17.4-12.1-22.6C269.5,166.6,279.2,172.2,286.8,179.9 M275.6,218.5c-0.2-9.7-1.4-18.9-3.5-27c6.4-1.9,12.4-4.5,18.2-7.7
	c7.8,9.5,12.7,21.5,13.3,34.7H275.6z M275.6,223.6h28c-0.5,13.1-5.4,25.2-13.3,34.7c-5.7-3.1-11.8-5.7-18.2-7.7
	C274.2,242.4,275.4,233.3,275.6,223.6 M247.5,246.6v-23h22.9c-0.2,9.5-1.4,18.2-3.2,25.7C260.9,247.7,254.3,246.8,247.5,246.6
	 M247.5,279.3v-27.6c6.3,0.2,12.4,1,18.3,2.5C261.4,268.2,254.4,277.4,247.5,279.3 M242.4,251.7v27.7c-6.9-1.8-14-11-18.4-25.2
	C229.9,252.7,236.1,251.9,242.4,251.7 M219.3,223.6h23.1v23c-6.8,0.2-13.5,1.1-19.9,2.7C220.6,241.7,219.4,233.1,219.3,223.6
	 M214.2,223.6c0.2,9.7,1.4,18.9,3.5,27c-6.3,1.9-12.4,4.5-18.1,7.6c-7.8-9.5-12.7-21.5-13.3-34.7H214.2z M214.2,218.5h-27.8
	c0.6-13.1,5.4-25.1,13.3-34.7c5.7,3.1,11.7,5.7,18.1,7.6C215.6,199.6,214.3,208.7,214.2,218.5 M242.4,195.4v23.1h-23.1
	c0.1-9.5,1.3-18.2,3.3-25.7C228.9,194.3,235.6,195.2,242.4,195.4 M242.4,162.7v27.6c-6.4-0.2-12.5-1-18.4-2.5
	C228.4,173.7,235.5,164.5,242.4,162.7 M247.5,190.3v-27.6c6.9,1.9,13.8,11.1,18.3,25.1C259.9,189.3,253.8,190.1,247.5,190.3
	 M247.5,195.4c6.8-0.2,13.3-1.1,19.7-2.6c1.9,7.5,3.1,16.2,3.3,25.7h-22.9V195.4z M245,157.2L245,157.2c-0.1,0-0.1,0-0.1,0
	c-35.2,0.1-63.6,28.6-63.6,63.8c0,35.2,28.5,63.7,63.6,63.8c0,0,0,0,0.1,0h0.1c35.2,0,63.8-28.6,63.8-63.8
	C308.8,185.8,280.2,157.2,245,157.2"/>
<path fill="#131D3C" d="M76.2,130.9v182.6h339.2V130.9H76.2z M402.4,144v26.1c-14.3,0-26.1-11.8-26.1-26.1H402.4z M89.2,144h26.1
	c0,14.4-11.8,26.1-26.1,26.1V144z M89.2,300.6v-26.1c14.4,0,26.1,11.7,26.1,26.1H89.2z M402.4,300.6h-26.1
	c0-14.4,11.8-26.1,26.1-26.1V300.6z M402.4,261.4L402.4,261.4c-21.6,0-39.1,17.6-39.1,39.2H128.4c0-21.6-17.5-39.2-39.1-39.2v-78.3
	c21.6,0,39.1-17.5,39.1-39.1h234.9c0,21.6,17.5,39.1,39.1,39.1h0V261.4z"/>
<rect x="76.2" y="326.6" fill="#131D3C" width="339.2" height="13"/>
<rect x="76.2" y="352.7" fill="#131D3C" width="339.2" height="13"/>
<g>
	<path fill="#131D3C" d="M250,500C112.2,500,0,387.9,0,250C0,112.1,112.2,0,250,0s250,112.1,250,250C500,387.9,387.8,500,250,500z
		 M250,18.8C122.5,18.8,18.8,122.5,18.8,250c0,127.5,103.7,231.2,231.2,231.2c127.5,0,231.2-103.7,231.2-231.2
		C481.2,122.5,377.5,18.8,250,18.8z"/>
</g>
</svg>
