<?xml version="1.0" encoding="utf-8"?>
<!-- Generator: Adobe Illustrator 18.1.0, SVG Export Plug-In . SVG Version: 6.00 Build 0)  -->
<!DOCTYPE svg PUBLIC "-//W3C//DTD SVG 1.1//EN" "http://www.w3.org/Graphics/SVG/1.1/DTD/svg11.dtd">
<svg version="1.1" id="Layer_1" xmlns="http://www.w3.org/2000/svg" xmlns:xlink="http://www.w3.org/1999/xlink" x="0px" y="0px"
	 viewBox="0 0 500 500" enable-background="new 0 0 500 500" xml:space="preserve">
<g>
	<path fill="#FFFFFF" d="M250,490.6c132.9,0,240.6-107.7,240.6-240.6C490.6,117.1,382.9,9.4,250,9.4C117.1,9.4,9.4,117.1,9.4,250
		C9.4,382.9,117.1,490.6,250,490.6"/>
	<path fill="#131D3C" d="M250,500C112.2,500,0,387.9,0,250C0,112.1,112.2,0,250,0s250,112.1,250,250C500,387.9,387.8,500,250,500z
		 M250,18.8C122.5,18.8,18.8,122.5,18.8,250c0,127.5,103.7,231.2,231.2,231.2c127.5,0,231.2-103.7,231.2-231.2
		C481.2,122.5,377.5,18.8,250,18.8z"/>
	<g>
		<path fill="#131D3C" d="M243.3,169.1c1.5,1.8,3.7,2.8,5.9,2.8c2.3,0,4.5-1,5.9-2.8c6.7-7.8,16.5-22.3,16.5-38.8
			c0-16.5-9.9-30.9-16.5-38.8c-1.5-1.7-3.6-2.8-5.9-2.8c-2.3,0-4.4,1-5.9,2.8c-6.7,7.9-16.5,22.3-16.5,38.8
			C226.8,146.8,236.6,161.3,243.3,169.1"/>
		<path fill="#131D3C" d="M249.3,223.2c1.2,0.1,30.4,1.2,47.7-16c11.7-11.7,14.9-28.9,15.8-39.1c0.2-2.3-0.6-4.5-2.3-6.1
			c-1.6-1.6-3.9-2.4-6.2-2.2c-10.3,0.8-27.4,4.1-39.1,15.8c-12.9,12.9-15.5,32.5-16,42.1c-0.5-9.6-3-29.2-15.9-42.1
			c-11.7-11.7-28.9-14.9-39.1-15.8c-2.3-0.2-4.5,0.7-6.1,2.2c-1.6,1.6-2.5,3.9-2.3,6.2c0.8,10.3,4.1,27.4,15.8,39.1
			C218.8,224.5,248,223.3,249.3,223.2"/>
		<path fill="#131D3C" d="M265.2,237.3c-12.9,12.9-15.5,32.5-15.9,42.1c-0.5-9.6-3.1-29.2-16-42.1c-11.7-11.7-28.9-14.9-39.1-15.7
			c-2.3-0.2-4.5,0.6-6.1,2.3c-1.6,1.6-2.5,3.9-2.3,6.1c0.8,10.3,4.1,27.4,15.8,39.1c17.2,17.2,46.5,16.1,47.7,16
			c1.2,0.1,30.5,1.2,47.7-16c11.7-11.7,14.9-28.9,15.8-39.1c0.2-2.3-0.7-4.5-2.3-6.1c-1.6-1.6-3.9-2.5-6.2-2.3
			C294.1,222.4,276.9,225.7,265.2,237.3"/>
		<path fill="#131D3C" d="M265.2,299.2c-12.9,12.9-15.5,32.6-15.9,42.1c-0.5-9.6-3.1-29.2-16-42.1c-11.7-11.7-28.9-14.9-39.1-15.7
			c-2.3-0.2-4.5,0.6-6.2,2.2c-1.6,1.6-2.5,3.9-2.3,6.1c0.8,10.3,4.1,27.5,15.8,39.1c11.8,11.8,29.2,15,39.4,15.8v44.6
			c0,5.1,3.5,9.1,8.6,9.1c5.1,0,8.6-4.1,8.6-9.1v-44.7c10.3-0.9,27.3-4.2,38.8-15.8c11.7-11.7,14.9-28.9,15.8-39.1
			c0.2-2.3-0.7-4.5-2.3-6.1c-1.6-1.6-3.9-2.5-6.2-2.2C294.1,284.3,276.9,287.6,265.2,299.2"/>
	</g>
</g>
</svg>
