<?xml version="1.0" encoding="utf-8"?>
<!-- Generator: Adobe Illustrator 18.1.0, SVG Export Plug-In . SVG Version: 6.00 Build 0)  -->
<!DOCTYPE svg PUBLIC "-//W3C//DTD SVG 1.1//EN" "http://www.w3.org/Graphics/SVG/1.1/DTD/svg11.dtd">
<svg version="1.1" id="Layer_1" xmlns="http://www.w3.org/2000/svg" xmlns:xlink="http://www.w3.org/1999/xlink" x="0px" y="0px"
	 viewBox="0 0 265.7 265.7" enable-background="new 0 0 265.7 265.7" xml:space="preserve">
<path fill="#FFFFFF" d="M132.8,260.7c70.6,0,127.8-57.2,127.8-127.8C260.7,62.2,203.4,5,132.8,5C62.2,5,5,62.2,5,132.8
	C5,203.4,62.2,260.7,132.8,260.7"/>
<path fill="#131D3C" d="M132.8,265.7C59.6,265.7,0,206.1,0,132.8C0,59.6,59.6,0,132.8,0c73.2,0,132.8,59.6,132.8,132.8
	C265.7,206.1,206.1,265.7,132.8,265.7z M132.8,10C65.1,10,10,65.1,10,132.8c0,67.7,55.1,122.8,122.8,122.8
	c67.7,0,122.8-55.1,122.8-122.8C255.7,65.1,200.6,10,132.8,10z"/>
<path fill="#131D3C" d="M77.2,124.8C77.2,124.8,77.1,124.8,77.2,124.8C77.1,124.8,77.2,124.8,77.2,124.8L77.2,124.8z M77.2,124.9
	L77.2,124.9C77.2,124.8,77.2,124.8,77.2,124.9L77.2,124.9z M77.2,124.9L77.2,124.9C77.2,124.9,77.2,124.9,77.2,124.9L77.2,124.9z
	 M77.1,124.8C77.1,124.8,77.1,124.8,77.1,124.8L77.1,124.8C77.1,124.7,77.1,124.8,77.1,124.8 M81.2,120.5L81.2,120.5
	C81.2,120.6,81.2,120.5,81.2,120.5L81.2,120.5z M81.1,120.4L81.1,120.4c0,0,0.1,0,0.1,0c0,0,0,0.1,0,0.1h-0.1
	C81.1,120.5,81.1,120.4,81.1,120.4 M131.4,103.1c0,0.2,0.1,0.2,0.3,0.3c0-0.1,0.1-0.3,0.1-0.4c0.1,0,0.1,0,0.2,0
	c0,0.3,0,0.4-0.2,0.6c0,0,0,0,0,0c0.1,0,0.1,0.1,0.2,0.1c0,0,0,0,0,0c-0.1,0.1-0.2,0.2-0.3,0.3c0-0.1-0.1-0.1-0.1-0.2
	c-0.1,0-0.3,0-0.4,0C130.9,103.3,131.2,103.3,131.4,103.1C131.4,103.1,131.4,103.1,131.4,103.1 M129.8,101.8
	c0.2-0.1,0.2-0.3,0.4-0.4c0.1,0,0.3-0.1,0.4-0.1c0,0,0,0,0-0.1c0,0,0.1,0,0.1,0c-0.1,0.2-0.1,0.2-0.1,0.5c-0.1,0.1-0.1,0.1-0.1,0.2
	c-0.4,0-0.7,0-1,0c-0.1,0.2-0.2,0.3-0.3,0.4c-0.1-0.1-0.1-0.1-0.2-0.2c0.1-0.1,0.1-0.3,0.2-0.3C129.5,101.9,129.6,101.9,129.8,101.8
	 M178.4,139.8c0.1-0.2,0.1-0.3,0.1-0.4c0.3,0.2,0.6,0.4,0.7,0.9c0.2,0.1,0.2,0.2,0.3,0.3c0.1,0.2,0.3,0.3,0.3,0.6
	c0.1,0.5-0.6,0.9-1.1,0.8c-0.2-0.1-0.3-0.5-0.3-0.8v-0.8c0-0.1-0.1-0.2,0-0.3c0,0-0.1-0.1-0.1-0.1c0,0,0-0.1,0-0.1
	C178.3,139.9,178.4,139.9,178.4,139.8 M76.4,138.7c-0.2-0.1-0.2,0.1-0.3,0.1c-0.1,0-0.7-0.3-0.7-0.4c0.1,0,0.1-0.1,0.2-0.1
	c0.4,0,1,0.1,1.2,0.4c0,0,0,0,0,0.1C76.6,138.8,76.5,138.7,76.4,138.7 M77.2,124.9L77.2,124.9L77.2,124.9L77.2,124.9z M77.2,125
	c0,0,0,0.1,0,0.1h0C77.2,125,77.2,125,77.2,125 M77.2,125.1c0.1,0.1,0.1,0.2,0.2,0.4c0,0,0,0,0,0C77.3,125.3,77.3,125.2,77.2,125.1
	 M81.4,138.3c-0.1,0-0.1-0.1-0.2,0c-0.2,0-0.2,0.3-0.4,0.2c-0.1-0.1-0.1-0.1-0.2-0.2c-0.3,0.1-0.4,0.3-0.5,0.6
	c-0.2,0-0.3-0.3-0.4-0.4c-0.2,0-0.4,0-0.6,0c-0.2,0-0.4,0-0.5-0.1c-0.1,0-0.1,0.1-0.2,0.1c-0.1-0.1-0.3-0.1-0.4-0.3c0,0,0,0,0,0
	c0,0,0.1-0.1,0.1-0.1c0.4,0.1,1.1,0.2,1.3,0c0,0,0,0,0,0c-0.4-0.2-0.1-0.3-0.2-0.5c-0.1-0.2-0.4-0.1-0.5-0.2v-0.1l0.1-0.1
	c0.1,0,0.1,0,0.2,0c0.3,0,0.5,0.1,0.8,0.1c0.2,0,0.2-0.1,0.3-0.1c0.1,0,0.2,0,0.3,0c0.1,0,0.1-0.1,0.2-0.1c0.1,0.2,0.4,0.2,0.6,0.2
	c0.1,0.4,0.9,0.4,1.1,0.8c-0.1,0.1-0.1,0.2-0.2,0.3C81.8,138.4,81.7,138.2,81.4,138.3 M83.4,147.1c0-0.1,0-0.1,0-0.2
	c-0.1-0.1-0.1-0.1-0.1-0.1c0,0,0,0,0,0c0.1,0,0.3,0,0.4-0.1h0.1v0c-0.1,0.1,0,0.3-0.1,0.5c-0.2,0-0.4,0-0.6,0v0c0,0,0,0,0-0.1
	C83.2,147.1,83.3,147.1,83.4,147.1 M83.5,138.6c-0.2,0-0.3,0.1-0.5,0.1c0-0.1,0-0.2,0-0.3c0,0,0.1,0,0.1-0.1c0.3,0,0.8,0,1,0.1
	C84,138.7,83.8,138.6,83.5,138.6 M87.1,117.1c-0.1-0.3,0.4-0.7,0.5-1l0.3,0.2c-0.1,0.1-0.1,0.4-0.2,0.5c-0.1,0.1-0.3,0.1-0.3,0.3
	c0,0,0.1,0.1,0.1,0.1c0.3-0.1,0.4-0.7,0.7-0.2C88.1,117.4,87.2,117.6,87.1,117.1 M91.9,89.6c0.1,0.1,0,0.3-0.1,0.4c0,0,0,0,0,0
	C91.4,89.7,91.7,89.7,91.9,89.6 M92.2,155c-0.2,0.2-0.8,0.3-1.2,0.3c-0.1-0.2-0.2-0.7,0-1c0.3,0,1.3,0,1.4,0.1
	C92.4,154.6,92.3,154.9,92.2,155 M92.5,116.4l0-0.3c-0.1,0-0.1,0.1-0.2,0.1c0,0-0.1,0-0.1,0c0,0,0-0.1,0-0.1
	c0.1-0.1,0.1-0.2,0.1-0.3c0-0.1-0.1-0.1-0.1-0.2c0,0,0,0-0.1,0c-0.2,0.3-0.6,0.5-0.8,0.7c-0.1,0-0.2,0-0.3,0c0-0.1,0-0.1,0-0.1
	c0.4-0.1,0.4-0.4,0.7-0.5v0c-0.1,0-0.3,0-0.4,0c0,0.1,0,0.1-0.1,0.2c0,0-0.1,0-0.1,0c0,0,0,0,0,0v-0.2c-0.1,0-0.2,0-0.2,0
	c0,0.2-0.3,0.2-0.6,0.2c-0.3,0-0.6-0.1-0.9-0.1c-0.2,0-0.5,0.1-0.7,0.1c0-0.1-0.1-0.2-0.1-0.3c0.1-0.3,0.5-0.3,0.8-0.5
	c-0.1,0-0.2-0.1-0.3-0.1c0,0,0,0,0-0.1c0.1-0.4,0.4-0.2,0.6-0.4c-0.1-0.1-0.1-0.2-0.2-0.3c0.2-0.6,0.8-1.4,1.2-1.7
	c0.2-0.1,0.4-0.1,0.6-0.1c0,0,0.1,0,0.1,0c0,0,0,0.1,0,0.1c0,0,0,0,0,0.1c-0.1,0-0.2,0.1-0.3,0.1c0.2,0.5-0.6,0.8-0.6,1.4
	c0.3-0.1,0.2-0.3,0.5-0.4c0.1,0,0.2,0.1,0.3,0.1c-0.1,0.1-0.2,0.2-0.3,0.3v0v0c0.2,0.2,0.5,0.4,0.8,0.3c0-0.1,0.1-0.1,0.1-0.2
	c0.3,0,0.6,0.1,0.8,0.2c0,0-0.1,0.1-0.1,0.1c-0.1,0.1-0.2,0.2-0.3,0.3c0,0,0,0,0,0.1c0,0.1,0.1,0.2,0.2,0.2c0.1,0,0.2-0.1,0.3-0.1
	c0,0,0.1,0,0.1,0v0.1c-0.2,0.2-0.2,0.1-0.5,0.3v0c0,0.1,0.1,0.3,0.2,0.4c0,0,0,0,0,0c0-0.1,0.1-0.1,0.1-0.2c0.1,0,0.1,0,0.2,0l0,0
	c-0.1,0.2,0,0.3,0.3,0.3c0,0.2-0.1,0.5-0.2,0.7C92.7,116.5,92.6,116.4,92.5,116.4 M96.5,100.9c0-0.1,0.2-0.1,0.3-0.2
	c0,0,0.1,0,0.1,0c0,0,0,0,0,0.1C96.8,100.8,96.7,100.9,96.5,100.9C96.5,100.9,96.5,100.9,96.5,100.9 M108.1,85.3c-0.1,0-0.1,0-0.1,0
	c0,0,0,0,0,0c-0.1,0.1-0.1,0.1-0.2,0.2c-0.1,0-0.1,0.1-0.2,0.1c0,0-0.1,0-0.1,0.1c-0.1,0.1-0.1,0.1-0.2,0.1c0,0-0.3,0.1-0.4,0.1
	c0,0,0.1-0.2,0.1-0.3c0-0.1,0-0.2,0.1-0.3c0.1-0.1,0.2-0.1,0.4-0.2c0.1-0.1,0.3-0.2,0.4-0.4h0c0.1,0.1,0.5,0.2,0.4,0.4
	C108.2,85.2,108.2,85.3,108.1,85.3 M107.5,80.4c-0.2,0.1-0.4,0-0.5-0.1c0-0.1,0.2-0.2,0.3-0.3c0.3-0.1,0.3,0.1,0.5,0.1
	c0,0-0.1,0.1-0.1,0.1C107.6,80.3,107.5,80.4,107.5,80.4 M106.9,79.2C106.9,79.2,106.9,79.3,106.9,79.2L106.9,79.2L106.9,79.2
	 M107.2,79.5c-0.1,0-0.4-0.2-0.3-0.3c0.1,0,0.1,0,0.2,0.1C107.3,79.4,107.3,79.4,107.2,79.5 M107.5,79c0,0-0.1,0-0.1-0.1
	c0,0-0.2-0.3-0.2-0.3c0-0.1,0.2-0.1,0.3-0.3c0.1,0.1,0.2,0.3,0.4,0.3c0,0,0.1-0.1,0.2-0.1c0.1,0,0,0.1,0,0.1
	C108,78.8,107.6,79,107.5,79 M106.4,81.8c0.1,0,0.2,0,0.3-0.1c0.1,0,0.3,0,0.3,0.1c-0.1,0.1-0.7,0.2-0.8,0.2
	C106.4,82,106.4,81.9,106.4,81.8 M107.7,82.1c-0.1,0-0.2,0.1-0.3,0.1c-0.1,0-0.2,0-0.3,0.1c-0.1,0-0.2,0.1-0.3,0.1c0,0,0,0,0,0
	c0-0.1,0.1-0.1,0.2-0.1c0.2-0.1,0.3-0.2,0.5-0.3c0.2,0,0.5-0.1,0.7-0.1c0,0,0,0,0,0.1C108,82,107.8,82,107.7,82.1 M108.9,82.7
	c0,0-0.2,0.1-0.2,0.1c-0.1,0-0.1-0.1-0.1-0.1c-0.1,0-0.2,0-0.2-0.1c-0.4,0-0.8,0-1.1,0c-0.1,0-0.3-0.1-0.3-0.2
	c0.1-0.1,0.5-0.2,0.6-0.2c0.4-0.1,0.6,0.1,1,0.1c0,0,0.1,0,0.1,0c0,0,0,0,0,0h0c-0.1,0-0.2,0.1-0.4,0.1
	C108.4,82.7,108.7,82.7,108.9,82.7L108.9,82.7 M129.6,116L129.6,116c-0.1-0.1-0.1-0.1-0.1-0.1c0,0-0.1,0-0.1-0.1
	c0,0,0.1-0.1,0.1-0.1c-0.1,0-0.1,0-0.1-0.1c0,0,0,0,0,0c0,0,0,0,0.1-0.1v0c-0.1,0-0.1,0-0.1,0c0,0,0,0,0.1-0.1
	c-0.1-0.1-0.1-0.1-0.1-0.2c0,0,0,0,0.1,0c0,0,0,0-0.1-0.1c0.1-0.1,0.5-0.3,0.5-0.3c0-0.1,0-0.1,0-0.2c0,0,0,0,0,0c0,0,0,0,0.1,0
	C129.9,115.1,130,115.7,129.6,116C129.7,116,129.7,116,129.6,116 M130.1,117.3c0,0.2-0.1,0.3-0.1,0.5c-0.1,0-0.2-0.1-0.3,0
	c0,0.1-0.1,0.1-0.1,0.2c-0.5-0.1-0.1-0.6-0.2-1c0-0.2-0.2-0.3-0.2-0.5c0,0,0,0,0,0c0.3-0.1,0.5-0.1,0.7-0.3c0.1,0,0.4,0.4,0.4,0.6
	c0,0.1-0.1,0.1-0.1,0.2C130.1,117.1,130.1,117.2,130.1,117.3 M133.9,119.5c-0.1,0.1-0.1,0.2-0.2,0.2c-0.5-0.1-0.9-0.4-1.3-0.6
	c-0.2-0.1-0.3,0-0.4-0.2c0.1-0.3,0.4-0.2,0.6-0.4c0.4,0.2,0.6,0.2,1.1,0.1c0.1,0,0.3-0.1,0.4-0.1v0c-0.1,0.2-0.3,0.5-0.2,0.7
	C133.9,119.4,133.9,119.4,133.9,119.5 M140.4,121.1V121c-0.2-0.1-0.6-0.1-0.8-0.2c0-0.1,0-0.1,0.1-0.2h0.1c0-0.1,0-0.1,0-0.1v0
	c0,0.1,0.1,0.1,0.2,0.1c0,0,0.1,0,0.1-0.1l0,0c0,0,0,0,0,0.1c0.1,0,0.1,0,0.1,0.1c0.2,0,0.3,0,0.5,0c0.2,0.1,0.3,0.1,0.5,0.1
	c0,0,0,0,0,0c0,0,0,0.1,0,0.1c0,0,0,0,0.1,0c0.1-0.1,0.2-0.1,0.3-0.1c0,0.1,0,0.2-0.1,0.2C141.1,121.1,140.7,121.1,140.4,121.1
	 M146.8,121c-0.3,0-0.3,0.2-0.7,0.2c0,0.1,0,0.1-0.1,0.1c-0.1-0.1-0.3-0.1-0.4-0.1c0-0.1-0.1-0.1-0.1-0.3c0,0,0.4-0.1,0.4-0.1
	c0-0.1,0-0.1,0-0.2c0.1,0,0.3,0,0.4,0.1c0.2-0.1,0.5-0.2,0.7-0.3c-0.1,0.1-0.3,0.2-0.5,0.4C146.7,120.9,146.7,121,146.8,121
	 M153.4,161c0.1,0,0.1,0,0.2-0.1c0.1-0.1,0.6-1,0.5-1.3c-0.1-0.1-0.1-0.2-0.2-0.3c0-0.1,0.1-0.1,0.1-0.2c-0.1-0.1-0.3-0.7-0.3-0.9
	c0.1-0.3,0.3-0.4,0.3-0.9c0.1,0,0.2,0,0.3,0c0.1,0,0.1-0.1,0.2-0.1c0.1,0,0.2,0.1,0.3,0c0,0,0.1-0.1,0.1-0.1c0.2-0.1,0.3,0.1,0.5,0
	c0-0.1,0-0.1,0-0.2c0.1-0.1,0.2-0.1,0.3-0.2c0.1,0,0.1,0.1,0.2,0c0,0,0.1,0,0.1-0.1c0-0.1-0.1-0.1-0.1-0.2c0.1-0.1,0.1-0.1,0.2-0.2
	h0c0,0.1,0,0.1,0.1,0.1c0.1-0.1,0.1-0.1,0.2-0.2c0-0.1-0.1-0.1-0.1-0.2c0,0,0,0,0,0c0.1,0,0.1,0,0.2-0.1c0,0,0-0.1,0-0.1
	c-0.1-0.1-0.1-0.2-0.1-0.4c0,0,0.1,0,0.1,0c0,0.1,0.1,0.1,0.1,0.2c0.1-0.1,0.1-0.2,0.2-0.2c0.2-0.1,0.2-0.5,0.2-0.7
	c0.2-0.1,0.1-0.2,0.3,0c0.1,0.2,0.2,0.2,0.3,0.3c0.2,0.2,0.2,1,0.3,1.3c0.1,0.1,0.1,0.3,0.2,0.4c0,0.2-0.2,0.4-0.3,0.5
	c-0.1-0.1-0.2-0.3-0.3-0.4c0,0,0,0,0,0c0,0,0,0-0.1,0c0,0.3,0.1,0.5,0.2,0.6c-0.1,0.3-0.3,0.4-0.3,0.6c-0.1,0.3,0,0.5,0,0.7
	c-0.4,1.1-0.7,2.3-1.1,3.4c-0.1,0.4-0.3,1.4-0.6,1.6c-0.2,0-0.3,0-0.5,0.1c-0.3,0.1-0.3,0.3-0.7,0.3c-0.2-0.3-0.6-0.2-0.8-0.5
	c-0.1-0.1,0-0.2,0-0.3c-0.1-0.2-0.3-0.2-0.2-0.5c0-0.1,0.1-0.2,0.1-0.3c-0.1-0.2-0.3-0.5-0.4-0.7C153.1,161.6,153.3,161.1,153.4,161
	 M129.5,143.7c-0.1,0.1-0.1,0.3-0.3,0.3c0,0-0.1,0-0.1,0v-0.1c0.1,0,0.1-0.2,0.2-0.3C129.4,143.6,129.5,143.6,129.5,143.7 M113.6,94
	c0,0.1,0,0.1,0,0.2c-0.1,0.3-0.3,0.4-0.6,0.3c-0.3,0.2-0.6,0.4-0.9,0.5c-0.2,0-0.5,0.1-0.7,0.1c-0.3,0.1-0.2,0.5-0.9,0.4
	c-0.2,0-0.5-0.1-0.7-0.2c-0.1-0.1-0.2-0.2-0.3-0.2c-0.4-0.1-1.2,0.1-1.5-0.2c0.2-0.2,0.5-0.3,0.7-0.6c-0.4,0-0.4-0.1-0.6-0.3
	c-0.2,0-0.6,0.2-0.8,0.1c0,0,0-0.1-0.1-0.1c0,0,0,0,0,0c0.1-0.2,1-0.2,1.3-0.4c0-0.1,0-0.1,0-0.1c0,0,0-0.1,0-0.1
	c-0.2-0.1-0.3-0.1-0.6-0.2c-0.4-0.1-0.8,0.4-1.1,0c0,0,0-0.1,0-0.2c0.1-0.1,0.4-0.1,0.6-0.1c0,0,0,0,0,0c-0.1-0.1-0.1-0.2-0.2-0.2
	c0.2-0.4,0.4,0.2,0.8,0v0c0-0.1-0.1-0.2-0.2-0.3c0,0,0,0,0,0c0,0,0.1-0.1,0.1-0.1c0.4,0.1,0.9,0.2,1,0.6c0,0.2-0.2,0.3-0.1,0.4
	c0.1,0.1,0.2,0.2,0.3,0.3c0.1-0.1,0.1-0.1,0.2-0.2c0.1-0.1,0.3-0.1,0.4-0.2c0-0.2-0.1-0.4,0-0.5c0,0,0.1-0.1,0.1-0.1h0
	c0.1,0.2,0.2,0.4,0.4,0.5c0,0,0.1,0,0.1,0v0c0-0.1,0-0.2-0.1-0.2c0.2-0.1,0.4-0.2,0.5-0.1c0.1,0.1,0.2,0.3,0.4,0.3
	c0-0.1-0.1-0.2-0.1-0.3c0.4,0,0.8,0.2,1.1-0.1V92c0.2,0,0.3,0,0.4,0.1c0.1,0.3,0.4,0.3,0.7,0.4c0,0,0,0.1,0.1,0.1
	c0,0.1-0.1,0.2,0,0.3c0.1,0,0.1,0.1,0.2,0.1c0.2,0.1,0.4,0,0.5,0.1c0.1,0.2,0,0.6,0,0.8C113.9,93.9,113.7,94,113.6,94 M116.6,123.8
	c0.1-0.2,0.3-0.3,0.4-0.5c0.1-0.1,0-0.3,0-0.5c0-0.1,0.5-0.5,0.6-0.6c0.4-0.3,0.9-0.3,1.1-0.6c0.2-0.2,0.4-1.1,0.6-1.3
	c0.1,0,0.1-0.1,0.2-0.1c0.2,0.2,0.3,0.5,0.7,0.6c0.3,0.1,1.1-0.2,1.1-0.2c0.1,0.2,0.4,0.3,0.7,0.2c0.3-0.1,0.3-0.3,0.5-0.4
	c0.1-0.1,0.5-0.2,0.6-0.2c0.1,0,0.1,0.1,0.2,0.1c0.2-0.2,0.3-0.4,0.6-0.5c0.3-0.1,0.7,0,1-0.1c0.1-0.1,0.2-0.1,0.3-0.2
	c0.1,0,0.2,0.1,0.4,0c0.1-0.1,0.2-0.1,0.3-0.1c0.5-0.1,0.8,0.2,1.2,0.1c0.3-0.1,0.4-0.2,0.6-0.3c0.1,0.1,0.2,0.2,0.4,0.2
	c0.1-0.1,0.2-0.2,0.3-0.2c0.2,0.1,0.3,0.2,0.3,0.2c0.4,0.1,0.8-0.3,1-0.4c0.1,0,0.1,0,0.2,0c0.1,0,0.2,0.1,0.3,0.1
	c0,0.1,0.1,0.2,0.1,0.3c0,0,0.1,0,0.1,0c0.1-0.1,0.3-0.2,0.5-0.3c0,0.5-0.8,0.7,0,1.1c0,0.1,0.1,0.2,0.1,0.3c0,0.2-0.6,0.7-0.8,0.9
	c0,0.2,0.3,0.4,0.5,0.5c0.1,0,0.1-0.1,0.3-0.1l0.1,0.2c0.3,0.1,0.6,0.3,0.9,0.4c0.2,0,0.5,0,0.7-0.1c0.2,0,0.3,0.1,0.5,0.1
	c0.1,0.1,0.1,0.1,0.2,0.2c0.1,0.1,0.2,0,0.3,0.1c0.2,0.1,0.3,0.7,0.6,0.8c0.3,0.1,1,0.2,1.3,0.3c0.3,0.1,0.6,0.5,0.9,0.6
	c0.1,0,0.3-0.1,0.3-0.2c0.7-0.4,0-0.7,0.3-1.2c0.2-0.4,1.2-0.8,1.8-0.5c0.2,0.1,0.1,0.3,0.3,0.4c0.2,0.1,0.6,0.1,0.8,0.2h0.3
	c0.2,0.1,0.1,0.3,0.3,0.3h0.8c0.3,0.1,0.7,0.2,1,0.2c0,0,0.1,0.1,0.1,0.1c0.1,0,0.3,0,0.4,0c0.1,0,0.3,0.2,0.5,0.2
	c0.1-0.1,0.2-0.2,0.3-0.2c0.4-0.2,0.9-0.4,1.4-0.3c0.1,0.2,0.1,0.2,0.2,0.3c0.3-0.1,0.4,0.1,0.7-0.1c0.4,0.2,0.5,0,0.8,0
	c0.2,0.5,0.4,0.9,0.5,1.3c-0.3,0.3-0.2,0.8-0.4,1.2c-0.1,0-0.1,0-0.2,0c-0.4-0.4-0.8-0.9-0.9-1.5c-0.1,0.1-0.1,0.1-0.2,0.2
	c0.1,0.6,0.5,0.8,0.7,1.2c0.1,0.3,0.3,0.7,0.4,1c0.3,0.5,0.5,1.1,0.9,1.6c0.1,0.1,0.2,0.2,0.4,0.4c-0.1,0.1-0.1,0.1-0.2,0.1
	c0.1,0.2,0.1,0.4,0.2,0.6c0.1,0.1,0.3,0.1,0.4,0.2c0.2,0.2,0.5,0.7,0.6,1c0.1,0.5,0,1.4,0.2,1.7c0.2,0.2,0.7,0.3,0.9,0.6
	c0.3,0.6,0.4,1.7,0.8,2c0,0,0,0,0,0c0-0.1,0-0.2,0.1-0.3c0.1,0.1,0.2,0.3,0.3,0.4c0.1,0,0.2,0,0.3,0c0.2,0.2,0.4,0.5,0.6,0.7
	c0.1,0,0.2,0,0.3,0.1c0.1,0.1,0.2,0.4,0.2,0.4c0.2,0.2,0.8,0.3,0.8,0.7c-0.1,0.1-0.5,0.3-0.6,0.3v0c0,0,0,0,0,0c0.1,0,0.3,0,0.4,0
	c0.1,0.3,0.4,0.6,0.6,0.8h0.4c0.2-0.1,0.4-0.2,0.6-0.3c0.3-0.1,0.3,0.2,0.6,0.1c0.2-0.1,0.3-0.2,0.5-0.3h0c0.1,0,0.3,0,0.4,0
	c0.1,0,0.3-0.2,0.5-0.2c0.1,0,0.3,0.1,0.5,0.1c0.4-0.1,0.6-0.3,0.9-0.5c0.1,0,0.2,0.1,0.4,0.1c0,0,0,0,0,0c-0.1,0.1-0.1,0.2-0.1,0.3
	c0,0.1,0,0.3,0,0.4c0,0.1-0.1,0.2-0.2,0.3c0,0.2,0,0.4,0,0.6c-0.1,0.2-0.3,0.5-0.4,0.7l-0.3,0.3c0,0.1,0,0.1,0,0.2
	c-0.2,0.3-0.3,0.6-0.5,0.8c0,0.1-0.1,0.2-0.1,0.3c-0.3,0.6-0.9,1.1-1.2,1.6c-0.2,0.2-0.4,0.5-0.6,0.7c-0.5,0.4-1.2,0.8-1.8,1.2
	c-0.5,0.6-1,1.1-1.5,1.7c0,0.1,0,0.1,0,0.2c-0.1,0.1-0.2,0.2-0.4,0.1c0,0.4-0.2,0.4-0.4,0.5c0,0.5-0.3,0.5-0.4,0.9
	c0,0.1,0.1,0.2-0.1,0.4c0,0.1-0.2,0.1-0.2,0.1c-0.1,0.1-0.3,0.8-0.2,1.1c0.1,0.2,0.3,0.3,0.5,0.5c0,0.2-0.1,0.4-0.2,0.5
	c0,0.1,0.1,0.1,0.1,0.1c-0.1,0.4,0,1,0.2,1.3c0.2,0.3,0.5,0.3,0.6,0.6c-0.1,0.1-0.1,0.3-0.2,0.4c0,0.2,0.2,0.7,0.1,0.9
	c0,0.1-0.1,0.2-0.1,0.3c0.2,0.2,0.1,0.6,0.2,1c0.1,0,0.1,0.1,0.2,0.1c0,0,0,0.1,0,0.1c-0.1,0.1-0.1,0.2-0.2,0.3c0,0.1,0,0.1,0,0.2
	c-0.2,0.3-0.5,0.7-0.8,0.9c-0.4,0.3-1,0.4-1.5,0.7c-0.4,0.2-0.6,0.7-0.9,1c-0.3,0.2-0.6,0.4-0.8,0.6v0.5c0.1,0.1,0.3,0.1,0.3,0.3
	c-0.1,0.2,0,0.6,0.1,0.9c0.1,0,0.1,0,0.2,0c0,0.3,0,0.6,0,0.9c0,0.1-0.1,0.1-0.1,0.2c0,0,0,0,0,0c0,0.1,0.1,0,0.1,0.2
	c-0.3,0.6-0.9,0.6-1.5,0.9c-0.3,0.1-0.4,0.3-0.6,0.6c0,0,0,0,0,0c0,0.1,0.1,0.2,0.2,0.2c0.1,0.3,0,1-0.2,1.2
	c-0.1,0.1-0.2,0.1-0.2,0.2c0,0.1,0.1,0.2,0,0.3c-0.1,0.3-0.5,0.4-0.7,0.7c-0.7,1.1-1.4,1.9-2.4,2.7c-0.2,0.2-0.4,0.3-0.6,0.5
	c-0.2,0.1-0.8,0.1-0.9,0.2c0,0.1,0,0.1-0.1,0.2c-0.1,0-0.3-0.1-0.4-0.1c-0.1,0.1-0.1,0.2-0.2,0.2c-0.2-0.1-0.5-0.3-0.7-0.2
	c-0.1,0-0.2,0.1-0.2,0.1c-0.3,0-0.4-0.2-0.8,0c-0.1,0.1-0.1,0.1-0.2,0.2c-0.2,0.1-0.6-0.1-0.8,0c-0.2,0.1-0.3,0.2-0.4,0.3
	c-0.1,0-0.3-0.1-0.4-0.2c0-0.1,0-0.2-0.1-0.2c-0.1,0-0.2,0-0.2,0c0-0.1-0.1-0.1-0.1-0.2c-0.1,0-0.1,0-0.1,0c0,0,0,0.1,0,0.1
	c0,0,0,0,0,0c0,0-0.1-0.1-0.1-0.1c0-0.1,0.1-0.2,0.1-0.3c-0.1-0.1-0.4-0.6-0.4-0.7c0-0.1,0.2,0,0.2-0.1c0.2-0.7-0.2-1.1-0.5-1.5
	c-0.3-0.5-0.4-1-0.6-1.5c-0.3-0.3-0.6-0.6-0.8-0.9c-0.1-0.2-0.1-0.5-0.2-0.7c0-0.1,0.1-0.1,0-0.2c0-0.1-0.2-0.3-0.2-0.5
	c0-0.1,0.1-0.3,0.1-0.5c-0.1-0.1-0.1-0.3-0.2-0.4c-0.1-0.3-0.1-0.7-0.2-1c0.4-0.4-0.3-1-0.5-1.3c-0.3-0.5-0.5-1-0.8-1.5
	c-0.1-0.3-0.4-0.4-0.5-0.8c-0.1-0.4,0-1,0-1.5c0.4-0.3,0.3-1.1,0.5-1.7c0.1-0.1,0.1-0.1,0.2-0.2c0-0.1,0.1-0.2,0.1-0.3
	c0.1,0,0.1,0,0.2-0.1c0.2-0.1,0.3-0.5,0.3-0.8c0-0.2,0-0.5-0.1-0.7c-0.1-0.3-0.8-0.9-0.2-1.2c0.1-0.5-0.2-0.6-0.3-0.9
	c0-0.1-0.1-0.3-0.1-0.4c-0.1-0.1-0.2-0.3-0.3-0.4c-0.1-0.2,0-0.5-0.1-0.6c0-0.1-0.2-0.5-0.3-0.6c-0.3-0.2-0.5-0.5-0.8-0.7
	c-0.1-0.2-0.3-0.4-0.5-0.5c0,0,0-0.1,0.1-0.1c-0.1-0.1-0.1,0-0.3-0.1c-0.1-0.2-0.2-0.3-0.3-0.4c0,0,0,0,0,0c0.1,0,0.1-0.1,0.1-0.1
	c-0.1-0.1-0.2-0.1-0.3-0.2c-0.1-0.1-0.2-0.3-0.2-0.3c0.3-0.1,0.4-0.4,0.4-0.7c0.1,0,0.2,0,0.3,0v0c-0.1-0.1-0.2-0.2-0.3-0.3
	c0.2,0,0.2-0.2,0.2-0.4c-0.1,0-0.1,0-0.2,0c0,0,0,0,0,0c0.2-0.1,0.3-0.4,0.4-0.6c0-0.1,0-0.1-0.1-0.2c0-0.1,0-0.2,0.1-0.3
	c0-0.2-0.2-0.4-0.2-0.6c0,0,0.1-0.1,0.1-0.1c0,0,0,0,0,0c0,0,0-0.1-0.1-0.1c-0.5,0-0.4-0.1-0.5-0.4c-0.1-0.1-0.4-0.2-0.4-0.1
	c0,0.1,0,0.1,0,0.1c-0.3,0.1-0.6,0.1-0.8,0c-0.4,0.4-1.2,0-1.3-0.5c0-0.1,0.1-0.1,0.1-0.2c0,0,0,0-0.1-0.1c0,0-0.1,0-0.2,0
	c0-0.1-0.1-0.1-0.1-0.2c-0.1-0.1-0.6-0.4-0.8-0.5c-0.1,0-0.1,0.1-0.2,0.1c-0.5,0-1,0.1-1.5,0.1c-0.2,0.1-0.2,0.2-0.3,0.3
	c-0.2,0-0.4,0-0.6,0.1c-0.5,0.2-1,0.4-1.5,0.7c-0.1-0.1-0.6-0.4-0.7-0.4c0,0-0.1,0.1-0.1,0.1c-0.2,0.1-0.4-0.1-0.5-0.1
	c-0.3-0.1-0.7,0-1,0.1c-0.2,0.1-0.5,0.1-0.8,0.2c-0.2,0.1-0.5,0.3-0.7,0.4c-0.2,0.1-0.8-0.3-0.9-0.4c-0.5-0.2-0.7-0.6-1.1-0.9
	c-0.2-0.1-0.4-0.2-0.6-0.3c-0.3-0.2-0.4-0.4-0.8-0.5c0-0.1,0-0.1,0-0.2c-0.3,0-0.6-0.3-0.6-0.5h0l0.2-0.1c0,0,0,0,0-0.1
	c-0.1,0-0.1,0-0.1-0.1v-0.2c-0.1-0.2-0.3-0.2-0.3-0.4c0-0.1,0-0.1,0-0.2c-0.2-0.1-0.5-0.2-0.6-0.4c0-0.1,0-0.1,0-0.2
	c-0.1,0-0.2,0-0.3-0.1c0-0.1,0-0.1,0-0.1c-0.1-0.1-0.2-0.1-0.2-0.1c0-0.2,0.1-0.3,0.2-0.4c-0.1-0.1-0.3,0-0.5,0
	c-0.1-0.1-0.2-0.1-0.3-0.2c0,0,0-0.1,0-0.1c-0.2-0.2-0.1,0.1-0.3-0.2c0.1-0.2,0-0.4,0.1-0.6c0,0,0.1,0,0.1,0c0-0.1,0-0.1,0-0.2
	c-0.2-0.1-0.2-0.6-0.6-0.7c0,0,0,0,0,0c0.3-0.1,0.6-0.5,0.6-0.9c0-0.2,0-0.3,0.1-0.5c0.2-0.5,0.5-1.4-0.1-1.9
	c0.2-0.3,0.2-1.1-0.3-1.1c0,0-0.1,0.1-0.1,0.1c0-0.3,0-0.7,0.1-0.9c0.1-0.1,0.2-0.2,0.3-0.4c0.1-0.3,0.3-0.7,0.4-1
	c0.2-0.2,0.5-0.3,0.6-0.6c0-0.1,0-0.2,0-0.3c0.1-0.3,0.2-0.5,0.3-0.7c0.1-0.2,0.4-0.2,0.6-0.4c0.2-0.2,0.2-0.8,0.5-0.9
	c0.2-0.1,0.5-0.1,0.7-0.2c0.4-0.2,1.1-0.8,1.4-1.1C117,124.6,116.5,124.3,116.6,123.8 M119.5,104.6c-0.1,0.2-0.2,0.3-0.5,0.4
	c0.1,0.2,0.4,0.8,0.3,1c0,0.2-0.2,0.3-0.2,0.5c-0.1,0-0.2,0-0.3,0c0,0,0,0.1-0.1,0.1c-0.2,0-0.3,0-0.5,0c-0.2,0.1-0.4,0.3-0.5,0.4
	c-0.1,0-0.2,0-0.2,0c-0.2,0.1-0.4,0.1-0.6,0.2c0-0.1,0-0.2,0-0.3c-0.1,0-0.2,0-0.3,0c0-0.1-0.1-0.1,0-0.2c0.1,0,0.1,0,0.2-0.1v0
	c-0.1,0-0.2,0-0.3,0c0,0,0-0.1,0-0.1c0.1,0,0.4,0,0.4,0c0.1-0.1,0-0.2,0.1-0.2c0.2,0,0.3,0,0.4-0.2c-0.1,0-0.2,0-0.3,0c0,0,0,0,0,0
	c0,0,0.1-0.1,0.1-0.1c0-0.1,0,0,0-0.1c0.1-0.2,0.2-0.1,0.4-0.2c0,0,0-0.1,0-0.1c-0.1,0.1-0.7,0-0.8-0.1c0,0,0.1-0.1,0.1-0.1
	c0,0,0,0-0.1-0.1c0.1,0,0.1,0,0.2,0c0-0.2,0-0.1,0.1-0.2h0c-0.1-0.1-0.2-0.1-0.3,0v-0.1c0-0.2,0.1-0.2,0.2-0.3
	c0.2,0.1,0.6,0.1,0.9,0.1c0-0.1,0-0.1,0-0.1c0.1,0,0.2-0.1,0.3-0.3h-0.4c0,0,0,0,0-0.1c0.1,0,0.1,0,0.2,0c0.1-0.3,0.2-0.5,0.5-0.5
	c0,0.1,0.1,0.2,0.2,0.2c0.3-0.1,0.7-0.2,0.9,0C119.4,104.1,119.5,104.3,119.5,104.6 M119.6,103.3c0,0.1,0,0.2,0,0.2
	c0,0-0.1,0.1-0.1,0.1c0,0,0,0-0.1,0c0-0.1,0-0.2,0-0.3C119.5,103.3,119.6,103.3,119.6,103.3 M123.6,107.3L123.6,107.3
	c0.1,0,0.7,0.1,0.7,0.1h0v0.2c-0.1,0-0.3,0.1-0.3,0.2c-0.2,0-0.3,0.1-0.5,0.1c-0.1,0-0.3,0-0.4-0.1c-0.1,0-0.2,0-0.3,0.1
	c-0.1,0-0.1-0.1-0.2-0.1c-0.2,0-0.4,0.1-0.6,0.1c0,0,0,0.1,0,0.1c-0.4,0-0.6-0.1-1,0c0,0.5-0.2,0.3-0.5,0.2c-0.1,0-0.1,0.1-0.2,0
	c-0.2,0.1-0.4,0.2-0.5,0.4c0,0-0.1-0.1-0.1-0.1c-0.1,0-0.1,0-0.2-0.1c0,0,0,0,0,0c0.3-0.1,0.8-0.4,0.8-0.7c0.2,0,0.1-0.1,0.2-0.2
	c0.3-0.1,0.5,0.1,0.8,0c0-0.2,0.1-0.3,0.2-0.4c-0.1,0.1-0.3,0.2-0.5,0.2h0h0c-0.1-0.1-0.3-0.1-0.4-0.2c-0.2,0-0.4,0-0.6,0
	c-0.1-0.1-0.1-0.1-0.2-0.2c0,0,0.1,0,0.1-0.1c0.1-0.1,0.5-0.2,0.7-0.4c0-0.1,0-0.3,0-0.4v0h-0.3v0c0.2-0.4,0.6-0.4,1.2-0.4v0
	c-0.2-0.3,0-0.5,0-0.8h0c-0.1,0-0.2,0-0.3,0c-0.1-0.1-0.1-0.1-0.2-0.3c0-0.2,0.2-0.3,0.3-0.4c-0.4-0.1-0.3,0.1-0.6,0.1
	c-0.1,0-0.2-0.1-0.3-0.1c0,0.1,0,0.1-0.1,0.1c-0.1,0-0.2-0.1-0.4-0.1c0-0.2,0.4-0.5,0.3-0.7c-0.1-0.1-0.1-0.2-0.1-0.3
	c0.1,0,0.1-0.1,0.2-0.1c0-0.1,0-0.1,0-0.2h-0.1c-0.2,0.1-0.4,0.3-0.6,0.4v0c-0.1-0.2,0.1-0.5,0.2-0.7c-0.1,0-0.1-0.1-0.2-0.1
	c0,0,0,0,0,0c-0.1,0.1-0.1,0.1-0.2,0.2c-0.1,0-0.1-0.1-0.2-0.1c0,0,0.3-0.5,0.3-0.5c0-0.1,0-0.2-0.1-0.3c0-0.1,0.1,0,0.2-0.1
	c-0.1-0.1-0.1-0.1-0.2-0.2c0-0.1,0.1-0.1,0.2-0.2c0.1,0,0.2,0,0.3,0c-0.1-0.1-0.1-0.2-0.2-0.4c0.1,0,0.2-0.1,0.3-0.1
	c0-0.1-0.1-0.1-0.1-0.2c0-0.1,0.1-0.1,0.1-0.2c0.1,0.1,0.2,0.1,0.3,0.2c0.3,0.1,0.7-0.2,1-0.1c0,0.1,0.1,0.1,0,0.2
	c-0.2,0.3-0.7,0.3-0.8,0.7c0,0,0,0,0,0.1c0.4,0,1.2-0.1,1.5,0.1c0,0.1,0.1,0.1,0,0.1c-0.1,0.3-0.3,1-0.8,1c0,0,0,0,0,0
	c0.1,0,0.2,0.1,0.2,0.1c0,0,0,0,0,0c-0.1,0.2-0.4,0.2-0.7,0.2c0,0,0,0,0,0c0.4,0.2,0.4,0,0.7,0c0.2,0,0.7,0.4,0.8,0.5
	c0.1,0.2,0.1,0.5,0.2,0.7c0.1,0.1,0.2,0,0.4,0.1c0.1,0.2,0.2,0.3,0.3,0.4c0.1,0.1,0.1,0.5,0.1,0.5c0.3,0.3,0.5,0.3,0.2,0.7
	c0.1,0,0.2,0,0.2,0c0.2-0.3,0.7-0.1,0.9,0.1c0,0.1,0,0.3,0,0.4C124.5,106.8,123.9,107.2,123.6,107.3 M136.6,75.2
	c0.2,0.1,0.3,0.1,0.5,0.1c0.2,0.1,0.5,0.3,0.7,0.5c-0.1,0.1-0.2,0.1-0.4,0.2c-0.2,0.1-0.4,0.1-0.7,0.2c-0.3,0.2-0.3,0.6-0.4,1
	c-0.1,0.2-0.2,0.4-0.3,0.6c-0.1,0-0.3,0-0.4,0.1c-0.2,0.2-0.4,0.5-0.4,1c-0.1,0-0.2,0.1-0.2,0.1c-0.4,0.1-1.5-0.8-1.7-0.9
	c0,0,0,0,0,0l0.2-0.2c0.6,0,1.1,0,1.3-0.3c-0.1-0.1-0.1-0.1-0.2-0.2c-0.5,0.1-1,0.2-1.6,0.2c-0.1-0.1-0.1-0.2-0.2-0.3h0
	c0.6-0.3,1.4-0.3,1.8-0.7v0c-0.4-0.1-0.8-0.2-1-0.5c-0.3,0.2-0.4,0.6-0.8,0.7c-0.4,0.2-1.3-0.6-1.5-0.9c0.2-0.1,0.4-0.2,0.5-0.3
	c-0.1-0.1-0.2-0.3-0.2-0.4c-0.1,0.1-0.3,0.2-0.4,0.2c-0.2-0.1-0.4-0.4-0.4-0.6c0.2-0.2,0.4-0.3,0.7-0.3c0.1,0,0.2,0,0.3,0
	c0.1,0,0.4-0.1,0.6-0.1c0,0.2,0,0.4,0.1,0.6c0.2,0,0.3,0.1,0.5,0.1v0c0-0.2,0.1-0.4,0.1-0.5c0.2-0.1,0.3-0.1,0.4,0
	c0.1,0.2,0.6,0.8,0.8,0.9c0.1,0,0.1-0.1,0.1-0.1c0-0.3-0.4-0.7-0.3-0.9c0.1-0.1,0.2-0.2,0.3-0.3c0.2,0,0.3,0.2,0.5,0.2h0.4
	c0.1,0,0.1,0.1,0.2,0.1c0,0.3-0.1,0.5,0,0.7c0.1,0,0.1,0,0.1,0.1c0.1-0.1,0.2-0.3,0.4-0.3C136.3,74.8,136.5,75,136.6,75.2
	 M141.4,74.6c-0.2,0.1-0.4,0.2-0.6,0.3c-0.2,0.1-0.4,0-0.6,0.1c-0.1,0.1-0.3,0.2-0.4,0.3c-0.7,0-1.3-0.1-1.9-0.1v-0.3
	c0.4-0.1,0.5-0.3,0.7-0.6v0c-0.9,0-1.9,0.2-2.5-0.2c0,0,0,0,0,0c0.1-0.3,0.3-0.3,0.5-0.4c0.2-0.3,0.4-0.5,0.6-0.7
	c0.1,0.2,0.3,0.3,0.4,0.5c0.4,0.3,0.8-0.3,1.2,0.3c0,0,0.1-0.1,0.1-0.1c0.3-0.1,0.3-0.5,0.6-0.7c-0.1,0.2-0.1,0.6-0.1,0.8h0.3
	c0.2-0.2,0.4-0.5,0.7-0.5c0.1,0,0.1,0.1,0.2,0.1c0.1,0.1,0.1,0.2,0.2,0.4c0.3,0,0.6-0.1,0.9-0.1c0.1,0,0.3,0.1,0.4,0.1
	c0.1,0.1,0.1,0.2,0.2,0.3l0,0L141.4,74.6z M161.8,83.5c0.2,0.1,0.3,0.1,0.5,0.2c-0.1,0.7-0.9,0.4-0.7,1.4c0.1,0.5,0.3,1,0.6,1.3
	c0.2,0.1,0.6,0.2,0.6,0.5c-0.4,0-0.7,0-1.1,0c-0.2,0.1-0.3,0.3-0.5,0.2c-0.1-0.1-0.1-0.2-0.2-0.2c-0.3,0-0.4,0-0.7,0
	c0-0.3,0.2-0.3,0.4-0.4c0-0.1,0-0.1,0-0.1c-0.4-0.1-0.7-0.4-1.2-0.5c-0.3,0-0.3,0.3-0.6,0.1c0-0.1-0.1-0.1-0.1-0.2
	c-0.1-0.3,0-0.4,0.2-0.5c0.1,0,0.2,0.1,0.4,0c0.2-0.1,0.5-0.5,0.6-0.7c-0.2,0-0.3-0.1-0.4-0.2c0,0,0,0,0-0.1
	c0.2-0.1,0.3-0.4,0.5-0.5l0.5,0C161,83.6,161.4,83.4,161.8,83.5 M141.8,115.8C141.8,115.8,141.7,115.8,141.8,115.8
	c-0.1-0.1-0.2-0.1-0.2-0.1c0,0,0,0,0,0.1C141.6,115.8,141.7,115.8,141.8,115.8C141.8,115.9,141.8,115.8,141.8,115.8 M159.7,115.6
	C159.6,115.6,159.6,115.6,159.7,115.6c-0.1-0.1-0.1-0.2-0.1-0.3c0.1-0.1,0.1-0.3,0.2-0.5c-0.2-0.2-0.3-0.1-0.5-0.1
	c0-0.1-0.1-0.2-0.2-0.3h-0.2c0-0.4-0.2-0.5-0.3-0.9c-0.1,0-0.3-0.1-0.4-0.1v-0.2c0,0,0,0,0.1,0c0.3,0,0.7,0.1,0.8,0c0,0,0,0,0-0.1
	c-0.1,0-0.2-0.1-0.3-0.2c0-0.1,0.1-0.1,0.2-0.2c0-0.1,0.1-0.2,0.1-0.2c0.1,0,0.2,0,0.2-0.1c0.3,0,0.7,0.1,1,0.1c0,0,0,0,0,0
	c-0.1,0-0.3-0.1-0.3-0.2c0.2-0.3,0.3-0.4,0.2-0.8c0,0,0.1-0.1,0.1-0.1c0-0.1-0.1-0.1-0.1-0.2c-0.1,0-0.3-0.1-0.4-0.1
	c-0.1,0-0.1,0.2-0.3,0.1c-0.2,0-0.3-0.2-0.5-0.2c-0.4,0-0.7,0.4-1,0.5c-0.1,0-0.2,0-0.3,0c-0.2,0.1-0.3,0.3-0.5,0.4
	c0,0.1,0,0.1-0.1,0.2c0,0-0.1,0-0.1-0.1c-0.2,0.1-0.4,0.3-0.7,0.2c0,0,0,0,0,0c-0.1,0.2-0.1,0.5-0.3,0.7c-0.1,0.1-0.3,0.1-0.3,0.3
	v0.1c0,0.1,0.1,0.1,0.2,0.1c0.2,0.1,0.3,0.4,0.3,0.7h0c0-0.1,0.1-0.2,0.1-0.3h0.1v0c-0.1,0.2-0.2,0.5,0,0.7c0.1,0.1,0,0.1,0.1,0.3
	c0,0,0.1,0,0.1,0c0.1,0.1,0.2,0.3,0.3,0.5c0,0,0.1,0,0.1,0c0.1,0.1,0.3,0.3,0.4,0.4c0.1,0.1,0,0.2,0.1,0.3c0,0.1,0.1,0.2,0.2,0.3
	c0.1,0.2,0.4,0,0.6,0.3c0,0,0,0.1,0,0.1h0c-0.6-0.3-0.7,0.4-0.6,0.8c-0.1,0-0.1,0-0.1,0c0,0.1,0,0.1-0.1,0.2c0,0,0,0,0,0
	c0-0.1,0-0.1-0.1-0.1c0,0,0,0,0,0c0,0.4-0.3,0.8-0.1,1.3c0.2,0.1,0.5,0.1,0.8,0.2c0.3,0.7,1.3,0.6,2,0.5c0.2,0,0.5,0,0.7-0.1
	c0.2-0.2,0-0.8-0.1-1c0,0,0-0.2,0-0.3c0-0.2,0.1-0.3,0.1-0.5c-0.1-0.1-0.2-0.2-0.3-0.3c-0.1,0-0.2-0.1-0.3,0v-0.1c0,0,0-0.1,0.1-0.1
	c0.1,0,0.2,0,0.3,0v0c-0.1,0-0.1,0-0.2-0.1c0,0,0-0.1,0-0.1c0,0,0.1-0.1,0.1-0.1c-0.2,0-0.4,0-0.5,0c-0.1-0.2,0-0.7,0.1-0.9l0.1,0.2
	c0.1,0,0.1,0,0.3,0c0,0,0-0.1,0-0.1c0,0,0.1,0,0.1,0c0,0.1,0,0.1,0,0.2c0,0,0,0,0,0c0.1,0,0.2-0.1,0.2-0.1c0.1,0,0.1,0.1,0.2,0
	c0-0.1,0-0.1-0.1-0.2c0.1,0,0.1,0.1,0.2,0.1c0.1,0,0.1-0.1,0.1-0.1c-0.1-0.2-0.3-0.3-0.5-0.4c-0.1-0.1-0.1-0.4-0.1-0.5
	c-0.2,0-0.4,0-0.6,0.1c-0.1,0.2,0,0.5-0.1,0.7v0c-0.1-0.1-0.1-0.2-0.2-0.3C159.7,115.7,159.7,115.7,159.7,115.6 M106.8,80.7
	L106.8,80.7L106.8,80.7C106.8,80.7,106.8,80.7,106.8,80.7L106.8,80.7z M106.4,77.7c0,0,0.1,0.1,0.1,0.1c0.1,0,0.2,0.1,0.2,0.2
	c0,0,0,0,0,0c0,0,0,0,0,0c-0.1,0-0.1-0.1-0.2-0.1c0,0-0.1,0-0.2-0.1c-0.1,0.1-0.3,0.1-0.4,0.2c0.1,0,0.1,0,0.2,0c0.1,0,0,0.1,0,0.1
	c-0.1,0.1-0.2,0.1-0.3,0.2c-0.1,0.1-0.1,0.2-0.3,0.2v0c0.1,0,0.2-0.1,0.3-0.1c0.1,0,0.1-0.1,0.2-0.1c0.1,0,0.1,0,0.2,0
	c0.2,0,0.4-0.1,0.5,0c0.1,0,0,0.1,0.1,0.1c0.1,0.1,0.3,0.1,0.4,0.3c0.1,0.1,0,0.3-0.1,0.3c-0.1,0-0.1-0.1-0.2-0.1
	c-0.1,0-0.2,0.1-0.3,0.1c-0.2,0-0.3-0.1-0.4-0.1c-0.1,0-0.4-0.1-0.5,0c0,0,0,0,0,0c0.1,0,0.2,0,0.3,0.1c0,0-0.1,0.1-0.2,0.1
	c0.1,0.1,0.3,0,0.5,0c0.1,0,0.2,0,0.3,0c0.1,0,0.1,0,0.1,0l0,0c-0.1,0.1-0.2,0.1-0.2,0.2c0,0,0,0.1,0,0.1c0,0,0,0,0,0
	c-0.1,0-0.4-0.1-0.5,0c0.2,0,0.4,0.1,0.6,0c0.1-0.1,0-0.2,0.3-0.3c0,0.1,0.1,0.2,0.2,0.3c0,0.1,0,0.2,0,0.2c0.1,0,0.1-0.1,0.2-0.1
	c0.2-0.1,0.3-0.2,0.5-0.2c0.1-0.1,0.4,0,0.4,0.1c0,0.2-0.1,0.3-0.3,0.4c0,0-0.1,0-0.1,0c-0.1,0-0.2-0.1-0.3-0.1
	c-0.2,0-0.3,0.2-0.5,0.2c-0.1,0-0.2,0-0.3,0c0.1,0.1,0.3,0.2,0.3,0.3c0,0-0.1,0-0.1,0.1c0,0,0.1,0,0.2,0c0.1,0.1,0,0.2,0,0.3h0
	c0.1,0,0.3,0,0.4,0v0c0,0-0.1,0-0.1-0.1c0.1-0.2,0.5-0.1,0.6-0.1c0.1,0,0.2,0,0.3,0c0.1,0,0.4,0.4,0.3,0.5c0,0-0.3,0.1-0.4,0.1
	c0,0-0.1,0-0.1,0c0,0.2-0.1,0.3-0.3,0.5h-0.2c-0.2,0-0.4,0.1-0.5,0c-0.1,0-0.2-0.1-0.3-0.1v0c0.1-0.1,0.5-0.1,0.5-0.1
	c0.1,0,0.1-0.1,0.1-0.1c0,0-0.1,0-0.1,0.1c-0.1,0-0.1,0-0.1,0c-0.1,0-0.1,0-0.1,0c-0.2,0-0.6,0.1-0.6,0.3c0,0,0.1,0,0.1,0.1
	c-0.2,0-0.3,0-0.4,0c0.1,0.1,0.2,0.1,0.3,0.1c0,0,0,0,0,0c-0.1,0.1-0.3,0.1-0.3,0.2c0,0,0,0.1,0,0.1c0,0.1-0.1,0.3-0.2,0.3
	c-0.1-0.1-0.3,0-0.5,0v0h0c0,0,0.2,0,0.2,0.1c0,0.1-0.5,0.2-0.2,0.4c0,0,0.1,0,0.1,0c0-0.2,0.1-0.2,0.2-0.3c0.1,0,0.1-0.1,0.1-0.1
	c0.1-0.1,0.1,0,0.2-0.1c0.2,0,0.4,0.1,0.6,0.1c0,0,0,0,0,0c-0.1,0.1-0.2,0.3-0.3,0.4c-0.1,0.1-0.3,0-0.3,0.1c0.2,0,0.3,0,0.4,0.2
	c0,0,0,0,0,0c0-0.1,0.1-0.2,0.1-0.2c0,0,0.1-0.1,0.1-0.1c0,0,0.1-0.1,0.2-0.1c0.1,0,0.2,0.1,0.3,0.1c0.1,0,0.2,0,0.3,0.1
	c0,0.1-0.1,0.2-0.2,0.3c0,0-0.1,0-0.1,0.1c0,0.1,0.2,0.2,0.2,0.2c0,0,0,0,0,0l0.1-0.2c0-0.1,0-0.2,0.1-0.2c0.1,0,0.5,0,0.6,0
	c0.2,0.2,0.2,0.1,0.6,0.1c0.1,0,0.2,0,0.3,0c0,0,0,0,0,0c0,0,0,0,0.1,0c0,0,0,0,0,0c0,0.1,0,0.1,0,0.1c0.2,0,0.2,0,0.2,0.1
	c0,0,0,0,0.1,0c0.1-0.1,0.1-0.2,0.2-0.2c0,0.1,0,0.2,0.1,0.3c0,0.1,0,0.1,0,0.2c0,0,0,0,0,0h0c0-0.1,0.1-0.3,0.1-0.4h0
	c0.4,0.1,0.3,0.2,0.4,0.5l0,0c0,0,0.1,0,0.1,0c0,0.1,0,0.1,0,0.1c0.3-0.1,0.2,0.1,0.2,0.2c0.1,0,0.1,0,0.1,0c0,0,0,0.1,0.1,0.1
	c0,0,0,0,0,0c0.1,0.1,0.3,0.1,0.3,0.3c0,0,0,0.1-0.1,0.1c-0.1,0-0.1,0-0.2,0c-0.1,0-0.5-0.3-0.5-0.3c0,0,0,0,0,0
	c0,0.2,0.3,0.3,0.2,0.4c0,0,0,0.1-0.1,0.1c-0.2,0.1-0.4,0.1-0.6,0.1c-0.2,0-0.4-0.1-0.5-0.2c0-0.1-0.1-0.1-0.1-0.2c0,0-0.1,0-0.1,0
	c0,0-0.1-0.1-0.1-0.1c-0.1,0-0.1,0-0.2-0.1c-0.1,0-0.2-0.1-0.4-0.1c-0.1,0-0.1,0.1-0.2,0.1c-0.2,0-0.4-0.1-0.6-0.1
	c-0.3,0-0.4,0.2-0.6,0.2c-0.3-0.1-0.6-0.2-0.9-0.3c0,0-0.3,0-0.4,0c0,0-0.1,0-0.2,0c0.1,0.1,0.2,0.2,0.4,0.2c0.1,0,0.1,0,0.2-0.1
	c0.1,0,0.5,0.1,0.5,0.2c0,0.1-0.2,0.1-0.3,0.2h0c0.1,0,0.2-0.1,0.3-0.1c0.1,0,0.2,0.1,0.3,0.1c0.1-0.2,0.2-0.1,0.5-0.2
	c0.2-0.1,0.2-0.2,0.5-0.1c0.1,0,0.1,0,0.2,0.1c0,0,0.1,0.1,0.1,0.2c0,0.1-0.3,0.4-0.4,0.5c-0.1,0.1-0.2,0.1-0.3,0.1c0,0,0,0,0,0.1
	c-0.2,0.1-0.5,0.1-0.7,0.2c0.1,0,0.2,0,0.3,0.1c0.3,0.2-0.5,0.5-0.4,0.7h0h0c0-0.1,0.2-0.2,0.4-0.3c0,0,0.1,0.1,0.1,0.1
	c0.3,0,0.5-0.2,0.7-0.3c0.1,0,0.2-0.1,0.3-0.1c0.1,0,0-0.1,0.1-0.1c0.1,0,0.1,0.1,0.1,0.1c0,0-0.3,0.1-0.4,0.2
	c-0.1,0.1-0.1,0.3-0.2,0.3c-0.1,0-0.1,0-0.2,0c-0.2,0-0.2,0.1-0.3,0.1c0,0,0,0,0,0.1c0.1,0,0.3-0.1,0.4-0.1c0,0,0,0,0,0
	c0.1,0,0.3,0,0.4-0.1c0.1-0.1,0.1-0.2,0.2-0.3c0.1-0.1,0.2-0.2,0.2-0.3c0.1-0.1,0.3-0.3,0.5-0.4v0c0,0,0,0.1,0.1,0.1
	c0.2,0,0.4-0.1,0.6-0.1c0.2,0,0.3,0,0.4,0c0.1,0,0.4-0.1,0.5-0.1c0.1-0.1,0.3-0.1,0.4-0.2c0.1,0,0.1-0.1,0.1-0.1
	c0,0.1,0,0.2,0.1,0.3c0,0-0.1,0-0.1,0c-0.1,0.1-0.3,0.2-0.2,0.3c0,0,0.1,0,0.1,0.1c0,0,0,0,0,0c-0.1,0-0.2,0-0.2,0v0l0,0
	c0,0,0,0,0.1,0c-0.1,0.1-0.7,0.3-0.5,0.5c0.1,0,0.2,0.1,0.2,0.1c-0.1,0-0.3,0.1-0.3,0.1c0,0.1,0.1,0.1,0.2,0.1
	c0,0.1-0.3,0.1-0.3,0.2c0.1,0,0.1,0.1,0.1,0.1c-0.1,0.1-0.2,0.1-0.3,0.2c0.1,0.1,0.1,0.1,0.1,0.2c-0.1,0-0.1,0-0.1,0.1
	c0,0,0,0,0,0.1c-0.1,0-0.2,0.1-0.2,0.1c0,0,0,0,0,0.1c0.1,0.1-0.1,0.1-0.2,0.1c0,0,0,0,0,0c0,0-0.1,0-0.1,0c0,0.1-0.3,0.3-0.4,0.3
	c-0.1,0-0.1,0.1-0.1,0.1c-0.1,0-0.2,0.1-0.2,0.1c-0.1,0.1-0.2,0.1-0.3,0.2c-0.1,0-0.2,0.1-0.3,0.1c-0.1,0.1,0,0.2-0.2,0.3
	c-0.2,0.1-0.3-0.1-0.3-0.1c0,0,0,0,0,0c0,0.1,0.1,0.2,0.1,0.3c0,0.1-0.2,0.1-0.3,0.1c-0.1-0.2-0.1-0.1-0.3-0.1
	c0.1,0.1,0.2,0.1,0.3,0.2c0,0.1-0.3,0.1-0.5,0.1c-0.1,0-0.2-0.1-0.3-0.1c-0.1,0-0.2,0-0.3,0c-0.2,0-0.5-0.1-0.6-0.2c0,0,0,0,0,0
	c0,0,0,0.1-0.1,0.1c0.1,0.1,0.4,0.1,0.4,0.3c0,0-0.1,0-0.1,0.1h0c0.1,0,0.2,0,0.2,0c0.2,0.1-0.1,0.3-0.2,0.4c0,0,0,0.1,0,0.1
	c-0.1,0.1-0.3,0.1-0.3,0.2c-0.1,0.1,0.1,0.2,0,0.3c0,0.1-0.1,0.1-0.2,0.2c0,0.1,0,0.2,0.1,0.3c0,0,0.1,0,0.1,0.1
	c0,0.1-0.1,0.1-0.2,0.2c0,0,0,0,0,0c0.1,0,0.1,0.2,0.1,0.2c0,0.1-0.1,0.1-0.1,0.2c-0.1,0.1-0.1,0.3-0.2,0.4c0,0.1-0.1,0.2-0.2,0.2
	c-0.1,0-0.1-0.1-0.2-0.1c-0.1,0-0.6,0-0.6,0.1c0,0.1,0.3,0.1,0.3,0.2c0,0.1-0.1,0.1-0.1,0.2c0,0.1,0,0.1,0,0.2c-0.1,0.1-0.4,0-0.5,0
	h0l0,0c0,0.1-0.2,0.2-0.3,0.3h0c-0.1,0-0.1-0.1-0.2-0.2c0,0,0,0,0,0c0,0.1-0.1,0.2-0.3,0.2c0.1,0.1,0.1,0.2,0.1,0.3h0
	c-0.1,0-0.2,0-0.3,0c-0.1-0.1,0.1-0.2,0-0.2c0,0,0-0.1-0.1-0.1c0-0.1,0.1-0.2,0.2-0.2c0.1-0.1,0.1-0.3,0.2-0.4c-0.2,0.1-0.4,0-0.5,0
	c0,0.1,0.1,0.2,0,0.2c0,0,0,0,0,0h0.1c-0.1,0.1-0.2,0.2-0.3,0.3c0,0-0.1,0.1-0.2,0.1c0,0.1,0.6,0.2,0.3,0.4c0,0,0,0-0.1,0
	c-0.1,0.1-0.1,0.1-0.1,0.2c-0.1,0.1-0.3,0.1-0.4,0.1c0,0,0-0.1-0.1-0.1c0,0,0,0-0.1,0c-0.1,0-0.1-0.1-0.2-0.1c0,0,0,0,0,0
	c0,0.1,0.1,0.2,0.1,0.3c0,0,0,0,0,0c-0.1,0-0.1-0.1-0.2-0.1h0c0,0,0,0,0,0c-0.1,0.2,0,0.2-0.4,0.3h0c0.1,0,0.3,0,0.4,0.1
	c0.2,0.1,0,0.4-0.1,0.4c-0.1,0-0.2,0.1-0.2,0.1c-0.3,0-0.3-0.2-0.8,0c0,0,0.1,0,0.1,0c0,0.3,0.3,0.1,0.5,0.2c0,0,0.1,0,0.1,0.1
	c0,0,0,0.1,0.1,0.1c0,0,0.1,0,0.1,0c0,0.1,0,0.1-0.1,0.2c0,0.1,0.2,0.1,0.2,0.1c-0.1,0.1-0.2,0-0.3,0c-0.1,0-0.2,0.1-0.3,0.2
	c-0.1,0-0.2,0.1-0.3,0.1c0.1,0,0.2,0.1,0.4,0.1c0.1,0,0.2,0,0.2,0c0,0,0.1,0.1,0.1,0.1c0.1,0,0.1,0.1,0.2,0.1c0.1,0,0.2,0.1,0.1,0.2
	c0,0-0.2,0.1-0.2,0.1h-0.3c-0.1,0-0.2,0-0.3,0v0c0,0,0.1,0.1,0.1,0.1c0,0,0.1,0,0.1,0c0.1,0,0.3,0.1,0.5,0c0,0.1,0,0.1,0,0.2
	c-0.1,0-0.2,0-0.2,0.1c-0.1,0,0,0.1-0.1,0.1c-0.1,0.1-0.2,0-0.2,0c0,0,0,0,0,0c0.1,0.1,0.2,0.1,0.2,0.1c0,0,0,0.1-0.1,0.1
	c-0.1,0-0.2,0-0.3-0.1c0,0,0,0,0,0c0,0.1,0.2,0.1,0.3,0.2c0,0,0,0,0,0l0,0c-0.1,0-0.4-0.1-0.5-0.1v0c-0.1,0.1,0.1,0.2,0.1,0.3
	c0,0,0,0.1,0.1,0.1c0,0,0,0,0,0.1c-0.1,0-0.2,0.1-0.3,0.1c-0.1,0.1-0.2,0.1-0.3,0.2c0.1,0,0.1,0.2,0.1,0.2c0.1,0.1,0.2,0.1,0.3,0.1
	l0,0c0,0,0,0,0,0c-0.1,0.1-0.4-0.1-0.6-0.1c0.2,0.1,0.4,0.2,0.7,0.2c0,0.2,0.2,0.2,0.3,0.4c-0.1,0.1-0.2,0.3-0.4,0.3c0,0,0,0,0,0
	c0.1,0,0.2,0,0.3,0c0,0,0,0-0.1,0.1c-0.1,0.1,0,0.1-0.1,0.2c0.1,0.1,0,0.3,0,0.3c0,0,0,0-0.1,0c-0.1-0.1-0.3-0.1-0.4,0
	c0,0,0,0.1,0,0.1c0.1,0.1,0.4,0,0.5,0.1v0c-0.2,0.1,0,0.1-0.1,0.3c-0.1,0-0.2,0-0.2,0.1c0,0,0,0,0,0c0.1,0,0.2,0,0.2,0.1
	c-0.1,0-0.3,0-0.4,0.1c0,0.1,0.2,0.2,0.3,0.2c0.1,0,0.2-0.1,0.2-0.1h0.1c0,0.2-0.6,0.4-0.9,0.4c0,0.1,0.2,0.2,0.3,0.1
	c0.1,0,0.1-0.1,0.2-0.1c-0.1,0.1,0.2,0.1,0.1,0.3c0,0,0,0.1,0,0.1c-0.1,0.1-0.2,0-0.3,0c-0.1,0-0.2,0-0.3,0c-0.1,0-0.3-0.1-0.5,0
	c-0.2,0-0.1,0.3-0.3,0.3c0,0,0,0,0,0c-0.1,0-0.1-0.1-0.2-0.1c-0.2,0-0.3,0.1-0.4,0.1c-0.1-0.2,0.3-0.3,0.2-0.4c0,0,0,0,0,0
	c0.1-0.1,0.1-0.2,0.1-0.3c-0.1,0-0.1,0.1-0.1,0.1c0,0.1-0.1,0.2-0.3,0.2c-0.1-0.1,0.1-0.2,0.1-0.3c0-0.1-0.1-0.1-0.2-0.1
	c-0.1,0.1,0,0.3-0.2,0.3c0,0,0,0,0,0c0,0-0.1-0.1-0.1-0.1c-0.1,0-0.1,0-0.2,0c0.1-0.1,0.2-0.1,0.2-0.2c0,0,0-0.1,0.1-0.1
	c0.1-0.1,0.2-0.1,0.2-0.2c0-0.1-0.1-0.1-0.1-0.1c0,0-0.1-0.1-0.1-0.1c-0.1,0-0.1,0.1-0.2,0.1c-0.1,0-0.1,0-0.2,0
	c-0.1,0-0.1,0.1-0.2,0.1c0-0.1,0.2-0.2,0.3-0.3c0,0,0,0-0.1,0c-0.1-0.1-0.1-0.1-0.1-0.1c-0.2,0.1-0.3,0.1-0.1,0.2
	c0,0.1-0.1,0.1-0.3,0.1c0,0.1-0.1,0-0.2,0.1c-0.1,0-0.1,0.1-0.2,0.1c-0.1,0-0.2,0-0.2,0h0h0h0c-0.1,0-0.1,0.1-0.1,0.1
	c-0.1,0-0.1,0-0.2,0.1h0c0,0,0,0.1,0,0.1c-0.2,0.1-0.5,0-0.7,0c0.1,0,0.3-0.1,0.3-0.2c0-0.1-0.1-0.1-0.1-0.2c0,0,0,0-0.1,0
	c-0.1,0-0.2,0.1-0.2,0.1c0,0,0,0-0.1,0c-0.1-0.1,0.1-0.2,0-0.3c-0.1-0.1-0.5-0.1-0.6-0.1c0.1,0,0.3-0.1,0.3-0.1l0,0
	c-0.2-0.1-0.2,0-0.3,0.1c-0.1,0-0.1,0-0.1,0c0,0,0,0-0.1,0c-0.2,0.1-0.3,0-0.4-0.1c0.1,0,0.1-0.1,0.2-0.1c0,0-0.1,0-0.1-0.1
	c0.1-0.1,0.3-0.2,0.3-0.4c-0.2,0.1-0.3,0.2-0.6,0.2c0-0.1,0.1-0.1,0.2-0.2c0,0,0.1,0,0.1-0.1c0,0,0,0,0,0c-0.1,0-0.2,0.1-0.3,0.1
	c0,0-0.1,0-0.1-0.1c0,0,0,0,0,0c0.1,0,0.1-0.1,0.2-0.1c0,0,0-0.1-0.1-0.1c-0.1,0-0.2,0-0.4,0h-0.3c-0.2,0-0.3-0.2-0.2-0.3
	c0.1-0.1,0.2-0.3,0.3-0.5c0-0.1,0.1-0.1,0.1-0.2c0,0,0,0-0.1,0c-0.2,0.1-0.2,0.3-0.5,0.3v0c0-0.1,0.1-0.1,0.1-0.2h0
	c-0.1,0-0.2,0.1-0.3,0c-0.1-0.2,0.2-0.2,0.2-0.3c0-0.1-0.1-0.2-0.3-0.2c-0.1,0-0.3,0.1-0.4,0.1l0,0c0.2-0.1,0.3-0.3,0.5-0.4
	c-0.1,0-0.2,0-0.3,0.1c-0.1,0.1-0.2,0.2-0.4,0.1c0-0.2,0-0.2-0.2-0.3c0,0,0,0,0,0c0.1,0,0.2,0,0.2-0.1c0,0,0,0,0,0c0,0-0.1,0-0.1,0
	c0-0.1-0.1-0.1-0.1-0.2c0.1,0,0.2,0,0.3-0.1c0.2-0.1,0.4-0.1,0.6-0.2c0.1,0,0.2,0,0.2-0.1c-0.1-0.1-0.2-0.1-0.2-0.2
	c0,0-0.1,0.1-0.1,0.1c-0.2,0.1-0.4,0.2-0.6,0.3c-0.2,0.1-0.4,0-0.4,0c0,0,0.2-0.1,0.3-0.1c0.2-0.1,0.3-0.2,0.4-0.2
	c0.1,0,0.2-0.1,0.2-0.1c0-0.1-0.1-0.1-0.2-0.1h0c0-0.1,0.2-0.2,0.4-0.2c0.1,0,0.1,0.2,0.2,0.2c0.1,0.1,0.4,0.2,0.6,0.2v0
	c-0.1-0.1-0.1-0.1-0.2-0.2c-0.1,0-0.1,0-0.2-0.1c-0.1,0-0.2-0.3-0.2-0.4c-0.1,0-0.2,0.1-0.3,0.1c-0.1,0-0.1-0.1-0.1-0.2
	c0,0,0-0.1,0-0.1c-0.1,0-0.1-0.1-0.2-0.1c0,0,0,0,0,0c0,0.1-0.1,0.2-0.1,0.3c0,0.1,0,0.2,0,0.3c0,0-0.1,0.1-0.1,0.1h0
	c0-0.1-0.1-0.1-0.2-0.2c0,0,0,0,0,0c-0.1,0-0.1,0.1-0.1,0.2c0,0,0,0.1,0,0.1c0,0.1-0.2,0.2-0.3,0.3c0,0-0.1,0.1-0.2,0.1c0,0,0,0,0,0
	c-0.1-0.1,0-0.2,0-0.3c0.1-0.2-0.1-0.5,0.3-0.6c0,0-0.1-0.1-0.1-0.2c-0.1,0-0.3,0.1-0.3,0c0,0,0,0,0.1,0c0-0.1,0.1-0.1,0.1-0.2
	c0,0,0-0.1-0.1-0.1c-0.1,0-0.1,0.1-0.2,0.1c-0.1,0-0.2,0-0.2-0.1c0.1-0.1,0.4-0.2,0.5-0.3c0,0,0,0,0,0c0,0,0,0,0,0c0,0,0,0,0,0
	c-0.1,0.1-0.3,0.1-0.4,0.2c0,0,0,0,0,0c0.1-0.1,0.1-0.4-0.1-0.4c-0.1,0.1-0.3,0.1-0.4,0c0,0,0,0,0,0c0.2,0,0.3-0.2,0.3-0.3
	c-0.2,0.1-0.3,0.1-0.5,0c0,0-0.1-0.1-0.1-0.1c0-0.1,0.2-0.1,0.3-0.2c0.3-0.2,0.5-0.4,0.9-0.5c0,0,0,0,0-0.1c0.1,0,0.2-0.1,0.3-0.1
	c0,0,0,0,0-0.1c0.1-0.1,0.3-0.1,0.4-0.2c0.2,0,0.6,0,0.7-0.1c0.1,0,0.1-0.1,0.2-0.2c-0.1,0-0.1,0-0.2-0.1c-0.1,0-0.1,0-0.2,0.1
	c-0.1,0-0.2,0-0.3,0.1c-0.1,0-0.2,0.1-0.3,0.1c-0.1,0.1-0.3,0.1-0.4,0.2c-0.1,0.1-0.2,0.2-0.3,0.3c-0.1,0-0.1,0-0.2,0.1
	c-0.2,0.1-0.4,0.2-0.5,0.4c-0.1,0.1-0.2,0.1-0.4,0.2c-0.1,0-0.2,0-0.2-0.1c0,0,0.1-0.1,0.1-0.1c0,0-0.1,0-0.1,0
	c-0.1-0.1,0-0.2,0.1-0.3c0.1-0.1,0.2,0,0.3,0c0,0,0.4-0.1,0.4-0.1c-0.1,0-0.4-0.1-0.5-0.1h0c0.2-0.1,0.6-0.1,0.8-0.2
	c0.1-0.1,0-0.2-0.1-0.2c0,0-0.1,0.1-0.1,0.1c-0.1,0-0.5-0.1-0.5-0.1c0-0.1-0.1-0.1-0.1-0.1c-0.1-0.1-0.2,0-0.3-0.1
	c0.1,0,0.2-0.1,0.3-0.1c0.5-0.2,1-0.1,1.4-0.1c0.1,0,0.2,0,0.3,0c-0.1-0.1-0.2-0.2-0.3-0.2c-0.1,0-0.1,0-0.2,0c-0.1,0-0.1,0-0.2,0
	c-0.1,0-0.1,0-0.2,0c-0.4,0-0.9,0.2-1.2,0.1c0.1-0.1,0.1-0.1,0.2-0.2c0.1,0,0.1-0.1,0.2-0.1c0.1-0.1,0.3-0.1,0.4-0.2
	c0.1,0,0.2-0.1,0.3-0.1c0.1,0,0.2,0,0.4,0.1c0.2,0,0.5,0,0.7,0c0-0.1-0.1-0.1-0.2-0.1c0-0.1,0.2-0.2,0.2-0.2v0c-0.1,0-0.2,0-0.4,0
	l0,0c0.1,0.1-0.1,0.1-0.1,0.2c-0.1,0-0.1,0-0.1,0c-0.2,0-0.3,0.1-0.3,0c0,0,0-0.1,0.1-0.1c-0.2,0-0.3,0.1-0.5,0.2
	c-0.1,0-0.1,0-0.2,0.1c-0.1,0.1-0.2,0.3-0.5,0.3c0,0,0,0,0-0.1c0.1-0.1,0.1-0.2,0.2-0.2c0.1-0.1,0.1-0.3,0.3-0.3
	c0.2,0,0.4,0.1,0.5,0c0,0,0-0.1,0-0.1c-0.1,0-0.5-0.1-0.5-0.1c0,0,0,0,0,0c0,0,0,0,0,0c0.2,0,0.3,0.1,0.5,0.1c0.1,0,0.2,0.1,0.4,0.1
	c0.1,0,0.2,0,0.4,0c0.2,0,0.3,0,0.5,0.1c0,0,0,0,0,0c-0.1-0.1-0.5-0.1-0.5-0.3c0-0.1,0.2-0.1,0.2-0.2c-0.1,0-0.3,0-0.3,0
	c0,0,0.1,0,0.1,0.1c0,0,0,0,0,0c-0.1,0.1-0.2,0-0.3,0.1c-0.1,0-0.3,0-0.4,0c-0.1,0-0.1,0-0.2,0c-0.1,0-0.2,0-0.3,0.1
	c-0.1,0-0.2,0-0.3,0c0.3-0.1,0.4-0.3,0.7-0.4c0.1,0,0.3,0,0.4,0c0.2,0,0.3-0.1,0.4-0.1c0.1,0,0.2,0,0.2,0c0.1-0.1,0.2-0.2,0-0.3
	c-0.2,0-0.2,0.1-0.4,0.1c0-0.1,0.1-0.1,0.1-0.2c0,0,0.1-0.1,0.1-0.1c0,0,0,0,0-0.1c0,0,0.1-0.2,0.2-0.2c0.1,0,0.4,0,0.5-0.1v0
	c0,0,0,0,0,0c0,0-0.1,0-0.1,0c-0.1,0,0-0.1-0.1-0.1c-0.2,0-0.1,0.1-0.3,0.1v0c0,0,0.1-0.1,0.1-0.1c0,0,0-0.1,0-0.2
	c0,0,0.1,0,0.1-0.1c0,0,0,0,0,0c0,0-0.1,0-0.1,0c0,0,0-0.1,0-0.1c0,0,0.1,0,0.1-0.1c0-0.1-0.1-0.1-0.1-0.1c0,0,0.1,0,0.1-0.1
	c0-0.1,0-0.1,0.1-0.2c0-0.1,0.1-0.1,0.1-0.1c-0.1,0-0.1,0-0.2,0c-0.1,0-0.2,0.1-0.4,0.1c0,0,0,0,0,0c0,0,0,0,0.1,0c0,0,0,0,0,0
	c0,0,0,0,0,0c-0.1,0-0.2,0.1-0.2,0.1c-0.1,0-0.1,0-0.1,0c-0.2,0-0.3,0-0.5-0.1c-0.2-0.1-0.3-0.3-0.6-0.3c-0.1,0-0.1,0-0.1,0
	c0,0,0,0,0,0c0,0-0.1,0-0.1,0c0,0-0.1,0.1-0.1,0.1c0.2,0,0.4,0.1,0.5,0.2c0.1,0.1,0.2,0.2,0.3,0.2c0.2,0,0.6,0.2,0.5,0.4
	c-0.1,0.1-0.3,0.3-0.5,0.4c-0.1,0-0.2,0-0.4,0.1c-0.1,0-0.2,0.1-0.3,0.1c-0.1,0-0.5-0.1-0.4-0.2c0,0,0.1-0.1,0.2-0.1
	c0.1,0,0.1,0,0.2,0c0,0,0,0,0,0c-0.1,0-0.1,0-0.2,0c0,0,0,0,0,0h0c-0.1,0-0.1,0-0.2,0L89.4,90c-0.1,0-0.1,0-0.2,0
	c-1.7,1.7-3.2,3.5-4.6,5.4c0.1,0,0.1-0.1,0.2,0c0.2,0.1,0.5,0.4,0.6,0.6h0c-0.1,0-0.3,0.1-0.4,0.1v0.2c0.4,0,0.8-0.1,1.1-0.1
	c0,0.1-0.1,0.2-0.1,0.3c0.3,0.1,0.5,0.1,0.7-0.1c0.2,0.1,0.4,0.3,0.6,0.4c0,0,0,0,0,0c-0.1,0.1-0.2,0.3-0.2,0.3
	c-0.3,0.1-0.4-0.2-0.8,0c0,0,0,0,0,0c0.2,0.1,0.4,0.2,0.4,0.4c-0.3,0-0.4,0.1-0.5,0.4c-0.2,0-0.3-0.2-0.4-0.3c0,0,0,0,0,0
	c0,0.2-0.1,0.4-0.1,0.5c0,0.2,0.1,0.3,0.1,0.5h0c-0.1,0-0.5-0.2-0.6-0.2c-0.1-0.1,0-0.2-0.1-0.3c-0.1,0-0.2,0.1-0.3,0.1
	c-0.1-0.1-0.2-0.2-0.2-0.4c0-0.1,0.1-0.2,0.1-0.3c-0.1-0.1-0.3,0-0.5-0.1c-0.3-0.1-0.5-0.4-0.8-0.5c-0.1,0.1-0.2,0.3-0.3,0.4
	c0,0.1,0.1,0.1,0.2,0.2c0,0,0,0-0.1,0.1c-0.1,0-0.2,0-0.3,0c0,0,0,0,0,0c-0.1,0.1-0.1,0.2-0.2,0.2c0,0,0,0.1,0,0.1
	c0.1,0,0.3,0,0.4,0.1c0.2,0.3,0.3,0.6,0.5,0.9c0,0,0,0,0.1-0.1c0,0,0.1-0.1,0.1-0.1c0.2,0.1,0.3,0.3,0.4,0.4
	c0.2,0.1,0.3,0.1,0.4,0.2h0c-0.1,0-0.1,0-0.2,0c0,0,0,0.1-0.1,0.1c0.3,0.4,0.8,0.3,0.7,1.1c0,0,0,0-0.1,0c-0.1-0.2-0.3-0.5-0.5-0.6
	c-0.1,0.4,0.4,0.6,0.4,1h0c-0.1,0-0.2,0-0.3-0.1c0.1,0.2,0.2,0.4,0.3,0.6c-0.3-0.1-0.5-0.3-0.7-0.6c-0.8,0.1-1-0.5-1.4-0.8
	c0,0.1,0,0.2,0.1,0.3c-0.3-0.1-0.4-0.3-0.8-0.3c0.1,0.5,0.7,0.7,1.1,0.9c0.4,0.3,0.7,0.6,0.9,1.1c-0.5-0.2-1-0.3-1.4-0.5
	c-0.3-0.1-0.6,0-0.8-0.1c-0.1-0.1-0.2-0.2-0.3-0.3c-0.1,0-0.2,0-0.3,0c-0.1,0-0.1-0.1-0.2-0.1c-0.1,0-0.2,0-0.2,0c0,0-0.1,0-0.1,0
	c-0.3,0.4-0.5,0.9-0.8,1.3c0.1,0,0.1,0.1,0.2,0.1c-0.1,0.2-0.1,0.2,0,0.3c0.3,0.1,0.7,0.3,1.1,0.4c0.2,0.1,0.3-0.1,0.4-0.1
	c0,0,0.1,0.1,0.1,0.1c0,0.1,0,0.2,0,0.2c-0.5,0.3,0.2,1.3,0,1.7c-0.1,0-0.2,0-0.3,0c0,0.2,0,0.3,0.1,0.4h0c0.5-0.2,0.8-0.4,1.1,0.1
	c0,0.1,0,0.1,0,0.2c0,0.1,0.1,0.1,0.1,0.1c0.2-0.1,0.6-0.1,0.8-0.2c0.1-0.1,0.2-0.3,0.2-0.4c0.2,0,0.2,0.3,0.4,0.4h0
	c0-0.5,0.2-0.6,0.4-0.9c-0.4-0.5-0.1-0.3,0.3-0.6c0-0.1,0.1-0.2,0.1-0.3c0,0,0,0,0,0c0.3,0.2,0.9,1.1,1.2,1.5c0,0.1-0.1,0.1-0.1,0.3
	c0.1,0,0.1,0,0.2,0c0.1,0.7,0.5,0.4,0.6,0.8c-0.1,0-0.2,0.1-0.2,0.1c0.2,0.2,0.4,0.3,0.6,0.4c0,0.1,0,0.2,0,0.2
	c-0.2,0.1-0.5-0.1-0.6,0c0,0,0,0,0,0c0.1,0.1,0.2,0.5,0.4,0.6h0.2c0.2,0.1,0.7,0.5,0.7,0.7c-0.1,0.1-0.1,0.2-0.2,0.4
	c0.2,0,0.4-0.1,0.6-0.1c0.3,0,0.5,0.3,0.8,0.4c0.3,0.1,0.5,0.1,0.8,0.2c-0.1,0.2-0.4,0.2-0.7,0.3c-0.3,0.1-0.4,0.3-0.7,0.4
	c-0.1,0-0.3,0-0.4,0c-0.1,0.1-0.2,0.3-0.2,0.5c0.2-0.1,0.5-0.1,0.7-0.2c0.5-0.3,0.8-0.9,1.4-0.3c-0.1,0.1-0.1,0.1-0.1,0.2
	c0,0.1,0.1,0.1,0.1,0.1c0.1,0,0.3-0.2,0.4-0.1c0.2,0,0.6,0.2,0.6,0.5c-0.1,0.2-0.1,0.3-0.2,0.5c0.1,0.1,0.2,0.3,0.3,0.4v0
	c-0.2,0.2-0.6,0.6-0.9,0.6c-0.4,0-0.7,0.1-1.1,0.1c-0.2,0.2-0.4,0.4-0.6,0.6c-0.3,0.3-0.9,0.3-1.4,0.3c-0.4,0-0.8,0-1.2-0.1
	c-0.4,0-0.8,0.1-1.2,0c-0.3,0-0.8-0.1-1,0c-0.5,0.2-0.4,0.6-0.6,0.8c-0.2,0.1-0.5,0.1-0.7,0.2c-0.7,0.4-1.5,1.3-1.8,2.1
	c0.4-0.3,0.7-0.8,1.2-1.2c0.5-0.4,1.3-0.6,1.9-0.8c0.6-0.2,1.4-0.2,1.6,0.4c-0.1,0.1-0.7,0.5-0.9,0.5c-0.1,0-0.2-0.1-0.2-0.1
	c-0.2,0-0.3,0.1-0.5,0.1v0c0.3,0,0.4,0.1,0.6,0.4c0.1-0.1,0.3-0.1,0.4-0.2v0.1c0,0,0.1,0,0.1-0.1c0.1,0,0.1,0.1,0.1,0.1
	c-0.1,0.1-0.1,0.1-0.1,0.1c-0.1,0.3-0.1,0.2-0.3,0.4c0.2,0,0.3,0,0.4,0.1c-0.1,0.1-0.1,0.2,0,0.3c0.1,0,0.1,0,0.1,0
	c-0.1,0.4,0.4,0.3,0.6,0.4c0,0,0,0,0,0c-0.1,0-0.1,0-0.2,0.1v0h0h0c0.1,0,0.1,0.1,0.2,0.1c0.1,0,0.1,0,0.2,0c0.1,0,0.1,0.1,0.1,0.1
	c0.1,0.1,0.2-0.1,0.4,0c0,0,0,0,0,0h0c0,0,0,0.1-0.1,0.1c0.1,0,0.2,0,0.2,0c0.1,0,0.2-0.1,0.3-0.2c0,0.3,0.1,0.1,0.3,0.1
	c0.1,0.1,0.1,0.1,0.1,0.2c0,0,0,0,0,0.1c0,0-0.1,0-0.1,0c0,0,0,0,0,0c0.2,0,0.3,0,0.3,0.1c-0.1,0-0.1,0-0.2,0.1
	c-0.1,0-0.1-0.1-0.1,0c0,0,0,0-0.1,0c0,0,0,0,0,0c-0.1,0-0.2,0-0.2,0c0,0,0,0,0,0.1c-0.3,0-0.7,0.2-1,0.3c0,0,0-0.1-0.1-0.1
	c0,0,0,0-0.1,0c0,0,0,0.1,0,0.1c0,0,0,0-0.1,0c0,0.1-0.1,0.1-0.1,0.2c-0.1,0-0.2,0-0.3,0c0,0,0-0.1,0-0.1c0,0,0,0,0,0
	c0,0.1-0.1,0.1-0.1,0.1h0c0,0,0-0.1,0-0.1h-0.1c0,0.1,0.1,0.1,0,0.3c-0.3,0-0.3,0.3-0.5,0.4c0,0,0,0,0,0v0.1c-0.1,0-0.2,0-0.3,0
	c0,0.1,0,0.1-0.1,0.2c-0.1-0.1-0.1-0.1-0.2-0.1L84,119c0,0,0,0-0.1,0c0-0.2-0.2-0.4,0-0.6c0.1-0.1,0.1,0,0.1-0.1
	c-0.1,0-0.1,0.1-0.2,0.1c0,0,0,0,0,0c0,0,0,0,0,0c0.1-0.1,0.2-0.1,0.3-0.2c0,0,0,0,0.1,0v0c0,0,0,0-0.1,0h0c0.1-0.1,0.8-0.5,1-0.5
	c0,0.1,0,0.1,0,0.2c0.1,0,0.1,0,0.1,0.1v-0.1c0.2,0,0.3-0.1,0.5-0.1c0,0,0,0,0,0c-0.3,0-0.8-0.1-1,0.1c0-0.1,0-0.1,0-0.1
	c0.2-0.1,0.3-0.2,0.4-0.3h0c0,0-0.1,0-0.1,0.1c0-0.1,0-0.1-0.1-0.2c0,0,0,0.1,0,0.1c0,0.1-0.1,0.1-0.1,0.2c-0.4,0-0.5,0.3-0.8,0.3
	c-0.1,0-0.1-0.1-0.2-0.1c0,0,0,0.1,0.1,0.1c-0.1,0-0.2,0.1-0.2,0.1c-0.1-0.1-0.3-0.1-0.4,0c0,0,0,0-0.1-0.1c0,0.1,0.1,0.1,0.1,0.2
	c0,0,0,0.1-0.1,0.1h0.1c0,0,0,0,0,0.1c-0.1,0.1-0.2,0.1-0.3,0.1c0,0.1,0,0.1-0.1,0.1c0,0-0.1-0.1-0.1-0.1c-0.1,0.1-0.1,0.2-0.2,0.2
	c0,0,0-0.1,0-0.1c-0.1,0-0.2,0.1-0.3,0.1c0,0,0,0.1,0,0.1c-0.1,0-0.1,0-0.2-0.1c0,0,0,0,0,0c0-0.1,0-0.1,0.1-0.2c0,0,0,0,0,0l0,0
	c-0.1,0.2-0.2,0.4-0.3,0.5c0,0-0.1,0-0.1-0.1c0,0,0,0.1-0.1,0.1c0,0-0.1,0-0.1,0c0,0,0-0.1,0-0.1c0,0-0.1,0-0.1,0.1
	c0,0.1,0,0.1-0.1,0.2h0c0,0-0.1,0-0.1-0.1c0,0,0,0,0-0.1c-0.1,0-0.1,0.1-0.2,0.1v0.2c-0.2,0.1-0.3,0.5-0.4,0.6
	c0.1,0.1,0.1,0.1,0.2,0.1c0,0,0,0,0,0.1c-0.1,0-0.3,0.1-0.3,0.2c0.2,0,0.3,0.2,0.4,0.5l0.1,0c0.1,0,0.1-0.1,0.2-0.1v0
	c0,0,0,0.1,0,0.2c-0.2,0-0.3,0.1-0.5,0.1c0-0.1,0-0.1,0-0.2h0c0,0.1-0.1,0.2-0.3,0.2c0,0,0,0,0,0c0-0.1,0-0.2,0-0.2
	c-0.1,0-0.1,0-0.1,0c0,0.1,0,0.2-0.1,0.3c-0.8,0-1.3,0.2-1.8,0.5c0-0.1,0.1-0.2,0.1-0.3c-0.1,0.1-0.1,0.2-0.1,0.4
	c-0.1,0-0.1,0-0.1,0.1c0,0,0,0,0,0c0.1,0.1,0.1,0.1,0.2,0.1c0,0.3-0.1,0.5-0.2,0.7c0,0-0.1,0-0.1,0c0,0.2-0.2,0.4-0.4,0.5
	c0,0,0,0,0,0v0c0-0.1,0-0.1,0-0.2c-0.3,0-0.3-0.2-0.4-0.3c0.1-0.1,0.1-0.1,0.1-0.2c0,0,0,0,0,0c-0.1,0-0.1,0.1-0.1,0.1
	c0,0.2,0.2,0.6,0.4,0.7c0,0.1,0,0.2,0,0.3c0,0.1-0.2,0.2-0.2,0.3c-0.1,0.1-0.1,0.3-0.2,0.4c0,0,0,0-0.1,0c0,0.1-0.1,0.2-0.1,0.3
	c0,0,0,0-0.1,0c0,0,0-0.1,0-0.1c0.1-0.2,0.2-0.4,0.3-0.5c0,0-0.1,0-0.1,0h0v0c0,0,0-0.1,0-0.1c0,0-0.1,0-0.1-0.1
	c0-0.1,0.1,0,0.1-0.2c-0.1,0-0.1,0.1-0.2,0.1c0,0-0.1-0.1-0.1-0.1c0,0,0-0.1-0.1-0.1c0,0,0,0,0,0c0.1,0,0.1,0,0.2-0.1c0,0,0,0,0,0
	c-0.1-0.1-0.1-0.1-0.2,0v0l0-0.1c0,0,0,0,0,0c0,0,0.1,0,0.1,0V123c0,0,0,0,0,0c-0.1,0-0.1,0-0.1-0.1c0,0,0,0,0,0
	c0.1,0,0.1,0,0.2-0.1h-0.1v0c0,0,0.1-0.1,0.1-0.1c0.1,0,0.1,0,0.2-0.1c0,0-0.1,0-0.1,0c0,0,0-0.1,0-0.1c0,0-0.1,0-0.1,0.1
	c0,0,0,0.1-0.1,0.1c0,0,0,0,0-0.1c0,0.1,0,0.1,0,0.1h0c0-0.1,0,0,0-0.1c0,0,0,0.1,0,0.1c0,0-0.1,0-0.1,0c0.2,0.3,0,0.2,0,0.5
	c0,0.1,0.1,0.2,0.1,0.3h0c0,0,0,0,0,0c-0.1,0-0.1-0.1-0.1-0.1h0c0,0.2,0.2,0.2,0.2,0.4c-0.1-0.1-0.3-0.2-0.4-0.3c0,0,0,0.1,0,0.1
	c-0.1-0.1-0.1-0.1-0.3-0.1c0,0,0,0,0,0.1c0.2,0.1,0.6,0.3,0.7,0.4c0,0.1-0.1,0.1-0.1,0.2c0,0,0,0,0,0c-0.1-0.1-0.2-0.1-0.2-0.2
	c0.1,0.2,0.2,0.2,0.4,0.3c0,0,0,0-0.1,0c0.1,0,0.1,0,0.1,0.1h0c0,0-0.1,0-0.1,0c0,0,0,0.1,0,0.1h-0.1c-0.1,0-0.1-0.1-0.2-0.1
	c0,0,0.1,0.1,0.2,0.1h0c0,0,0.1,0.1,0.1,0.1c0,0.1,0,0.1,0,0.2c-0.1,0-0.1,0-0.2,0c0-0.1-0.1-0.2-0.2-0.2c0,0,0,0-0.1,0c0,0,0,0,0,0
	c0.1,0,0.3,0.1,0.3,0.3c0.2,0,0.3,0,0.4,0.2c0,0,0,0,0,0.1c0,0,0,0,0,0.1h-0.1c0.1,0.1,0.1,0.1,0.2,0.3h-0.1c0,0,0-0.1,0-0.1
	c-0.1,0-0.1,0-0.2-0.1c0,0,0,0.1,0.1,0.1c0,0,0,0,0,0c0,0,0,0-0.1,0c-0.1,0-0.1-0.1-0.2-0.1c0,0,0,0,0,0.1c0,0-0.1,0-0.1,0
	c0,0,0-0.1-0.1-0.1c0-0.1,0-0.1,0-0.1v0c0,0.1,0,0.2,0,0.3c0.2,0,0.3,0,0.4,0c0,0,0,0,0,0c0,0.1,0,0.1,0,0.2v0v0c0,0,0,0,0,0
	c0-0.1,0-0.2,0.1-0.2c0,0,0,0,0,0c0.1,0,0.1,0.1,0.1,0.2c0,0,0,0-0.1,0.1c-0.1,0-0.1,0-0.1,0c-0.1,0.1-0.1,0.1-0.2,0.2
	c-0.2,0-0.2-0.1-0.3-0.1v0c0,0,0,0.1,0,0.1c-0.1,0-0.2-0.1-0.3-0.1c0,0,0,0,0,0.1c0.1,0,0.3,0.1,0.3,0.1v0c-0.1,0.1-0.1,0.1-0.2,0.2
	c-0.1,0-0.1-0.1-0.2-0.1c0,0.1,0,0.1,0.1,0.1c0,0,0.1,0,0.1,0.1c0.1,0,0.2-0.1,0.2-0.1c0,0.1,0,0.1,0.1,0.1c0,0,0,0,0,0
	c-0.1,0.1-0.1,0.1-0.2,0.1c-0.2,0-0.3,0.1-0.5,0.1c-0.1,0.2-0.3,0.4-0.4,0.6c-0.1,0.1-0.5,0.1-0.7,0.2c-0.2,0.1-0.2,0.3-0.3,0.5
	c-0.1,0.3-0.5,0.4-0.9,0.5c-0.1,0.2-0.3,0.4-0.4,0.6c-0.1,0.2-0.2,0.5-0.2,0.7c-0.1,0.6,0.5,1.2,0.6,1.6c0,0.2,0.1,0.4,0.1,0.6
	c0.1,0.2,0.2,0.4,0.2,0.6c0.1,0.5-0.1,1.1-0.2,1.4h0c0-0.1,0-0.1,0-0.2c-0.2,0-0.3,0-0.4,0.1c-0.1-0.1-0.2-0.4-0.3-0.6
	c-0.4,0-0.2-0.2-0.3-0.4c0,0-0.1-0.1-0.1-0.1c0-0.1,0-0.1,0-0.2h-0.1c-0.1-0.2-0.2-0.3-0.3-0.5c0.1,0,0.1-0.1,0.2-0.1
	c0-0.1,0-0.1,0-0.1c-0.1,0-0.1,0.1-0.2,0.1c0,0,0,0-0.1,0c0.1-0.3,0.1-0.5,0.2-0.8c0-0.2-0.2-0.2-0.3-0.2c-0.1-0.1-0.3-0.3-0.4-0.5
	c0,0.9-0.1,1.9-0.1,2.8c0,0.8,0.1,1.6,0.1,2.4c0.1-0.1,0.3-0.1,0.4-0.2c0.2,0,0.4,0,0.6-0.1c0.5,0,0.9,0.1,1.3,0.2h0.2
	c0.1,0.1,0.3,0.3,0.4,0.4c0.4,0.2,0.8,0.1,1.1,0.3c0.1,0.1,0.2,0.2,0.3,0.3c0.3,0.1,1,0.1,1.1,0.3c0,0.1-0.1,0.1-0.1,0.2
	c0,0,0,0,0,0c0.5,0,0.7,0.1,1,0.3c0,0,0,0,0,0c-0.3,0-0.5,0.1-0.8,0.2c-0.2,0-0.5-0.1-0.7-0.1c-0.3,0-0.6,0.1-0.9,0.1v0
	c0.1-0.1,0.1-0.1,0.1-0.1c0.1-0.1,0.2-0.1,0.2-0.3c-0.2-0.2-0.7-0.2-0.9-0.3c0-0.2-0.1-0.4-0.2-0.4c-0.1-0.1-0.5,0-0.6,0
	c-0.3-0.1-0.5-0.3-0.8-0.3c-0.4-0.1-0.7,0-1-0.2c0.1,0,0.2-0.1,0.3-0.1v0c0,0,0,0,0-0.1c-0.7-0.2-0.7,0.1-1.1,0.3c0,0-0.1,0-0.1,0
	c0.1,3.2,0.5,6.3,1.1,9.3c0.1,0,0.2-0.1,0.3,0.1c0.4,0.1,0.5-0.1,0.8-0.2c0.1,0,0.2,0,0.2-0.1c0.1-0.1,0.2-0.2,0.3-0.2
	c0.1,0,0.3,0.1,0.4,0.1c0.2,0.1,0.3,0,0.5,0.1c0.4,0.2,0.6,0.6,0.8,1c-0.1,0.1-0.2,0.2-0.3,0.3h0c0-0.1,0-0.1-0.1-0.1
	c0,0.1,0,0.2-0.1,0.2c0.1,0,0.2-0.1,0.3-0.1c0.2-0.1,0.3-0.6,0.6-0.4c0.1,0.1,0.2,0.1,0.3,0.3c0,0-0.1,0.1-0.1,0.1
	c-0.2,0-0.5,0.1-0.6,0.2c0.1,0.2,0.2,0.4,0.2,0.6c-0.1,0.2-0.2,0.4-0.3,0.6c0.1,0.1,0.2,0.4,0.3,0.5c0.1,0,0.3-0.1,0.4-0.2
	c0.1-0.2-0.2-0.9-0.4-0.9c0.1,0,0.1,0,0.1-0.1c0,0,0,0,0,0c0.2-0.1,1.2-0.3,1.2-0.5c0,0-0.1,0-0.1-0.1c-0.1,0-0.1,0-0.2,0
	c0-0.1-0.1-0.1-0.1-0.2c0-0.1,0.1-0.2,0.3-0.2c0,0.1,0.1,0.3,0.2,0.5c0.4,0,0.8,0.1,0.9,0.4c0.1,0.1,0,0.2,0.2,0.3
	c0.3,0.1,0.8-0.1,1.1-0.1c0.4,0,0.5,0.5,1.2,0.4c0.2-0.1,0.3-0.3,0.5-0.3c0.3-0.1,1-0.1,1.3-0.1c0,0,0,0,0,0c0,0,0,0,0,0.1l-0.1,0
	c-0.1,0-0.3,0-0.4,0v0.1c0.2,0.1,0.4,0.2,0.4,0.5c0,0,0,0,0,0c0-0.1,0-0.1,0.1-0.2c0.1,0.1,0.3,0,0.4,0.1c0,0,0.1,0.1,0.1,0.1
	c0.1,0.1,0.3,0.1,0.4,0.2c0,0,0,0,0,0c-0.3,0.1-0.2,0.4-0.6,0.5v0c0.1,0,0.3,0,0.5,0c0.2,0,0.4-0.1,0.6,0c0.4,0.1,0.9,0.5,1.1,0.8
	c0,0.2,0.1,0.4,0.1,0.6v0c0,0,0-0.1,0.1-0.1c0.4-0.1,0.8,0.4,0.9,0.7c0,0,0.1-0.1,0.1-0.1h0c0.2,0,0.4,0.1,0.7,0.1
	c0-0.1,0-0.1,0-0.1c0.3-0.1,0.9,0,1.2,0.1c0.3,0.1,0.5,0.2,0.8,0.3c0.2,0.1,0.9,0.8,0.9,0.8c0.1,0,0.1-0.1,0.2-0.1
	c0.1,0.1,0.1,0.2,0.2,0.4c0.2,0.5,0.2,1.3,0.8,1.4c0.1,0.1,0.1,0.3,0,0.4c-0.2,0.1-0.3,0.4-0.5,0.6c-0.2,0.2-0.5,0.3-0.7,0.5
	c-0.1,0.2-0.2,0.5-0.4,0.7c0,0,0,0,0,0c0.3,0.1,0.5-0.2,0.7-0.3c0.1,0.2,0.1,0.4,0.2,0.5c0.3,0.1,0.7,0,0.9-0.1
	c-0.1,0.1-0.1,0.2-0.1,0.3c0,0,0,0,0,0c0.1-0.3,0.5-0.3,0.7-0.6c0.1-0.1,0.1-0.4,0.3-0.4c0.2,0,0.4-0.1,0.5-0.1
	c0.1,0.1,0.2,0.2,0.4,0.2c0.4,0.1,0.8,0.1,0.9,0.5h0.1c0,0,0.1-0.1,0.1-0.1c0.2,0,0.5,0.3,0.4,0.5c-0.1,0.3-0.2,0.1-0.1,0.6
	c0.2-0.2,0.6-0.5,0.9-0.5c0.3,0,0.5,0.2,0.7,0.3c0.2,0,0.5,0.1,0.7,0.1c0.4,0.1,0.7-0.1,1.1,0c0.7,0.3,1.1,0.9,1.7,1.3
	c0.3,0.2,0.7,0.1,1.1,0.2c0.2,0.1,0.6,1.4,0.5,1.8c-0.2,1-0.6,1.5-1.3,2c-0.1,0.1-0.2,0.1-0.3,0.2c-0.1,0.1-0.1,0.2-0.1,0.4
	c-0.1,0.3-0.4,0.9-0.7,1.1h0c0-0.1-0.1-0.2-0.1-0.2c0,0-0.1,0-0.1,0c0,0.4-0.2,0.7-0.2,1.1c0,0.4,0.1,0.8,0.1,1.2
	c0.1,0.3-0.1,0.6-0.2,0.9c0,0.2,0,0.4,0,0.5c-0.3,0.1-0.5,0.4-0.4,0.8c0,0.1,0,0.3,0.1,0.4c0,0.1-0.2,0.2-0.3,0.3
	c-0.1,0.2-0.2,0.3-0.2,0.5c-0.1,0.2-0.4,0.4-0.4,0.7c0,0.1,0,0.2,0.1,0.4c-0.4,0-0.7,0.2-0.7,0.6c-0.4,0-0.8,0.1-1.1,0.1
	c-0.2,0-0.4,0-0.7,0c0,0.3-0.2,0.2-0.4,0.4c-0.1,0.1-0.1,0.2-0.2,0.3c-0.1,0-0.2-0.1-0.3-0.1c-0.2,0-1.2,0.7-1.4,0.9
	c-0.2,0.2-0.2,0.4-0.6,0.3v0.1c0.3,0.1,0.1,0.5,0,0.6c0.1,0.1,0.1,0.2,0.1,0.4c0.2,1.3-0.5,1.4-0.9,2c-0.1,0.3-0.2,0.6-0.4,0.9
	c-0.2,0.3-0.5,0.6-0.7,0.8c0.1-0.5,0.6-0.7,0.6-1.1h0c-0.1,0.1-0.3,0-0.4-0.1v0c0,0.2-0.1,0.4-0.1,0.6c-0.1,0.1-0.3,0.2-0.4,0.4
	c11,10.8,26.1,17.5,42.8,17.5c30,0,55-21.7,60.2-50.2c0-0.1,0-0.2-0.1-0.2c-0.1-0.1-0.2-0.2-0.3-0.2c-0.1-0.1,0-0.3,0-0.4l-0.2-0.3
	c-0.1-0.3-0.1-0.7-0.1-1c0,0,0,0,0,0c-0.1,0.1-0.2,0.1-0.3,0c0,0-0.1,0-0.1,0c0-0.2,0-0.3-0.1-0.5c-0.1,0-0.1,0-0.2,0
	c-0.1-0.3-0.3-0.4-0.5-0.6c-0.1,0-0.1,0-0.2,0.1c-0.1-0.4,0.1-0.9,0.2-1.3c0,0-0.1-0.1-0.1-0.1c-0.1-0.2,0.2-0.8,0.3-1
	c-0.1,0-0.1,0-0.2,0c0-0.3,0.1-0.7-0.1-1c-0.1-0.3-0.4-0.7-0.5-1.1c-0.1-0.4-0.1-0.8-0.2-1.3c-0.3-0.1-0.3-0.5-0.5-0.6H190
	c-0.1,0.7-0.3,0.5-0.7,0.8c-0.1,0.1-0.2,0.5-0.4,0.3V135c-0.1,0-0.1,0-0.2,0.1h-0.1c0,0-0.1-0.1-0.1-0.1c0-0.1,0-0.1,0-0.2
	c-0.2,0-0.2,0.1-0.4,0.2c0,0-0.1,0-0.1-0.1c0-0.3,0.2-0.5,0.2-0.8c0.1-0.5-0.2-1.1-0.3-1.4c0,0,0,0,0,0c0,0,0,0.1-0.1,0.1
	c-0.1,0-0.2-0.1-0.3-0.2c0.1,0,0.2,0,0.2,0v0c-0.1-0.2-0.2-0.5-0.3-0.5c-0.1-0.1-0.2,0-0.3-0.1v-0.2c-0.1,0-0.1,0-0.2,0
	c-0.6-0.2-0.4-1.3-0.8-1.7c-0.1,0.1-0.2,0.1-0.3,0.1c-0.1-0.1-0.1-0.2-0.2-0.3c0,0,0,0,0,0c0,0,0,0.1,0,0.2c0.1,0.1,0.1,0.3,0.1,0.4
	c-0.2,0-0.2,0.1-0.2,0.2h-0.1c0-0.1-0.1-0.2-0.1-0.3c0,0,0,0,0,0c0,0.1-0.1,0.2-0.1,0.3H185c0-0.1,0-0.1-0.1-0.2c0,0,0,0-0.1,0
	c0,0.1-0.1,0.1-0.1,0.1c0,0-0.1-0.1-0.1-0.1c0,0.1,0,0.1,0,0.2h-0.2c0-0.1,0-0.2-0.1-0.3c0,0,0,0,0,0c0,0.1-0.1,0.1-0.1,0.2
	c0,0-0.1,0-0.1,0c0-0.1-0.1-0.2-0.1-0.2c-0.1,0.1-0.1,0.2-0.2,0.2c-0.2,0.1-0.5,0.2-0.6,0.3c0,0.1,0.1,0.2,0.1,0.3
	c-0.2,0.2-0.3,0.5-0.5,0.6c-0.2,0.1-0.5,0.1-0.7,0.2c-0.2,0.3-0.5,0.6-0.7,0.8c-0.1,0.1-0.2,0.1-0.3,0.1c-0.2,0.1-0.3,0.3-0.4,0.4
	c-0.1,0.1-0.3,0.1-0.5,0.2c-0.1,0.1-0.1,0.4-0.3,0.5c-0.1,0.1-0.4,0.1-0.5,0.1c0,0.1-0.1,0.3-0.2,0.4c-0.2-0.1-0.3-0.1-0.4,0
	c0,0.1-0.1,0.2-0.1,0.3c-0.1,0.4,0.1,0.7,0,1.1c0.4,0.5-0.2,1-0.3,1.5c0,0.3,0.1,0.6,0,0.9c-0.1,0-0.3,0-0.4,0
	c-0.1,0.2-0.1,0.3-0.2,0.5c0.1,0,0.1,0.1,0.1,0.1l-0.6,0.2c-0.1,0.1,0,0.2-0.1,0.3c-0.1,0.1-0.4,0.3-0.6,0.3
	c-0.1-0.2-0.3-0.3-0.4-0.4c-0.1-0.3-0.1-0.5-0.2-0.8l-0.5-1.2c-0.1-0.1-0.2-0.3-0.3-0.4c0-0.2-0.1-0.4-0.1-0.6
	c-0.1-0.4-0.2-0.7-0.4-1.1c-0.2-0.5-0.5-0.9-0.7-1.5c-0.1-0.5-0.2-1-0.2-1.5c-0.1-0.3-0.1-0.7-0.2-1c0-0.2,0.2-0.3,0.2-0.4
	c0-0.1-0.2-0.2-0.2-0.3c-0.1-0.2-0.1-0.5,0-0.7c-0.1,0-0.2,0-0.3,0.1c0,0.1,0,0.1-0.1,0.2c0.3,0.4-0.3,0.6-0.6,0.7
	c-0.1,0-0.2,0.1-0.3,0.1c-0.3,0-1.2-0.9-1.3-1.2h0c0.4-0.1,0.5,0.2,0.9-0.2c0.1-0.1,0.1-0.1,0.1-0.2c-0.5,0.2-1.2-0.1-1.4-0.4
	c-0.1-0.1-0.1-0.2-0.2-0.3c-0.2-0.1-0.3,0-0.4-0.2c-0.1-0.2-0.1-0.3-0.2-0.5c-0.1,0-0.2,0-0.3-0.1c0-0.3,0-0.4-0.2-0.5
	c-0.3,0-1.4,0.5-1.6,0.1c-0.2,0-0.3,0.1-0.4,0.2h-0.7c-0.2,0-0.5,0.2-0.8,0.1c-0.2,0-0.3-0.1-0.5-0.2c-0.3,0-0.7,0-1,0
	c-0.1-0.1-0.1-0.1-0.2-0.2h-0.6c-0.1,0-0.3-0.2-0.4-0.2c0-0.2-0.2-0.3-0.2-0.5c-0.1-0.1,0-0.3-0.1-0.4c-0.1,0-0.1-0.1-0.2-0.1
	c-0.3-0.1-0.5,0-0.8,0.1c0,0.1-0.4,0.3-0.5,0.4c-0.2,0-0.3-0.2-0.5-0.2c-0.3-0.1-0.5-0.1-0.8-0.2c-0.1-0.1-0.2-0.3-0.3-0.4
	c-0.2-0.1-0.6-0.1-0.7-0.3c-0.1-0.2-0.4-0.6-0.5-0.8v-0.2c-0.1-0.2-0.3-0.3-0.4-0.5c-0.2,0.1-0.5,0.1-0.6-0.1c0-0.1-0.1-0.1-0.1-0.2
	h0c-0.2,0.1-0.2,0.2-0.3,0.4c-0.1,0-0.5,0-0.5,0.1c0,0.1,0,0.2,0.1,0.3h-0.1c0,0.1-0.1,0.1-0.1,0.2c0,0,0.1,0,0.1,0
	c0.1,0,0.2,0,0.2-0.1c0.1,0.5,0.3,0.9,0.5,1.3c0.1,0,0.2,0,0.3,0c0,0.1-0.1,0.1,0,0.2c0.1,0.2,0.4,0.2,0.6,0.4
	c0,0.1-0.1,0.1-0.1,0.2c0,0.1,0.1,0.1,0.1,0.2c-0.1,0.3-0.1,0.3,0,0.5c0.1,0,0.1,0,0.2,0.1c0,0.2,0.2,0.6,0.3,0.7
	c0.1,0,0.1,0,0.1-0.2c-0.1-0.3,0-0.8,0.2-1c0,0,0.1,0,0.1,0c0,0.1,0.1,0.1,0.1,0.1c0,0,0.1,0.6,0.1,0.7c0,0.2-0.3,0.3-0.2,0.5
	c0.1,0,0.2,0,0.1,0.2c0.2,0,0.3,0,0.5,0c0-0.1,0-0.1,0.1-0.1c0.2,0.1,1,0.1,1.1,0.1c0,0,0-0.1,0-0.1c0.1,0,0.1,0,0.2,0
	c0-0.1,0.1-0.1,0.2-0.2c0.1-0.1,0.1-0.2,0.2-0.3c0.2-0.3,0.5-0.4,0.7-0.6c0.1-0.1,0.2-0.3,0.3-0.4h0c0,0.3,0,0.4-0.1,0.5
	c0.1,0,0.1,0,0.1,0c0.1,0.1,0,0.3,0,0.5c0.1,0.2,0.3,0.5,0.5,0.6c0.2,0.1,0.4,0.2,0.6,0.3c0.1,0,0.3-0.1,0.4,0
	c0.1,0.2,0.3,0.4,0.4,0.6c0.1,0.1,0.3,0.1,0.4,0.3c-0.1,0.2-0.2,0.4-0.4,0.6c-0.1,0.1-0.2,0.2-0.3,0.3c-0.1,0.1-0.1,0.4-0.2,0.5
	c-0.1,0.1-0.3-0.1-0.4,0c-0.1,0.3,0,0.7-0.1,1c-0.4,0-0.7,0.1-0.8,0.4c0,0.1,0,0.2-0.1,0.3c-0.2,0.2-0.4,0-0.6,0.1
	c-0.2,0.1-0.1,0.4-0.3,0.6c-0.1,0-0.1,0.1-0.2,0.1c-0.2,0-0.3,0-0.5-0.1c-0.3,0.1-0.6,0.2-0.9,0.3c-0.2,0.1-0.4,0.2-0.5,0.4
	c-0.1,0.2,0,0.3-0.2,0.4c-0.5,0.3-1.2,0.3-1.8,0.6c-0.2,0.1-0.2,0.3-0.4,0.4c-0.2,0.1-0.4,0-0.5,0c-0.3,0.1-0.5,0.3-0.8,0.4
	c-0.2,0.1-0.5,0-0.7,0c-0.1,0.1-0.3,0.2-0.4,0.3c-0.4,0.3-1.1,0.3-1.3-0.1v-0.5c-0.1-0.3-0.3-0.8-0.4-1.2c0-0.1,0.1-0.2,0.1-0.3
	c0-0.2-0.1-0.3-0.1-0.5c-0.1-0.3-0.3-0.6-0.5-0.8c-0.1-0.1-0.2-0.1-0.2-0.2c-0.2-0.4-0.4-0.9-0.6-1.3c-0.2-0.2-0.5-0.3-0.7-0.5
	c-0.1-0.2-0.2-0.3-0.4-0.5c-0.1-0.3,0-0.8-0.1-1.1c-0.1-0.3-0.3-0.6-0.5-0.8c-0.2-0.2-0.6-0.3-0.7-0.6c0.1-0.4-0.2-0.7-0.4-1
	c-0.3-0.4-0.5-0.7-0.7-1.1c-0.1-0.1-0.2-0.3-0.3-0.4c-0.1,0-0.2,0-0.3,0c0-0.3,0.2-0.6,0.2-1c-0.1,0-0.1,0-0.1-0.1
	c-0.2-0.4-0.3-0.9-0.5-1.3c0.2-0.2,0.3-0.5,0.4-0.8c0-0.1,0-0.2,0.1-0.3c0.2-0.4,0.4-1,0.7-1.4c-0.1-0.3,0-0.5-0.2-0.8
	c0.1-0.1,0.1-0.2,0.1-0.4c0-0.1-0.1-0.1-0.1-0.2c0.1-0.1,0.2-0.2,0.3-0.3c0,0,0-0.1,0-0.1c0,0-0.1-0.1-0.1-0.1h-0.1
	c-0.1,0.1-0.2,0.2-0.3,0.3c-0.3,0-0.3-0.2-0.7-0.2c-0.1,0.2-0.3,0.2-0.4,0.4c-0.2,0-0.6,0.2-0.9,0.1c-0.2-0.1-0.3-0.3-0.5-0.4
	c-0.2-0.1-0.6-0.2-0.9-0.2c0,0.2-0.1,0.3-0.1,0.5c0,0-0.1,0-0.1,0c-0.2-0.1-0.5,0-0.7,0c-0.1-0.1-0.1-0.3-0.2-0.4
	c-0.1,0.1-0.1,0.1-0.2,0.1c-0.1-0.1-0.1-0.1-0.3-0.1c-0.1,0.1-0.1,0.1-0.2,0.1c0,0,0,0,0,0c0,0,0-0.1,0-0.1c0-0.1,0-0.1,0.1-0.1
	c0,0,0,0,0,0c-0.2,0-0.3,0-0.5,0c0,0,0-0.1,0-0.1c0.1,0,0.1-0.1,0.2-0.1c0,0,0,0,0-0.1c-0.1-0.1-0.2-0.1-0.2-0.2
	c-0.1-0.1,0-0.3,0-0.4c-0.2-0.1-0.3-0.1-0.5-0.2v-0.1c0-0.1,0-0.1,0.1-0.2c0.1,0,0.1,0.1,0.2,0.1c0.1-0.1,0.1,0,0-0.2
	c-0.1-0.1-0.1-0.1-0.1-0.2c0.1,0,0.2,0,0.2-0.1c0,0,0,0-0.1-0.1h-0.1c0-0.1,0.1-0.1,0-0.2c0-0.1-0.1-0.1-0.1-0.1
	c0,0,0.1-0.1,0.1-0.1c0.1,0,0.1-0.1,0.1-0.1v0c-0.2,0-0.4,0.1-0.6,0.1c0-0.1,0-0.3,0.1-0.5c0.2,0,0.1-0.1,0.2-0.1
	c0.1-0.1,0.4-0.2,0.6-0.2c0,0.1,0.2,0.2,0.4,0.1v0c0,0-0.1,0-0.1,0c0,0,0,0,0,0c0.1,0,0.1,0,0.2,0c0,0,0,0.1-0.1,0.1
	c0.3,0,0.5,0,0.8,0c0,0,0,0,0.1-0.1c0,0,0,0-0.1,0c-0.1,0-0.1,0-0.2,0c0-0.1,0-0.1,0.1-0.1c0.2,0,0.5,0,0.7-0.1v0
	c-0.1,0-0.3,0-0.4,0c0-0.1-0.1-0.1-0.2-0.2c0-0.1,0.1-0.1,0.1-0.2c0.2,0,0.4,0,0.7,0.1c0,0,0.1,0,0.1,0c0.3,0,0.4,0.2,0.7,0
	c0,0,0-0.1,0-0.1c0.4-0.1,0.8-0.4,1.2-0.5c0.5-0.1,0.9,0.2,1.3-0.1c0.1,0.1,0.1,0.3,0.3,0.3c0.2,0,0.3-0.1,0.4,0
	c0.1,0.2,0.1,0.3,0.3,0.3c0.3-0.1,0.4,0.1,0.7,0.2c0.2,0,0.7,0.1,0.9,0.1c0.1,0,0.3-0.1,0.4-0.1c0.3-0.1,0.5,0.1,0.8,0.1
	c0.5-0.1,0.9-0.4,0.8-1c0-0.1-0.1-0.3-0.1-0.4c-0.2-0.3-0.7-0.3-0.9-0.5c0,0,0-0.1,0-0.1c-0.1,0-0.3-0.2-0.4-0.3
	c-0.2-0.2-0.4-0.4-0.7-0.5c-0.1,0-0.2-0.1-0.3-0.1c-0.1-0.1-0.1-0.2-0.2-0.2c-0.1,0-0.1,0.1-0.2,0c-0.1-0.1-0.3-0.3-0.4-0.5
	c0.1,0,0.4-0.1,0.5-0.1c0-0.2,0.1-0.3,0.2-0.5c0.1,0,0.3,0,0.3-0.1c-0.1-0.2-0.3-0.3-0.5-0.4c0,0,0-0.1,0.1-0.1c0.4,0,0.7-0.2,1-0.4
	c0-0.1,0-0.1-0.1-0.2c-0.2,0-0.4,0.1-0.6,0.1c0,0.1,0,0,0,0.1c-0.2,0-0.3,0-0.5,0.1c-0.1,0.1-0.1,0.1-0.2,0.2
	c-0.3,0.1-0.6,0.1-0.9,0.2c-0.1,0-0.1,0.1-0.2,0.1c-0.1,0-0.1,0-0.1,0c0,0-0.1-0.1-0.1-0.1c0,0,0,0,0,0c0,0.1-0.1,0.2-0.2,0.3
	c-0.3,0-0.5,0-0.7,0c0,0,0,0,0,0c0.3,0.1,0.7,0.4,0.8,0.7c0.2,0.1,0.4-0.1,0.6-0.1c0.1,0,0.3,0,0.4,0.1c0,0.1-0.1,0.2-0.1,0.3
	c-0.1,0-0.2,0-0.3,0c-0.1,0-0.2-0.1-0.3-0.1c-0.1,0.1-0.2,0.1-0.2,0.2c-0.1,0-0.2,0-0.4,0c-0.4,0.2-0.1,0.3-0.8,0.2v0
	c0.3-0.6-0.1-0.5-0.6-0.6c0,0,0,0,0-0.1c0.2-0.2,0.6-0.3,0.8-0.4c0-0.1-0.1-0.1-0.1-0.2c-0.4,0-0.8,0.1-1.1-0.2v0
	c0.1-0.1,0.1-0.1,0.2-0.1v0c0-0.1-0.1-0.1-0.1-0.2c0,0,0,0-0.1,0c0,0,0,0.1-0.1,0.1c-0.9,0-0.7,0.4-1.2,0.7
	c-0.1,0.1-0.4,0.1-0.4,0.3c0,0.1,0.1,0.1,0.1,0.2c-0.1,0.1-0.1,0.2-0.2,0.3c-0.5,0-0.6,0.4-0.7,0.9c0,0.1,0,0.2,0,0.3
	c0,0-0.2,0.1-0.3,0.1c0,0.2-0.1,0.3-0.1,0.5c-0.1,0.1-0.1,0.1-0.2,0.2v0.1c0.2,0,0.4,0.6,0.6,0.7c0.2,0.1,0.4,0.1,0.5,0.2
	c-0.1,0.1-0.1,0.1-0.2,0.2c-0.4,0-0.3-0.2-0.6,0c-0.1,0-0.3,0-0.4,0l-0.1,0.2c-0.1,0.1-0.3,0.1-0.4,0.2c-0.1,0.1-0.2,0.2-0.3,0.3
	c0-0.1,0-0.1,0.1-0.2c0.1,0,0.1-0.1,0.2-0.1v0c-0.1,0-0.3-0.1-0.3-0.1c0,0,0,0-0.1,0.1c0-0.3-0.6,0-0.7-0.3
	c-0.1,0.1-0.2,0.1-0.4,0.1c0-0.1,0-0.1-0.1-0.1c-0.2,0.2-0.2,0.1-0.5,0.2v0c0.1,0.2,0.3,0.3,0.4,0.5v0c0,0,0,0,0,0
	c0,0-0.1-0.1-0.1-0.1c0-0.1-0.1-0.1-0.2-0.1c0,0,0,0-0.1,0.1c0.1,0.1,0.1,0.1,0.2,0.2c0,0,0,0,0,0c0,0-0.1,0-0.1,0
	c-0.1-0.1-0.2-0.2-0.3-0.2v0c0.1,0.1,0.2,0.2,0.3,0.3h0c-0.1,0-0.1,0-0.2,0c0-0.3-0.3-0.2-0.4-0.4c0,0,0.1,0,0.1-0.1c0,0,0,0,0-0.1
	c0,0,0,0-0.1,0c0,0.1-0.1,0.1-0.2,0.1c0,0,0,0.1,0.1,0.1c-0.1,0.1-0.1,0.1-0.1,0.2c0.1,0.3,0.3,0.5,0.5,0.7c0,0,0,0.1-0.1,0.1
	c0,0,0,0-0.1,0h0c0-0.1,0-0.1,0-0.2c-0.1,0-0.1,0-0.2,0v0c0,0.1,0.1,0.1,0.1,0.2c-0.1,0.1-0.1,0.1-0.2,0.1v0c0.2,0,1,0.4,1,0.6
	c0,0,0,0-0.1,0c0,0.1,0.1,0.2,0.1,0.3c0,0-0.1,0-0.1,0.1c0,0,0,0,0,0c0-0.1-0.2-0.3-0.3-0.3c-0.1,0-0.2,0.1-0.3,0.1
	c0.1,0.1,0.1,0.1,0.1,0.3c0,0,0.1,0,0.1,0c0,0.1,0,0.1,0.1,0.1c-0.1,0-0.1,0-0.2,0.1c0,0-0.1,0-0.1,0c0,0,0-0.1,0-0.1h0
	c-0.1,0-0.2-0.1-0.2-0.1v0.1c0.1,0.2,0.2,0.4,0.2,0.7c-0.1-0.1-0.2-0.1-0.3-0.1c0,0,0,0.1-0.1,0.1c0,0,0,0,0,0
	c0-0.1-0.2-0.4-0.3-0.3c0,0-0.1,0.1-0.1,0.1c-0.1,0-0.1-0.1-0.1-0.1c0-0.1,0.1-0.2,0-0.3c-0.1-0.1-0.2-0.2-0.3-0.3
	c0.1-0.1,0.1-0.2,0.2-0.3c0.2,0,0.3-0.1,0.4-0.1c0.3,0,0.5,0.4,0.8,0.1v0c-0.2,0-0.3-0.2-0.5-0.2c-0.3-0.1-0.6,0-0.8,0.1
	c-0.1-0.1-0.2-0.3-0.3-0.4v0c0.1,0,0.2,0,0.3-0.1v0c0,0,0,0-0.1-0.1c-0.3,0-0.6-0.2-0.7-0.4c0-0.1,0-0.1,0-0.2
	c-0.1-0.1-0.4-0.2-0.5-0.4c0,0,0,0,0.1,0c0-0.1,0-0.2-0.1-0.2c0-0.1,0.1-0.2,0.1-0.2c0,0,0-0.5,0-0.6c0.1,0,0.1,0,0.1-0.2
	c-0.1-0.1-0.2-0.1-0.3-0.2c-0.1-0.1-0.1-0.2-0.2-0.3c-0.3-0.2-0.6-0.4-1-0.6c-0.1-0.1-0.2-0.2-0.3-0.3c0,0-0.4-0.2-0.4-0.2
	c-0.1,0-0.2,0.1-0.3,0c-0.2-0.2-0.4-0.4-0.6-0.6v0c0.1,0,0.2,0,0.3,0c-0.6-0.2-0.2-0.7-0.8-0.9c0,0.1-0.1,0.2-0.1,0.3
	c-0.1,0.1-0.1,0.1-0.2,0.1c-0.1-0.2-0.2-0.4-0.2-0.6c0.1,0,0.1,0,0.2-0.1c0,0-0.1-0.1-0.1-0.1c-0.2,0-0.2,0-0.4,0c0,0,0,0.1,0,0.1
	c-0.2,0-0.5,0.1-0.6,0.2c0,0.1,0,0.1-0.1,0.1c0,0,0.1,0,0.1,0c0,0.2,0.1,0.2,0.1,0.3c0,0.1-0.1,0.1-0.2,0.2c0.1,0.5,0.3,0.6,0.6,0.8
	c0.1,0.1,0.2,0.1,0.3,0.2c0.1,0.1,0.1,0.3,0.2,0.5c0.1,0.3,0.4,0.5,0.6,0.7c0.2,0.2,0.9,0,1,0.2c0,0,0,0.1,0,0.1
	c-0.1,0-0.1,0.1-0.2,0.2c0,0,0,0.1,0.1,0.1c0.7,0.2,1.3,0.6,1.8,1c0,0.1-0.1,0.2-0.1,0.3c-0.1-0.1-0.2-0.1-0.3-0.2
	c0-0.1,0-0.1-0.1-0.2c-0.1-0.1-0.5,0-0.5-0.3c-0.3,0-0.5,0.4-0.5,0.6c0.1,0.1,0.3,0.2,0.4,0.2c-0.1,0.1-0.1,0.2,0,0.3
	c0,0,0,0.1-0.1,0.1c-0.2,0-0.3,0.1-0.4,0.1c0,0.1,0,0.2,0,0.3c-0.2,0.1-0.3,0.2-0.3,0.4h-0.2c0,0-0.1,0-0.1-0.1v-0.2
	c0.2-0.1,0.2-0.2,0.1-0.3c0,0,0.1-0.1,0.1-0.1c0.1,0,0.1,0,0.2,0v0c0-0.1-0.3-1-0.4-1.1c-0.1,0-0.1,0.1-0.2,0
	c-0.1-0.1-0.2-0.1-0.3-0.2c0-0.1,0.1-0.1,0-0.2c-0.1,0-0.1-0.1-0.1-0.1c-0.1,0-0.2,0-0.3,0.1c0,0,0,0,0-0.1c0,0,0,0,0.1,0
	c0,0-0.1-0.1-0.1-0.1h0c-0.1,0-0.1,0-0.2,0.1c-0.1-0.5-0.4-0.3-0.8-0.5c-0.4-0.2-0.8-0.6-1.2-0.9c-0.5-0.3-0.5-1.2-1-1.4
	c-0.4-0.2-0.7-0.2-1,0c-0.1,0.1-0.1,0.1-0.2,0.2c-0.1,0-0.2,0.1-0.3,0.1c-0.4,0.3-0.5,0.6-1.1,0.7c-0.3,0.1-0.4-0.2-0.6-0.3
	c-0.1,0-0.2,0-0.3,0c-0.3,0-0.4-0.3-0.8,0c-0.6,0.4-0.1,0.7-0.2,1.2c-0.1,0.2-0.5,0.2-0.6,0.3c0,0-0.1,0.1-0.1,0.1
	c-0.3,0.2-0.7,0-0.9,0.4c0,0.1,0,0.1,0.1,0.1c0,0,0,0,0,0c-0.3,0.1-0.8,0.7-0.8,1c0.1,0.1,0.1,0.2,0.2,0.4c0.1,0,0.1,0.1,0.2,0.1v0
	c-0.3,0.1-0.6,0.4-0.7,0.8c0,0.1,0,0.1,0,0.1c-0.3,0.1-0.6,0-0.7,0.3c-0.1,0.2-0.1,0.3-0.3,0.4c0,0-0.1-0.1-0.1-0.1
	c-0.1,0-0.2,0.1-0.3,0.1c-0.4,0-0.8,0-1.2,0c-0.1,0.1-0.1,0.1-0.2,0.2c-0.3,0.1-0.4,0-0.4,0.3h0c0,0,0,0,0-0.1h0c0,0.1,0,0.1,0,0.1
	c-0.3,0.1-0.5-0.2-0.5-0.4c0,0-0.1,0-0.1,0c0-0.3-0.3-0.5-0.7-0.5l-0.3,0.2c-0.1,0-0.2-0.1-0.2-0.1c-0.2-0.1-0.4,0-0.5,0.1v0
	c0-0.1,0.1-0.3,0.1-0.4c0-0.1,0-0.3-0.1-0.4c0,0,0,0,0,0c0-0.1,0.1-0.3,0.1-0.4c0,0,0,0,0,0c-0.1,0-0.2,0.1-0.3,0c0,0,0-0.1,0-0.1v0
	c0.1,0,0.2,0,0.3-0.1c0,0,0-0.1-0.1-0.1c0,0,0,0,0,0c0,0.1-0.1,0.1-0.2,0.2c-0.1,0-0.1,0-0.1-0.1c0.1-0.1,0.1-0.3,0.1-0.5
	c0.4-0.2,0.6-1.5,0.3-1.9c0-0.1,0.2-0.5,0.2-0.6c-0.1-0.2-0.2-0.3-0.4-0.4c0,0,0-0.1,0-0.2c0.1-0.2,0.2-0.2,0.5-0.2h0.2
	c0-0.1,0.1-0.2,0.1-0.2c0.3-0.1,0.5,0.1,0.9,0.1c0.3,0,0.5-0.1,0.6-0.2c0,0,0.7,0.2,0.8,0.2c0.4,0.1,1,0.1,1.2-0.1
	c0.3,0.1,0.5,0.3,0.9,0.2c0.1-0.3,0.2-0.6,0.3-1c0,0,0.1,0,0.1-0.1c0,0,0-0.1-0.1-0.1c0,0,0,0-0.1,0.1c0-0.3,0-0.5,0.1-0.7h0
	c0.1,0.1,0.2,0.2,0.2,0.3c0-0.2-0.2-0.3-0.3-0.5c0-0.1,0.1-0.2,0.1-0.3c-0.2-0.4-0.1-0.2-0.4-0.4c-0.1-0.1-0.2-0.2-0.3-0.3
	c0-0.1,0-0.1,0.1-0.2c-0.1-0.1-0.3-0.1-0.4-0.2c0-0.1,0-0.1,0.1-0.1c0,0,0,0-0.1,0c-0.1,0-0.1,0-0.2,0.1c-0.3-0.2-0.7-0.3-1-0.3
	c0,0,0-0.1,0-0.1c-0.1-0.1-0.2-0.1-0.2-0.1c0.1,0,0.2,0,0.3,0v0c0,0,0,0,0-0.1c-0.1,0-0.2,0-0.1-0.1c0.1,0,0.1,0,0.1-0.1
	c-0.1,0-0.2,0-0.3,0.1c0-0.1,0-0.1,0-0.2c0.2,0,0.3-0.1,0.5-0.1c0,0,0,0,0,0c0,0,0.2,0,0.3,0c0,0,0-0.1,0-0.1c0.1,0,0.2,0,0.3,0
	c0.1,0.1,0.1,0.2,0.2,0.3c0.2,0,0.5-0.1,0.6-0.1v0.1c0.1,0,0.2,0,0.3-0.1c-0.1-0.1-0.1-0.3-0.1-0.5c-0.1-0.1-0.2-0.3-0.3-0.4
	c0.2,0,0.3,0,0.5,0c0,0.1,0,0.2,0.1,0.3c0.3-0.2,0.7,0.2,1-0.1c-0.1,0-0.1,0-0.1,0c0,0,0-0.1,0-0.1c0.2-0.2,0.6-0.2,0.8-0.4
	c0.2-0.2,0.1-0.5,0.2-0.8c0.1,0,0.2-0.1,0.3-0.2c0.1,0,0.2,0,0.3,0c0.1-0.1,0.3-0.2,0.4-0.3c0.2-0.1,0.4,0.1,0.5-0.1
	c0-0.1-0.1-0.1-0.2-0.2c0.2-0.2,0.3-0.3,0.5-0.4c0.1-0.2,0.2-0.5,0.3-0.7c0.1,0,0.2,0,0.2-0.1c0.1,0.1,0.1,0.1,0.2,0.2
	c0,0,0,0.1,0,0.1c-0.1,0,0,0-0.1,0c0,0.1,0,0.2,0,0.3c0.2,0,0.3,0.1,0.4,0c0.1-0.1,0.2-0.1,0.2-0.3c-0.1,0-0.1,0-0.2-0.1
	c0-0.1,0-0.1,0.1-0.2c-0.1,0-0.1,0-0.2,0c0-0.2,0-0.2,0-0.3c0.2-0.1,0.7-0.3,1-0.2c0,0.1,0.1,0.1,0.2,0.2h0.1c0,0,0,0,0,0
	c-0.1-0.1-0.1-0.1-0.1-0.2c0,0,0-0.1,0-0.1c0.2-0.1,0.4-0.1,0.7-0.1c0,0.1,0.1,0.2,0.1,0.3c0,0,0,0,0,0c0,0,0,0,0.1,0c0,0,0,0,0-0.1
	c0,0,0-0.1-0.1-0.1c0.1,0,0.1,0.1,0.2,0.1c-0.1-0.1,0-0.2,0-0.3c0.1,0,0.3,0.1,0.4,0c-0.1,0-0.1-0.1-0.2-0.1c0,0,0-0.1,0-0.1
	c0,0,0.1,0,0.1-0.1c0,0-0.1-0.1-0.1-0.1c0,0,0,0,0.1-0.1c-0.1,0-0.2,0-0.2-0.1c0.1,0,0.2-0.1,0.3-0.1c0-0.1-0.2-0.2-0.2-0.3
	c0-0.1,0-0.4,0-0.6c-0.1,0-0.1-0.1-0.2-0.1c0,0,0,0.1-0.1,0.1c0,0-0.1,0-0.1-0.1c0-0.1,0.1-0.2,0.2-0.3c0-0.2-0.2-0.4,0-0.7
	c0.1,0,0.2,0.1,0.3,0.1c0.1-0.1,0.1-0.2,0.2-0.3c0,0.1,0.1,0.1,0.1,0.2c0.1,0,0.1,0,0.1,0c0-0.1,0-0.2,0-0.4c0.2,0,0.4,0,0.6,0
	c0,0.1,0,0.3,0.1,0.4c0.1,0,0.2,0,0.4,0c0.1,0.1-0.1,0.3-0.1,0.4l-0.1,0c0,0-0.1-0.1-0.1-0.1c-0.1,0-0.1,0.1-0.1,0.1
	c0.1,0.2-0.1,0.3-0.1,0.4c-0.1,0-0.1,0-0.2,0l0.1,0.1c-0.1,0.1-0.2,0.3-0.2,0.5c0.2,0.1,0.5,0.3,0.3,0.5c0.1,0,0.1,0,0.1,0.1
	c0.1-0.1,0.2,0,0.3,0.1c0.1,0,0.2,0,0.3,0l0,0.1c-0.1,0.1-0.1,0.1-0.2,0.2c0,0,0,0,0,0c0.1,0,0.1,0,0.2,0h0c0,0,0,0.1,0,0.1h0.2
	c0.1-0.2,0.9-0.5,1.1-0.5c0.1,0.3,0.3,0.2,0.5,0.3c0,0.1,0,0.2,0,0.3c0.2,0.1,0.3,0.1,0.5,0.2c0-0.1,0-0.2,0-0.3
	c0.8-0.1,1.3-0.5,2-0.7c0.2-0.1,0.7-0.2,0.7,0c0.1,0.1,0.1,0.2,0.1,0.3c0.4,0.2,0.6-0.1,0.9-0.2c0-0.1,0-0.3,0.1-0.4
	c0.3,0,0.7,0.1,0.9,0c0-0.1,0-0.1,0-0.2c0,0,0.1,0,0.1,0c0-0.1-0.1,0,0-0.1c-0.1-0.2-0.3-1-0.1-1.4c0.1-0.1,0.1-0.1,0.2-0.2
	c0-0.1,0-0.2,0-0.3c0.1-0.1,0.1-0.2,0.2-0.3c0.3,0,0.4-0.1,0.6-0.1v0.1c0.1,0.1,0.2,0.2,0.3,0.2c0,0.1,0.1,0.2,0.1,0.3
	c0.2,0.2,0.7,0.1,0.8-0.2c-0.1-0.4,0-0.7,0.1-1.1c0,0-0.1,0-0.1-0.1c-0.1,0.1-0.1,0.1-0.2,0.2c-0.1,0-0.1-0.1-0.3-0.1
	c0-0.1,0-0.3,0-0.4c-0.1,0-0.1,0.1-0.1,0.1c0-0.1,0-0.2-0.1-0.4c0.1,0,0.1-0.1,0.1-0.2c0.3,0,0.5-0.1,0.7-0.2c0.1,0,0.1,0,0.2,0
	c0,0,0-0.1,0-0.1c0.1,0,0.2,0.1,0.4,0.1c0,0,0.1-0.1,0.1-0.1c0.1,0.1,0.3,0,0.5,0c0.4,0.1,0.7,0.1,1.1,0.2c0.1,0,0.2-0.2,0.2-0.1
	c0,0,0,0,0.1,0.1c0-0.1-0.1-0.2-0.1-0.3c0,0,0-0.1,0-0.1c0,0,0.1,0,0.1,0c0.1,0.1,0.1,0.1,0.2,0.1c0-0.1,0,0,0-0.1
	c0.1,0,0.1,0,0.2,0.1c0.1-0.1,0.1-0.2,0.3-0.3c0.2,0.1,0.3,0.2,0.5,0.2c0,0,0.1,0,0.1-0.1c-0.3-0.6-0.8,0-1.2-0.5
	c0-0.1,0.1-0.3,0-0.3c0,0,0,0.1-0.1,0.1c-0.2,0-0.6,0.1-0.7,0.2c0,0-0.1-0.1-0.1-0.1c-0.1,0-0.1,0.1-0.2,0.1c-0.1,0-0.2-0.1-0.3-0.1
	v-0.1c0,0.1,0,0.2-0.1,0.2c-0.1,0.1-0.3,0-0.4,0.2h0c-0.1-0.1-0.1-0.1-0.2-0.1c-0.1,0.1-0.3,0.2-0.4,0.2c0,0,0,0,0-0.1
	c-0.2,0.1-0.3,0.1-0.4,0.2c-0.1-0.1-0.2,0-0.3,0v-0.1c-0.1,0.1-0.4,0.2-0.5,0.1c-0.1,0-0.2-0.1-0.2-0.2c0-0.1,0.1-0.1,0.1-0.2
	c-0.2,0-0.3,0-0.4,0.1c0-0.1,0-0.1,0-0.2c-0.2,0.1-0.2,0-0.3-0.1c-0.3-0.2-0.4-0.5-0.3-0.9c0-0.1,0-0.2,0.1-0.3
	c-0.1-0.1-0.2-0.3-0.2-0.4c0-0.2,0.1-0.3,0.1-0.5c-0.1,0-0.2-0.1-0.2-0.1c0.1-0.3,0.2-0.3,0.4-0.5c0-0.1,0-0.1,0-0.2
	c0.1,0,0.2,0,0.4,0c0.3-0.2,0.2-0.4,0.4-0.7v0l0.1,0.1h0.1c0.2-0.2,1.2-1.3,1.4-1.4c0.1,0,0.2,0,0.3,0c0-0.1,0-0.1,0-0.2
	c0,0-0.1-0.1-0.1-0.1c0-0.1,0.1-0.3,0-0.4c0,0-0.1-0.1-0.1-0.1c-0.3,0-0.4-0.1-0.6-0.3c-0.2,0-0.7,0.1-0.7,0.1
	c-0.1-0.1-0.2-0.2-0.4-0.2c-0.3,0.1-0.3,0.4-0.5,0.6c-0.2,0.1-0.2,0-0.4,0.2c0.1,0.1,0.2,0.2,0.1,0.2c-0.1,0.1-0.2,0.3-0.4,0.3
	c0,0,0,0,0,0c0.1,0.1,0.2,0.2,0.3,0.3c0,0,0,0,0,0c-0.3,0.1-0.3,0.4-0.4,0.6c-0.2,0.2-0.5,0.3-0.7,0.5c-0.1,0-0.1-0.1-0.2-0.1
	c-0.2,0.1-0.2,0.2-0.3,0.3c-0.3,0.2-0.3,0.2-0.5,0.4h-0.3c0,0.1,0.1,0.2,0,0.3c-0.1,0.1-0.1,0.1-0.1,0.2c-0.1,0-0.2-0.1-0.3-0.1
	c0,0.4,0.2,0.4,0,0.8c0,0-0.1,0-0.2,0c-0.1,0.2,0.2,0.9,0.1,0.9c0,0,0,0,0,0c0.2,0,0.2,0.1,0.3,0.1c0.1,0,0.1,0,0.2,0
	c0.1,0.2,0.3,0.4,0.6,0.5c0.1,0.2,0.2,0.2,0.2,0.4h-0.1c-0.1,0.1-0.5,0.5-0.7,0.4c-0.1-0.1-0.8-0.3-0.9-0.2c0,0,0,0.1-0.1,0.1h0
	c0.3-0.1,0.4,0.2,0.7,0.2c0.3,0,0.4-0.2,0.7-0.1v-0.1h0.1c0,0,0,0,0,0c0,0,0,0,0,0.1c-0.1,0-0.1,0-0.2,0c0,0.1,0,0.1,0,0.2
	c-0.1,0-0.2,0.1-0.3,0.3c-0.1,0-0.1,0-0.1,0c0,0,0,0,0,0v-0.2c-0.2,0.1,0,0.5-0.4,0.4c0,0,0,0.1,0,0.1c-0.1,0-0.3,0-0.4,0
	c0,0.1,0.4,0.6,0.2,0.7h-0.1v0.2c0,0,0.1,0,0.1,0.1c0,0.1,0,0.2,0,0.2c0,0.1-0.1,0.2-0.1,0.3c0,0.1,0,0.2,0,0.3
	c-0.1,0.3-0.3,0.5-0.4,0.8c0,0,0,0,0,0c-0.1,0-0.1-0.1-0.2-0.1c-0.2,0-0.3,0.1-0.6,0.1c0,0,0,0.1,0,0.1c-0.1,0-0.1,0-0.1,0
	c-0.1,0.1-0.2,0.2-0.2,0.3c0.1,0.1,0.1,0.1,0,0.2c0,0-0.1,0.1-0.1,0.1c-0.3-0.1-0.5,0.1-0.9,0c0-0.1,0.1-0.2,0.1-0.3
	c-0.2-0.1-0.3-0.3-0.4-0.5c0.1,0,0.1-0.1,0.2-0.1c0,0,0-0.1,0-0.1c0.1,0,0.1,0,0.1,0c0,0,0-0.1,0-0.1c-0.2-0.2-0.5-0.4-0.6-0.8
	c0,0-0.1,0-0.1,0c0-0.3-0.1-0.3-0.2-0.5c0-0.1,0.1-0.3,0.1-0.4c-0.1,0-0.1,0-0.2,0c0,0,0-0.1,0-0.1c-0.1,0-0.1,0-0.1,0
	c0-0.2,0-0.5-0.1-0.6c0-0.1,0.1-0.1,0.1-0.3c0,0,0,0,0,0c-0.3,0.1-0.3-0.1-0.4-0.2c0.1-0.1,0.1-0.1,0-0.2c0,0-0.1,0.1-0.1,0.1
	c0,0.2,0,0.4-0.2,0.5c-0.1,0.1-0.2,0-0.3,0c-0.1,0.1-0.1,0.1-0.2,0.2c-0.3,0.2-0.6,0.4-0.8,0.7c-0.2,0.1-0.6,0.1-0.8,0.1
	c0-0.1-0.1-0.1-0.1-0.1c0,0-0.1,0.1-0.1,0.1c0,0-0.1,0-0.1-0.1c0,0,0.1-0.1,0.1-0.1c-0.3-0.1-0.4-0.2-0.7-0.3
	c-0.1-0.1-0.1-0.2-0.1-0.3c0.1-0.1,0.1-0.1,0.1-0.3c0,0,0.1,0,0.1,0c0,0,0,0.1,0,0.1c0,0,0,0,0,0c0.1-0.1,0.1,0,0.2,0
	c0,0,0,0-0.1-0.1c0-0.1,0.1-0.1,0.1-0.1v0c-0.2,0-0.1,0-0.2,0c0-0.1,0,0,0-0.1c0.1-0.1,0.2-0.1,0.3-0.2v0c-0.1,0-0.1,0-0.2,0
	c0.1-0.1,0.1-0.1,0.1-0.2c-0.1,0.1-0.1,0.1-0.2,0.2h0c0-0.1,0-0.1-0.1-0.2c0,0.1,0,0.1,0,0.2c-0.1,0-0.1,0.1-0.2,0.1c0,0,0,0,0-0.1
	c0,0,0,0.1,0,0.1c0,0,0,0-0.1,0c0-0.1,0-0.1-0.1-0.2c0.1-0.1,0.1-0.1,0.2-0.2c0,0,0,0,0,0c0,0,0,0.1,0,0.1h0v-0.1
	c0.1,0,0.1,0.1,0.2,0c0,0,0,0,0-0.1c0.1,0,0.2-0.1,0.3-0.1c-0.1,0-0.2,0.1-0.3,0.1c0,0-0.1-0.1-0.1-0.1c0,0,0,0,0.1-0.1
	c0.1,0,0.1-0.1,0.2-0.3c-0.3,0-0.4,0.1-0.5-0.1c0.1-0.1,0.2-0.2,0.3-0.3c0,0,0-0.1-0.1-0.1c-0.1,0.1-0.2,0-0.3,0c0,0,0-0.1,0-0.1
	c0.1-0.2,0.1-0.2,0.3-0.3c0,0,0,0,0,0c-0.1-0.1-0.1-0.1-0.2-0.3c0.1-0.1,0-0.3,0.1-0.5c0.1,0,0.3,0,0.4,0v-0.1
	c-0.1,0-0.2-0.1-0.2-0.2c0,0,0-0.1,0-0.1c0.2-0.1,0.3-0.3,0.6-0.2c0.2-0.1,0.1-0.1,0.2-0.3c0.3,0,0.5,0.2,0.6,0
	c-0.2,0-0.3-0.1-0.4-0.3c0,0,0-0.1,0.1-0.1c0.3,0,0.6,0,0.8,0.1c0-0.2,0.3-0.7,0.5-0.6c0.1,0,0.1,0.1,0.1,0.1c0,0,0,0,0,0
	c0.1-0.2,0.3-0.2,0.4-0.4c0-0.1,0-0.2,0.1-0.2c0.1-0.2,0.5-0.6,0.7-0.7c0.2,0,0.2,0.1,0.4,0v0c0,0,0-0.1,0-0.1
	c0.2-0.2,0.3-0.4,0.5-0.5c0.1,0,0.2,0,0.3,0c0-0.1,0-0.2,0-0.3c0,0-0.1,0-0.1,0c0.1-0.3,0.1-0.6,0.5-0.5c0-0.1,0-0.2,0.1-0.3
	c0.1,0,0.2,0,0.3,0v0c-0.1-0.1-0.2-0.2-0.3-0.3c0-0.1,0.1-0.2,0.1-0.2c0.2,0,0.3,0,0.4,0v0c-0.1-0.1-0.1-0.2-0.1-0.3c0,0,0,0,0,0
	c0.2-0.1,0.6-0.1,0.6-0.3c-0.1,0-0.1-0.1-0.1-0.1c0.1,0,0.2-0.1,0.3-0.2c0.1,0,0.2,0.1,0.3,0.1c0.1-0.1,0.1-0.1,0.2-0.2v-0.1
	c-0.1-0.1-0.1-0.1-0.1-0.2c0.2-0.1,0.2-0.2,0.3-0.2h0c0.1,0.1,0.1,0.1,0.2,0.2c0,0,0,0,0,0c0-0.1,0.1-0.1,0.1-0.2
	c0-0.1-0.1-0.2-0.1-0.3c0.2,0,0.3,0,0.4-0.1v0c-0.1-0.1-0.1-0.1-0.2-0.1c0-0.1,0.1-0.1,0.1-0.2c0.3-0.1,0.2-0.2,0.4-0.4
	c0.3-0.2,0.4,0.1,0.5-0.5c0.1,0,0.1,0.1,0.2,0.1c0.3-0.1,0.4,0,0.7,0.1c0.1-0.2,0.3-0.6,0.5-0.7c0,0,0,0,0.1,0c0,0,0,0.1,0,0.1
	c-0.1,0.1-0.1,0.3-0.1,0.4c0.2-0.1,0.3-0.3,0.4-0.5c0.3,0,0.4-0.1,0.5-0.3c0,0,0,0,0,0c0.1,0.1,0.2,0.2,0.3,0.3
	c0.2-0.8,0.5-0.4,0.9-0.2c0.1-0.2,0.2-0.5,0.4-0.6c0.1-0.1,0.2,0,0.3,0c0.3-0.3,0.4-0.5,1.1-0.5c-0.2,0.3-0.5,0.4-0.5,0.9
	c0,0,0.1,0,0.1,0c0.2-0.4,0.6-0.8,0.9-1c0,0.2,0,0.4,0,0.7c0.3-0.1,0.5-0.4,0.6-0.7c0.2,0,0.5-0.1,0.6,0c-0.2,0.2-0.2,0.4-0.3,0.7
	c0.1,0,0.2,0,0.3,0.1c0-0.3,0.2-0.5,0.4-0.6c0.3,0.1,0.4,0.3,0.7,0.4c0.1,0,0.3,0,0.4,0c0.1,0,0.1,0.1,0.2,0.1c0,0.1,0,0.1,0,0.2
	c-0.3,0.3-0.8,0.2-1.4,0.2c0.2,0.2,0.5,0.3,0.7,0.5c0.3,0,0.6-0.1,0.9,0.1c0.1-0.1,0.2-0.1,0.3-0.1c0.1-0.1,0.3-0.2,0.4-0.3
	c0,0.5,0.4,0.6,0.8,0.7c0,0.1,0,0.2,0,0.3c0.1-0.1,0.1-0.1,0.2-0.2c0.4,0,0.8,0.1,1.3,0.1c0.3,0.1,0.5,0.2,0.8,0.3
	c0.2,0.1,0.3,0.1,0.5,0.1c0.3,0.2,0.6,0.5,0.8,0.7c0.3,0.1,0.6,0.2,0.9,0.3c0.3,0.1,0.6,0.3,0.8,0.5c0,0.3,0,0.4,0.2,0.6
	c0,0.4-0.3,0.6-0.6,0.8c-1.2,0.9-3.1,0.1-4.3-0.3c-0.2,0-0.3,0-0.5-0.1c-0.2-0.1-0.3-0.6-0.8-0.3c0.3,0.3,0.5,0.6,0.9,0.8
	c0.2,0.1,0.6,0.2,0.7,0.3c0.2,0.2,0.1,0.6-0.2,0.7c0,0.2,0.4,1.2,0.5,1.2c0.2,0.1,0.5,0.1,0.7,0.1c0,0.1,0.1,0.2,0.1,0.3
	c0.1,0.1,0.3,0,0.5,0.1c0.4,0.1,1,0.1,0.6-0.5c-0.1,0-0.3,0-0.5,0c-0.2-0.1-0.4-0.4-0.5-0.5c0.1-0.1,0.1-0.3,0.4-0.3
	c0.4,0.2,0.9,0.5,1.4,0.6c0.2,0.1,0.4,0,0.6,0c0.1,0,0.2,0.1,0.2,0.1c0.3-0.4-0.3-0.7-0.3-1.1c0.4-0.5,1.3-0.4,1.6-1
	c0.5-0.1,0.9,0.4,1.3,0.4v0c0-0.1,0-0.2,0-0.3c0.1-0.5,0.3-0.4,0.1-1c-0.2,0-0.3-0.1-0.4-0.2c0,0,0,0,0,0c0.1-0.2,0.2-0.4,0.4-0.6
	c0.1-0.4-0.3-0.5-0.3-0.8c0.2-0.1,0.3,0,0.5,0.1c0.2,0,0.5-0.1,0.7-0.1c0.3,0.1,0.6,0.6,0.7,0.9c-0.5,0-1.1,0-1.2,0.5
	c0.5,0.4,0.7,0.7,1.5,0.6c0.1,0,0.3-0.1,0.4-0.1c0.2-0.2,0.1-0.7,0.3-0.8c0.1,0,0.2-0.1,0.4-0.1c0.5-0.2,1-0.4,1.6-0.6
	c0.3-0.1,0.6-0.3,0.9-0.4c0,0.1,0.1,0.2,0.1,0.2c0,0,0,0,0,0c0.6-0.1,0.1-0.6,1-0.6c0,0.2,0,0.3-0.1,0.6c-0.1,0-0.2,0-0.3,0
	c0,0.1-0.1,0.1-0.1,0.2c0.4,0.1,0.4,0,0.9,0c0,0.1,0,0.1,0.1,0.1c0.2-0.1,0.2-0.4,0.4-0.5c0.2-0.1,0.6-0.1,0.9-0.1
	c0.1,0,0.3,0.2,0.6,0.1c0.1-0.1,0.2-0.2,0.3-0.2c0.4-0.3,0.6-0.3,1.1-0.1c-0.1,0.1-0.1,0.2-0.2,0.3c0.1,0.2,0.3,0.3,0.5,0.2
	c0-0.1,0.1-0.3,0.1-0.3c0.4-0.1,0.7,0,0.7-0.5c-0.1-0.2-0.3-0.4-0.4-0.5c0,0,0,0,0,0c0.2-0.1,0.2-0.3,0.4-0.3
	c0.4-0.1,1.2,0.1,1.5,0.2c1.3,0.4,2.6,0.8,3.5,1.7c0.1,0,0.1,0,0.2,0c0.2-0.1,0.4-0.5,0.4-0.7c-0.4,0.1-0.6-0.1-0.7-0.3
	c0-0.1,0-0.3,0-0.4c-0.2-0.2-0.7-0.1-0.9-0.4c0.1-0.5,0.7-0.3,0.3-1.2c-0.1,0-0.3,0-0.4,0c-0.1-0.7,0.8-0.7,1.1-1.1
	c0.1-0.2,0.2-0.4,0.3-0.6c0-0.1,0-0.1,0-0.2c-1.8-1.4-3.7-2.7-5.6-3.9c-0.1,0.1-0.2,0.1-0.2,0.3c0.1,0,0.1,0.1,0.2,0.1
	c0,0.1-0.1,0.1-0.1,0.2c-0.1,0.1-0.2,0.1-0.3,0.2c-0.2,0.1-0.6,0-0.8,0c0,0-0.1,0.1-0.1,0.1c0,0.1-0.1,0.1,0,0.2
	c0,0,0.1,0.1,0.1,0.1v0c-0.1,0.1-0.3,0.3-0.5,0.4c-0.1-0.1-0.2-0.1-0.4-0.1c-0.1,0.1-0.1,0.1-0.2,0.2c0,0,0,0,0,0
	c0.1,0.1,0.2,0.1,0.2,0.1c0,0.1,0,0.1,0,0.2c-0.2,0.2-0.3,0.4-0.6,0.6c-0.3-0.1-0.5-0.2-0.8-0.3c-0.7-0.1-0.7,0.4-1.2-0.2v0
	c0.5-0.2,0.4-0.5,1.3-0.5c0-0.1,0-0.1,0-0.2c-0.1-0.1-0.1-0.1-0.2-0.2c0,0,0,0,0,0c0.1-0.3,0.5-0.2,0.7-0.4
	c-0.1-0.1-0.1-0.2-0.2-0.2c0,0,0.1-0.1,0.1-0.1c0.1-0.2,0.3-0.5,0.5-0.5c0.1,0,0.2,0,0.4,0c0.2-0.2,0.5-0.5,0.8-0.6
	c-9.1-5.4-19.7-8.5-31-8.5C123.3,71.6,114.4,73.9,106.4,77.7 M89.3,89.8c0,0-0.1,0.1-0.1,0.1c0.1,0,0.2,0,0.2,0
	C89.4,89.9,89.4,89.8,89.3,89.8 M92.1,88.8c0,0-0.1,0-0.1,0c-0.1,0-0.2,0-0.3-0.1v0c0,0,0,0,0,0c0.1,0,0.2,0,0.3,0v0
	c0-0.1-0.3-0.1-0.3-0.2c0.1,0,0.3,0,0.3-0.1c-0.1-0.2-0.7-0.1-0.7-0.3h0v0c0.1,0,0.5,0.2,0.5,0c0-0.1-0.2-0.1-0.3-0.1
	c0,0-0.1,0-0.1,0c0,0,0-0.1,0-0.1c-0.2,0.2-0.5,0.4-0.7,0.6c0.2,0.1,0.4,0.1,0.5,0.2c0.1,0.1,0.2,0.1,0.3,0.2c0.1,0,0.5,0.1,0.5,0.1
	C92.1,88.9,92.2,88.8,92.1,88.8C92.2,88.8,92.1,88.8,92.1,88.8 M75.2,112.5C75.2,112.6,75.2,112.6,75.2,112.5L75.2,112.5
	C75.2,112.5,75.2,112.5,75.2,112.5 M76.2,123.2C76.2,123.2,76.2,123.2,76.2,123.2c0,0,0.1,0,0.1,0C76.3,123.2,76.2,123.2,76.2,123.2
	 M73.7,147.6c0.2-0.4,0-0.8,0.4-1c0.1,0,0.2-0.1,0.2-0.1c0.1,0,0.1,0.1,0.2,0.2c0,0,0.1-0.1,0.1-0.1c0-0.2,0-0.3,0.1-0.3
	c0.2,0.1,0.7,0,0.8-0.1c-0.1-0.1-0.3-0.4-0.2-0.6c0.1-0.1,0.1-0.1,0.3-0.1c0,0,0,0,0,0c-0.1,0-0.1-0.1-0.1-0.2
	c-0.1,0.1-0.2,0.1-0.3,0.1c-0.1-0.4-0.4-0.5-0.9-0.3c0,0.1,0,0.1,0,0.2c-0.2,0.1-0.4,0.1-0.5,0.3c0.1,0.2,0.3,0.2,0.3,0.5
	c-0.2,0-0.3,0.2-0.6,0.1c0,0,0,0-0.1,0c0-0.1-0.1-0.3-0.1-0.4h0c0,0.1,0,0.1,0,0.2c-0.2,0-0.3-0.1-0.3-0.3c0,0-0.1,0-0.1,0
	c0.2,0.7,0.4,1.4,0.6,2.1C73.6,147.7,73.6,147.7,73.7,147.6 M193.3,141.5c0.2-1.3,0.3-2.6,0.4-3.9h0c-0.1-0.1-0.2-0.2-0.3-0.3
	c-0.2-0.1-0.3,0.1-0.4,0c-0.1,0-0.2-0.1-0.3-0.1c0-0.2,0-0.4,0-0.5c-0.3,0-0.5,0-0.7,0.1c0.1,0.2,0,0.3-0.1,0.5c0,0.1,0,0.3,0,0.4
	c-0.2,0.5-0.8,1.4-0.5,1.9c0.1,0,0.3,0,0.4,0c0,0.2,0,0.4,0.1,0.5c0,0,0.1,0,0.1,0c0.1,0.7,0,1.2,0.9,1.2
	C193.2,141.4,193.3,141.5,193.3,141.5 M176.8,90.4c-0.1,0-0.1,0-0.2,0v0c0,0,0-0.1,0-0.1c-0.1-0.1-0.2-0.2-0.3-0.3
	c0,0.3-0.1,0.6,0,0.7c0.1,0.2,0.5,0.3,0.8,0.2C177.1,90.6,177,90.5,176.8,90.4 M174.9,88.8c-0.2,0-0.5-0.1-0.7-0.1
	c0-0.3-0.2-0.5-0.2-0.8c0-0.1,0.1-0.1,0.1-0.2c-0.2-0.2-0.5-0.4-0.7-0.6v0c-0.1,0.1-0.1,0.2-0.2,0.3c0,0.2,0,0.3,0.1,0.5
	c0,0.3,0,0.6,0,0.9c0.1,0.6,0.4,0.4,0.6,0.7c0,0.2-0.1,0.2-0.2,0.3c0,0.1-0.1,0.3-0.1,0.4c-0.1,0.2-0.4,0.5-0.6,0.7
	c-0.1,0.1-0.4,0.2-0.5,0.3l0.1,0.3c-0.2,0.1-0.3,0.1-0.5,0.2c-0.1,0-0.2-0.1-0.3-0.1c-0.3-0.1-0.6-0.1-0.9,0
	c0.2,0.4,0.7,0.5,1.2,0.5c0.1,0,0.3,0,0.4,0c0.2,0,0.4,0.1,0.6,0c0.2-0.4,0.6-0.5,1-0.7c0.1-0.1,0.1-0.3,0.2-0.5
	c0.1,0,0.2-0.1,0.2-0.1c0.1-0.1,0.2-0.2,0.3-0.4c0-0.3-0.1-0.5-0.3-0.7c0.1-0.5,0.7-0.6,1.2-0.5c-0.2-0.2-0.4-0.3-0.5-0.5
	C175.1,88.7,175,88.8,174.9,88.8 M132.8,208.1c-41.6,0-75.3-33.7-75.3-75.3c0-41.6,33.7-75.3,75.3-75.3c41.6,0,75.3,33.7,75.3,75.3
	C208.1,174.4,174.4,208.1,132.8,208.1"/>
</svg>
