<?xml version="1.0" encoding="utf-8"?>
<!-- Generator: Adobe Illustrator 18.1.0, SVG Export Plug-In . SVG Version: 6.00 Build 0)  -->
<!DOCTYPE svg PUBLIC "-//W3C//DTD SVG 1.1//EN" "http://www.w3.org/Graphics/SVG/1.1/DTD/svg11.dtd">
<svg version="1.1" id="Layer_1" xmlns="http://www.w3.org/2000/svg" xmlns:xlink="http://www.w3.org/1999/xlink" x="0px" y="0px"
	 viewBox="0 398.6 1024 247" enable-background="new 0 398.6 1024 247" xml:space="preserve">
<filter  id="AI_GaussianBlur_7">
	<feGaussianBlur  stdDeviation="7"></feGaussianBlur>
</filter>
<path filter="url(#AI_GaussianBlur_7)" d="M999.9,630.3H24.1V413.8h975.9V630.3z M41.1,613.3h941.8V430.8H41.1V613.3z"/>
<path fill="#FFFFFF" d="M999.8,630.3H24.1V413.8h975.9v216.6H999.8z M40.9,613.3h941.8V430.8H40.9V613.3z"/>
<g opacity="0.3" filter="url(#AI_GaussianBlur_7)">
	<path d="M106.5,526.7c0,4.9-1.8,8.7-5.3,11.6s-8.4,4.2-14.7,4.2c-5.8,0-10.9-1.1-15.3-3.3v-10.7c3.7,1.6,6.7,2.8,9.3,3.4
		c2.5,0.7,4.8,1,6.9,1c2.5,0,4.5-0.5,5.8-1.4c1.3-1,2-2.4,2-4.3c0-1.1-0.3-2-0.9-2.8c-0.6-0.8-1.5-1.6-2.6-2.4c-1.1-0.8-3.5-2-7-3.7
		c-3.3-1.6-5.8-3.1-7.4-4.5c-1.7-1.4-3-3.1-4-5c-1-1.9-1.5-4.1-1.5-6.7c0-4.8,1.6-8.6,4.9-11.3c3.2-2.7,7.7-4.1,13.5-4.1
		c2.8,0,5.5,0.3,8.1,1s5.2,1.6,8,2.8l-3.7,8.9c-2.9-1.2-5.3-2-7.2-2.5c-1.9-0.5-3.7-0.7-5.6-0.7c-2.2,0-3.8,0.5-5,1.5
		c-1.2,1-1.7,2.3-1.7,4c0,1,0.2,1.9,0.7,2.6c0.5,0.8,1.2,1.5,2.2,2.2c1,0.7,3.5,2,7.3,3.8c5.1,2.4,8.5,4.8,10.4,7.3
		C105.6,520.2,106.5,523.2,106.5,526.7z"/>
	<path d="M115,489.6c0-3.7,2-5.5,6.1-5.5c4.1,0,6.1,1.8,6.1,5.5c0,1.8-0.5,3.1-1.5,4.1c-1,1-2.6,1.5-4.6,1.5
		C117,495.2,115,493.3,115,489.6z M126.7,541.8h-11.3v-41.4h11.3V541.8z"/>
	<path d="M174.6,500.3v5.7l-6.5,1.7c1.2,1.9,1.8,3.9,1.8,6.2c0,4.4-1.6,7.9-4.6,10.4c-3.1,2.5-7.4,3.7-12.9,3.7l-2-0.1l-1.7-0.2
		c-1.2,0.9-1.7,1.9-1.7,3c0,1.6,2.1,2.4,6.2,2.4h7c4.5,0,8,1,10.4,2.9c2.4,2,3.6,4.8,3.6,8.6c0,4.8-2,8.6-6.1,11.3
		c-4,2.7-9.8,4-17.4,4c-5.8,0-10.2-1-13.2-3c-3.1-2-4.6-4.8-4.6-8.5c0-2.5,0.8-4.6,2.3-6.3c1.6-1.7,3.8-2.9,6.9-3.6
		c-1.2-0.5-2.2-1.3-3-2.4c-0.9-1.1-1.3-2.3-1.3-3.6c0-1.6,0.5-2.9,1.4-3.9c0.9-1,2.2-2.1,4-3.1c-2.2-0.9-3.9-2.4-5.2-4.5
		c-1.3-2.1-1.9-4.5-1.9-7.3c0-4.5,1.5-8,4.4-10.5c2.9-2.5,7.1-3.7,12.6-3.7c1.2,0,2.5,0.1,4.1,0.3c1.6,0.2,2.6,0.4,3.1,0.5H174.6z
		 M142.7,547.6c0,1.6,0.7,2.8,2.2,3.7c1.5,0.9,3.6,1.3,6.3,1.3c4.1,0,7.2-0.6,9.5-1.7s3.4-2.6,3.4-4.6c0-1.6-0.7-2.6-2-3.2
		s-3.5-0.9-6.3-0.9H150c-2.1,0-3.8,0.5-5.2,1.5C143.4,544.7,142.7,546,142.7,547.6z M146.8,513.9c0,2.2,0.5,4,1.5,5.3
		c1,1.3,2.6,2,4.7,2c2.1,0,3.7-0.7,4.7-2c1-1.3,1.5-3.1,1.5-5.3c0-5-2.1-7.5-6.1-7.5C148.9,506.4,146.8,508.9,146.8,513.9z"/>
	<path d="M219.7,541.8h-11.3v-24.2c0-3-0.5-5.2-1.6-6.7c-1.1-1.5-2.8-2.2-5.1-2.2c-3.2,0-5.4,1.1-6.9,3.2c-1.4,2.1-2.1,5.6-2.1,10.5
		v19.5h-11.3v-41.4h8.6l1.5,5.3h0.6c1.3-2,3-3.5,5.2-4.5s4.7-1.5,7.5-1.5c4.8,0,8.5,1.3,11,3.9c2.5,2.6,3.7,6.4,3.7,11.3V541.8z"/>
	<path d="M280.4,541.8l-1.5-5.3h-0.6c-1.2,1.9-2.9,3.4-5.1,4.5c-2.2,1-4.8,1.6-7.6,1.6c-4.9,0-8.5-1.3-11-3.9
		c-2.5-2.6-3.7-6.4-3.7-11.2v-27h11.3v24.2c0,3,0.5,5.2,1.6,6.7c1.1,1.5,2.8,2.2,5.1,2.2c3.2,0,5.4-1.1,6.9-3.2
		c1.4-2.1,2.1-5.6,2.1-10.5v-19.5H289v41.4H280.4z"/>
	<path d="M323.6,542.5c-4.9,0-8.7-1.8-11.4-5.3h-0.6c0.4,3.5,0.6,5.5,0.6,6V560h-11.3v-59.6h9.2l1.6,5.4h0.5
		c2.6-4.1,6.6-6.1,11.7-6.1c4.9,0,8.7,1.9,11.5,5.7c2.8,3.8,4.1,9,4.1,15.7c0,4.4-0.6,8.3-1.9,11.5c-1.3,3.3-3.1,5.7-5.5,7.4
		C329.7,541.7,326.9,542.5,323.6,542.5z M320.3,508.6c-2.8,0-4.8,0.9-6.1,2.6c-1.3,1.7-2,4.6-2,8.5v1.2c0,4.4,0.7,7.6,2,9.6
		c1.3,1.9,3.4,2.9,6.3,2.9c5.1,0,7.6-4.2,7.6-12.5c0-4.1-0.6-7.1-1.9-9.2C324.9,509.6,323,508.6,320.3,508.6z"/>
	<path d="M394.9,541.8l-2.2-5.6h-0.3c-1.9,2.4-3.9,4.1-5.9,5c-2,0.9-4.6,1.4-7.9,1.4c-4,0-7.1-1.1-9.4-3.4s-3.4-5.5-3.4-9.7
		c0-4.4,1.5-7.6,4.6-9.7c3.1-2.1,7.7-3.2,13.9-3.5l7.2-0.2v-1.8c0-4.2-2.1-6.3-6.4-6.3c-3.3,0-7.2,1-11.7,3l-3.7-7.6
		c4.8-2.5,10.1-3.7,15.9-3.7c5.6,0,9.8,1.2,12.8,3.6c3,2.4,4.4,6.1,4.4,11v27.6H394.9z M391.6,522.6l-4.4,0.1
		c-3.3,0.1-5.7,0.7-7.3,1.8c-1.6,1.1-2.4,2.7-2.4,5c0,3.2,1.8,4.8,5.5,4.8c2.6,0,4.7-0.8,6.3-2.3s2.4-3.5,2.4-6V522.6z"/>
	<path d="M443.4,529.5c0,4.2-1.5,7.5-4.4,9.7c-3,2.2-7.4,3.3-13.2,3.3c-3,0-5.6-0.2-7.7-0.6c-2.1-0.4-4.1-1-6-1.8v-9.3
		c2.1,1,4.5,1.8,7.1,2.5c2.6,0.7,4.9,1,6.9,1c4.1,0,6.1-1.2,6.1-3.6c0-0.9-0.3-1.6-0.8-2.2c-0.5-0.6-1.5-1.2-2.8-1.9
		c-1.3-0.7-3.1-1.5-5.3-2.5c-3.2-1.3-5.5-2.6-7-3.7c-1.5-1.1-2.6-2.4-3.3-3.9c-0.7-1.5-1-3.3-1-5.4c0-3.7,1.4-6.5,4.3-8.5
		c2.9-2,6.9-3,12.1-3c5,0,9.8,1.1,14.6,3.3l-3.4,8.2c-2.1-0.9-4-1.6-5.8-2.2c-1.8-0.6-3.6-0.9-5.5-0.9c-3.3,0-5,0.9-5,2.7
		c0,1,0.5,1.9,1.6,2.6c1.1,0.7,3.4,1.8,7.1,3.3c3.2,1.3,5.6,2.5,7.1,3.7c1.5,1.1,2.6,2.4,3.3,3.9C443,525.7,443.4,527.4,443.4,529.5
		z"/>
	<path d="M498.2,541.8l-2.2-5.6h-0.3c-1.9,2.4-3.9,4.1-5.9,5c-2,0.9-4.6,1.4-7.9,1.4c-4,0-7.1-1.1-9.4-3.4s-3.4-5.5-3.4-9.7
		c0-4.4,1.5-7.6,4.6-9.7c3.1-2.1,7.7-3.2,13.9-3.5l7.2-0.2v-1.8c0-4.2-2.2-6.3-6.4-6.3c-3.3,0-7.2,1-11.7,3l-3.7-7.6
		c4.8-2.5,10.1-3.7,15.9-3.7c5.6,0,9.8,1.2,12.8,3.6c3,2.4,4.4,6.1,4.4,11v27.6H498.2z M494.8,522.6l-4.4,0.1
		c-3.3,0.1-5.7,0.7-7.3,1.8c-1.6,1.1-2.4,2.7-2.4,5c0,3.2,1.8,4.8,5.5,4.8c2.6,0,4.7-0.8,6.3-2.3s2.4-3.5,2.4-6V522.6z"/>
	<path d="M555.9,541.8h-11.3v-24.2c0-3-0.5-5.2-1.6-6.7c-1.1-1.5-2.8-2.2-5.1-2.2c-3.2,0-5.4,1.1-6.9,3.2c-1.4,2.1-2.1,5.6-2.1,10.5
		v19.5h-11.3v-41.4h8.6l1.5,5.3h0.6c1.3-2,3-3.5,5.2-4.5c2.2-1,4.7-1.5,7.5-1.5c4.8,0,8.5,1.3,11,3.9c2.5,2.6,3.7,6.4,3.7,11.3
		V541.8z"/>
	<path d="M586.8,489.6c0-3.7,2-5.5,6.1-5.5s6.2,1.8,6.2,5.5c0,1.8-0.5,3.1-1.5,4.1c-1,1-2.6,1.5-4.6,1.5
		C588.8,495.2,586.8,493.3,586.8,489.6z M598.6,541.8h-11.3v-41.4h11.3V541.8z"/>
	<path d="M648.7,541.8h-11.3v-24.2c0-3-0.5-5.2-1.6-6.7c-1.1-1.5-2.8-2.2-5.1-2.2c-3.2,0-5.4,1.1-6.9,3.2c-1.4,2.1-2.1,5.6-2.1,10.5
		v19.5h-11.3v-41.4h8.6l1.5,5.3h0.6c1.3-2,3-3.5,5.2-4.5c2.2-1,4.7-1.5,7.5-1.5c4.8,0,8.5,1.3,11,3.9c2.5,2.6,3.7,6.4,3.7,11.3
		V541.8z"/>
	<path d="M673.4,542.5c-4.9,0-8.7-1.9-11.5-5.7c-2.8-3.8-4.2-9-4.2-15.7c0-6.8,1.4-12.1,4.2-15.9c2.8-3.8,6.7-5.7,11.7-5.7
		c5.2,0,9.2,2,11.9,6.1h0.4c-0.6-3.1-0.9-5.8-0.9-8.3v-13.3h11.3v57.6h-8.7l-2.2-5.4h-0.5C682.6,540.5,678.7,542.5,673.4,542.5z
		 M677.4,533.5c2.9,0,5-0.8,6.4-2.5c1.3-1.7,2.1-4.5,2.2-8.6v-1.2c0-4.4-0.7-7.6-2.1-9.6c-1.4-1.9-3.6-2.9-6.7-2.9
		c-2.5,0-4.5,1.1-5.9,3.2c-1.4,2.1-2.1,5.2-2.1,9.3s0.7,7.1,2.1,9.2C672.8,532.5,674.8,533.5,677.4,533.5z"/>
	<path d="M707.8,489.6c0-3.7,2-5.5,6.1-5.5s6.2,1.8,6.2,5.5c0,1.8-0.5,3.1-1.5,4.1c-1,1-2.6,1.5-4.6,1.5
		C709.9,495.2,707.8,493.3,707.8,489.6z M719.6,541.8h-11.3v-41.4h11.3V541.8z"/>
	<path d="M741.3,541.8l-15.8-41.4h11.8l8,23.6c0.9,3,1.4,5.8,1.7,8.5h0.2c0.1-2.4,0.7-5.2,1.7-8.5l8-23.6h11.8l-15.8,41.4H741.3z"/>
	<path d="M774.1,489.6c0-3.7,2-5.5,6.1-5.5s6.2,1.8,6.2,5.5c0,1.8-0.5,3.1-1.5,4.1c-1,1-2.6,1.5-4.6,1.5
		C776.2,495.2,774.1,493.3,774.1,489.6z M785.9,541.8h-11.3v-41.4h11.3V541.8z"/>
	<path d="M810.9,542.5c-4.9,0-8.7-1.9-11.5-5.7c-2.8-3.8-4.2-9-4.2-15.7c0-6.8,1.4-12.1,4.2-15.9c2.8-3.8,6.7-5.7,11.7-5.7
		c5.2,0,9.2,2,11.9,6.1h0.4c-0.6-3.1-0.9-5.8-0.9-8.3v-13.3H834v57.6h-8.7l-2.2-5.4h-0.5C820.1,540.5,816.2,542.5,810.9,542.5z
		 M814.9,533.5c2.9,0,5-0.8,6.4-2.5c1.3-1.7,2.1-4.5,2.2-8.6v-1.2c0-4.4-0.7-7.6-2.1-9.6c-1.4-1.9-3.6-2.9-6.7-2.9
		c-2.5,0-4.5,1.1-5.9,3.2c-1.4,2.1-2.1,5.2-2.1,9.3s0.7,7.1,2.1,9.2C810.2,532.5,812.2,533.5,814.9,533.5z"/>
	<path d="M875.1,541.8l-1.5-5.3H873c-1.2,1.9-2.9,3.4-5.1,4.5c-2.2,1-4.8,1.6-7.6,1.6c-4.9,0-8.5-1.3-11-3.9
		c-2.5-2.6-3.7-6.4-3.7-11.2v-27h11.3v24.2c0,3,0.5,5.2,1.6,6.7s2.8,2.2,5.1,2.2c3.2,0,5.4-1.1,6.9-3.2c1.4-2.1,2.1-5.6,2.1-10.5
		v-19.5h11.3v41.4H875.1z"/>
	<path d="M922,541.8l-2.2-5.6h-0.3c-1.9,2.4-3.9,4.1-5.9,5c-2,0.9-4.6,1.4-7.9,1.4c-4,0-7.1-1.1-9.4-3.4c-2.3-2.3-3.4-5.5-3.4-9.7
		c0-4.4,1.5-7.6,4.6-9.7c3.1-2.1,7.7-3.2,13.9-3.5l7.2-0.2v-1.8c0-4.2-2.1-6.3-6.4-6.3c-3.3,0-7.2,1-11.7,3l-3.7-7.6
		c4.8-2.5,10.1-3.7,15.9-3.7c5.6,0,9.8,1.2,12.8,3.6c3,2.4,4.4,6.1,4.4,11v27.6H922z M918.6,522.6l-4.4,0.1
		c-3.3,0.1-5.7,0.7-7.3,1.8c-1.6,1.1-2.4,2.7-2.4,5c0,3.2,1.8,4.8,5.5,4.8c2.6,0,4.7-0.8,6.3-2.3c1.6-1.5,2.4-3.5,2.4-6V522.6z"/>
	<path d="M952.8,541.8h-11.3v-57.6h11.3V541.8z"/>
</g>
<g>
	<path fill="#FFFFFF" d="M106.5,526.7c0,4.9-1.8,8.7-5.3,11.6s-8.4,4.2-14.7,4.2c-5.8,0-10.9-1.1-15.3-3.3v-10.7
		c3.7,1.6,6.7,2.8,9.3,3.4c2.5,0.7,4.8,1,6.9,1c2.5,0,4.5-0.5,5.8-1.4c1.3-1,2-2.4,2-4.3c0-1.1-0.3-2-0.9-2.8
		c-0.6-0.8-1.5-1.6-2.6-2.4c-1.1-0.8-3.5-2-7-3.7c-3.3-1.6-5.8-3.1-7.4-4.5c-1.7-1.4-3-3.1-4-5c-1-1.9-1.5-4.1-1.5-6.7
		c0-4.8,1.6-8.6,4.9-11.3c3.2-2.7,7.7-4.1,13.5-4.1c2.8,0,5.5,0.3,8.1,1s5.2,1.6,8,2.8l-3.7,8.9c-2.9-1.2-5.3-2-7.2-2.5
		c-1.9-0.5-3.7-0.7-5.6-0.7c-2.2,0-3.8,0.5-5,1.5c-1.2,1-1.7,2.3-1.7,4c0,1,0.2,1.9,0.7,2.6c0.5,0.8,1.2,1.5,2.2,2.2
		c1,0.7,3.5,2,7.3,3.8c5.1,2.4,8.5,4.8,10.4,7.3C105.6,520.2,106.5,523.2,106.5,526.7z"/>
	<path fill="#FFFFFF" d="M115,489.6c0-3.7,2-5.5,6.1-5.5c4.1,0,6.1,1.8,6.1,5.5c0,1.8-0.5,3.1-1.5,4.1c-1,1-2.6,1.5-4.6,1.5
		C117,495.2,115,493.3,115,489.6z M126.7,541.8h-11.3v-41.4h11.3V541.8z"/>
	<path fill="#FFFFFF" d="M174.6,500.3v5.7l-6.5,1.7c1.2,1.9,1.8,3.9,1.8,6.2c0,4.4-1.6,7.9-4.6,10.4c-3.1,2.5-7.4,3.7-12.9,3.7
		l-2-0.1l-1.7-0.2c-1.2,0.9-1.7,1.9-1.7,3c0,1.6,2.1,2.4,6.2,2.4h7c4.5,0,8,1,10.4,2.9c2.4,2,3.6,4.8,3.6,8.6c0,4.8-2,8.6-6.1,11.3
		c-4,2.7-9.8,4-17.4,4c-5.8,0-10.2-1-13.2-3c-3.1-2-4.6-4.8-4.6-8.5c0-2.5,0.8-4.6,2.3-6.3c1.6-1.7,3.8-2.9,6.9-3.6
		c-1.2-0.5-2.2-1.3-3-2.4c-0.9-1.1-1.3-2.3-1.3-3.6c0-1.6,0.5-2.9,1.4-3.9c0.9-1,2.2-2.1,4-3.1c-2.2-0.9-3.9-2.4-5.2-4.5
		c-1.3-2.1-1.9-4.5-1.9-7.3c0-4.5,1.5-8,4.4-10.5c2.9-2.5,7.1-3.7,12.6-3.7c1.2,0,2.5,0.1,4.1,0.3c1.6,0.2,2.6,0.4,3.1,0.5H174.6z
		 M142.7,547.6c0,1.6,0.7,2.8,2.2,3.7c1.5,0.9,3.6,1.3,6.3,1.3c4.1,0,7.2-0.6,9.5-1.7s3.4-2.6,3.4-4.6c0-1.6-0.7-2.6-2-3.2
		s-3.5-0.9-6.3-0.9H150c-2.1,0-3.8,0.5-5.2,1.5C143.4,544.7,142.7,546,142.7,547.6z M146.8,513.9c0,2.2,0.5,4,1.5,5.3
		c1,1.3,2.6,2,4.7,2c2.1,0,3.7-0.7,4.7-2c1-1.3,1.5-3.1,1.5-5.3c0-5-2.1-7.5-6.1-7.5C148.9,506.4,146.8,508.9,146.8,513.9z"/>
	<path fill="#FFFFFF" d="M219.7,541.8h-11.3v-24.2c0-3-0.5-5.2-1.6-6.7c-1.1-1.5-2.8-2.2-5.1-2.2c-3.2,0-5.4,1.1-6.9,3.2
		c-1.4,2.1-2.1,5.6-2.1,10.5v19.5h-11.3v-41.4h8.6l1.5,5.3h0.6c1.3-2,3-3.5,5.2-4.5s4.7-1.5,7.5-1.5c4.8,0,8.5,1.3,11,3.9
		c2.5,2.6,3.7,6.4,3.7,11.3V541.8z"/>
	<path fill="#FFFFFF" d="M280.4,541.8l-1.5-5.3h-0.6c-1.2,1.9-2.9,3.4-5.1,4.5c-2.2,1-4.8,1.6-7.6,1.6c-4.9,0-8.5-1.3-11-3.9
		c-2.5-2.6-3.7-6.4-3.7-11.2v-27h11.3v24.2c0,3,0.5,5.2,1.6,6.7c1.1,1.5,2.8,2.2,5.1,2.2c3.2,0,5.4-1.1,6.9-3.2
		c1.4-2.1,2.1-5.6,2.1-10.5v-19.5H289v41.4H280.4z"/>
	<path fill="#FFFFFF" d="M323.6,542.5c-4.9,0-8.7-1.8-11.4-5.3h-0.6c0.4,3.5,0.6,5.5,0.6,6V560h-11.3v-59.6h9.2l1.6,5.4h0.5
		c2.6-4.1,6.6-6.1,11.7-6.1c4.9,0,8.7,1.9,11.5,5.7c2.8,3.8,4.1,9,4.1,15.7c0,4.4-0.6,8.3-1.9,11.5c-1.3,3.3-3.1,5.7-5.5,7.4
		C329.7,541.7,326.9,542.5,323.6,542.5z M320.3,508.6c-2.8,0-4.8,0.9-6.1,2.6c-1.3,1.7-2,4.6-2,8.5v1.2c0,4.4,0.7,7.6,2,9.6
		c1.3,1.9,3.4,2.9,6.3,2.9c5.1,0,7.6-4.2,7.6-12.5c0-4.1-0.6-7.1-1.9-9.2C324.9,509.6,323,508.6,320.3,508.6z"/>
	<path fill="#FFFFFF" d="M394.9,541.8l-2.2-5.6h-0.3c-1.9,2.4-3.9,4.1-5.9,5c-2,0.9-4.6,1.4-7.9,1.4c-4,0-7.1-1.1-9.4-3.4
		s-3.4-5.5-3.4-9.7c0-4.4,1.5-7.6,4.6-9.7c3.1-2.1,7.7-3.2,13.9-3.5l7.2-0.2v-1.8c0-4.2-2.1-6.3-6.4-6.3c-3.3,0-7.2,1-11.7,3
		l-3.7-7.6c4.8-2.5,10.1-3.7,15.9-3.7c5.6,0,9.8,1.2,12.8,3.6c3,2.4,4.4,6.1,4.4,11v27.6H394.9z M391.6,522.6l-4.4,0.1
		c-3.3,0.1-5.7,0.7-7.3,1.8c-1.6,1.1-2.4,2.7-2.4,5c0,3.2,1.8,4.8,5.5,4.8c2.6,0,4.7-0.8,6.3-2.3s2.4-3.5,2.4-6V522.6z"/>
	<path fill="#FFFFFF" d="M443.4,529.5c0,4.2-1.5,7.5-4.4,9.7c-3,2.2-7.4,3.3-13.2,3.3c-3,0-5.6-0.2-7.7-0.6c-2.1-0.4-4.1-1-6-1.8
		v-9.3c2.1,1,4.5,1.8,7.1,2.5c2.6,0.7,4.9,1,6.9,1c4.1,0,6.1-1.2,6.1-3.6c0-0.9-0.3-1.6-0.8-2.2c-0.5-0.6-1.5-1.2-2.8-1.9
		c-1.3-0.7-3.1-1.5-5.3-2.5c-3.2-1.3-5.5-2.6-7-3.7c-1.5-1.1-2.6-2.4-3.3-3.9c-0.7-1.5-1-3.3-1-5.4c0-3.7,1.4-6.5,4.3-8.5
		c2.9-2,6.9-3,12.1-3c5,0,9.8,1.1,14.6,3.3l-3.4,8.2c-2.1-0.9-4-1.6-5.8-2.2c-1.8-0.6-3.6-0.9-5.5-0.9c-3.3,0-5,0.9-5,2.7
		c0,1,0.5,1.9,1.6,2.6c1.1,0.7,3.4,1.8,7.1,3.3c3.2,1.3,5.6,2.5,7.1,3.7c1.5,1.1,2.6,2.4,3.3,3.9C443,525.7,443.4,527.4,443.4,529.5
		z"/>
	<path fill="#FFFFFF" d="M498.2,541.8l-2.2-5.6h-0.3c-1.9,2.4-3.9,4.1-5.9,5c-2,0.9-4.6,1.4-7.9,1.4c-4,0-7.1-1.1-9.4-3.4
		s-3.4-5.5-3.4-9.7c0-4.4,1.5-7.6,4.6-9.7c3.1-2.1,7.7-3.2,13.9-3.5l7.2-0.2v-1.8c0-4.2-2.2-6.3-6.4-6.3c-3.3,0-7.2,1-11.7,3
		l-3.7-7.6c4.8-2.5,10.1-3.7,15.9-3.7c5.6,0,9.8,1.2,12.8,3.6c3,2.4,4.4,6.1,4.4,11v27.6H498.2z M494.8,522.6l-4.4,0.1
		c-3.3,0.1-5.7,0.7-7.3,1.8c-1.6,1.1-2.4,2.7-2.4,5c0,3.2,1.8,4.8,5.5,4.8c2.6,0,4.7-0.8,6.3-2.3s2.4-3.5,2.4-6V522.6z"/>
	<path fill="#FFFFFF" d="M555.9,541.8h-11.3v-24.2c0-3-0.5-5.2-1.6-6.7c-1.1-1.5-2.8-2.2-5.1-2.2c-3.2,0-5.4,1.1-6.9,3.2
		c-1.4,2.1-2.1,5.6-2.1,10.5v19.5h-11.3v-41.4h8.6l1.5,5.3h0.6c1.3-2,3-3.5,5.2-4.5c2.2-1,4.7-1.5,7.5-1.5c4.8,0,8.5,1.3,11,3.9
		c2.5,2.6,3.7,6.4,3.7,11.3V541.8z"/>
	<path fill="#FFFFFF" d="M586.8,489.6c0-3.7,2-5.5,6.1-5.5s6.2,1.8,6.2,5.5c0,1.8-0.5,3.1-1.5,4.1c-1,1-2.6,1.5-4.6,1.5
		C588.8,495.2,586.8,493.3,586.8,489.6z M598.6,541.8h-11.3v-41.4h11.3V541.8z"/>
	<path fill="#FFFFFF" d="M648.7,541.8h-11.3v-24.2c0-3-0.5-5.2-1.6-6.7c-1.1-1.5-2.8-2.2-5.1-2.2c-3.2,0-5.4,1.1-6.9,3.2
		c-1.4,2.1-2.1,5.6-2.1,10.5v19.5h-11.3v-41.4h8.6l1.5,5.3h0.6c1.3-2,3-3.5,5.2-4.5c2.2-1,4.7-1.5,7.5-1.5c4.8,0,8.5,1.3,11,3.9
		c2.5,2.6,3.7,6.4,3.7,11.3V541.8z"/>
	<path fill="#FFFFFF" d="M673.4,542.5c-4.9,0-8.7-1.9-11.5-5.7c-2.8-3.8-4.2-9-4.2-15.7c0-6.8,1.4-12.1,4.2-15.9
		c2.8-3.8,6.7-5.7,11.7-5.7c5.2,0,9.2,2,11.9,6.1h0.4c-0.6-3.1-0.9-5.8-0.9-8.3v-13.3h11.3v57.6h-8.7l-2.2-5.4h-0.5
		C682.6,540.5,678.7,542.5,673.4,542.5z M677.4,533.5c2.9,0,5-0.8,6.4-2.5c1.3-1.7,2.1-4.5,2.2-8.6v-1.2c0-4.4-0.7-7.6-2.1-9.6
		c-1.4-1.9-3.6-2.9-6.7-2.9c-2.5,0-4.5,1.1-5.9,3.2c-1.4,2.1-2.1,5.2-2.1,9.3s0.7,7.1,2.1,9.2C672.8,532.5,674.8,533.5,677.4,533.5z
		"/>
	<path fill="#FFFFFF" d="M707.8,489.6c0-3.7,2-5.5,6.1-5.5s6.2,1.8,6.2,5.5c0,1.8-0.5,3.1-1.5,4.1c-1,1-2.6,1.5-4.6,1.5
		C709.9,495.2,707.8,493.3,707.8,489.6z M719.6,541.8h-11.3v-41.4h11.3V541.8z"/>
	<path fill="#FFFFFF" d="M741.3,541.8l-15.8-41.4h11.8l8,23.6c0.9,3,1.4,5.8,1.7,8.5h0.2c0.1-2.4,0.7-5.2,1.7-8.5l8-23.6h11.8
		l-15.8,41.4H741.3z"/>
	<path fill="#FFFFFF" d="M774.1,489.6c0-3.7,2-5.5,6.1-5.5s6.2,1.8,6.2,5.5c0,1.8-0.5,3.1-1.5,4.1c-1,1-2.6,1.5-4.6,1.5
		C776.2,495.2,774.1,493.3,774.1,489.6z M785.9,541.8h-11.3v-41.4h11.3V541.8z"/>
	<path fill="#FFFFFF" d="M810.9,542.5c-4.9,0-8.7-1.9-11.5-5.7c-2.8-3.8-4.2-9-4.2-15.7c0-6.8,1.4-12.1,4.2-15.9
		c2.8-3.8,6.7-5.7,11.7-5.7c5.2,0,9.2,2,11.9,6.1h0.4c-0.6-3.1-0.9-5.8-0.9-8.3v-13.3H834v57.6h-8.7l-2.2-5.4h-0.5
		C820.1,540.5,816.2,542.5,810.9,542.5z M814.9,533.5c2.9,0,5-0.8,6.4-2.5c1.3-1.7,2.1-4.5,2.2-8.6v-1.2c0-4.4-0.7-7.6-2.1-9.6
		c-1.4-1.9-3.6-2.9-6.7-2.9c-2.5,0-4.5,1.1-5.9,3.2c-1.4,2.1-2.1,5.2-2.1,9.3s0.7,7.1,2.1,9.2C810.2,532.5,812.2,533.5,814.9,533.5z
		"/>
	<path fill="#FFFFFF" d="M875.1,541.8l-1.5-5.3H873c-1.2,1.9-2.9,3.4-5.1,4.5c-2.2,1-4.8,1.6-7.6,1.6c-4.9,0-8.5-1.3-11-3.9
		c-2.5-2.6-3.7-6.4-3.7-11.2v-27h11.3v24.2c0,3,0.5,5.2,1.6,6.7s2.8,2.2,5.1,2.2c3.2,0,5.4-1.1,6.9-3.2c1.4-2.1,2.1-5.6,2.1-10.5
		v-19.5h11.3v41.4H875.1z"/>
	<path fill="#FFFFFF" d="M922,541.8l-2.2-5.6h-0.3c-1.9,2.4-3.9,4.1-5.9,5c-2,0.9-4.6,1.4-7.9,1.4c-4,0-7.1-1.1-9.4-3.4
		c-2.3-2.3-3.4-5.5-3.4-9.7c0-4.4,1.5-7.6,4.6-9.7c3.1-2.1,7.7-3.2,13.9-3.5l7.2-0.2v-1.8c0-4.2-2.1-6.3-6.4-6.3
		c-3.3,0-7.2,1-11.7,3l-3.7-7.6c4.8-2.5,10.1-3.7,15.9-3.7c5.6,0,9.8,1.2,12.8,3.6c3,2.4,4.4,6.1,4.4,11v27.6H922z M918.6,522.6
		l-4.4,0.1c-3.3,0.1-5.7,0.7-7.3,1.8c-1.6,1.1-2.4,2.7-2.4,5c0,3.2,1.8,4.8,5.5,4.8c2.6,0,4.7-0.8,6.3-2.3c1.6-1.5,2.4-3.5,2.4-6
		V522.6z"/>
	<path fill="#FFFFFF" d="M952.8,541.8h-11.3v-57.6h11.3V541.8z"/>
</g>
</svg>
