<?xml version="1.0" encoding="utf-8"?>
<!-- Generator: Adobe Illustrator 18.1.0, SVG Export Plug-In . SVG Version: 6.00 Build 0)  -->
<!DOCTYPE svg PUBLIC "-//W3C//DTD SVG 1.1//EN" "http://www.w3.org/Graphics/SVG/1.1/DTD/svg11.dtd">
<svg version="1.1" id="Layer_1" xmlns="http://www.w3.org/2000/svg" xmlns:xlink="http://www.w3.org/1999/xlink" x="0px" y="0px"
	 viewBox="0 0 300 300" enable-background="new 0 0 300 300" xml:space="preserve">
<path fill="#FFFFFF" d="M277.8,0H22.1C9.9,0,0,9.7,0,21.6v256.7C0,290.3,9.9,300,22.1,300h255.7c12.2,0,22.2-9.7,22.2-21.6V21.6
	C300,9.7,290,0,277.8,0z M89,255.6H44.5V112.5H89V255.6z M66.7,92.9c-14.3,0-25.8-11.6-25.8-25.8c0-14.2,11.5-25.8,25.8-25.8
	c14.2,0,25.8,11.6,25.8,25.8C92.5,81.3,81,92.9,66.7,92.9z M255.6,255.6h-44.5V186c0-16.6-0.3-38-23.1-38
	c-23.2,0-26.7,18.1-26.7,36.8v70.8h-44.4V112.5h42.7V132h0.6c5.9-11.3,20.5-23.1,42.1-23.1c45,0,53.4,29.6,53.4,68.2V255.6z"/>
</svg>
