<?xml version="1.0" encoding="utf-8"?>
<!-- Generator: Adobe Illustrator 18.1.0, SVG Export Plug-In . SVG Version: 6.00 Build 0)  -->
<!DOCTYPE svg PUBLIC "-//W3C//DTD SVG 1.1//EN" "http://www.w3.org/Graphics/SVG/1.1/DTD/svg11.dtd">
<svg version="1.1" id="Layer_1" xmlns="http://www.w3.org/2000/svg" xmlns:xlink="http://www.w3.org/1999/xlink" x="0px" y="0px"
	 viewBox="0 0 265.7 265.7" enable-background="new 0 0 265.7 265.7" xml:space="preserve">
<path fill="#FFFFFF" d="M132.8,260.7c70.6,0,127.8-57.2,127.8-127.8C260.7,62.2,203.4,5,132.8,5C62.2,5,5,62.2,5,132.8
	C5,203.4,62.2,260.7,132.8,260.7"/>
<path fill="#131D3C" d="M132.8,265.7C59.6,265.7,0,206.1,0,132.8C0,59.6,59.6,0,132.8,0s132.8,59.6,132.8,132.8
	C265.7,206.1,206.1,265.7,132.8,265.7z M132.8,10C65.1,10,10,65.1,10,132.8c0,67.7,55.1,122.8,122.8,122.8
	c67.7,0,122.8-55.1,122.8-122.8C255.7,65.1,200.6,10,132.8,10z"/>
<path fill="#131D3C" d="M134.1,171.5c19.7,0,35.7-4,35.7-8.9c0-4.9-16-8.9-35.7-8.9c-19.7,0-35.6,4-35.6,8.9
	C98.4,167.5,114.4,171.5,134.1,171.5 M134.6,120.2c28.4,0,42.3,15,42.3,15v31.2c0,0-14.5,11.7-44.5,11.7
	c-30.1,0-40.1-11.7-40.1-11.7v-31.2C92.3,135.3,106.2,120.2,134.6,120.2 M184.5,130.6c0,0-20.5-20.9-48.7-20.9
	c-27.6,0-54.9,20.9-54.9,20.9l-15.3-6.4v18.8c2.4,0.8,4.2,3,4.2,5.7c0,2.7-1.8,4.9-4.3,5.8L70,167H56.7l4.6-12.7
	c-2.2-0.9-3.7-3.1-3.7-5.7c0-2.5,1.5-4.6,3.6-5.6v-20.8L38.8,113l98-44l90,44.6L184.5,130.6z"/>
</svg>
