<?xml version="1.0" encoding="utf-8"?>
<!-- Generator: Adobe Illustrator 15.0.2, SVG Export Plug-In . SVG Version: 6.00 Build 0)  -->
<!DOCTYPE svg PUBLIC "-//W3C//DTD SVG 1.1//EN" "http://www.w3.org/Graphics/SVG/1.1/DTD/svg11.dtd">
<svg version="1.1" id="Layer_1" xmlns="http://www.w3.org/2000/svg" xmlns:xlink="http://www.w3.org/1999/xlink" x="0px" y="0px"
	 width="1310.095px" height="714.598px" viewBox="0 0 1310.095 714.598" enable-background="new 0 0 1310.095 714.598"
	 xml:space="preserve">
<polygon fill="#0072BC" points="472.08,318.409 453.304,318.409 475.428,241.306 426.881,241.259 426.938,196.625 445.196,196.648 
	445.196,222.967 495.196,222.99 495.196,237.866 "/>
<path fill="#0072BC" d="M565.226,318.369l-0.058-77.144l-31.044,0.035l0.022,59.325c0,8.344-9.758,17.825-18.102,17.784
	l-14.858,0.041l-0.023-18.31h10.779c1.466,0,3.924-2.291,3.9-3.756v-55.084l-11.794,0.023V222.99l79.429-0.046l0.058,95.424H565.226
	z"/>
<polygon fill="#0072BC" points="309.448,435.392 309.448,417.135 354.376,417.135 354.434,358.537 309.448,358.513 309.472,340.291 
	372.657,340.291 372.622,417.169 381.099,417.169 381.099,435.415 "/>
<polygon fill="#0072BC" points="399.189,386.229 399.189,358.537 386.806,358.565 386.829,340.291 417.47,340.291 417.435,386.229 
	"/>
<polygon fill="#0072BC" points="426.396,435.45 426.396,417.204 471.336,417.204 471.336,358.565 426.396,358.537 426.431,340.325 
	489.605,340.354 489.582,417.227 498.059,417.227 498.059,435.45 "/>
<path fill="#0072BC" d="M562.722,435.473l-36.637-60.444l-0.034,60.421h-18.396l0.022-57.173c0-4.08,1.311-7.011,4.559-9.584
	l6.526-5.072l-14.148-23.266l20.992-0.029l36.988,61.264v-61.235l18.373,0.023v53.099c-0.035,6.67-2.303,9.44-7.185,12.695
	l-5.528,3.739l15.315,25.563H562.722z"/>
<polygon fill="#0072BC" points="445.571,552.323 445.571,475.508 433.188,475.485 433.188,457.25 463.794,457.227 463.823,552.323 
	"/>
<path fill="#0072BC" d="M522.438,552.289h-47.046l-0.04-18.223l46.434-0.023c1.951,0,4.738-2.885,4.715-4.686v-49.21
	c0-1.777-2.764-4.708-4.715-4.662h-28.147l-0.034,22.101l14.829,0.023v17.276l-33.041-0.046l-0.04-57.646l47.086,0.035
	c10.41,0,22.309,12.049,22.309,22.32v50.433C544.747,540.251,532.849,552.289,522.438,552.289"/>
<polygon fill="#0072BC" points="565.267,503.16 565.267,475.485 552.889,475.438 552.924,457.25 583.535,457.25 583.478,503.183 "/>
<polygon fill="#0072BC" points="86.232,241.282 86.371,240.151 84.824,237.595 84.824,236.424 84.282,236.712 83.965,236.228 
	83.855,236.949 83.064,237.358 82.771,236.995 82.828,238.663 84.179,237.93 "/>
<polygon fill="#0072BC" points="87.353,237.866 86.596,238.27 86.908,239.263 88.039,238.663 87.554,237.053 86.775,236.025 
	85.667,235.633 85.725,236.793 86.573,236.897 "/>
<polygon fill="#0072BC" points="87.462,234.404 87.554,236.083 88.737,235.472 89.055,235.431 89.279,235.633 89.851,236.545 
	88.645,237.197 88.783,238.27 90.97,237.053 90.803,236.002 90.382,236.25 89.47,234.819 89.02,234.404 88.431,234.438 
	87.779,234.819 "/>
<polygon fill="#0072BC" points="90.035,234.277 91.005,234.404 91.051,235.327 91.478,236.205 91.513,236.735 92.493,236.205 
	92.269,235.189 91.726,235.472 91.443,235.01 91.386,234.502 92.816,234.9 94.195,235.472 94.282,235.472 94.173,234.462 
	92.979,234.029 93.064,232.8 92.009,232.09 92.009,233.164 92.413,233.458 92.673,233.954 91.443,233.544 90.059,233.227 "/>
<polygon fill="#0072BC" points="53.463,234.987 52.92,234.704 52.02,235.385 53.214,236.002 54.005,235.385 54.536,233.908 
	55.494,234.404 55.673,234.629 55.649,234.946 54.467,236.874 55.39,236.603 56.521,234.704 56.567,234.133 56.238,233.66 
	54.784,232.881 54.871,232.35 53.376,233.25 53.924,233.567 "/>
<polygon fill="#0072BC" points="57.104,234.9 57.288,235.916 56.331,236.649 57.895,236.25 58.402,235.247 58.177,234.335 "/>
<polygon fill="#0072BC" points="58.817,237.889 58.044,237.468 57.276,238.247 58.448,238.859 59.7,237.606 60.196,236.522 
	60.029,235.408 58.979,236.025 59.325,236.77 "/>
<polygon fill="#0072BC" points="62.043,236.25 60.543,237.174 61.72,237.786 61.888,238.034 61.818,238.328 61.287,239.228 
	60.093,238.576 59.158,239.228 61.368,240.446 62.239,239.748 61.818,239.5 62.713,238.057 62.822,237.503 62.487,237.041 
	61.853,236.678 "/>
<polygon fill="#0072BC" points="63.445,240.399 62.678,239.996 61.91,240.717 63.07,241.363 64.322,240.151 64.83,239.026 
	64.663,237.889 63.612,238.553 63.953,239.286 "/>
<polygon fill="#0072BC" points="65.28,239.159 65.506,240.371 64.346,242.24 64.38,242.263 65.396,241.755 65.419,241.698 
	66.452,240.065 66.365,238.599 "/>
<path fill="#0072BC" d="M73.798,187.889l-1.818,1.148l1.818-1.846l1.766,1.315l-1.518-0.565L73.798,187.889z M83.03,231.357
	l-2.828,1.645l-1.425,0.058h-0.819l-0.67-0.121l-0.889-0.364l-0.104-0.733c-1.904-0.404-3.503,0.225-5.015,0.733l-0.248-0.733
	l-2.885,1.097l-0.93,0.687l-1.229-1.05c1.535-1.039,2.752-1.194,3.912-1.512l-3.514,1.039l3.514-1.039l2.077-0.19L73.042,231
	l1.869-0.271l1.408,0.063l1.379,0.34l2.233,0.404l2.873-0.156L83.03,231.357z M83.878,226.072l1.218,0.179
	c2.545-0.906,5.286-0.825,8.038-0.565c1.547,0.225,3.082,0.565,4.409,1.442l-0.854,1.039l-1.379-0.352
	c-2.516-1.16-5.072-1.339-7.444-1.103l-0.923,0.093l-1.442,0.225l-0.722,0.214l-2.603,0.416h-0.929l-1.218-0.058
	c-1.385-0.167-2.741-0.889-4.218-0.946h-3.134l-1.523,0.237l-1.621,0.352c-1.252,0.271-2.378,0.842-3.769,1.004l-3.087-0.34
	c-2.435-0.393-5.142-1.016-7.576-0.248l-1.771,0.508l-3.059-0.317l2.92-1.523l0.837,0.104l2.978-0.179l0.617-0.34l2.833-0.225
	l2.527,0.329l1.454-0.173c1.386,0.231,2.638,0.485,4.022,0.317l2.978-0.473l1.985,0.156h0.778l2.366-0.156
	c2.244-0.19,4.535-0.393,6.602,0.156L83.878,226.072z M75.194,223.025l1.286-0.416l2.614,0.52h1.408l3.438-0.329
	c1.91-0.26,4.005-0.317,5.979-0.19c1.893,0.11,3.768,0.52,5.614,0.923l1.016,0.213l0.589,1.194l-2.821,0.104l-0.099-0.981
	l-2.313,0.571l-0.428-0.652l-3.179,0.877l-0.249-0.698c-1.442,0.698-3.353,0.779-5.02,0.473l-2.303-0.156h-3.313v-0.629
	l-1.367,0.392l-1.442,0.237l-0.121-0.733l-2.424,0.802l-0.71-0.485l-2.371,0.796l-0.214-0.618c-1.321,0.554-2.862,0.618-4.328,0.872
	l-1.615-0.387l0.542-0.565h-2.423l-3.318,0.565l-2.683,0.387l-1.749,0.231l-3.485,0.565l-0.202-0.796l0.45-1.05
	c2.02,0,3.768-0.387,5.753-0.387c2.291-0.144,4.161-0.732,6.065-0.496c1.84,0.104,3.698,0.733,5.672,0.41l1.863-0.565l3.053-0.081
	l2.291-0.335L75.194,223.025z M77.415,220.838h1.005c2.827,0.098,5.684-1.096,8.522-0.652l0.52,0.831
	c2.244-0.935,4.761-0.081,7.138,0.081l1.097,0.404l-2.902,0.162l-3.243-0.162c-1.686,0.081-3.428,0.081-5.044,0.213
	c-1.782-0.283-3.023,0.283-4.478,0.116c-1.385-0.167-2.839-0.167-4.138-0.646l-1.5,0.479l0.26-0.727
	c-1.287-0.156-2.366,0.081-3.45,0.306c-1.61,0.473-3.215,1.131-4.997,1.368l-2.707-0.329l-0.819-0.283l-2.729,0.485l-1.379-0.248
	l-3.243,0.375l-1.922,0.19l-0.675-0.081l-1.703-0.237c1.218-1.466,2.436-1.546,3.595-1.385l2.326-0.646l1.217,0.565l1.299-0.369
	l0.779,0.369c1.766-0.709,3.9-0.565,5.839-0.236l1.523,0.317l2.297-0.565c1.76-0.225,3.624-0.698,5.517-0.404L77.415,220.838z
	 M77.831,218.097l1.512-0.104c1.385,0.046,2.706,0.046,4.051-0.035l3.087,0.081l3.521,0.387c1.477,0.271,2.896,0.485,4.316,0.97
	l-3.37,0.438l-0.26-0.664l-2.989,0.225l-0.357-0.646c-1.345,0.104-2.481,0.813-3.826,0.733l-0.484-0.733
	c-1.783,0.104-3.543,0.588-5.199,0.993l-0.347-0.831l-3.722-0.213c-2.164,0.381-4.311,0.64-6.318,1.431h-0.756l-1.315-0.791
	l-3.509,0.629l-0.923-1.114l-2.152,0.404c-1.253-0.404-2.055-0.086-2.938,0.306c-1.587-0.565-2.66-0.046-3.739,0.341l0.133-0.733
	l1.569-0.791c2.141-0.565,4.519-1.05,6.763-0.565c1.432,0.386,3.035,0.565,4.57,0.935c2.21,0.329,3.999-1.056,6.054-1.241
	c1.477-0.179,2.919-0.26,4.362,0.127L77.831,218.097z M93.429,228.333l1.004,0.283L93.429,228.333l1.004,0.283
	c-2.672,0.6-5.586,0.283-8.281,0.895l-3.029,0.946l-1.402,0.248l-0.865,0.023l-1.218-0.468v-0.75l-0.623-0.185l-0.854,0.058
	l-2.269,0.589l0.283-1.108l-0.589-0.046l-1.788,0.461l-1.12,0.75l0.058-0.704l-2.21,0.421l-2.92,0.767H66.85
	c-1.679,0-2.787,0.156-3.946,0.404l-1.184-0.635c-2.931-1.004-4.807-1.103-5.62-1.171l1.674-0.843l0.732,0.041l2.932,0.588
	l-2.597-0.519l2.597,0.519l2.683,0.214l0.889-0.023l2.349-0.271l3.249-0.969l1.27,0.317l2.17-0.237l0.899-0.115l0.779,0.092
	l2.481,0.664l0.946,0.023l1.408-0.023c1.367-0.19,2.92-0.237,4.275-0.427l2.943-0.144C89.706,228.085,91.599,228.189,93.429,228.333
	 M69.25,236.273l-1.073-1.633l2.729-1.05l2.833-0.271l1.985,0.271l2.827,0.745l1.311,0.179l-1.085,1.096l-1.61,0.283l-0.911-1.142
	l-2.493,0.894l-0.646,0.087l-0.236-0.722l-2.603,0.946L69.25,236.273z M76.423,237.197l-1.321-0.167l-0.946,0.058l-2.279,0.271
	l-0.698-0.271l-0.687,0.046l-0.698,0.202l0.698-0.202l0.687-0.046l-0.687,0.046l-0.698,0.202l0.732,2.083l1.622,1.639l0.756,0.346
	l0.836,0.081l2.072-1.691l1.05-1.841l0.306-0.819L76.423,237.197z M74.098,181.617c-2.47-0.035-3.515,1.016-4.328,2.539
	c-3.058,5.793-6.786,8.604-8.742,9.44c-2.129,0.946-4.979,1.327-8.702,1.246c-1.24-0.052-2.4,0.15-3.353,0.883
	c-1.125,0.9-2.06,2.095-2.014,3.462c0.086,3.203,4.293,6.584,4.362,14.61c0.046,5.257-3.203,8.482-4.039,9.879
	c-0.087,0.485-1.241,1.91,0.202,4.593c0,0,1.322,2.499,4.143,2.58c1.103,0.023,6.394-0.225,9.833,1.5
	c6.111,3.122,7.058,8.039,7.473,8.91l2.811,2.481l2.106,0.271l1.933-0.294c1.385-0.484,2.297-1.356,2.805-2.458
	c0.6-1.108,2.325-6.07,6.757-8.425c2.955-1.558,5.933-2.106,10.641-1.916l2.372-0.658l0.935-0.75l0.923-1.287l0.45-3.133
	l-0.369-1.414c-0.652-1.679-1.535-2.435-2.244-4.114c-0.912-2.291-1.478-3.335-1.478-6.191c0-3.561,0.97-6.844,2.244-9.146
	c1.074-1.939,2.257-3.18,1.83-5.026c-0.271-1.356-0.895-2.597-1.974-3.497c-1.275-0.993-2.892-0.883-3.364-0.86
	c-0.629,0-5.534,0.317-8.748-1.217c-5.563-2.625-8.119-8.996-8.829-9.775C76.966,182.713,76.567,181.663,74.098,181.617
	 M73.798,188.789l-1.356,1.218l-2.083-0.97c0.312,1.478,0.652,3.532,0.167,5.009l-0.08,3.122l-1.299,2.095
	c-1.033,1.298-2.319,2.169-3.595,2.966l-0.946,1.662l-0.462,1.881v0.698l-0.531-0.698h-2.175v1.05h-0.981v-1.05h-3.047v3.295
	l1.073,2.233l-3,4.732l-2.152,0.473c0.531-5.897-0.768-10.317-1.356-11.622l15.471-5.401l1.321-1.512l-17.882,5.309l-0.565-1.316
	l18.448-5.337l-0.393-1.298l-18.811,4.974l0.756-2.481l2.55-0.652c0.946,0,5.921-0.081,9.054-1.443
	c4.928-2.1,7.611-6.595,7.98-7.565l1.108,0.485l0.427-0.704l-1.137-0.75l0.605-0.768l1.073,0.733l-0.484-1.523l1.547-1.368
	l0.259,1.91h1.057l0.127-1.91l1.621,1.368l-0.97,0.958l1.581-0.167l0.571,0.768l-1.113,0.75l0.52,0.704l1.038-0.485
	c0.37,0.97,3.336,6.301,8.264,7.813c4.691,1.454,7.75,1.195,8.771,1.195l2.43,0.652l0.992,2.256l-19.002-4.749l-0.328,1.298
	l18.338,5.337l-0.433,1.316l-17.813-5.367l1.16,1.57l15.586,5.401c-0.692,1.281-2.009,5.724-1.379,11.622l-2.152-0.473l-3.024-4.732
	l1.097-2.233v-3.295h-3.081l-0.087,1.05h-0.946v-1.05h-2.077l-0.531,0.698l-0.121-0.698l-0.363-1.881l-0.981-1.662
	c-1.321-0.796-2.562-1.667-3.583-2.966l-1.356-2.095v-3.122c-0.542-1.477-0.167-3.531,0.081-5.009l-1.996,0.97L73.798,188.789z
	 M72.816,200.561h-3.001l1.386-1.997h1.615V200.561z M70.606,201.744l-0.081,1.05h-2.683l1.067-1.05H70.606z M68.979,203.89v1.766
	h-3.509l0.918-1.766H68.979z M70.301,205.656l2.741,0.034v-1.8h-2.741V205.656z M60.162,206.978v0.848h1.76v-0.848h1.575v0.848
	h1.783v-0.848h1.547l0.022,1.5h-8.604v-1.5H60.162z M70.606,208.478h-2.678v-1.5l2.678-0.023V208.478z M70.525,209.447l-0.756,0.883
	H59.406l-0.531-0.883H70.525z M60.317,212.979h-1.748l0.837-1.442h0.911V212.979z M61.772,212.979h2.914v-1.402h-2.914V212.979z
	 M68.281,211.536l-1.299,1.442h-0.9v-1.442H68.281z M66.163,214.058l-0.398,0.692h-8.142l0.375-0.692H66.163z M61.074,215.604v0.849
	l-1.962-0.485l-1.928-0.081L61.074,215.604z M64.357,217.249l-1.374-0.392l-0.08-1.252h2.331L64.357,217.249z M85.806,215.887
	c1.351,0,2.412-0.104,3.428,0.081l0.768-0.081l0.629,1.218L87.554,217l-1.431-0.098l-3.271-0.611h-0.756
	C83.169,215.887,84.507,215.783,85.806,215.887 M74.721,200.561h3.012l-1.379-1.997h-1.633V200.561z M77.029,201.744v1.05h2.775
	l-1.16-1.05H77.029z M78.645,203.89v1.8l3.451-0.034l-0.849-1.766H78.645z M74.605,203.89H77.3v1.766h-2.694V203.89z
	 M87.416,206.978v0.848h-1.772v-0.871h-1.621l0.023,0.871h-1.702v-0.848h-1.547v1.5h8.592v-1.5H87.416z M76.942,208.478h2.694
	v-1.489h-2.694V208.478z M77.109,209.447l0.803,0.883h10.306l0.462-0.883H77.109z M87.214,212.979h1.806l-0.802-1.442h-1.004
	V212.979z M82.852,211.536h2.954v1.442h-2.954V211.536z M79.262,211.536l1.321,1.442h0.981v-1.442H79.262z M73.798,209.615
	l0.923,0.173c1.847,0.698,3.462,2.389,4.997,3.913l2.521,3.993l-1.137,0.122c-1.073-1.31-2.152-2.764-3.543-3.71
	c-1.137-0.808-2.492-1.523-3.762-1.771c-1.287,0.248-2.644,0.963-3.733,1.771c-1.402,0.946-2.539,2.4-3.532,3.71l-1.159-0.122
	l2.556-3.993c1.438-1.523,3.082-3.214,4.975-3.913L73.798,209.615z M73.798,206.978h1.927v1.5h-3.803v-1.5H73.798z M73.798,202.713
	l-1.737,0.081v-1.05H75.5v1.05L73.798,202.713z M73.798,196.377h2.25l-0.484,0.791h-3.584l-0.381-0.791H73.798z M73.798,195.408
	h-2.303l0.248-0.946h4.148l0.156,0.946H73.798z M73.798,193.331h-1.737l-0.236-1.939l1.974-1.044l1.552,1.304l0.214,1.679H73.798z
	 M84.507,214.75l-3.26,0.3l-0.145-0.721l8.448-0.271l0.369,0.692H84.507z M67.605,250.711c-17.288-3.058-30.45-18.869-30.502-37.778
	c0.052-21.154,16.417-38.35,36.659-38.31c2.071,0,4.114,0.162,6.122,0.467c17.254,3.087,30.479,18.875,30.503,37.842
	c-0.023,21.096-16.463,38.327-36.648,38.327C71.662,251.259,69.625,251.058,67.605,250.711 M80.053,173.913
	c-2.071-0.381-4.161-0.56-6.267-0.56c-20.866,0-37.825,17.75-37.871,39.579c0,19.521,13.716,35.857,31.553,39.002
	c2.031,0.363,4.108,0.554,6.271,0.554c20.86-0.046,37.808-17.784,37.808-39.556C111.547,193.354,97.918,177.041,80.053,173.913
	 M120.907,167.387l-1.761,3.047l-4.021,0.796l1.442,1.344c2.21,1.229,0.508,3.878,0.825,5.719l3.134-1.841l3.924,1.569l-0.779-3.191
	c-0.756-1.852,1.478-2.608,2.244-3.912l-1.84-0.485l-0.733-0.104l-0.97-0.236L120.907,167.387z M108.033,170.036l-1.783,2.879
	c-1.391,0.473-3.001,0.652-4.265,0.958l2.649,2.579c0.161,1.569-0.652,3.082-0.19,4.559l2.833-1.921l3.987,1.639
	c-0.248-1.391-0.687-2.775-1.021-4.195l2.603-2.931l-3.595-0.802L108.033,170.036z M118.777,181.299l-1.863,3.203
	c-1.385,0.387-2.92,0.329-4.149,0.917l2.527,2.603l-0.225,4.114l1.702-1.056l1.726-0.681l1.645,0.704l1.581,0.675l-0.676-3.981
	l2.684-2.943l-0.871-0.046l-1.016-0.248l-1.114-0.271C119.406,183.446,119.216,182.147,118.777,181.299 M73.612,128.46l-1.95,2.955
	l-3.428,0.802c0.226,1.275,1.356,1.656,1.985,2.683l-0.202,4.524l2.839-1.72l3.947,1.5c-0.236-1.443-0.629-2.724-1.079-3.936
	c0.571-1.27,1.916-1.951,2.672-2.885l-1.137-0.698l-0.779-0.167h-0.917C74.12,131.178,74.357,129.337,73.612,128.46 M72.112,266.776
	c-1.292,0.306-2.839,0.248-3.999,0.813l2.332,2.129c0.565,1.616-0.571,3.341,0,4.882l3.26-1.789
	c1.252,0.312,2.366,1.351,3.664,1.351c-0.381-1.327-0.97-2.741-1.113-4.184l2.66-2.729l-2.845-0.641
	c-1.42-0.363-1.564-1.973-2.222-2.966L72.112,266.776z M60.243,257.382c-1.368,0.208-2.62,0.508-3.826,0.883l2.458,2.603
	l-0.369,4.311l3.122-1.679l3.924,1.408c-0.236-1.408-0.803-2.706-0.946-4.149l2.354-3.058l-2.354-0.485
	c-1.829,0.427-1.783-1.893-2.597-2.896L60.243,257.382z M84.697,257.555l-3.733,0.629l2.43,2.684l-0.398,4.455l3.156-1.76
	l4.12,1.465l-0.969-3.029c-1.108-1.95,1.835-2.764,2.458-4.299l-3.237-0.542l-2.043-2.816L84.697,257.555z M33.988,156.435
	l-1.679,2.707l1.512,1.368l0.71,1.183v5.863l1.817-2.458l-0.058-5.297l-1.137-2.152L33.988,156.435z M40.768,157.035l-1.477,1.183
	l-1.241,2.337l0.935,1.726L40,163.417l0.889-2.129l-0.606-0.473l-0.185-0.917h1.685l1.703,1.275l0.046,1.05l-0.023,0.848
	l0.023,0.889l-4.784,0.392l-1.264,2.718h6.855l1.004-2.718l0.069-0.709v-1.362l-0.092-1.771l-0.202-0.837l-0.889-0.889l-1.166-0.791
	l-1.477-0.675L40.768,157.035z M48.512,156.833l-1.656,2.671l0.993,0.565l0.969,1.339l-0.606,1.806l-0.6,1.333l1.298-1.027
	l1.789-1.887l0.387-1.304l-0.167-0.871l-0.6-0.756L48.512,156.833z M58.482,161.351l-4.558-0.063L52.92,163.1h4.593L58.482,161.351z
	 M62.678,156.469l-1.333,2.17l-0.802,1.835l3.636-0.035l0.687,0.34l0.306,0.768l-0.023,2.862l-3.641-0.058l-1.212,2.718h6.826
	l1.079-2.66l-1.351-0.058l-0.022-4.455l-0.093-0.796l-0.571-0.883l-0.883-0.427h-2.4L62.678,156.469z M70.906,156.856l-1.702,2.718
	l1.051,0.473l0.899,1.362l-0.571,1.806l-0.623,1.362l1.321-1.079l1.783-1.864l0.404-1.327l-0.168-0.837l-0.565-0.744L70.906,156.856
	z M76.354,156.492l-1.339,2.147l-0.813,1.835l3.676-0.035l0.675,0.34l0.283,0.791v2.839l-3.641-0.058l-1.241,2.718h6.844
	l1.039-2.718l-1.333,0.058v-4.512l-0.11-0.796l-0.53-0.883l-0.912-0.427l-2.446-0.034L76.354,156.492z M90.271,156.81l-1.558,2.545
	l0.531,1.062l-0.012,1.5l-1.194-1.16l-1.241-1.356l-1.702-1.541l-0.992-0.825l-1.547,2.424c1.385,0.912,2.055,1.419,1.997,1.546
	l-0.612,1.05l-0.548,1.246l-0.185,1.356l-0.087,1.113l-0.698,1.298h3.041l0.958-2.718h-1.621l-0.046-0.877l0.484-2.066l1.183,1.154
	l1.627,1.789l1.229,1.581l1.206,1.587l1.327-2.377l-2.06-2.539l1.338-1.252l0.566-1.35l-0.688-2.141L90.271,156.81z M99.706,153.867
	l-1.788,2.401l0.438,1.24l-0.058,2.291l0.709,0.675h3.307c0.531,1.442,0.358,2.129-0.081,2.573l-1.229,0.843l-1.299,0.404
	l-1.823,3.26l1.125-0.404l2.233-0.958l1.985-1.535l1.097-2.008l0.449-2.095l0.156-1.321l-0.214-1.039l-0.617-0.462l-3.958,0.023
	l-0.035-2.256l-0.127-1.252L99.706,153.867z M108.143,156.492l-1.264,2.043l-0.889,1.904h1.668l0.923,3.912l-1.656,0.035
	l-1.159,2.683h3.687l0.981-2.493l-0.849-4.137h3.013l0.756,0.375l0.271,0.698v6.007l1.702-1.835l-0.035-5.788l-0.167-0.796
	l-0.531-0.658l-0.651-0.531l-0.745-0.156h-4.512L108.143,156.492z M73.705,102.966l-18.223,12.908v13.918h-4.455v-12.089
	c-11.004,3.762-20.987,5.176-22.539,5.436v6.653h-5.135v-6.63L0.046,123.14L0,147.733l2.124,0.213
	c4.478,0.779,7.409,3.78,9.175,8.188l-0.063,95.748c1.552,9.325,9.302,18.662,18.131,21.201c4.218,1.194,21.639,4.218,23.22,4.506
	c5.638,0.993,9.868,2.753,14.172,6.319c3.26,3.122,4.195,7.882,6.099,11.466c1.898-3.63,4.253-8.39,7.49-11.425
	c5.482-4.622,11.051-5.367,19.296-7.034c7.779-1.622,12.188-2.164,18.085-3.854c8.84-2.516,16.475-11.83,18.056-21.125v-95.748
	c1.927-5.13,5.557-8.321,11.31-8.454v-24.57h-23.364v6.63h-5.199l0.081-6.688c-0.484-0.058-1.807-0.26-3.699-0.588
	c-4.218-0.745-11.31-2.199-18.903-4.813l-0.023,12.118l-4.362-0.029l-0.023-13.918L73.705,102.966z M29.85,267.982
	c-6.82-2.106-12.279-9.492-13.912-16.192l-0.035-95.546c-0.283-3.808-3.993-8.13-3.993-8.13h123.082c0,0-3.745,4.351-4.057,8.13
	v95.546c-1.662,6.723-7.109,14.12-13.964,16.192c-5.604,1.76-10.635,2.752-17.219,3.947c-7.969,1.368-20.491,4.876-25.396,11.333
	h-1.847c-4.229-5.499-13.896-9.504-21.697-10.889C49.539,272.154,33.964,269.292,29.85,267.982 M45.661,135.183h14.737v-17.017
	l13.261-9.002l12.821,9.025v16.994h14.784v-10.341c6.313,1.76,12.337,3.053,12.337,3.053v7.265l15.142,0.046l0.104-6.948
	l13.035,0.023l-0.104,14.512L5.089,142.828l-0.069-14.547h13l0.092,6.901H33.22v-7.312c0,0,6.07-1.269,12.395-3.029L45.661,135.183z
	"/>
<path fill="#F58220" d="M1094.11,366.903c-0.15-2.856-0.416-5.458-0.682-8.246l-39.492,4.512c0.162,1.87,0.347,3.733,0.45,5.638
	L1094.11,366.903z"/>
<path fill="#F58220" d="M1125.097,583.829c3.013-3.116,7.952-8.655,10.779-11.91l-50.364-44.04c-2.238,2.539-6.14,6.878-8.459,9.302
	L1125.097,583.829z"/>
<path fill="#F58220" d="M660.997,479.397c-2.395-5.874-4.501-11.599-6.463-17.669l-39.412,13.122
	c2.222,6.705,4.917,13.93,7.554,20.416l35.274-14.564"/>
<path fill="#F58220" d="M1179.881,288.369c-1.881-5.678-3.543-10.213-5.759-15.742l-31.61,12.51
	c1.847,4.576,3.439,9.065,5.021,13.768L1179.881,288.369z"/>
<path fill="#F58220" d="M915.044,704.199c16.606,0,30.433-1.27,46.359-3.646l-5.909-39.089c-14.126,2.135-25.852,3.059-40.831,3.243
	L915.044,704.199z"/>
<path fill="#F58220" d="M674.846,568.803c-3.854-4.766-7.582-9.637-11.113-14.645l-34.028,24.616
	c4.011,5.586,8.107,11.171,12.458,16.526L674.846,568.803z"/>
<path fill="#F58220" d="M1256.661,353.28c-0.473-7.057-1.153-14.017-2.042-20.953l38.453-4.881
	c1.073,8.119,2.204,15.822,2.735,24.108L1256.661,353.28z"/>
<path fill="#F58220" d="M1104.012,441.994c-6.463,19.1-15.729,36.918-27.247,52.995l-48.68-35.223
	c8.067-11.287,14.588-23.936,19.089-37.323L1104.012,441.994z"/>
<path fill="#F58220" d="M937.49,72.978l1.916-22.175c5.724,0.485,11.356,1.102,17.011,1.858l0.601,0.104v-0.173l1.5-12.729
	c-15.142-2.065-30.583-3.116-46.255-3.116c-16.076,0-31.853,1.096-47.317,3.26l5.251,34.813c13.733-1.893,27.778-2.896,42.066-2.896
	c8.447,0,16.85,0.381,25.136,1.056H937.49z"/>
<path fill="#F58220" d="M831.339,453.788c7.455,7.871,16.364,14.818,25.805,20.266l-15.28,26.844
	c-11.794-6.821-23.37-15.753-32.729-25.528L831.339,453.788z"/>
<path fill="#F58220" d="M988.858,257.07c2.942,1.893,5.828,3.912,8.644,6.03l45.009-59.741c-4.339-3.318-8.344-6.082-12.948-9.054
	L988.858,257.07z"/>
<path fill="#F58220" d="M791.766,586.46l-17.208,28.171c6.625,3.843,13.41,7.409,20.37,10.721l3.52-7.456
	c9.278,4.386,19.1,8.333,28.909,11.645l-2.596,7.79c13.514,4.57,27.997,8.102,42.4,10.525l5.424-32.568
	C844.265,610.558,815.735,600.263,791.766,586.46"/>
<polygon fill="#00B3F0" points="286.753,238.859 265.934,238.79 265.721,318.369 246.539,318.323 246.719,238.778 225.882,238.686 
	225.904,222.967 286.794,223.048 "/>
<polygon fill="#00B3F0" points="351.589,238.767 317.515,238.743 317.492,261.115 349.553,261.138 349.518,276.926 317.492,276.926 
	317.457,302.546 352.864,302.581 352.818,318.346 298.242,318.311 298.346,222.921 351.589,222.979 "/>
<polygon fill="#00B3F0" points="365.802,223.025 385.006,222.99 385.046,302.558 419.103,302.558 419.103,318.346 365.802,318.369 
	"/>
<path fill="#00B3F0" d="M86.256,399.662l-9.204-42.874h-0.248l-9.232,42.874H86.256z M88.817,340.268l25.165,95.309l-20.035-0.035
	l-4.396-20.115l-25.35-0.023l-4.42,20.116l-20.006-0.035l25.314-95.24L88.817,340.268z"/>
<polygon fill="#00B3F0" points="149.055,410.741 149.493,410.741 163.688,340.325 183.562,340.354 161.582,435.623 136.896,435.6 
	115.102,340.256 135.656,340.279 "/>
<polygon fill="#00B3F0" points="194.86,340.354 214.087,340.354 213.994,435.623 194.779,435.623 "/>
<polygon fill="#00B3F0" points="259.373,410.868 259.788,410.868 273.966,340.389 293.822,340.435 271.877,435.692 247.169,435.692 
	225.386,340.366 245.974,340.366 "/>
<polygon fill="#00B3F0" points="173.861,494.135 174.109,494.135 187.382,457.366 208.108,457.343 183.585,515.023 183.648,552.416 
	164.502,552.438 164.479,515.093 139.776,457.458 161.334,457.412 "/>
<path fill="#00B3F0" d="M250.891,516.57l-9.244-42.747h-0.226l-9.146,42.77L250.891,516.57z M253.349,457.296l25.263,94.992
	l-19.937,0.035l-4.455-20.058l-25.239,0.023l-4.409,20.058l-19.937,0.046l25.044-95.026L253.349,457.296z"/>
<polygon fill="#00B3F0" points="341.531,457.227 341.531,472.923 307.625,472.98 307.659,495.266 339.569,495.219 339.581,510.903 
	307.683,511.007 307.723,552.242 288.577,552.265 288.467,457.273 "/>
<path fill="#00B3F0" d="M371.076,521.267c0.282,4.535,0.935,8.159,1.841,10.929c0.969,2.805,2.296,4.801,4.021,6.128
	c1.737,1.281,3.97,1.927,6.826,1.927c2.839-0.023,5.107-0.669,6.867-1.95c1.69-1.304,3.018-3.335,3.958-6.105
	c0.924-2.816,1.518-6.417,1.835-10.963c0.271-4.42,0.462-9.868,0.462-16.215c0-6.405-0.214-11.806-0.484-16.238
	c-0.347-4.409-0.981-8.079-1.904-10.86c-0.912-2.874-2.233-4.939-3.981-6.221c-1.726-1.258-3.993-1.916-6.855-1.916
	c-2.799,0-5.084,0.658-6.81,1.916c-1.725,1.316-3.058,3.393-3.958,6.221c-0.946,2.804-1.559,6.474-1.864,10.883
	c-0.323,4.432-0.438,9.879-0.438,16.226C370.591,511.411,370.77,516.824,371.076,521.267 M352.414,485.179
	c0.641-6.047,2.118-11.275,4.34-15.626c2.268-4.316,5.528-7.709,9.758-10.179c4.258-2.401,9.977-3.67,17.149-3.67
	c7.195-0.023,12.868,1.201,17.149,3.647c4.265,2.4,7.513,5.793,9.781,10.156c2.273,4.328,3.739,9.532,4.385,15.626
	c0.676,6.036,1.027,12.695,1.051,19.85c0,7.271-0.341,13.941-0.993,19.965c-0.646,6.024-2.089,11.218-4.356,15.557
	c-2.256,4.316-5.511,7.674-9.764,9.948c-4.264,2.377-9.937,3.508-17.108,3.508c-7.19,0-12.909-1.131-17.173-3.439
	c-4.229-2.296-7.484-5.643-9.775-9.948c-2.268-4.363-3.722-9.544-4.408-15.557c-0.658-6.047-0.981-12.683-1.004-19.919
	C351.422,497.874,351.763,491.272,352.414,485.179"/>
<path fill="#00B3F0" d="M704.321,357.63c0.427-4.645,0.992-9.232,1.73-13.745l65.645,10.15c-0.566,3.312-0.958,6.076-1.27,9.44
	L704.321,357.63z"/>
<path fill="#00B3F0" d="M1114.733,376.679l-0.046,0.381c0,7.415-0.438,14.778-1.235,21.968l-59.643-6.821
	c0.554-5.078,0.797-9.902,0.797-15.147v-0.652L1114.733,376.679z"/>
<path fill="#00B3F0" d="M1038.507,311.15c-5.713-10.802-12.66-20.836-20.854-29.792l55.742-49.862
	c12.418,13.71,22.989,29.014,31.633,45.534L1038.507,311.15z"/>
<path fill="#00B3F0" d="M767.138,538.659c-15.685-14.08-29.279-30.41-40.313-48.459l-41.962,25.563
	c6.128,10.018,12.764,19.435,20.104,28.483l14.241-11.564c0,0,6.371,8.194,14.138,16.042c7.732,7.836,13.146,12.822,13.146,12.822
	L767.138,538.659z"/>
<path fill="#00B3F0" d="M1008.916,169.395c9.129,4.218,18.639,9.631,27.04,15.009l-39.931,61.726
	c-6.209-3.97-11.668-7.045-18.396-10.15L1008.916,169.395z"/>
<path fill="#00B3F0" d="M1135.172,479.824c-6.267,13.087-12.729,25.851-26.082,43.843l-15.788-11.737
	c12.257-16.365,18.662-29.036,24.017-40.346L1135.172,479.824z"/>
<path fill="#00B3F0" d="M952.366,640.356c-13.099,1.974-26.509,2.989-40.127,2.989h-0.577l0.277-36.665
	c11.379,0,23.809-1.2,34.737-2.839L952.366,640.356z"/>
<path fill="#00B3F0" d="M1141.716,306.066c1.327,4.507,2.724,9.019,3.785,13.589l33.318-8.056
	c-1.166-5.153-2.712-10.473-4.189-15.528L1141.716,306.066z"/>
<path fill="#00B3F0" d="M972.459,101.858c-3.89-0.813-9.902-1.806-13.78-2.458l-5.724,33.064c3.601,0.606,8.933,1.691,12.487,2.458
	L972.459,101.858z"/>
<path fill="#00B3F0" d="M1225.179,377.06c0,5.522-0.115,11.143-0.381,16.601l-33.122-1.893c0.196-4.87,0.335-9.959,0.335-14.853
	L1225.179,377.06z"/>
<path fill="#00B3F0" d="M868.177,714.598c-13.41-1.72-21.559-3.22-35.246-6.475l4.871-20.819c13.109,3.174,21.396,4.362,33.099,6.14
	L868.177,714.598z"/>
<path fill="#00B3F0" d="M726.041,46.221c-8.887,5.008-17.369,10.236-25.794,15.955l29.325,43.451
	c7.294-4.928,14.553-9.417,22.25-13.756L726.041,46.221z"/>
<path fill="#00B3F0" d="M1009.4,4.045c-5.781-1.518-11.528-2.793-17.392-4.045l-8.24,38.488c5.136,1.09,10.595,2.533,15.673,3.843
	L1009.4,4.045z"/>
<path fill="#00B3F0" d="M1242.513,267.982c-2.354-7.115-4.017-12.66-6.74-19.584l50.803-19.983
	c2.885,7.161,5.862,15.043,8.332,22.406L1242.513,267.982z"/>
<path fill="#00B3F0" d="M1051.824,348.883c-0.588-2.955-1.35-6.33-2.135-9.192l-29.913,7.836c0.738,2.597,1.338,5.222,1.869,7.894
	L1051.824,348.883z"/>
<path fill="#00B3F0" d="M767.934,453.373l-16.55,9.187c3.624,6.717,7.802,13.618,12.188,19.781l32.406-23.035
	c-4.894-6.855-9.024-13.987-12.625-21.65l-18.835,8.979L767.934,453.373z"/>
<path fill="#00B3F0" d="M802.764,286.038c7.213-8.736,15.396-16.405,24.501-23.208l18.522,24.743
	c-6.993,5.199-13.583,11.391-19.134,18.062L802.764,286.038z"/>
<path fill="#BED747" d="M761.009,58.154c4.225-2.02,12.188-5.447,16.504-7.288l15.314,36.602
	c-3.751,1.604-10.952,4.928-14.634,6.647L761.009,58.154z"/>
<path fill="#BED747" d="M839.556,499.524c-4.985-3.058-7.225-4.512-10.617-6.97l-43.359,60.854
	c4.443,3.22,9.706,6.717,16.169,10.675L839.556,499.524z"/>
<path fill="#BED747" d="M856.544,246.049c2.319-1.004,4.813-1.985,7.189-2.862l-7.167-19.573c-2.724,0.993-5.378,2.095-8.078,3.208
	L856.544,246.049z"/>
<path fill="#BED747" d="M708.753,330.129c0.83-3.664,1.777-7.288,2.804-10.895l63.855,18.09c-0.601,2.129-1.339,4.974-1.847,7.161
	L708.753,330.129z"/>
<path fill="#BED747" d="M946.77,603.749c9.105-1.396,23.981-4.731,34.898-8.182l11.079,35.396
	c-13.018,4.131-26.658,7.34-40.45,9.394L946.77,603.749z"/>
<path fill="#BED747" d="M706.468,222.223c-1.939,2.562-3.14,4.322-5.009,6.948l26.059,18.102c1.708-2.406,2.747-3.647,4.501-5.978"
	/>
<path fill="#BED747" d="M818.736,655.244c-12.499-4.201-21.12-8.021-31.818-12.764l11.553-24.582
	c9.278,4.409,19.1,8.333,28.909,11.645L818.736,655.244z"/>
<path fill="#BED747" d="M664.806,392.714c-0.317-5.17-0.508-10.387-0.508-15.609v-0.6l-35.869,0.139
	c0,6.007,0.26,12.724,0.629,18.609L664.806,392.714z"/>
<path fill="#BED747" d="M1060.653,192.771c-6.647-5.367-13.606-10.387-20.819-15.032l17.657-27.028
	c7.871,5.061,15.441,10.473,22.712,16.348L1060.653,192.771z"/>
<path fill="#BED747" d="M730.772,590.096c-13.087-11.183-25.517-23.877-36.342-37.265l24.801-20.15
	c9.637,11.956,20.555,23.22,32.245,33.203L730.772,590.096z"/>
<path fill="#BED747" d="M834.063,63.284c5.747-1.414,11.54-2.695,17.438-3.814l7.49,38.76c-5.136,1.004-10.294,2.118-15.372,3.381
	L834.063,63.284z"/>
<path fill="#BED747" d="M1201.335,427.244l46.256,8.056c-3.971,23.035-12.152,54.496-25.286,82.286l-15.36-6.901l6.324-14.911
	l-27.998-11.103C1192.495,466.344,1197.919,447.141,1201.335,427.244"/>
<path fill="#EF4130" d="M931.662,267.249c7.467,1.298,14.53,3.341,21.385,6.047l11.703-28.586
	c-8.748-3.653-19.112-6.382-27.536-7.836L931.662,267.249z"/>
<path fill="#EF4130" d="M764.472,446.61c-0.773-1.673-2.031-4.524-3.578-8.379l-56.711,23.37c1.546,3.797,3.277,7.848,4.997,11.529
	l55.338-26.498"/>
<path fill="#EF4130" d="M706.133,343.885c0.728-4.726,1.639-9.134,2.689-13.768l64.789,14.368c-0.784,3.214-1.431,6.244-1.962,9.585
	L706.133,343.885z"/>
<path fill="#EF4130" d="M751.546,243.798c10.548-12.701,22.735-24.236,35.973-34.103l39.711,53.087
	c-8.932,6.734-17.38,14.663-24.466,23.255L751.546,243.798z"/>
<path fill="#EF4130" d="M867.068,173.272c-5.228,1.171-10.144,2.377-15.21,3.947l19.181,63.578c2.089-0.635,4.442-1.322,6.589-1.864
	l0.878-0.225c1.65-0.393,1.881-0.485,2.908-0.698L867.068,173.272z"/>
<path fill="#EF4130" d="M1027.773,590.384c9.983-5.424,19.446-11.587,28.54-18.28l-23.646-32.303
	c-7.421,5.47-15.753,10.768-23.924,15.199L1027.773,590.384z"/>
<path fill="#EF4130" d="M1126.101,449.61c1.57-4.547,3.116-9.394,4.352-14.08l39.054,10.548c0,0-3.208,11.171-5.078,16.642
	L1126.101,449.61z"/>
<path fill="#EF4130" d="M1148.524,362.483c-0.346-6.272-0.923-10.86-1.742-17l34.114-4.293c0.9,6.959,1.362,12.124,1.72,19.227
	L1148.524,362.483z"/>
<path fill="#EF4130" d="M699.809,272.598c1.904-3.814,3.728-7.334,5.805-11.062l-33.122-18.327
	c-2.319,4.126-4.686,8.581-6.785,12.811L699.809,272.598z"/>
<path fill="#EF4130" d="M917.986,160.001c4.663,0.092,11.91,0.652,16.526,1.004l3.636-34.836
	c-5.528-0.461-13.515-1.079-19.135-1.194L917.986,160.001z"/>
<path fill="#44C8F5" d="M919.071,124.963c-3.197-0.086-14.172-0.19-24.535,0.565l2.585,34.992c5.793-0.427,7.051-0.542,12.925-0.542
	h7.94L919.071,124.963z"/>
<path fill="#EF4130" d="M1080.942,211.172c-6.383-6.509-13.157-12.631-20.266-18.39l19.526-25.713
	c8.333,6.653,16.227,13.78,23.682,21.345L1080.942,211.172z"/>
<path fill="#EF4130" d="M1177.861,575.266c4.051-5.297,6.763-8.806,10.456-14.357l-31.783-21.281
	c-3.313,4.939-5.517,8.102-9.129,12.833L1177.861,575.266z"/>
<path fill="#EF4130" d="M1191.825,254.722c-2.688-6.123-5.4-11.864-8.436-17.773l43.981-22.539
	c3.301,6.313,7.179,13.947,10.063,20.514L1191.825,254.722z"/>
<path fill="#EF4130" d="M1062.062,116.573c-14.634-8.465-28.853-15.072-44.894-21.062l13.999-37.438
	c17.796,6.653,34.726,14.605,50.976,23.964L1062.062,116.573z"/>
<path fill="#EF4130" d="M619.698,203.019c6.191-10.341,13.307-20.929,20.49-30.548l-31.339-23.555
	c-8.407,11.085-15.684,22.146-22.833,34.085L619.698,203.019z"/>
<path fill="#EF4130" d="M821.067,441.278c-9.429-13.364-15.938-28.621-18.777-45.401l-30.34,5.863
	c3.692,21.039,12.163,40.762,24.004,57.542L821.067,441.278z"/>
<path fill="#EF4130" d="M1051.882,348.883c1.836,9.157,2.747,17.848,2.747,27.547c0,5.113-0.3,10.802-0.819,15.776l-30.641-3.508
	c0.393-3.739,0.565-7.94,0.565-11.795c0-7.397-0.681-14.5-2.043-21.483L1051.882,348.883z"/>
<path fill="#EF4130" d="M1179.984,189.095c2.759,3.912,5.355,7.755,7.917,11.783l-33.353,21.166
	c-2.158-3.335-4.72-7.149-7.052-10.375L1179.984,189.095z"/>
<path fill="#BED747" d="M1179.984,189.095l2.297,3.347l0.023-0.023l10.837-7.496c-4.905-7.49-12.557-17.559-18.062-24.045
	l-30.341,24.767c4.894,5.932,9.648,11.875,14.068,18.153L1179.984,189.095z"/>
<path fill="#0072BC" d="M997.918,305.668c-9.498-11.229-21.696-21.027-34.899-27.796l14.38-27.392
	c15.326,7.871,30.444,18.938,44.386,35.724L997.918,305.668z"/>
<path fill="#0072BC" d="M729.965,259.055c-6.325,9.729-11.934,20.023-16.665,30.75l96.965,41.921
	c2.47-5.603,5.229-10.542,8.541-15.591L729.965,259.055z"/>
<path fill="#0072BC" d="M1112.656,273.146c2.169,4.155,4.386,8.73,6.289,13.058l-57.461,24.888
	c-1.385-3.133-2.954-6.439-4.547-9.504L1112.656,273.146z"/>
<path fill="#0072BC" d="M1166.205,457.112c-0.646,2.066-1.27,4.074-1.777,5.609l-27.963-9.671c-1.374,3.786-3.035,8.31-4.005,10.733
	l31.771,12.58c1.627-4.108,4.789-13.814,6.197-18.027L1166.205,457.112z"/>
<path fill="#0072BC" d="M706.468,222.223c5.101-6.711,8.967-11.333,14.634-17.577l23.612,21.218
	c-5.009,5.482-8.171,9.533-12.695,15.43L706.468,222.223z"/>
<path fill="#0072BC" d="M655.907,327.365c0.601-3.249,0.935-5.049,1.65-8.24l-20.641-4.691c-2.354,10.306-4.079,19.775-5.263,30.467
	l21.241,2.314C653.64,340.516,654.655,333.897,655.907,327.365"/>
<path fill="#0072BC" d="M956.383,52.649c7.859,1.084,15.684,2.423,23.37,4.039l-8.171,38.633
	c-11.634-2.441-23.521-4.207-35.638-5.188l3.462-39.343C945.107,51.275,950.739,51.893,956.383,52.649"/>
<path fill="#0072BC" d="M956.383,52.649c7.859,1.084,15.684,2.423,23.37,4.039l-8.171,38.633
	c-11.634-2.441-23.521-4.207-35.638-5.188l3.462-39.343C945.107,51.275,950.739,51.893,956.383,52.649"/>
<path fill="#0072BC" d="M1191.825,254.722c-1.5-3.439-3.023-6.763-4.616-10.058l-12.464,6.215c1.27,2.932,5.955,13.145,7.167,16.123
	l36.642-14.668c-0.554-1.419-1.916-4.455-3.393-7.727L1191.825,254.722z"/>
<path fill="#0072BC" d="M928.777,487.349c-5.112,0.762-11.691,1.247-17,1.304l0.139,30.825c7.04,0,14.876-0.623,21.685-1.616
	L928.777,487.349z"/>
<path fill="#0072BC" d="M866.515,511.93c-4.916-1.639-11.264-3.877-20.611-8.771l-36.723,72.314
	c10.109,5.147,20.646,9.602,31.506,13.364L866.515,511.93z"/>
<path fill="#0072BC" d="M985.153,140.053l6.094-20.173h-0.058c-3.497-1.062-7.34-2.089-10.883-3.012l-8.147,31.27
	c0,0,6.578,1.76,9.486,2.62c2.873,0.923,7.189,2.389,7.189,2.389l3.658-10.669C990.047,141.64,987.601,140.809,985.153,140.053"/>
<path fill="#FFCC32" d="M1225.179,377.06c0,5.522-0.115,11.062-0.381,16.578l21.2,1.315c0.323-6.047,0.462-12.279,0.462-18.298
	c0-5.989-0.508-11.333-0.831-17.276l-40.439,2.054c0.323,5.39,0.393,10.156,0.393,15.568L1225.179,377.06z"/>
<path fill="#FFCC32" d="M769.769,376.303c0-2.164,0.104-4.385,0.219-6.503c0.577-11.235,2.401-22.101,5.447-32.476l29.753,8.355
	c-2.978,10.167-4.467,19.821-4.467,30.479L769.769,376.303z"/>
<path fill="#FFCC32" d="M1054.583,376.43c0-2.597-0.069-5.043-0.22-7.623l59.966-2.943c0.196,3.561,0.312,7.202,0.312,10.791
	L1054.583,376.43z"/>
<path fill="#FFCC32" d="M767.957,453.419c-1.178-2.239-2.378-4.432-3.439-6.763l-35.431,16.965c1.523,3.163,2.759,5.632,4.432,8.69
	L767.957,453.419z"/>
<path fill="#FFCC32" d="M665.538,401.716l-0.843-8.956l28.962-1.985c0.854,14.357,3.001,28.69,6.486,42.124l-53.394,14.287
	c-3.63-13.745-6.186-28.136-7.663-42.654L665.538,401.716z"/>
<path fill="#FFCC32" d="M869.146,151.928c-13.502,2.458-25.805,5.949-38.822,11.004l-11.61-30.289
	c16.515-6.042,29.302-9.844,44.386-12.585L869.146,151.928z"/>
<path fill="#FFCC32" d="M658.775,473.73l2.297,5.724l-17.409,7.144c0,0,3.45,8.205,4.512,10.479l38.188-17.6
	c-1.373-2.955-4.64-10.872-5.874-13.896L658.775,473.73z"/>
<path fill="#FFCC32" d="M1080.942,211.172c9.024,9.158,17.253,19.025,24.708,29.544l26.74-18.13
	c-8.563-12.17-18.084-23.589-28.506-34.172L1080.942,211.172z"/>
<path fill="#FFCC32" d="M612.416,245.858c1.893-4.305,3.97-8.65,6.019-12.874l30.335,14.772c-1.858,3.774-3.699,7.732-5.378,11.598
	L612.416,245.858z"/>
<path fill="#FFCC32" d="M1213.28,495.704c-3.255,8.275-6.567,15.834-10.445,23.705l-39.135-19.527
	c3.243-6.647,6.244-13.479,8.991-20.404l38.13,15.188L1213.28,495.704z"/>
<path fill="#FFCC32" d="M1034.56,671.724c8.448-3.578,13.145-5.724,21.454-9.902l17.727,35.615c0,0-8.147,3.9-11.771,5.528
	c-3.635,1.65-12.418,5.527-12.418,5.527L1034.56,671.724z"/>
<path fill="#FFCC32" d="M702.867,670.616c-6.002-4.293-11.853-8.771-17.589-13.41l24.651-30.56
	c5.217,4.212,10.167,8.125,15.58,12.025L702.867,670.616z"/>
<path fill="#FFCC32" d="M1116.856,105.119c-4.108-3.07-8.517-6.371-12.764-9.261l-20.058,29.117
	c2.123,1.466,9.855,6.948,11.599,8.234L1116.856,105.119z"/>
<path fill="#FFCC32" d="M876.278,482.651c-6.255-2.135-13.491-5.458-19.181-8.598l-15.188,26.821
	c7.824,4.489,15.926,8.194,24.604,11.171L876.278,482.651z"/>
<path fill="#FFCC32" d="M890.704,486.564c6.971,1.362,21.004,2.065,21.004,2.065l0.139,30.803c-9.671,0-17.623-0.854-26.844-2.608
	L890.704,486.564z"/>
<path fill="#FFCC32" d="M1004.288,439.939c-1.72,2.516-3.52,4.951-5.447,7.306l23.993,19.515c2.712-3.324,4.882-6.278,7.294-9.833
	L1004.288,439.939z"/>
<path fill="#FFCC32" d="M1019.765,347.751c-0.462-1.621-0.936-3.203-1.454-4.801l29.637-9.181c0.611,1.893,1.143,3.993,1.65,5.92"/>
<path fill="#FFCC32" d="M1004.427,268.582c-2.204-1.853-4.697-3.826-7.017-5.591l45.055-59.643
	c3.463,2.603,7.514,5.719,10.791,8.535L1004.427,268.582z"/>
<path fill="#FFCC32" d="M1008.72,555.07c-19.573,10.594-39.538,17.807-66.175,22.205l-5.943-38.835c0,0,14.923-2.666,25.044-5.828
	c7.386-2.331,16.999-6.451,16.999-6.451l-21.119-47.213c4.893-2.158,9.024-4.339,13.503-7.121L987.3,498.07l9.117-6.197
	c2.251-1.593,4.017-2.978,6.151-4.743l37.923,46.521C1028.593,544.037,1008.72,555.07,1008.72,555.07"/>
<path fill="#EF4130" d="M987.3,498.07l9.164-6.197l0.092-0.069l-18.373-24.859c-2.181,1.593-4.87,3.347-7.154,4.778l1.558,2.585
	L987.3,498.07z"/>
<path fill="#8AC75B" d="M1008.454,654.297c7.444-2.62,13.388-5.043,18.547-7.167l-13.388-32.21
	c-4.559,1.87-12.118,4.767-16.815,6.371L1008.454,654.297z"/>
<path fill="#8AC75B" d="M728.787,155.488c-17.149,14.23-32.614,30.381-46.094,48.166l-31.812-23.387
	c15.309-20.324,32.942-38.783,52.493-55.009L728.787,155.488z"/>
<path fill="#8AC75B" d="M1006.458,317.376c-2.735-4.265-5.355-7.894-8.609-11.743l23.959-19.429
	c4.027,4.841,7.489,9.619,10.895,14.974L1006.458,317.376z"/>
<path fill="#8AC75B" d="M1030.37,456.997c8.91-13.122,15.396-27.744,19.527-43.509l-29.752-8.113
	c-3.289,12.568-8.771,24.339-15.938,34.726L1030.37,456.997z"/>
<path fill="#8AC75B" d="M944.322,238.374c-10.548-2.372-20.727-3.67-31.817-3.67c-6.844,0-13.561,0.41-20.104,1.321l-6.128-44.149
	c8.09-1.114,17.923-1.8,26.313-1.8c13.941,0,29.025,1.737,42.032,4.714l-10.18,43.335"/>
<path fill="#8AC75B" d="M770.98,395.369c0.97,7.628,2.493,14.749,4.616,21.985l-38.038,11.552
	c-4.755-16.295-8.472-37.461-7.294-60.583l39.723,1.725c-0.703,12.926,0.9,24.767,0.9,24.767"/>
<path fill="#00AB4E" d="M937.306,236.92c-3.15-0.554-11.541-2.256-25.112-2.256c-2.862,0-5.725,0.11-8.563,0.283l1.823,30.814
	c2.239-0.144,4.513-0.213,6.74-0.213c6.682,0,13.156,0.565,19.48,1.69L937.306,236.92z"/>
<path fill="#00AB4E" d="M859.81,278.64c7.767-4.091,16.804-7.6,25.517-9.787l-7.455-29.971
	c-12.568,3.018-22.689,7.294-32.638,12.516L859.81,278.64z"/>
<path fill="#00AB4E" d="M769.826,376.263c0,0-0.185,9.25,1.085,19.129l30.652-4.236c-0.577-4.628-0.843-10.271-0.843-15.032
	L769.826,376.263z"/>
<path fill="#00AB4E" d="M1047.22,422.443c0.992-2.955,1.893-5.932,2.643-8.956l64.074,17.461c0,0-2.492,8.829-3.992,13.099
	L1047.22,422.443z"/>
<path fill="#00AB4E" d="M801.806,530.5c-9.014-6.543-17.923-14.507-25.805-22.862l33.168-32.349
	c6.174,6.486,12.787,12.245,19.77,17.299L801.806,530.5z"/>
<path fill="#00AB4E" d="M994.363,109.516c14.229,4.362,27.986,9.833,41.143,16.307l-14.184,28.563
	c-11.587-5.695-23.67-10.491-36.191-14.333L994.363,109.516z"/>
<path fill="#00AB4E" d="M629.023,395.23l-0.277-3.347l-14.743,0.75c0.22,3.589,0.964,10.791,1.333,14.356l50.145-5.251
	c-0.323-3.093-0.536-5.932-0.698-9.105L629.023,395.23z"/>
<path fill="#00AB4E" d="M1267.464,452.126c1.408-6.67,2.839-12.925,3.831-19.757l38.8,6.151c-1.096,7.56-2.516,14.345-4.085,21.731
	L1267.464,452.126z"/>
<path fill="#00AB4E" d="M810.669,3.393c-7.502,1.997-14.876,4.265-22.182,6.734l12.476,37.144c6.602-2.21,13.272-4.252,20.023-6.093
	L810.669,3.393z"/>
<path fill="#00AB4E" d="M928.8,487.349c5.736-0.854,11.771-2.285,17.15-3.993l15.66,49.279c-8.31,2.631-16.146,4.593-25.009,5.851
	L928.8,487.349z"/>
<path fill="#00AB4E" d="M856.659,245.985c-3.717,1.587-7.895,3.514-11.426,5.378l-21.166-39.458
	c4.594-2.458,10.271-5.118,15.084-7.161L856.659,245.985z"/>
<path fill="#00AB4E" d="M953.832,240.832c-3.023-0.917-6.358-1.806-9.486-2.539l15.938-67.952c4.697,0.779,9.96,2.106,14.276,3.958
	L953.832,240.832z"/>
<path fill="#00AB4E" d="M1195.288,90.831l-25.066,25.147c-6.395-6.342-12.303-11.766-19.135-17.628l23.196-26.85
	C1184.924,80.514,1195.288,90.831,1195.288,90.831"/>
<path fill="#00AB4E" d="M786.699,111.784c-6.232,2.954-12.418,6.209-18.304,9.469l-23.104-40.877
	c6.797-3.832,13.918-7.565,21.085-10.97L786.699,111.784z"/>
<path fill="#00AB4E" d="M786.918,642.479l5.828-12.395H792.7c-2.874-1.338-7.363-3.474-10.19-4.951l-16.33,30.444
	c9.382,4.835,19.827,9.729,29.729,13.688l7.721-19.585h0.023C798.032,647.396,792.792,645.088,786.918,642.479"/>
<path fill="#44C8F5" d="M885.038,516.835c8.967,1.789,17.438,2.597,26.912,2.597c3.359,0,7.895-0.139,11.207-0.37l5.309,68.529
	c-5.425,0.427-11.114,0.946-16.643,0.946c-13.687,0-26.89-1.327-39.885-3.866L885.038,516.835z"/>
<path fill="#44C8F5" d="M777.593,137.618c-14.656,8.2-27.605,17.34-40.45,27.998l20.323,24.53
	c11.172-9.308,23.348-17.346,36.111-24.484L777.593,137.618z"/>
<path fill="#44C8F5" d="M1179.5,406.702c0.531-5.101,1.016-10.41,1.304-15.58l-32.164-1.8c-0.23,4.64-0.75,9.152-1.246,13.757
	L1179.5,406.702z"/>
<path fill="#44C8F5" d="M1132.898,618.521c-15.257,13.918-30.952,26.013-48.702,36.884l-20.681-33.653
	c15.534-9.544,29.359-20.127,42.747-32.314L1132.898,618.521z"/>
<path fill="#44C8F5" d="M1182.64,287.584c5.597,16.901,9.394,34.247,11.794,52.389l39.285-4.939
	c-2.724-20.739-7.225-40.404-13.618-59.752L1182.64,287.584z"/>
<path fill="#44C8F5" d="M665.764,256.02c-9.383,18.956-16.417,38.846-21.224,59.977l-0.041,0.196l13.059,2.983
	c-0.716,3.179-1.062,4.974-1.673,8.211l-0.11,0.744l23.988,4.478c3.992-21.12,10.848-41.305,20.046-60.012L665.764,256.02z"/>
<path fill="#44C8F5" d="M1105.951,119.527l-10.295,13.647c-1.823-1.356-3.589-2.625-5.378-3.912l-10.605,13.958
	c4.639,3.508,15.164,11.546,19.572,15.326l22.344-25.938C1117.86,129.395,1111.294,123.861,1105.951,119.527"/>
<path fill="#44C8F5" d="M1052.401,352.368c-0.923-5.436-1.65-8.551-2.804-12.7l72.384-18.967c1.661,6.295,3.093,12.764,4.234,19.25
	L1052.401,352.368z"/>
<path fill="#44C8F5" d="M871.039,240.717c-2.493,0.733-4.929,1.593-7.387,2.47l-22.504-62.372c3.393-1.217,7.271-2.521,10.71-3.572
	L871.039,240.717z"/>
<path fill="#44C8F5" d="M1027.716,517.932c5.771-4.72,11.402-10.018,16.55-15.418l-28.771-27.467
	c-4.166,4.455-8.183,8.17-12.902,12.048L1027.716,517.932z"/>
<path fill="#F58220" d="M1002.568,487.095c4.721-3.866,8.714-7.594,12.926-12.025l0.612,0.6l-22.955-21.985
	c-4.582,4.917-9.567,9.325-14.969,13.272l18.327,24.87c2.216-1.604,3.947-2.954,6.059-4.697l0.462,0.565v-0.035L1002.568,487.095z"
	/>
</svg>
