<?xml version="1.0" encoding="utf-8"?>
<!-- Generator: Adobe Illustrator 18.1.0, SVG Export Plug-In . SVG Version: 6.00 Build 0)  -->
<!DOCTYPE svg PUBLIC "-//W3C//DTD SVG 1.1//EN" "http://www.w3.org/Graphics/SVG/1.1/DTD/svg11.dtd">
<svg version="1.1" id="Layer_1" xmlns="http://www.w3.org/2000/svg" xmlns:xlink="http://www.w3.org/1999/xlink" x="0px" y="0px"
	 viewBox="0 549.6 595.3 186.9" enable-background="new 0 549.6 595.3 186.9" xml:space="preserve">
<g>
	<path fill="#007B84" d="M104.4,549.9c2.1,0,4.3,0.3,6.6,0.4c10,0.9,19.8,2.7,29.3,5.6c1.2,0.3,2.1,0.3,3.2-0.2
		c7.4-3.9,16.7,1.4,17.3,9.8c0,0.5,0.4,1.3,0.9,1.7c17.2,13.9,28.1,31.6,33.2,52.9c1.9,7.8,3,15.7,3.7,23.8
		c0.4,5.1,0.9,10.3,1.3,15.4c0.1,0.7,0.3,1.3,0.7,1.9c4.7,9,0.3,18.8-9.5,21.4c-0.5,0.1-1.1,0.7-1.4,1.2
		c-12.2,18.6-28.5,31.9-49.2,40c-7.5,2.9-15.2,4.7-23.2,5.3c-7,0.7-14.1,1-21.2,1.4c-5.6,0.3-11.1,0.7-16.6,1
		c-1.6,0.1-2.8,0.4-4.1,1.7c-3.6,3.3-7.9,4.2-12.6,2.6c-4.6-1.6-7.3-4.9-8.2-9.6c-0.2-1.3-0.8-2.1-1.9-2.9
		c-10.4-8-18.6-18-25.5-29.1c-7.4-11.7-11.9-24.5-14.9-38.1c-0.5-2.8-1-5.6-1.6-8.5c-0.1-0.4-0.4-0.9-0.8-1.1
		c-5.1-2.6-8.5-6.6-9.3-12.5c0-0.2-0.3-0.4-0.3-0.5c0-1,0-2,0-2.8c0-0.3,0.3-0.5,0.4-0.9c1.1-6.2,4.8-10.2,10.7-11.9
		c1.6-0.4,2.3-1.2,2.8-2.6c4.9-12,10.9-23.4,18.8-33.8c5.3-7,11.8-12.8,18.6-18.3c0.9-0.8,1.6-1.3,1.3-2.7c-0.2-0.8,0.1-1.6,0.3-2.4
		c1.6-5.6,8.2-8.2,13.6-5.3c0.8,0.4,1.4,0.5,2.3,0.3c8-1.9,16.2-2.8,24.4-3.2c0.8,0,1.4-0.2,2.1-0.2
		C98.4,549.9,101.4,549.9,104.4,549.9z M95.1,632.4c0.1-0.8,0.1-1.4,0.3-2.1c1.1-4.5,3.9-7.4,8.3-8.3c4.7-1,8.5,0.7,11.4,4.5
		c0.3,0.4,1,0.9,1.6,0.9c5.1,0.7,10.3,1,15.4,1.9c17.7,2.9,32.2,11.7,44.7,24.3c1.4,1.6,1.4,1.4,3.3,0.8c1.1-0.4,1.3-1,1-2
		c-0.9-2.9-1.4-6-2.5-8.9c-7.1-20.1-19.8-36.1-35.8-49.8c-11.6-9.9-25.1-16.6-39.4-21.4c-1-0.3-1.9-0.4-2.9-0.1
		c-6.3,2.3-12.8,4.3-19,7c-13.5,5.8-25.6,13.7-35.6,24.7c-6,6.9-10.9,14.1-14,22.7c-0.3,0.9-0.2,1.9-0.1,2.7
		c0.1,1.3,0.2,2.6,0.5,3.8c0.2,0.9,0.4,1.9,1,2.4c1.4,1.6,3,3.2,4.7,4.6c9.9,8.2,21,14.5,32.8,19.9c1.1,0.5,1.6,0.2,2.1-0.8
		c5.4-9.3,12.5-17.4,21-24C94.7,634.4,95.7,633.7,95.1,632.4z M110.5,727.8c2-0.1,5.2-0.2,8.3-0.5c8.6-0.9,16.8-3,24.7-6.4
		c10.9-4.8,21-10.8,28.9-19.9c4.5-5.2,7.9-10.9,9.9-17.5c0.3-1,0.1-1.3-0.8-1.6c-1.2-0.5-2.5-1.1-3.4-2c-1-0.8-2-0.9-3-0.8
		c-3.6,0.3-7,0.7-10.7,0.7c-7,0-14.1,0-21-0.5c-7.9-0.5-15.8-1.4-23.5-2.7c-16-2.6-31.4-7-46.5-13.2c-1.1-0.4-1.6-0.2-2,0.8
		c-3.8,7-6.1,14.5-6.6,22.6c-0.5,8.3,0.8,16.3,3.9,24c0.3,0.8,0.8,1.2,1.6,1.6c4.8,1.6,7.6,4.8,8.6,9.6c0.2,0.9,0.4,1.4,1.4,1.7
		C89.7,726.5,99.4,727.7,110.5,727.8z M73.1,660.9c0.7,0.3,1.1,0.5,1.6,0.7c6.7,2.5,13.5,5.2,20.3,7.6c11.1,3.8,22.6,6.2,34.2,7.1
		c6.7,0.5,13.5,0.5,20.2-0.1c7.3-0.8,14.4-2.3,21.2-4.9c0.9-0.3,1.1-0.7,1-1.6c-0.3-3-0.1-6,1.3-8.7c0.4-0.9,0.4-1.6,0-2.3
		c-5.6-11.4-14.2-19.4-25.9-24.1c-5.8-2.3-11.6-3.9-17.8-3.6c-4.1,0.2-8,1.2-11.5,3.7c-0.5,0.4-1.1,1.1-1.3,1.7
		c-2.6,7-10.8,9.5-16.9,5.1c-1.4-1-2.8-1.2-4.5-1c-2.6,0.3-5,1.4-7.1,2.9C81.6,647.9,77.3,654.2,73.1,660.9z M70.7,662.5
		c-0.3-0.2-0.5-0.3-0.8-0.4c-8.9-3.8-17.8-7.7-26.7-11.5c-4.8-2.1-9.6-3.8-14.9-4.7c-1.6-0.2-2.9-0.3-4.3,0.5
		c-1.2,0.7-2.6,1.1-3.9,1.3c-1,0.2-1.6,0.7-1.7,1.6c-2.3,6.5-2,13-0.5,19.7c1.6,7.9,4.9,15.2,8.9,22.3c3.7,6.5,8,12.5,13.7,17.4
		c3.6,3.2,7.6,5.6,12.4,6.7c2.4,0.5,4.8,1,6.6-1.2c0.3-0.4,0.9-0.7,1.3-0.9c0.8-0.3,0.9-0.8,0.8-1.6c-0.2-2.1-0.4-4.2-0.4-6.4
		c0.2-5.1,0.4-10.3,1-15.4c1-8.5,3.3-16.6,7.1-24.3C69.6,664.6,70.2,663.5,70.7,662.5z M192.6,654c0.2-0.5,0.3-1,0.4-1.3
		c1.6-6.5,2.3-13.1,2.1-19.9c-0.2-8.6-2-16.9-5-24.9c-3.7-9.5-8.5-18.5-15.8-25.7c-4.1-4-8.8-7.3-14.4-9.1c-0.7-0.2-1.3-0.4-2,0.2
		c-4.7,4.9-11.6,5.1-16.7,0.7c-0.9-0.8-2-1.6-3-2.1c-4.5-2.3-9.3-3.2-14.4-3.2c-3.8,0-7.6,0.4-11.4,0.8c-1.7,0.2-3.3,0.7-5.1,1
		c0.3,0.4,0.7,0.5,1,0.8c5.4,2.6,10.8,5,16.2,7.8c11.4,6,20.8,14.4,29.6,23.5c13.9,14.5,25.4,30.8,34.4,48.9
		C189.5,653.2,190.7,653.8,192.6,654z M99.1,571.1c-0.4-0.2-0.7-0.3-0.8-0.3c-4.9-1.1-9.6-2.5-14.5-3.3c-4-0.7-8.2-0.8-12.2-1.1
		c-1.3-0.1-2.5,0.3-3.6,1.2c-3.3,2.7-8,2.8-11.6,0.2c-0.9-0.7-1.7-0.8-2.7-0.5c-3.3,0.8-6.4,2.4-9.1,4.5c-4.6,3.3-8.3,7.5-11.7,11.9
		c-5.8,7.7-10.3,15.8-11.4,25.5c-0.3,2.9-0.1,5.8,0.7,8.5c0.2,1.1,1.2,1.4,2,1.6c0.3,0.1,0.9-0.5,1.2-0.9c3.4-3.6,6.7-7.3,10.3-10.7
		c18-16.7,38.6-28.9,62.2-36.1C98.3,571.5,98.6,571.3,99.1,571.1z M101.2,550.8c-6.4,0-11.8,0.4-17.2,1.7c-4.2,1-8.3,2.5-12,5
		c-1.1,0.7-0.7,1.6-0.5,2.4c0.1,0.9,0.5,1,1.2,1.1c10.5,1.7,20.6,4.7,30.6,8.2c1,0.3,2.1,0.3,3.2,0.2c4.9-0.8,9.8-1.6,14.8-2.4
		c5.1-0.8,10.3-1.4,15.4-2.1c0.3,0,0.9-0.3,1-0.7c0.4-1.3,0.3-2.5-0.8-3.7c-2.9-2.9-6.4-4.7-10.2-6.1
		C117.9,551.6,109.2,551,101.2,550.8z"/>
	<path fill="#007B84" d="M491.7,617.3c3.3,6.4,6.6,12.8,10,19.2c3.3,6.4,6.7,12.8,10.2,19.4c-2.5,0-4.7,0-7,0
		c-0.3,0-0.7-0.5-0.9-0.9c-5.8-11.3-11.7-22.6-17.5-33.9c-0.5-1.1-1.1-2.1-1.7-3.3c-0.3-0.4-0.9-0.9-1.4-0.9c-7,0-14.1,0-21-0.1
		c-1.1,0-1.3,0.4-1.3,1.4c0,3.2,0,6.3,0,9.5c0,8.8,0,17.6,0,26.3c0,1.3-0.4,1.7-1.7,1.6c-1.4-0.1-2.4,0-4.6,0c0-28,0-55.9,0-83.9
		c1.1,0,0.9-0.1,1.2-0.1c11.1,0,22.1-0.2,33.1,0.1c7.8,0.2,14.5,3.3,18.8,10.3c2.8,4.6,3.4,9.6,2.9,14.9c-0.4,4.8-2,9-5.2,12.6
		c-3.4,3.9-7.9,6-12.9,7c-0.2,0-0.5,0.1-0.8,0.2C491.9,617.1,491.9,617.2,491.7,617.3z M461.1,594.4c0,5.2,0,10.4,0,15.6
		c0,1.3,0.4,1.7,1.7,1.7c7.4-0.1,14.9,0,22.3,0c2,0,4-0.1,6-0.4c6.9-1,11.7-5.2,13.2-11.7c0.9-3.4,0.8-7-0.1-10.5
		c-1.2-4.7-4-7.9-8.3-9.9c-2.7-1.2-5.6-1.7-8.6-1.7c-8.2-0.1-16.3,0-24.4-0.1c-1.3,0-1.6,0.4-1.6,1.6
		C461.3,584.1,461.1,589.2,461.1,594.4z"/>
	<path fill="#007B84" d="M418,617.2c6.7,12.9,13.5,25.7,20.3,38.8c-2.5,0-4.7,0-6.9,0c-0.3,0-0.7-0.4-0.9-0.9
		c-5.4-10.5-10.8-21-16.4-31.4c-1-1.9-2-3.6-2.8-5.4c-0.3-0.8-0.8-1-1.6-1c-7,0-14,0-21,0c-1.2,0-1.3,0.5-1.3,1.6
		c0,11.8,0,23.6,0,35.6c0,0.5,0,1.1,0,1.7c-2.1,0-3.7,0-5.6,0c-0.2,0-0.7-0.4-0.8-0.7c-0.1-0.3-0.2-0.8-0.2-1.2
		c0-26.7,0-53.5,0-80.2c0-2,0.2-2,2.1-2c10.7,0,21.5-0.2,32.2,0.1c8.9,0.2,17.4,4.6,20.4,13.5c3,8.8,2.4,17.4-4,24.7
		c-3.3,3.8-7.7,5.8-12.6,6.7C418.8,617,418.6,617,418,617.2z M387.5,611.5c1.1,0,1.3,0.1,2,0.1c7.6,0,15.2,0,22.8,0
		c2.1,0,4.3-0.2,6.4-0.7c6.1-1.4,10.3-5,11.9-11.2c0.8-2.9,0.9-5.8,0.3-8.8c-0.9-5-3.3-9-7.9-11.4c-3-1.6-6.2-2.1-9.5-2.1
		c-8.2-0.1-16.3,0-24.4-0.1c-1.2,0-1.6,0.4-1.6,1.6c0,10.4,0,21,0,31.4C387.5,610.6,387.5,611,387.5,611.5z"/>
	<path fill="#007B84" d="M361.5,650.9c0,2.1,0,3.3,0,5.1c0,0-0.9,0.1-1.4,0.1c-16.1,0-32,0-48,0c-1.3,0-1.6-0.4-1.6-1.6
		c0-26.9,0-54,0-80.9c0-1.2,0.3-1.7,1.6-1.7c16,0,31.9-0.1,47.9-0.1c0.4,0,0.4,0,1.6,0c0,2.1,0,4.3,0,5.4c-1.1,0-1.2,0-1.7,0
		c-13.8,0-27.6,0.1-41.2,0.1c-1.7,0-1.6,0.1-1.6,1.7c0,10,0.1,20.2,0.1,30.2c0,0.4,0,1.6,0,1.6c11.9,0,24.9,0,38,0
		c0,2.1,0,3.3,0,5.4c-1.1,0-1.4,0-2,0c-11.5,0-23.1,0-34.6,0c-1.6,0-1.7,0.1-1.7,1.9c0,10.3,0,20.6,0,30.9c0,1.3,0.3,1.9,1.6,1.9
		c13.8,0,27.6,0.1,41.2,0.1C360.2,650.9,360.4,650.9,361.5,650.9z"/>
	<path fill="#007B84" d="M594.3,655.9c-2.1,0-4.1,0.1-6.1,0c-0.3,0-0.8-0.7-1-1.2c-2.1-6.1-4.5-12.3-6.6-18.3
		c-6.5-18.2-13-36.4-19.4-54.7c-0.1-0.4-0.3-0.8-0.5-1.4c-0.3,0.8-0.5,1.2-0.7,1.6c-8.6,24.2-17.3,48.4-25.8,72.6
		c-0.4,1.2-1,1.6-2.1,1.6c-1.6-0.1-3.2,0-5,0c0.1-0.5,0.2-0.9,0.3-1.2c10-27.2,19.9-54.4,30-81.5c0.3-1,0.9-1.4,2-1.3
		c1.3,0.1,3-0.4,3.9,0.2c1,0.7,1.2,2.4,1.6,3.7c9.6,26.1,19.2,52.2,28.9,78.4C593.9,654.7,594.2,655.3,594.3,655.9z"/>
	<path fill="#007B84" d="M237.8,577c0-1.1,0-3.3,0-5.4c18.5,0,36.9,0,56.4,0c0,2.1,0,3.8,0,5.6c-1.1,0-1.3,0.1-1.7,0.1
		c-7.4,0-14.9,0-22.3,0c-1.2,0-1.7,0.3-1.7,1.6c0,25.1-0.2,50.1-0.2,75.2c0,0.5,0,1.1,0,1.9c-1.1,0-3.6,0-5.4,0
		c-0.2,0-0.2-0.4-0.2-0.8c-0.1-0.4,0.2-1,0.2-1.4c0-24.5,0-48.9,0-73.5c0-0.4-0.2-0.9-0.2-1.3c0-1.7-0.1-1.9-1.9-1.9
		c-7.3,0-14.5-0.1-21.8-0.1C238.5,577,237.8,577,237.8,577z"/>
	<path d="M424.4,698.8c0,4.8,0,9.5,0,13.8c-1.1,0-2.1,0-2.1,0c0-10.8,0-21.8,0-32.9c0,0,0.4-0.1,0.8-0.1c3.9,0,7.7-0.1,11.6,0
		c3.7,0.1,6.9,1.4,8.5,5c1.6,3.4,1.6,7-0.8,10.4c-1.6,2.4-4,3.4-6.7,3.7c-3.3,0.2-6.4,0.1-9.6,0.1
		C425.4,698.8,424.4,698.8,424.4,698.8z M424.4,696.4c3.3,0,7.6,0.2,11.3-0.1c3.7-0.3,5.8-3,6-6.9c0.1-3.8-1.7-6.9-5.3-7.4
		c-3.9-0.5-7.5-0.4-11.8-0.5C424.4,686.7,424.4,691.6,424.4,696.4z"/>
	<path d="M244.1,679.6h2.6l9.5,28.8l9.3-28.8h2.6c0,0-7.3,22.5-10.5,32.2c-0.2,0.8-0.4,1.3-1.6,1.3c-1.2,0-1.2-0.7-1.6-1.4
		C251.3,701.5,244.1,679.6,244.1,679.6z"/>
	<path d="M464.1,700.3c-0.1-1.6-0.1-2.9-0.3-4.3c-0.2-1.9-1.4-3-3.2-3.3c-3.4-0.8-6.7-0.9-9.2,2.4c-0.5-0.4-1.1-0.9-1.6-1.4
		c1-1.4,2.1-2.5,3.8-2.9c2.9-0.9,5.8-0.8,8.7,0.2c2.4,0.8,3.9,2.4,4,4.9c0.2,5.6,0.1,11.6,0.1,17c-0.8,0-1.4,0-2.1,0
		c0,0-0.1-1.1-0.1-2c-2.9,2.6-6.3,2.7-9.8,2.1c-3.3-0.4-5.2-2.6-5.3-5.8c-0.1-3.7,2.5-7,5.6-7h3.7C460,700.3,462,700.3,464.1,700.3z
		 M451.1,706.8c0,2.1,1,3.4,3,4c2.1,0.5,4.1,0.5,6.2,0c2.1-0.7,3.3-2,3.6-4.1c0.1-1.6,0-2.9,0-4.5c-2.7,0-4.8,0.1-7.9,0
		C452.2,702.2,451.1,704.5,451.1,706.8z"/>
	<path d="M288,708.4c0.5,0.4,1.1,0.9,1.6,1.3c-2.6,3.2-7.1,4.3-11.4,3c-4.2-1.3-5.8-4.7-6.2-8.6c-0.2-2.4-0.1-4.9,0.4-7.1
		c1.1-4.7,4.2-7,8.8-6.9c4.2,0.1,7.3,2.6,8.2,7.1c0.3,1.6,0.2,5.8,0.2,5.8c-5.3,0-10.2,0-15.3,0c-0.2,3.3,0.8,5.6,3.2,7
		C280.7,711.8,284.4,711.3,288,708.4z M274.5,700.8c4.5,0,8.8,0,13.1,0c0.2-5.4-2.6-8.2-6.7-8C276.9,692.8,274.2,695.3,274.5,700.8z
		"/>
	<path d="M512.3,712.7c-1.1,0-2.1,0-2.1,0c0-7.6,0-14.1,0-21.7c0,0,1.1,0,2,0c0,0,0.1,1.2,0.1,2.1c0.4-0.3,0.8-0.8,1.1-1
		c4.7-3.9,12.3-1.7,13.6,4c0.2,0.8,0.2,1.3,0.2,2.1c0,4.9,0,10.2,0,14.5c-0.8,0-1.7,0-2.8,0c0,0,0-0.7,0-1.1c0-4.2,0.3-8.5,0.2-12.8
		c0-3.3-1.2-5.4-3.6-6.2c-3.6-1.2-8.7,1-8.7,6.1c0,4.2,0.1,8.5,0.1,12.8C512.3,711.9,512.3,712.7,512.3,712.7z"/>
	<path d="M354.1,712.7c0,0-0.1-1.3-0.1-1.9c-1.6,0.8-3.3,1.7-5,2.1c-5.6,1.2-9.9-2.1-10-7.9c-0.1-4.6,0-8.9,0-13.6
		c0-0.2,0-0.5,0.1-0.5c0.8,0,1.9,0,1.9,0s0,0.4,0,0.9c0,4,0.2,8,0.2,11.9c-0.1,6.4,3.3,8.8,9.1,6.7c3.2-1.6,3.8-2.8,3.8-6.2
		c0-4.1,0-8.2,0-12.3c0-0.5,0-1.1,0-1.1c1.1,0,1.1,0,2.1,0c0,6.5,0,14.1,0,21.7C356.1,712.7,354.9,712.7,354.1,712.7z"/>
	<path d="M315.1,712.7c-0.7,0-1.3,0-2.1,0c0,0-0.1-0.9-0.1-1.4c0-4.5,0-8.8-0.1-13.2c-0.1-4-2.5-6.1-6.5-6c-3.7,0.1-6.2,3.2-6.4,6.4
		c0,4.3-0.2,8.6-0.2,12.9c0,0.4,0,1.2,0,1.2s-1.1,0-2.1,0c0-7.6,0-14.1,0-21.7c1.1,0,2.8,0,2.8,0l-0.1,2.1c0.4-0.3,0.9-0.8,1.2-1
		c3.3-2.6,8.8-2.4,11.7,0.5c1.4,1.6,2.1,3.3,2.1,5.3c0.1,4.9,0,9.5,0,14.4C315.2,712.5,315.1,712.7,315.1,712.7z"/>
	<path d="M577.4,710c0.5-0.5,1.1-1,1.6-1.6c1.7,1.6,3.8,2.6,6.1,2.6c1.7,0,3.6-0.1,5.2-0.5c2.1-0.5,3-2.4,2.8-4.5
		c-0.2-2-1.3-2.9-3.6-3.3c-1.6-0.2-3.3-0.3-4.9-0.5c-0.8-0.1-1.6-0.2-2.3-0.4c-2.1-0.7-3.6-2-3.9-4.2c-0.3-2.6,0.3-4.9,2.7-6.3
		c3.4-2,7-1.6,10.7-0.3c0.9,0.3,1.6,0.8,2.6,1.3c-0.7,0.7-1.1,1.1-1.6,1.6c-2.3-1.6-4.8-2.1-7.5-1.9c-3,0.2-4.7,1.9-4.6,4.6
		c0,1.7,1,2.9,2.9,3.3c2.1,0.4,4.2,0.5,6.3,0.8c0.4,0,0.8,0.1,1.2,0.2c2.1,0.4,3.8,1.6,4.2,3.9c0.5,2.6-0.1,5-2.4,6.5
		c-2.5,1.7-5.4,2-8.3,1.6C582,712.9,579.6,712,577.4,710z"/>
	<path d="M491.7,692v-2.1c1.1,0,2.1,0,3.3,0c0-2.1,0-6.7,0-6.7h2.5v6.6h5.1c0,0,0,1.1,0,2.1c-2.1,0-2.9,0-5.1,0c0,2.1,0,3.3,0,4.9
		c0,3.3,0.2,6.5,0.2,9.8c0,3.2,2.3,4.2,3.9,4.2c0.2,0,1,0,1,0.1c0,0.7,0,1.3,0,1.9c-4.3,0.8-7.6-1.6-7.6-6.3c0-4.8-0.1-9.2-0.1-14.6
		C493.8,692,492.8,692,491.7,692z"/>
	<path d="M332.2,710.9c0,0.7,0,1.3,0,1.9c-5.4,0.8-7.5-1.3-7.5-6.1c0-4.3-0.1-8.7-0.1-13c0-0.5,0-0.7,0-1.7c-1.1,0-2.1,0-3.3,0v-2.3
		c1.1,0,2.1,0,3.3,0c0-3.3,0-4.2,0-6.4c1.1,0,1.1,0,2.1,0c0,2.1,0,4.3,0,6.5c2.1,0,3.3,0,5.4,0c0,1.1,0,2.1,0,2.1
		c-2.1,0-3.3,0-5.4,0c0,1.1,0,1.1,0,1.6c0,4.3,0.1,8.7,0.1,13c0,3.2,1.1,4.1,4.3,4.2C331.4,710.9,331.1,710.9,332.2,710.9z"/>
	<path d="M368,712.7c-1.1,0-2.1,0-2.1,0c0-7.6,0-14.1,0-21.7c0,0,1.1,0,2.1,0c0,0,0,1.1,0,2.3c1.1-2,3.4-2.9,5.8-3.2
		c2.3-0.2,4.3,0.2,6,2.1c-0.5,0.5-1.2,1-1.6,1.4c-1.2-0.4-2.5-1.2-3.8-1.3c-3.7-0.3-6.4,2.5-6.5,6.6c0,4.2,0.1,8.5,0.1,12.6
		C368,711.9,368,712.7,368,712.7z"/>
	<path d="M477.7,712.7c-0.9,0-1.2,0-2.3,0c0-7.6,0-14.1,0-21.7c1.1,0,1.4,0,2.1,0c0,0,0.1,1.3,0.1,2.4c1.6-1.9,3.6-2.9,5.8-3
		c2.3-0.1,4.3,0.2,6.1,2.1c-0.5,0.5-1.1,1-1.6,1.3c-0.8-1.1-2-1.3-3.8-1.4c-3.6-0.2-6.5,3.4-6.6,5.8c-0.1,4.3-0.1,8.6-0.1,13
		C477.7,711.7,477.7,712.7,477.7,712.7z"/>
	<path d="M560.6,691h2.3v2.4c1.6-1.9,2.7-3,5.8-3.2c2.3-0.1,4.3,0.2,6.1,2.1c-0.5,0.5-1.1,1-1.7,1.6c-1.3-1.4-3-2-5-1.6
		c-2.9,0.4-5.1,2.8-5.2,6.1c-0.1,4.3-0.1,8.6-0.1,12.9c0,0.5,0,1.4,0,1.4c-0.8,0-2.3,0-2.3,0L560.6,691z"/>
	<path d="M550.4,708.2c0.5,0.4,1.1,0.9,1.6,1.3c-2.6,3.2-7.1,4.3-11.4,3c-4.2-1.3-5.8-4.7-6.2-8.6c-0.2-2.4-0.1-4.9,0.4-7.1
		c1.1-4.7,4.2-7,8.8-6.9c4.2,0.1,7.3,2.6,8.2,7.1c0.3,1.6,0.2,5.8,0.2,5.8c-5.3,0-10.2,0-15.3,0c0,3.9,0.8,5.2,3.2,7
		C543.1,711.5,547,711.1,550.4,708.2z M536.9,700.5c4.5,0,8.8,0,13.1,0c0.2-5.4-2.6-8.2-6.7-8C539.3,692.6,536.6,695,536.9,700.5z"
		/>
	<path d="M399.6,708.4c0.5,0.4,1.1,0.9,1.6,1.3c-2.6,3.2-7.1,4.3-11.4,3c-4.2-1.3-5.8-4.7-6.2-8.6c-0.2-2.4-0.1-4.9,0.4-7.1
		c1.1-4.7,4.2-7,8.8-6.9c4.2,0.1,7.3,2.6,8.2,7.1c0.3,1.6,0.2,5.8,0.2,5.8c-5.3,0-10.2,0-15.3,0c-0.2,3.3,0.8,5.6,3.2,7
		C392.3,711.7,396.1,711.3,399.6,708.4z M386.1,700.6c4.5,0,8.8,0,13.1,0c0.2-5.4-2.6-8.2-6.7-8
		C388.5,692.7,385.7,695.2,386.1,700.6z"/>
</g>
</svg>
