<?xml version="1.0" encoding="utf-8"?>
<!-- Generator: Adobe Illustrator 18.1.0, SVG Export Plug-In . SVG Version: 6.00 Build 0)  -->
<!DOCTYPE svg PUBLIC "-//W3C//DTD SVG 1.1//EN" "http://www.w3.org/Graphics/SVG/1.1/DTD/svg11.dtd">
<svg version="1.1" id="Layer_1" xmlns="http://www.w3.org/2000/svg" xmlns:xlink="http://www.w3.org/1999/xlink" x="0px" y="0px"
	 viewBox="0 0 300 300" enable-background="new 0 0 300 300" xml:space="preserve">
<path fill="#FFFFFF" d="M94,271.8c-34.8,0-67.1-10.2-94.3-27.7c4.8,0.6,9.7,0.9,14.7,0.9c28.8,0,55.4-9.8,76.4-26.3
	c-26.9-0.5-49.7-18.3-57.5-42.7c3.8,0.7,7.6,1.1,11.6,1.1c5.6,0,11.1-0.8,16.2-2.2c-28.2-5.7-49.4-30.5-49.4-60.4c0-0.3,0-0.5,0-0.8
	c8.3,4.6,17.8,7.4,27.9,7.7c-16.5-11-27.4-29.9-27.4-51.2c0-11.3,3-21.9,8.3-30.9c30.4,37.2,75.7,61.7,126.9,64.3
	c-1-4.5-1.6-9.2-1.6-14c0-34,27.6-61.5,61.6-61.5c17.7,0,33.7,7.5,44.9,19.4c14-2.8,27.2-7.9,39.1-14.9
	c-4.6,14.4-14.4,26.4-27.1,34.1c12.5-1.5,24.3-4.8,35.4-9.7C291.4,69.2,281,80.1,269,88.7c0.1,2.6,0.2,5.3,0.2,8
	C269.2,178,207.3,271.8,94,271.8"/>
</svg>
