<?xml version="1.0" encoding="utf-8"?>
<!-- Generator: Adobe Illustrator 18.1.0, SVG Export Plug-In . SVG Version: 6.00 Build 0)  -->
<!DOCTYPE svg PUBLIC "-//W3C//DTD SVG 1.1//EN" "http://www.w3.org/Graphics/SVG/1.1/DTD/svg11.dtd">
<svg version="1.1" id="Layer_1" xmlns="http://www.w3.org/2000/svg" xmlns:xlink="http://www.w3.org/1999/xlink" x="0px" y="0px"
	 viewBox="0 0 285.7 300" enable-background="new 0 0 285.7 300" xml:space="preserve">
<path fill="#FFFFFF" d="M238.9,206.4c-14.2,0-26.8,6.3-35.4,16.2l-111.5-60c1.1-4,1.8-8.3,1.8-12.7s-0.6-8.6-1.8-12.7l111.5-60
	c8.6,9.9,21.3,16.2,35.4,16.2c25.8,0,46.9-21,46.9-46.7c0-25.8-21-46.8-46.9-46.8C213,0,192,21,192,46.8c0,4.4,0.7,8.6,1.8,12.7
	L82.2,119.4c-8.6-9.9-21.3-16.1-35.4-16.1C21,103.3,0,124.1,0,150s21,46.7,46.8,46.7c14.1,0,26.8-6.2,35.4-16.1l111.5,59.9
	c-1.1,4-1.8,8.3-1.8,12.7c0,25.8,21,46.9,46.9,46.9c25.8,0,46.9-21,46.9-46.9C285.7,227.4,264.7,206.4,238.9,206.4z"/>
</svg>
