<?xml version="1.0" encoding="utf-8"?>
<!-- Generator: Adobe Illustrator 18.1.0, SVG Export Plug-In . SVG Version: 6.00 Build 0)  -->
<!DOCTYPE svg PUBLIC "-//W3C//DTD SVG 1.1//EN" "http://www.w3.org/Graphics/SVG/1.1/DTD/svg11.dtd">
<svg version="1.1" id="Layer_1" xmlns="http://www.w3.org/2000/svg" xmlns:xlink="http://www.w3.org/1999/xlink" x="0px" y="0px"
	 viewBox="0 388.5 1024 247" enable-background="new 0 388.5 1024 247" xml:space="preserve">
<filter  id="AI_GaussianBlur_7">
	<feGaussianBlur  stdDeviation="7"></feGaussianBlur>
</filter>
<g>
	<g opacity="0.3" filter="url(#AI_GaussianBlur_7)">
		<path d="M180.2,518.2c0,4.8-1.8,8.7-5.3,11.5c-3.5,2.9-8.3,4.2-14.6,4.2c-5.7,0-10.9-1.1-15.2-3.2v-10.6c3.6,1.7,6.6,2.7,9.2,3.5
			c2.6,0.6,4.8,1.1,6.9,1.1c2.6,0,4.4-0.5,5.7-1.5c1.4-0.9,2-2.4,2-4.2c0-1.1-0.3-2-0.9-2.9c-0.6-0.8-1.5-1.7-2.6-2.4
			c-1.2-0.8-3.5-2-6.9-3.6c-3.3-1.5-5.7-3-7.4-4.4c-1.7-1.4-3-3-3.9-5c-0.9-2-1.5-4.1-1.5-6.6c0-4.8,1.7-8.4,4.8-11.2
			c3.2-2.7,7.7-4.1,13.4-4.1c2.9,0,5.4,0.3,8,1.1c2.6,0.6,5.1,1.7,8,2.9l-3.6,8.9c-2.9-1.2-5.3-2-7.1-2.4c-1.8-0.5-3.8-0.8-5.6-0.8
			c-2.1,0-3.8,0.5-5,1.5s-1.7,2.3-1.7,3.9c0,1.1,0.3,1.8,0.8,2.6s1.2,1.5,2.3,2.1c1.1,0.6,3.5,2,7.2,3.8c5,2.4,8.4,4.8,10.4,7.2
			C179.2,511.7,180.2,514.6,180.2,518.2z"/>
		<path d="M188.5,481.4c0-3.6,2-5.4,6-5.4c4.1,0,6,1.8,6,5.4c0,1.8-0.5,3.2-1.5,4.1s-2.6,1.5-4.5,1.5
			C190.6,486.8,188.5,485,188.5,481.4z M200.3,533.1H189v-41.2h11.2v41.2H200.3z"/>
		<path d="M247.8,491.9v5.7l-6.5,1.7c1.2,1.8,1.8,3.9,1.8,6.2c0,4.4-1.5,7.8-4.7,10.3c-3,2.4-7.4,3.6-12.8,3.6l-2-0.2l-1.7-0.2
			c-1.2,0.9-1.7,1.8-1.7,3c0,1.7,2.1,2.4,6.2,2.4h6.9c4.5,0,8,0.9,10.3,2.9c2.4,2,3.6,4.8,3.6,8.6c0,4.8-2,8.6-6,11.2
			c-4.1,2.7-9.8,3.9-17.2,3.9c-5.7,0-10.1-1.1-13.1-3c-3-2-4.5-4.8-4.5-8.4c0-2.4,0.8-4.5,2.3-6.2c1.5-1.7,3.8-2.9,6.8-3.6
			c-1.2-0.5-2.1-1.4-3-2.4c-0.9-1.1-1.4-2.3-1.4-3.6c0-1.5,0.5-2.9,1.4-3.9c0.9-1.1,2.3-2.1,3.9-3c-2.1-0.9-3.9-2.4-5.1-4.5
			c-1.2-2.1-2-4.5-2-7.2c0-4.5,1.5-8,4.4-10.4c2.9-2.4,7.1-3.6,12.5-3.6c1.2,0,2.6,0.2,4.1,0.3s2.6,0.3,3,0.5h14.5V491.9z
			 M216.1,538.8c0,1.5,0.8,2.7,2.3,3.6s3.6,1.4,6.2,1.4c4.1,0,7.2-0.6,9.5-1.7c2.3-1.1,3.5-2.6,3.5-4.5c0-1.5-0.6-2.6-2-3.2
			c-1.4-0.6-3.5-0.9-6.2-0.9h-5.9c-2.1,0-3.8,0.5-5.1,1.5S216.1,537.3,216.1,538.8z M220.2,505.4c0,2.3,0.5,3.9,1.5,5.3s2.6,2,4.7,2
			s3.6-0.6,4.7-2c0.9-1.4,1.5-3,1.5-5.3c0-5-2-7.4-6-7.4C222.1,498,220.2,500.4,220.2,505.4z"/>
		<path d="M292.4,533.1h-11.2V509c0-3-0.5-5.1-1.5-6.6c-1.1-1.5-2.7-2.3-5-2.3c-3.2,0-5.4,1.1-6.8,3.2c-1.4,2.1-2.1,5.6-2.1,10.4
			V533h-11.2v-41h8.6l1.5,5.3h0.6c1.2-2,3-3.5,5.1-4.5c2.3-1.1,4.7-1.5,7.5-1.5c4.8,0,8.4,1.4,10.9,3.9c2.4,2.6,3.8,6.3,3.8,11.2
			v26.8H292.4z"/>
		<path d="M352.7,533.1l-1.5-5.3h-0.6c-1.2,2-2.9,3.3-5.1,4.4c-2.3,1.1-4.7,1.5-7.5,1.5c-4.8,0-8.4-1.4-10.9-3.9s-3.6-6.3-3.6-11.2
			v-26.7h11.2v24c0,3,0.5,5.1,1.5,6.6s2.7,2.3,5,2.3c3.2,0,5.4-1.1,6.8-3.2c1.4-2.1,2.1-5.6,2.1-10.4v-19.3h11.2v41.2H352.7
			L352.7,533.1z"/>
		<path d="M395.6,533.9c-4.8,0-8.6-1.8-11.3-5.3h-0.6c0.5,3.5,0.6,5.4,0.6,5.9v16.6h-11.2v-59.1h9l1.5,5.3h0.5c2.6-4.1,6.5-6,11.6-6
			c4.8,0,8.6,1.8,11.5,5.6c2.9,3.8,4.1,8.9,4.1,15.7c0,4.4-0.6,8.1-2,11.5c-1.4,3.2-3.2,5.7-5.4,7.4
			C401.6,533,398.9,533.9,395.6,533.9z M392.3,500.1c-2.7,0-4.8,0.9-6,2.6c-1.2,1.7-2,4.5-2,8.4v1.2c0,4.4,0.6,7.5,2,9.5
			c1.4,2,3.3,2.9,6.2,2.9c5,0,7.5-4.1,7.5-12.4c0-4.1-0.6-7.1-1.8-9S395,500.1,392.3,500.1z"/>
		<path d="M466.3,533.1l-2.1-5.6h-0.3c-2,2.4-3.8,4.1-5.9,5c-2,0.9-4.7,1.4-7.8,1.4c-3.9,0-7.1-1.1-9.4-3.3
			c-2.3-2.3-3.5-5.4-3.5-9.7c0-4.4,1.5-7.5,4.5-9.7c3-2.1,7.7-3.2,13.9-3.5l7.1-0.2v-1.8c0-4.2-2.1-6.2-6.3-6.2
			c-3.3,0-7.1,1.1-11.6,3l-3.8-7.5c4.7-2.4,10-3.8,15.7-3.8c5.6,0,9.8,1.2,12.7,3.6c2.9,2.4,4.4,6,4.4,11v27.4h-7.5V533.1z M463,514
			l-4.4,0.2c-3.3,0.2-5.7,0.8-7.2,1.8c-1.7,1.1-2.4,2.7-2.4,5c0,3.2,1.8,4.7,5.4,4.7c2.6,0,4.7-0.8,6.2-2.3s2.3-3.5,2.3-5.9V514H463
			z"/>
		<path d="M514.4,520.9c0,4.2-1.5,7.4-4.4,9.7s-7.2,3.3-13.1,3.3c-3,0-5.6-0.2-7.7-0.6s-4.1-1.1-5.9-1.8v-9.2
			c2.1,1.1,4.4,1.8,7.1,2.4c2.7,0.6,5,1.1,6.9,1.1c4.1,0,6-1.2,6-3.5c0-0.9-0.3-1.7-0.8-2.1c-0.6-0.6-1.5-1.2-2.9-1.8
			c-1.4-0.6-3-1.5-5.3-2.4c-3.2-1.4-5.4-2.6-6.9-3.6c-1.5-1.1-2.6-2.4-3.2-3.9c-0.6-1.5-1.1-3.3-1.1-5.4c0-3.6,1.4-6.5,4.2-8.4
			c2.9-2,6.8-3,12.1-3c5,0,9.8,1.1,14.5,3.2l-3.3,8.1c-2.1-0.9-3.9-1.7-5.7-2.1c-1.8-0.6-3.6-0.9-5.4-0.9c-3.3,0-5,0.9-5,2.7
			c0,1.1,0.6,1.8,1.7,2.6c1.1,0.8,3.5,1.8,6.9,3.3c3.2,1.4,5.6,2.6,7.1,3.6c1.5,1.1,2.6,2.4,3.3,3.9
			C514.4,517.4,514.4,518.8,514.4,520.9z"/>
		<path d="M568.9,533.1l-2.1-5.6h-0.3c-2,2.4-3.8,4.1-5.9,5c-2,0.9-4.7,1.4-7.8,1.4c-3.9,0-7.1-1.1-9.4-3.3
			c-2.3-2.3-3.5-5.4-3.5-9.7c0-4.4,1.5-7.5,4.5-9.7c3-2.1,7.7-3.2,13.9-3.5l7.1-0.2v-1.8c0-4.2-2.1-6.2-6.3-6.2
			c-3.3,0-7.1,1.1-11.6,3l-3.8-7.5c4.7-2.4,10-3.8,15.7-3.8c5.6,0,9.8,1.2,12.7,3.6c2.9,2.4,4.4,6,4.4,11v27.4h-7.5V533.1z
			 M565.5,514l-4.4,0.2c-3.3,0.2-5.7,0.8-7.2,1.8c-1.7,1.1-2.4,2.7-2.4,5c0,3.2,1.8,4.7,5.4,4.7c2.6,0,4.7-0.8,6.2-2.3
			s2.3-3.5,2.3-5.9V514H565.5z"/>
		<path d="M640.3,518.2c0,4.8-1.8,8.7-5.3,11.5c-3.5,2.9-8.3,4.2-14.6,4.2c-5.7,0-10.9-1.1-15.2-3.2v-10.6c3.6,1.7,6.6,2.7,9.2,3.5
			c2.6,0.6,4.8,1.1,6.9,1.1c2.6,0,4.4-0.5,5.7-1.5c1.4-0.9,2-2.4,2-4.2c0-1.1-0.3-2-0.9-2.9c-0.6-0.8-1.5-1.7-2.6-2.4
			c-1.2-0.8-3.5-2-6.9-3.6c-3.3-1.5-5.7-3-7.4-4.4c-1.7-1.4-3-3-3.9-5c-0.9-2-1.5-4.1-1.5-6.6c0-4.8,1.7-8.4,4.8-11.2
			c3.2-2.7,7.7-4.1,13.4-4.1c2.9,0,5.4,0.3,8,1.1c2.6,0.6,5.1,1.7,8,2.9l-3.6,8.9c-2.9-1.2-5.3-2-7.1-2.4c-1.8-0.5-3.8-0.8-5.6-0.8
			c-2.1,0-3.8,0.5-5,1.5c-1.2,1.1-1.7,2.3-1.7,3.9c0,1.1,0.3,1.8,0.8,2.6s1.2,1.5,2.3,2.1c1.1,0.6,3.5,2,7.2,3.8
			c5,2.4,8.4,4.8,10.4,7.2C639.4,511.7,640.3,514.6,640.3,518.2z"/>
		<path d="M666.6,524.8c2,0,4.4-0.5,7.1-1.4v8.3c-2.9,1.2-6.2,1.8-10.3,1.8c-4.5,0-7.7-1.2-9.8-3.5s-3-5.7-3-10.3v-19.5h-5.4v-4.8
			l6.2-3.8l3.2-8.7h7.2v8.7h11.5v8.4h-11.5V520c0,1.7,0.5,2.7,1.4,3.5C663.9,524.5,665.1,524.8,666.6,524.8z"/>
		<path d="M708.1,533.1l-2.1-5.6h-0.3c-2,2.4-3.8,4.1-5.9,5c-2,0.9-4.7,1.4-7.8,1.4c-3.9,0-7.1-1.1-9.4-3.3
			c-2.3-2.3-3.5-5.4-3.5-9.7c0-4.4,1.5-7.5,4.5-9.7c3-2.1,7.7-3.2,13.9-3.5l7.1-0.2v-1.8c0-4.2-2.1-6.2-6.3-6.2
			c-3.3,0-7.1,1.1-11.6,3l-3.8-7.5c4.7-2.4,10-3.8,15.7-3.8c5.6,0,9.8,1.2,12.7,3.6c2.9,2.4,4.4,6,4.4,11v27.4h-7.5V533.1z
			 M704.7,514l-4.4,0.2c-3.3,0.2-5.7,0.8-7.2,1.8c-1.7,1.1-2.4,2.7-2.4,5c0,3.2,1.8,4.7,5.4,4.7c2.6,0,4.7-0.8,6.2-2.3
			s2.3-3.5,2.3-5.9V514H704.7z"/>
		<path d="M750.3,491.2c1.5,0,2.7,0.2,3.8,0.3l-0.9,10.6c-0.9-0.3-2-0.3-3.3-0.3c-3.6,0-6.3,0.9-8.3,2.7s-3,4.4-3,7.7v21h-11.2
			v-41.2h8.4l1.7,6.9h0.6c1.2-2.3,3-4.2,5.1-5.6C745.5,491.9,747.7,491.2,750.3,491.2z"/>
		<path d="M778.9,524.8c2,0,4.4-0.5,7.1-1.4v8.3c-2.9,1.2-6.2,1.8-10.3,1.8c-4.5,0-7.7-1.2-9.8-3.5s-3-5.7-3-10.3v-19.5h-5.4v-4.8
			l6.2-3.8l3.2-8.7h7.2v8.7h11.5v8.4h-11.5V520c0,1.7,0.5,2.7,1.4,3.5C776.2,524.5,777.4,524.8,778.9,524.8z"/>
		<path d="M823.4,533.1l-1.5-5.3h-0.6c-1.2,2-2.9,3.3-5.1,4.4s-4.7,1.5-7.5,1.5c-4.8,0-8.4-1.4-10.9-3.9s-3.6-6.3-3.6-11.2v-26.7
			h11.2v24c0,3,0.5,5.1,1.5,6.6c1.1,1.5,2.7,2.3,5,2.3c3.2,0,5.4-1.1,6.8-3.2c1.4-2.1,2.1-5.6,2.1-10.4v-19.3h11.2v41.2H823.4
			L823.4,533.1z"/>
		<path d="M866.3,533.9c-4.8,0-8.6-1.8-11.3-5.3h-0.6c0.5,3.5,0.6,5.4,0.6,5.9v16.6h-11.2v-59.1h9l1.5,5.3h0.5c2.6-4.1,6.5-6,11.6-6
			c4.8,0,8.6,1.8,11.5,5.6c2.9,3.8,4.1,8.9,4.1,15.7c0,4.4-0.6,8.1-2,11.5c-1.4,3.2-3.2,5.7-5.4,7.4
			C872.3,533,869.6,533.9,866.3,533.9z M863.1,500.1c-2.7,0-4.8,0.9-6,2.6c-1.2,1.7-2,4.5-2,8.4v1.2c0,4.4,0.6,7.5,2,9.5
			c1.4,2,3.3,2.9,6.2,2.9c5,0,7.5-4.1,7.5-12.4c0-4.1-0.6-7.1-1.8-9C867.8,501.3,865.6,500.1,863.1,500.1z"/>
	</g>
	<g>
		<path fill="#FFFFFF" d="M177.2,515.2c0,4.8-1.8,8.7-5.3,11.5c-3.5,2.9-8.3,4.2-14.6,4.2c-5.7,0-10.9-1.1-15.2-3.2v-10.6
			c3.6,1.7,6.6,2.7,9.2,3.5c2.6,0.6,4.8,1.1,6.9,1.1c2.6,0,4.4-0.5,5.7-1.5c1.4-0.9,2-2.4,2-4.2c0-1.1-0.3-2-0.9-2.9
			c-0.6-0.8-1.5-1.7-2.6-2.4c-1.2-0.8-3.5-2-6.9-3.6c-3.3-1.5-5.7-3-7.4-4.4c-1.7-1.4-3-3-3.9-5c-0.9-2-1.5-4.1-1.5-6.6
			c0-4.8,1.7-8.4,4.8-11.2c3.2-2.7,7.7-4.1,13.4-4.1c2.9,0,5.4,0.3,8,1.1c2.6,0.6,5.1,1.7,8,2.9l-3.6,8.9c-2.9-1.2-5.3-2-7.1-2.4
			c-1.8-0.5-3.8-0.8-5.6-0.8c-2.1,0-3.8,0.5-5,1.5s-1.7,2.3-1.7,3.9c0,1.1,0.3,1.8,0.8,2.6c0.5,0.8,1.2,1.5,2.3,2.1s3.5,2,7.2,3.8
			c5,2.4,8.4,4.8,10.4,7.2C176.1,508.7,177.2,511.5,177.2,515.2z"/>
		<path fill="#FFFFFF" d="M185.5,478.4c0-3.6,2-5.4,6-5.4c4.1,0,6,1.8,6,5.4c0,1.8-0.5,3.2-1.5,4.1c-1.1,0.9-2.6,1.5-4.5,1.5
			C187.6,483.8,185.5,482,185.5,478.4z M197.3,530.1h-11.3v-41.2h11.2v41.2H197.3z"/>
		<path fill="#FFFFFF" d="M244.8,488.9v5.7l-6.5,1.7c1.2,1.8,1.8,3.9,1.8,6.2c0,4.4-1.5,7.8-4.7,10.3c-3,2.4-7.4,3.6-12.8,3.6
			l-2-0.2l-1.7-0.2c-1.2,0.9-1.7,1.8-1.7,3c0,1.7,2.1,2.4,6.2,2.4h6.9c4.5,0,8,0.9,10.3,2.9c2.4,2,3.6,4.8,3.6,8.6
			c0,4.8-2,8.6-6,11.2c-4.1,2.7-9.8,3.9-17.2,3.9c-5.7,0-10.1-1.1-13.1-3c-3-2-4.5-4.8-4.5-8.4c0-2.4,0.8-4.5,2.3-6.2
			c1.5-1.7,3.8-2.9,6.8-3.6c-1.2-0.5-2.1-1.4-3-2.4c-0.9-1.1-1.4-2.3-1.4-3.6c0-1.5,0.5-2.9,1.4-3.9c0.9-1.1,2.3-2.1,3.9-3
			c-2.1-0.9-3.9-2.4-5.1-4.5c-1.2-2.1-2-4.5-2-7.2c0-4.5,1.5-8,4.4-10.4s7.1-3.6,12.5-3.6c1.2,0,2.6,0.2,4.1,0.3
			c1.5,0.2,2.6,0.3,3,0.5h14.5V488.9z M213.1,535.8c0,1.5,0.8,2.7,2.3,3.6c1.5,0.9,3.6,1.4,6.2,1.4c4.1,0,7.2-0.6,9.5-1.7
			s3.5-2.6,3.5-4.5c0-1.5-0.6-2.6-2-3.2c-1.4-0.6-3.5-0.9-6.2-0.9h-5.9c-2.1,0-3.8,0.5-5.1,1.5S213.1,534.3,213.1,535.8z
			 M217.2,502.3c0,2.3,0.5,3.9,1.5,5.3c1.1,1.4,2.6,2,4.7,2c2.1,0,3.6-0.6,4.7-2c0.9-1.4,1.5-3,1.5-5.3c0-5-2-7.4-6-7.4
			C219.1,495,217.2,497.4,217.2,502.3z"/>
		<path fill="#FFFFFF" d="M289.4,530.1h-11.2V506c0-3-0.5-5.1-1.5-6.6c-1.1-1.5-2.7-2.3-5-2.3c-3.2,0-5.4,1.1-6.8,3.2
			c-1.4,2.1-2.1,5.6-2.1,10.4v19.3h-11.2v-41h8.6l1.5,5.3h0.6c1.2-2,3-3.5,5.1-4.5c2.3-1.1,4.7-1.5,7.5-1.5c4.8,0,8.4,1.4,10.9,3.9
			c2.4,2.6,3.8,6.3,3.8,11.2v26.8H289.4z"/>
		<path fill="#FFFFFF" d="M349.7,530.1l-1.5-5.3h-0.6c-1.2,2-2.9,3.3-5.1,4.4s-4.7,1.5-7.5,1.5c-4.8,0-8.4-1.4-10.9-3.9
			c-2.4-2.6-3.6-6.3-3.6-11.2v-26.7h11.2v24c0,3,0.5,5.1,1.5,6.6c1.1,1.5,2.7,2.3,5,2.3c3.2,0,5.4-1.1,6.8-3.2
			c1.4-2.1,2.1-5.6,2.1-10.4v-19.3h11.2v41.2L349.7,530.1L349.7,530.1z"/>
		<path fill="#FFFFFF" d="M392.6,530.9c-4.8,0-8.6-1.8-11.3-5.3h-0.6c0.5,3.5,0.6,5.4,0.6,5.9V548h-11.2v-59.1h9l1.5,5.3h0.5
			c2.6-4.1,6.5-6,11.6-6c4.8,0,8.6,1.8,11.5,5.6c2.9,3.8,4.1,8.9,4.1,15.7c0,4.4-0.6,8.1-2,11.5c-1.4,3.2-3.2,5.7-5.4,7.4
			C398.6,529.9,395.9,530.9,392.6,530.9z M389.2,497.1c-2.7,0-4.8,0.9-6,2.6c-1.2,1.7-2,4.5-2,8.4v1.2c0,4.4,0.6,7.5,2,9.5
			c1.4,2,3.3,2.9,6.2,2.9c5,0,7.5-4.1,7.5-12.4c0-4.1-0.6-7.1-1.8-9C393.9,498.3,392,497.1,389.2,497.1z"/>
		<path fill="#FFFFFF" d="M463.3,530.1l-2.1-5.6h-0.3c-2,2.4-3.8,4.1-5.9,5c-2,0.9-4.7,1.4-7.8,1.4c-3.9,0-7.1-1.1-9.4-3.3
			c-2.3-2.3-3.5-5.4-3.5-9.7c0-4.4,1.5-7.5,4.5-9.7c3-2.1,7.7-3.2,13.9-3.5l7.1-0.2v-1.8c0-4.2-2.1-6.2-6.3-6.2
			c-3.3,0-7.1,1.1-11.6,3l-3.8-7.5c4.7-2.4,10-3.8,15.7-3.8c5.6,0,9.8,1.2,12.7,3.6s4.4,6,4.4,11v27.4h-7.5V530.1z M460,510.9
			l-4.4,0.2c-3.3,0.2-5.7,0.8-7.2,1.8c-1.7,1.1-2.4,2.7-2.4,5c0,3.2,1.8,4.7,5.4,4.7c2.6,0,4.7-0.8,6.2-2.3c1.5-1.5,2.3-3.5,2.3-5.9
			v-3.5H460z"/>
		<path fill="#FFFFFF" d="M511.4,517.9c0,4.2-1.5,7.4-4.4,9.7c-2.9,2.3-7.2,3.3-13.1,3.3c-3,0-5.6-0.2-7.7-0.6
			c-2.1-0.5-4.1-1.1-5.9-1.8v-9.2c2.1,1.1,4.4,1.8,7.1,2.4c2.7,0.6,5,1.1,6.9,1.1c4.1,0,6-1.2,6-3.5c0-0.9-0.3-1.7-0.8-2.1
			c-0.6-0.6-1.5-1.2-2.9-1.8c-1.4-0.6-3-1.5-5.3-2.4c-3.2-1.4-5.4-2.6-6.9-3.6c-1.5-1.1-2.6-2.4-3.2-3.9c-0.6-1.5-1.1-3.3-1.1-5.4
			c0-3.6,1.4-6.5,4.2-8.4s6.8-3,12.1-3c5,0,9.8,1.1,14.5,3.2l-3.3,8.1c-2.1-0.9-3.9-1.7-5.7-2.1c-1.8-0.6-3.6-0.9-5.4-0.9
			c-3.3,0-5,0.9-5,2.7c0,1.1,0.6,1.8,1.7,2.6s3.5,1.8,6.9,3.3c3.2,1.4,5.6,2.6,7.1,3.6c1.5,1.1,2.6,2.4,3.3,3.9
			C511.4,514.4,511.4,515.8,511.4,517.9z"/>
		<path fill="#FFFFFF" d="M565.8,530.1l-2.1-5.6h-0.3c-2,2.4-3.8,4.1-5.9,5c-2,0.9-4.7,1.4-7.8,1.4c-3.9,0-7.1-1.1-9.4-3.3
			s-3.5-5.4-3.5-9.7c0-4.4,1.5-7.5,4.5-9.7c3-2.1,7.7-3.2,13.9-3.5l7.1-0.2v-1.8c0-4.2-2.1-6.2-6.3-6.2c-3.3,0-7.1,1.1-11.6,3
			l-3.8-7.5c4.7-2.4,10-3.8,15.7-3.8c5.6,0,9.8,1.2,12.7,3.6c2.9,2.4,4.4,6,4.4,11v27.4h-7.5V530.1z M562.5,510.9l-4.4,0.2
			c-3.3,0.2-5.7,0.8-7.2,1.8c-1.7,1.1-2.4,2.7-2.4,5c0,3.2,1.8,4.7,5.4,4.7c2.6,0,4.7-0.8,6.2-2.3c1.5-1.5,2.3-3.5,2.3-5.9v-3.5
			H562.5z"/>
		<path fill="#FFFFFF" d="M637.3,515.2c0,4.8-1.8,8.7-5.3,11.5c-3.5,2.9-8.3,4.2-14.6,4.2c-5.7,0-10.9-1.1-15.2-3.2v-10.6
			c3.6,1.7,6.6,2.7,9.2,3.5c2.6,0.6,4.8,1.1,6.9,1.1c2.6,0,4.4-0.5,5.7-1.5c1.4-0.9,2-2.4,2-4.2c0-1.1-0.3-2-0.9-2.9
			c-0.6-0.8-1.5-1.7-2.6-2.4c-1.2-0.8-3.5-2-6.9-3.6c-3.3-1.5-5.7-3-7.4-4.4c-1.7-1.4-3-3-3.9-5c-0.9-2-1.5-4.1-1.5-6.6
			c0-4.8,1.7-8.4,4.8-11.2c3.2-2.7,7.7-4.1,13.4-4.1c2.9,0,5.4,0.3,8,1.1c2.6,0.6,5.1,1.7,8,2.9l-3.6,8.9c-2.9-1.2-5.3-2-7.1-2.4
			s-3.8-0.8-5.6-0.8c-2.1,0-3.8,0.5-5,1.5s-1.7,2.3-1.7,3.9c0,1.1,0.3,1.8,0.8,2.6c0.5,0.8,1.2,1.5,2.3,2.1c1.1,0.6,3.5,2,7.2,3.8
			c5,2.4,8.4,4.8,10.4,7.2C636.4,508.7,637.3,511.5,637.3,515.2z"/>
		<path fill="#FFFFFF" d="M663.6,521.8c2,0,4.4-0.5,7.1-1.4v8.3c-2.9,1.2-6.2,1.8-10.3,1.8c-4.5,0-7.7-1.2-9.8-3.5s-3-5.7-3-10.3
			v-19.5h-5.4v-4.8l6.2-3.8l3.2-8.7h7.2v8.7h11.5v8.4h-11.5V517c0,1.7,0.5,2.7,1.4,3.5C660.8,521.5,662.1,521.8,663.6,521.8z"/>
		<path fill="#FFFFFF" d="M705,530.1l-2.1-5.6h-0.3c-2,2.4-3.8,4.1-5.9,5c-2,0.9-4.7,1.4-7.8,1.4c-3.9,0-7.1-1.1-9.4-3.3
			c-2.3-2.3-3.5-5.4-3.5-9.7c0-4.4,1.5-7.5,4.5-9.7c3-2.1,7.7-3.2,13.9-3.5l7.1-0.2v-1.8c0-4.2-2.1-6.2-6.3-6.2
			c-3.3,0-7.1,1.1-11.6,3l-3.8-7.5c4.7-2.4,10-3.8,15.7-3.8c5.6,0,9.8,1.2,12.7,3.6s4.4,6,4.4,11v27.4H705V530.1z M701.7,510.9
			l-4.4,0.2c-3.3,0.2-5.7,0.8-7.2,1.8c-1.7,1.1-2.4,2.7-2.4,5c0,3.2,1.8,4.7,5.4,4.7c2.6,0,4.7-0.8,6.2-2.3c1.5-1.5,2.3-3.5,2.3-5.9
			v-3.5H701.7z"/>
		<path fill="#FFFFFF" d="M747.3,488.2c1.5,0,2.7,0.2,3.8,0.3l-0.9,10.6c-0.9-0.3-2-0.3-3.3-0.3c-3.6,0-6.3,0.9-8.3,2.7
			s-3,4.4-3,7.7v21h-11.2v-41.2h8.4l1.7,6.9h0.6c1.2-2.3,3-4.2,5.1-5.6C742.4,488.9,744.7,488.2,747.3,488.2z"/>
		<path fill="#FFFFFF" d="M775.9,521.8c2,0,4.4-0.5,7.1-1.4v8.3c-2.9,1.2-6.2,1.8-10.3,1.8c-4.5,0-7.7-1.2-9.8-3.5
			c-2.1-2.3-3-5.7-3-10.3v-19.5h-5.4v-4.8l6.2-3.8l3.2-8.7h7.2v8.7h11.5v8.4h-11.5V517c0,1.7,0.5,2.7,1.4,3.5
			C773.2,521.5,774.4,521.8,775.9,521.8z"/>
		<path fill="#FFFFFF" d="M820.4,530.1l-1.5-5.3h-0.6c-1.2,2-2.9,3.3-5.1,4.4s-4.7,1.5-7.5,1.5c-4.8,0-8.4-1.4-10.9-3.9
			c-2.4-2.6-3.6-6.3-3.6-11.2v-26.7h11.2v24c0,3,0.5,5.1,1.5,6.6c1.1,1.5,2.7,2.3,5,2.3c3.2,0,5.4-1.1,6.8-3.2
			c1.4-2.1,2.1-5.6,2.1-10.4v-19.3h11.2v41.2L820.4,530.1L820.4,530.1z"/>
		<path fill="#FFFFFF" d="M863.2,530.9c-4.8,0-8.6-1.8-11.3-5.3h-0.6c0.5,3.5,0.6,5.4,0.6,5.9V548h-11.2v-59.1h9l1.5,5.3h0.5
			c2.6-4.1,6.5-6,11.6-6c4.8,0,8.6,1.8,11.5,5.6c2.9,3.8,4.1,8.9,4.1,15.7c0,4.4-0.6,8.1-2,11.5c-1.4,3.2-3.2,5.7-5.4,7.4
			S866.6,530.9,863.2,530.9z M860.1,497.1c-2.7,0-4.8,0.9-6,2.6c-1.2,1.7-2,4.5-2,8.4v1.2c0,4.4,0.6,7.5,2,9.5
			c1.4,2,3.3,2.9,6.2,2.9c5,0,7.5-4.1,7.5-12.4c0-4.1-0.6-7.1-1.8-9C864.7,498.3,862.6,497.1,860.1,497.1z"/>
	</g>
</g>
<path filter="url(#AI_GaussianBlur_7)" d="M999.9,620.3H24.1V403.7h975.9V620.3z M41.1,603.2h941.8V420.8H41.1V603.2z"/>
<path fill="#FFFFFF" d="M999.8,620.3H24.1V403.7h975.9v216.6H999.8z M40.9,603.2h941.8V420.8H40.9V603.2z"/>
</svg>
